*
*
G04 PADS 9.5 Build Number: 522968 generated Gerber (RS-274-X) file*
G04 PC Version=2.1*
*
%IN "V2.0.pcb"*%
*
%MOIN*%
*
%FSLAX35Y35*%
*
*
*
*
G04 PC Standard Apertures*
*
*
G04 Thermal Relief Aperture macro.*
%AMTER*
1,1,$1,0,0*
1,0,$1-$2,0,0*
21,0,$3,$4,0,0,45*
21,0,$3,$4,0,0,135*
%
*
*
G04 Annular Aperture macro.*
%AMANN*
1,1,$1,0,0*
1,0,$2,0,0*
%
*
*
G04 Odd Aperture macro.*
%AMODD*
1,1,$1,0,0*
1,0,$1-0.005,0,0*
%
*
*
G04 PC Custom Aperture Macros*
*
*
*
*
*
*
G04 PC Aperture Table*
*
%ADD010C,0.001*%
%ADD026C,0.01*%
*
*
*
*
G04 PC Circuitry*
G04 Layer Name V2.0.pcb - circuitry*
%LPD*%
*
*
G04 PC Custom Flashes*
G04 Layer Name V2.0.pcb - flashes*
%LPD*%
*
*
G04 PC Circuitry*
G04 Layer Name V2.0.pcb - circuitry*
%LPD*%
*
G54D10*
G01X1836614Y1982677D02*
X1836617D01*
X2100394Y1950787D02*
X2100396D01*
X1885039Y1854331D02*
X1885042D01*
X1902756Y2082677D02*
X1902759D01*
G54D26*
X1868047Y1984189D02*
X1876047D01*
Y1992189*
X1868047*
Y1984189*
X1872047Y1988189D02*
Y1992189D01*
X1848362Y1984189D02*
X1856362D01*
Y1992189*
X1848362*
Y1984189*
X1852362Y1988189D02*
Y1992189D01*
X2060961Y1984189D02*
X2068961D01*
Y1992189*
X2060961*
Y1984189*
X2064961Y1988189D02*
Y1992189D01*
X2080646Y1984189D02*
X2088646D01*
Y1992189*
X2080646*
Y1984189*
X2084646Y1988189D02*
Y1992189D01*
X1868047Y2031433D02*
X1876047D01*
Y2039433*
X1868047*
Y2031433*
X1872047Y2035433D02*
Y2039433D01*
X1848362Y2031433D02*
X1856362D01*
Y2039433*
X1848362*
Y2031433*
X1852362Y2035433D02*
Y2039433D01*
X2060961Y2031433D02*
X2068961D01*
Y2039433*
X2060961*
Y2031433*
X2064961Y2035433D02*
Y2039433D01*
X2080646Y2031433D02*
X2088646D01*
Y2039433*
X2080646*
Y2031433*
X2084646Y2035433D02*
Y2039433D01*
X1877890Y1932929D02*
X1885890Y1940929D01*
Y1932929*
X1877890Y1940929*
Y1932929*
Y1917339D02*
X1885890Y1925339D01*
Y1917339*
X1877890Y1925339*
Y1917339*
X2051118D02*
X2059118Y1925339D01*
Y1917339*
X2051118Y1925339*
Y1917339*
Y1932929D02*
X2059118Y1940929D01*
Y1932929*
X2051118Y1940929*
Y1932929*
X1931039Y1860173D02*
X1939039Y1868173D01*
X1931039D02*
X1939039Y1860173D01*
X1921197D02*
X1929197Y1868173D01*
X1921197D02*
X1929197Y1860173D01*
X1911354D02*
X1919354Y1868173D01*
X1911354D02*
X1919354Y1860173D01*
X1873953Y1866142D02*
X1881953D01*
X1877953Y1862142D02*
Y1870142D01*
X1883953Y1866142D02*
X1891953D01*
X1887953Y1862142D02*
Y1870142D01*
X2060961Y1860173D02*
X2068961D01*
Y1868173*
X2060961*
Y1860173*
X2064961Y1864173D02*
Y1868173D01*
X1930118Y1871000D02*
X1934118Y1875000D01*
X1930118Y1879000*
X1926118Y1875000*
X1930118Y1871000*
Y1875000D02*
Y1879000D01*
Y1876906D02*
X1934118Y1880906D01*
X1930118Y1884906*
X1926118Y1880906*
X1930118Y1876906*
Y1880906D02*
Y1884906D01*
X1968441Y1875921D02*
X1976441D01*
Y1883921*
X1968441*
Y1875921*
X1972441Y1879921D02*
Y1883921D01*
X2060961Y1883795D02*
X2068961D01*
Y1891795*
X2060961*
Y1883795*
X2064961Y1887795D02*
Y1891795D01*
X2076709Y1883795D02*
X2084709D01*
Y1891795*
X2076709*
Y1883795*
X2080709Y1887795D02*
Y1891795D01*
X1930118Y1894622D02*
X1934118Y1898622D01*
X1930118Y1902622*
X1926118Y1898622*
X1930118Y1894622*
Y1898622D02*
Y1902622D01*
X2068835Y1891669D02*
X2076835D01*
Y1899669*
X2068835*
Y1891669*
X2072835Y1895669D02*
Y1899669D01*
X1866079Y1903480D02*
X1874079D01*
Y1911480*
X1866079*
Y1903480*
X1870079Y1907480D02*
Y1911480D01*
X1903543Y1902496D02*
X1907543Y1906496D01*
X1903543Y1910496*
X1899543Y1906496*
X1903543Y1902496*
Y1906496D02*
Y1910496D01*
X1990157Y1901512D02*
X1994157Y1905512D01*
X1990157Y1909512*
X1986157Y1905512*
X1990157Y1901512*
Y1905512D02*
Y1909512D01*
X2039370Y1895606D02*
X2043370Y1899606D01*
X2039370Y1903606*
X2035370Y1899606*
X2039370Y1895606*
Y1899606D02*
Y1903606D01*
X2060961Y1899543D02*
X2068961D01*
Y1907543*
X2060961*
Y1899543*
X2064961Y1903543D02*
Y1907543D01*
X2076709Y1899543D02*
X2084709D01*
Y1907543*
X2076709*
Y1899543*
X2080709Y1903543D02*
Y1907543D01*
X1929134Y1907417D02*
X1933134Y1911417D01*
X1929134Y1915417*
X1925134Y1911417*
X1929134Y1907417*
Y1911417D02*
Y1915417D01*
X1956693Y1909386D02*
X1960693Y1913386D01*
X1956693Y1917386*
X1952693Y1913386*
X1956693Y1909386*
Y1913386D02*
Y1917386D01*
X1956630Y1905449D02*
X1964630D01*
Y1913449*
X1956630*
Y1905449*
X1960630Y1909449D02*
Y1913449D01*
X1964567Y1909386D02*
X1968567Y1913386D01*
X1964567Y1917386*
X1960567Y1913386*
X1964567Y1909386*
Y1913386D02*
Y1917386D01*
X1956630Y1913323D02*
X1964630D01*
Y1921323*
X1956630*
Y1913323*
X1960630Y1917323D02*
Y1921323D01*
X2068835Y1909386D02*
X2076835D01*
X2068835Y1917386*
X2076835*
X2068835Y1909386*
X2076709D02*
X2084709D01*
X2076709Y1917386*
X2084709*
X2076709Y1909386*
X1846394Y1917260D02*
X1854394D01*
Y1925260*
X1846394*
Y1917260*
X1850394Y1921260D02*
Y1925260D01*
X1998031Y1915291D02*
X2002031Y1919291D01*
X1998031Y1923291*
X1994031Y1919291*
X1998031Y1915291*
Y1919291D02*
Y1923291D01*
X2029465Y1915291D02*
X2037465D01*
X2029465Y1923291*
X2037465*
X2029465Y1915291*
X2068835Y1917260D02*
X2076835D01*
X2068835Y1925260*
X2076835*
X2068835Y1917260*
X2076709D02*
X2084709D01*
X2076709Y1925260*
X2084709*
X2076709Y1917260*
X1846394Y1933008D02*
X1854394D01*
Y1941008*
X1846394*
Y1933008*
X1850394Y1937008D02*
Y1941008D01*
X1948425Y1929858D02*
X1952425Y1933858D01*
X1948425Y1937858*
X1944425Y1933858*
X1948425Y1929858*
Y1933858D02*
Y1937858D01*
X1972441Y1933008D02*
X1976441Y1937008D01*
X1972441Y1941008*
X1968441Y1937008*
X1972441Y1933008*
Y1937008D02*
Y1941008D01*
X1976378Y1929071D02*
X1980378Y1933071D01*
X1976378Y1937071*
X1972378Y1933071*
X1976378Y1929071*
Y1933071D02*
Y1937071D01*
X1986220Y1925134D02*
X1990220Y1929134D01*
X1986220Y1933134*
X1982220Y1929134*
X1986220Y1925134*
Y1929134D02*
Y1933134D01*
Y1933008D02*
X1990220Y1937008D01*
X1986220Y1941008*
X1982220Y1937008*
X1986220Y1933008*
Y1937008D02*
Y1941008D01*
X2037339Y1927102D02*
X2045339D01*
X2037339Y1935102*
X2045339*
X2037339Y1927102*
X2060961Y1933008D02*
X2068961D01*
X2060961Y1941008*
X2068961*
X2060961Y1933008*
X2068835Y1925134D02*
X2076835D01*
X2068835Y1933134*
X2076835*
X2068835Y1925134*
Y1933008D02*
X2076835D01*
X2068835Y1941008*
X2076835*
X2068835Y1933008*
X2076709Y1925134D02*
X2084709D01*
X2076709Y1933134*
X2084709*
X2076709Y1925134*
Y1933008D02*
X2084709D01*
X2076709Y1941008*
X2084709*
X2076709Y1933008*
X1940945Y1942850D02*
X1944945Y1946850D01*
X1940945Y1950850*
X1936945Y1946850*
X1940945Y1942850*
Y1946850D02*
Y1950850D01*
X1950787Y1934976D02*
X1954787Y1938976D01*
X1950787Y1942976*
X1946787Y1938976*
X1950787Y1934976*
Y1938976D02*
Y1942976D01*
X1976378Y1934976D02*
X1980378Y1938976D01*
X1976378Y1942976*
X1972378Y1938976*
X1976378Y1934976*
Y1938976D02*
Y1942976D01*
X1972441Y1938913D02*
X1976441Y1942913D01*
X1972441Y1946913*
X1968441Y1942913*
X1972441Y1938913*
Y1942913D02*
Y1946913D01*
X1976378Y1940882D02*
X1980378Y1944882D01*
X1976378Y1948882*
X1972378Y1944882*
X1976378Y1940882*
Y1944882D02*
Y1948882D01*
X2029465Y1942850D02*
X2037465D01*
X2029465Y1950850*
X2037465*
X2029465Y1942850*
X2037339Y1936945D02*
X2045339D01*
X2037339Y1944945*
X2045339*
X2037339Y1936945*
X1935039Y1948756D02*
X1939039Y1952756D01*
X1935039Y1956756*
X1931039Y1952756*
X1935039Y1948756*
Y1952756D02*
Y1956756D01*
X1952693Y1952693D02*
X1960693D01*
X1952693Y1960693*
X1960693*
X1952693Y1952693*
X1948819Y1950724D02*
X1952819Y1954724D01*
X1948819Y1958724*
X1944819Y1954724*
X1948819Y1950724*
Y1954724D02*
Y1958724D01*
X1960567Y1952693D02*
X1968567D01*
X1960567Y1960693*
X1968567*
X1960567Y1952693*
X1972441Y1944819D02*
X1976441Y1948819D01*
X1972441Y1952819*
X1968441Y1948819*
X1972441Y1944819*
Y1948819D02*
Y1952819D01*
X1982283Y1952693D02*
X1986283Y1956693D01*
X1982283Y1960693*
X1978283Y1956693*
X1982283Y1952693*
Y1956693D02*
Y1960693D01*
X2029465Y1954661D02*
X2037465D01*
X2029465Y1962661*
X2037465*
X2029465Y1954661*
Y1948756D02*
X2037465D01*
X2029465Y1956756*
X2037465*
X2029465Y1948756*
X1903480Y1958598D02*
X1911480D01*
Y1966598*
X1903480*
Y1958598*
X1907480Y1962598D02*
Y1966598D01*
X1923165Y1958598D02*
X1931165D01*
Y1966598*
X1923165*
Y1958598*
X1927165Y1962598D02*
Y1966598D01*
X1974409Y1962535D02*
X1978409Y1966535D01*
X1974409Y1970535*
X1970409Y1966535*
X1974409Y1962535*
Y1966535D02*
Y1970535D01*
X1978346Y1956630D02*
X1982346Y1960630D01*
X1978346Y1964630*
X1974346Y1960630*
X1978346Y1956630*
Y1960630D02*
Y1964630D01*
X1982283Y1962535D02*
X1986283Y1966535D01*
X1982283Y1970535*
X1978283Y1966535*
X1982283Y1962535*
Y1966535D02*
Y1970535D01*
X2003937Y1962535D02*
X2007937Y1966535D01*
X2003937Y1970535*
X1999937Y1966535*
X2003937Y1962535*
Y1966535D02*
Y1970535D01*
X2029465Y1962535D02*
X2037465D01*
X2029465Y1970535*
X2037465*
X2029465Y1962535*
X2053087Y1958598D02*
X2061087D01*
Y1966598*
X2053087*
Y1958598*
X2057087Y1962598D02*
Y1966598D01*
X2068835Y1958598D02*
X2076835D01*
Y1966598*
X2068835*
Y1958598*
X2072835Y1962598D02*
Y1966598D01*
X1913323Y1968441D02*
X1921323D01*
Y1976441*
X1913323*
Y1968441*
X1917323Y1972441D02*
Y1976441D01*
X2029465Y1968441D02*
X2037465D01*
X2029465Y1976441*
X2037465*
X2029465Y1968441*
X2088520Y1970409D02*
X2096520D01*
Y1978409*
X2088520*
Y1970409*
X2092520Y1974409D02*
Y1978409D01*
X1903480Y1976315D02*
X1911480D01*
Y1984315*
X1903480*
Y1976315*
X1907480Y1980315D02*
Y1984315D01*
X1923165Y1976315D02*
X1931165D01*
Y1984315*
X1923165*
Y1976315*
X1927165Y1980315D02*
Y1984315D01*
X2005906Y1982220D02*
X2009906Y1986220D01*
X2005906Y1990220*
X2001906Y1986220*
X2005906Y1982220*
Y1986220D02*
Y1990220D01*
X2033402Y1984189D02*
X2041402D01*
X2033402Y1992189*
X2041402*
X2033402Y1984189*
X2041276D02*
X2049276D01*
X2041276Y1992189*
X2049276*
X2041276Y1984189*
X2049150D02*
X2057150D01*
X2049150Y1992189*
X2057150*
X2049150Y1984189*
X1917260Y1994031D02*
X1925260D01*
Y2002031*
X1917260*
Y1994031*
X1921260Y1998031D02*
Y2002031D01*
X1931039Y1994031D02*
X1939039D01*
Y2002031*
X1931039*
Y1994031*
X1935039Y1998031D02*
Y2002031D01*
X1964567Y1988126D02*
X1968567Y1992126D01*
X1964567Y1996126*
X1960567Y1992126*
X1964567Y1988126*
Y1992126D02*
Y1996126D01*
X1972441Y1988126D02*
X1976441Y1992126D01*
X1972441Y1996126*
X1968441Y1992126*
X1972441Y1988126*
Y1992126D02*
Y1996126D01*
X1980315Y1988126D02*
X1984315Y1992126D01*
X1980315Y1996126*
X1976315Y1992126*
X1980315Y1988126*
Y1992126D02*
Y1996126D01*
X1988189Y1988126D02*
X1992189Y1992126D01*
X1988189Y1996126*
X1984189Y1992126*
X1988189Y1988126*
Y1992126D02*
Y1996126D01*
X1996063Y1988126D02*
X2000063Y1992126D01*
X1996063Y1996126*
X1992063Y1992126*
X1996063Y1988126*
Y1992126D02*
Y1996126D01*
X2057024Y1994031D02*
X2065024D01*
X2057024Y2002031*
X2065024*
X2057024Y1994031*
X2064898D02*
X2072898D01*
X2064898Y2002031*
X2072898*
X2064898Y1994031*
X1903480Y2003874D02*
X1911480D01*
Y2011874*
X1903480*
Y2003874*
X1907480Y2007874D02*
Y2011874D01*
X1946787Y2003874D02*
X1954787D01*
Y2011874*
X1946787*
Y2003874*
X1950787Y2007874D02*
Y2011874D01*
X2057024Y2003874D02*
X2065024D01*
X2057024Y2011874*
X2065024*
X2057024Y2003874*
X2064898D02*
X2072898D01*
X2064898Y2011874*
X2072898*
X2064898Y2003874*
X2088520Y1996000D02*
X2096520D01*
Y2004000*
X2088520*
Y1996000*
X2092520Y2000000D02*
Y2004000D01*
X1846394Y2007811D02*
X1854394D01*
Y2015811*
X1846394*
Y2007811*
X1850394Y2011811D02*
Y2015811D01*
X1968441Y2005843D02*
X1976441D01*
X1968441Y2013843*
X1976441*
X1968441Y2005843*
X1976378Y2009780D02*
X1980378Y2013780D01*
X1976378Y2017780*
X1972378Y2013780*
X1976378Y2009780*
Y2013780D02*
Y2017780D01*
X1976315Y2013717D02*
X1984315D01*
X1976315Y2021717*
X1984315*
X1976315Y2013717*
Y2005843D02*
X1984315D01*
X1976315Y2013843*
X1984315*
X1976315Y2005843*
X1984252Y2009780D02*
X1988252Y2013780D01*
X1984252Y2017780*
X1980252Y2013780*
X1984252Y2009780*
Y2013780D02*
Y2017780D01*
X1984189Y2005843D02*
X1992189D01*
X1984189Y2013843*
X1992189*
X1984189Y2005843*
X1992063D02*
X2000063D01*
X1992063Y2013843*
X2000063*
X1992063Y2005843*
X1984189Y2013717D02*
X1992189D01*
X1984189Y2021717*
X1992189*
X1984189Y2013717*
X1992126Y2009780D02*
X1996126Y2013780D01*
X1992126Y2017780*
X1988126Y2013780*
X1992126Y2009780*
Y2013780D02*
Y2017780D01*
X1992063Y2013717D02*
X2000063D01*
X1992063Y2021717*
X2000063*
X1992063Y2013717*
X2000000Y2009780D02*
X2004000Y2013780D01*
X2000000Y2017780*
X1996000Y2013780*
X2000000Y2009780*
Y2013780D02*
Y2017780D01*
X2005843Y2013717D02*
X2013843D01*
X2005843Y2021717*
X2013843*
X2005843Y2013717*
X2033402D02*
X2041402D01*
X2033402Y2021717*
X2041402*
X2033402Y2013717*
X2041276D02*
X2049276D01*
X2041276Y2021717*
X2049276*
X2041276Y2013717*
X2049150D02*
X2057150D01*
X2049150Y2021717*
X2057150*
X2049150Y2013717*
X2057024D02*
X2065024D01*
X2057024Y2021717*
X2065024*
X2057024Y2013717*
X2064898D02*
X2072898D01*
X2064898Y2021717*
X2072898*
X2064898Y2013717*
X1897575Y2021591D02*
X1905575D01*
Y2029591*
X1897575*
Y2021591*
X1901575Y2025591D02*
Y2029591D01*
X1913323Y2021591D02*
X1921323D01*
Y2029591*
X1913323*
Y2021591*
X1917323Y2025591D02*
Y2029591D01*
X1929071Y2021591D02*
X1937071D01*
Y2029591*
X1929071*
Y2021591*
X1933071Y2025591D02*
Y2029591D01*
X2088520Y2019622D02*
X2096520D01*
Y2027622*
X2088520*
Y2019622*
X2092520Y2023622D02*
Y2027622D01*
X1907417Y2035370D02*
X1915417D01*
Y2043370*
X1907417*
Y2035370*
X1911417Y2039370D02*
Y2043370D01*
X1923165Y2035370D02*
X1931165D01*
Y2043370*
X1923165*
Y2035370*
X1927165Y2039370D02*
Y2043370D01*
X1938913Y2035370D02*
X1946913D01*
Y2043370*
X1938913*
Y2035370*
X1942913Y2039370D02*
Y2043370D01*
X1962535Y2035370D02*
X1970535D01*
X1962535Y2043370*
X1970535*
X1962535Y2035370*
X1970409D02*
X1978409D01*
X1970409Y2043370*
X1978409*
X1970409Y2035370*
Y2043244D02*
X1978409D01*
X1970409Y2051244*
X1978409*
X1970409Y2043244*
X1978283D02*
X1986283D01*
X1978283Y2051244*
X1986283*
X1978283Y2043244*
Y2035370D02*
X1986283D01*
X1978283Y2043370*
X1986283*
X1978283Y2035370*
X1986157D02*
X1994157D01*
X1986157Y2043370*
X1994157*
X1986157Y2035370*
Y2043244D02*
X1994157D01*
X1986157Y2051244*
X1994157*
X1986157Y2043244*
X1994031Y2035370D02*
X2002031D01*
X1994031Y2043370*
X2002031*
X1994031Y2035370*
Y2043244D02*
X2002031D01*
X1994031Y2051244*
X2002031*
X1994031Y2043244*
X2001906D02*
X2009906D01*
X2001906Y2051244*
X2009906*
X2001906Y2043244*
X2009780D02*
X2017780D01*
X2009780Y2051244*
X2017780*
X2009780Y2043244*
X2033402D02*
X2041402D01*
X2033402Y2051244*
X2041402*
X2033402Y2043244*
X2041276D02*
X2049276D01*
X2041276Y2051244*
X2049276*
X2041276Y2043244*
X2049150D02*
X2057150D01*
X2049150Y2051244*
X2057150*
X2049150Y2043244*
X2057024D02*
X2065024D01*
X2057024Y2051244*
X2065024*
X2057024Y2043244*
X2064898D02*
X2072898D01*
X2064898Y2051244*
X2072898*
X2064898Y2043244*
X2088520D02*
X2096520D01*
Y2051244*
X2088520*
Y2043244*
X2092520Y2047244D02*
Y2051244D01*
X1978283Y2051118D02*
X1986283D01*
X1978283Y2059118*
X1986283*
X1978283Y2051118*
X1986157D02*
X1994157D01*
X1986157Y2059118*
X1994157*
X1986157Y2051118*
X1994031D02*
X2002031D01*
X1994031Y2059118*
X2002031*
X1994031Y2051118*
X2053087D02*
X2061087D01*
X2053087Y2059118*
X2061087*
X2053087Y2051118*
X1917260Y2055055D02*
X1925260D01*
Y2063055*
X1917260*
Y2055055*
X1921260Y2059055D02*
Y2063055D01*
X1929071Y2055055D02*
X1937071D01*
Y2063055*
X1929071*
Y2055055*
X1933071Y2059055D02*
Y2063055D01*
X1966472Y2062929D02*
X1974472D01*
Y2070929*
X1966472*
Y2062929*
X1970472Y2066929D02*
Y2070929D01*
X1905449Y2064898D02*
X1913449D01*
Y2072898*
X1905449*
Y2064898*
X1909449Y2068898D02*
Y2072898D01*
X1944819Y2064898D02*
X1952819D01*
Y2072898*
X1944819*
Y2064898*
X1948819Y2068898D02*
Y2072898D01*
X1836614Y1866142D02*
G75*
G03X1848425Y1854331I11811J-0D01*
G01X2088583*
G03X2100394Y1866142I-0J11811*
G01Y2070866*
G03X2088583Y2082677I-11811J0*
G01X1848425*
G03X1836614Y2070866I0J-11811*
G01Y1866142*
X1855118Y2070472D02*
G03X1855118I-6693J0D01*
G01X2095276D02*
G03X2095276I-6693J0D01*
G01X1855118Y1866535D02*
G03X1855118I-6693J0D01*
G01X2095276D02*
G03X2095276I-6693J0D01*
G01X1836614Y2124803D02*
X1950049D01*
X1836614D02*
X1846614Y2127303D01*
Y2122303*
X1836614Y2124803*
X2100394D02*
X1986958D01*
X2100394D02*
X2090394Y2122303D01*
Y2127303*
X2100394Y2124803*
X1836614Y1987677D02*
Y2129803D01*
X2100394Y1955787D02*
Y2129803D01*
X1955777Y2126678D02*
X1955549Y2127303D01*
X1954868Y2127616*
X1954413*
X1953731Y2127303*
X1953277Y2126366*
X1953049Y2124803*
Y2123241*
X1953277Y2121991*
X1953731Y2121366*
X1954413Y2121053*
X1954640*
X1955322Y2121366*
X1955777Y2121991*
X1956004Y2122928*
Y2123241*
X1955777Y2124178*
X1955322Y2124803*
X1954640Y2125116*
X1954413*
X1953731Y2124803*
X1953277Y2124178*
X1953049Y2123241*
X1961231Y2127616D02*
X1958958Y2121053D01*
X1958049Y2127616D02*
X1961231D01*
X1963504Y2121678D02*
X1963277Y2121366D01*
X1963504Y2121053*
X1963731Y2121366*
X1963504Y2121678*
X1967140Y2127616D02*
X1966458Y2127303D01*
X1966004Y2126366*
X1965777Y2124803*
Y2123866*
X1966004Y2122303*
X1966458Y2121366*
X1967140Y2121053*
X1967595*
X1968277Y2121366*
X1968731Y2122303*
X1968958Y2123866*
Y2124803*
X1968731Y2126366*
X1968277Y2127303*
X1967595Y2127616*
X1967140*
X1971004Y2125428D02*
Y2121053D01*
Y2124178D02*
X1971686Y2125116D01*
X1972140Y2125428*
X1972822*
X1973277Y2125116*
X1973504Y2124178*
Y2121053*
Y2124178D02*
X1974186Y2125116D01*
X1974640Y2125428*
X1975322*
X1975777Y2125116*
X1976004Y2124178*
Y2121053*
X1978049Y2125428D02*
Y2121053D01*
Y2124178D02*
X1978731Y2125116D01*
X1979186Y2125428*
X1979868*
X1980322Y2125116*
X1980549Y2124178*
Y2121053*
Y2124178D02*
X1981231Y2125116D01*
X1981686Y2125428*
X1982368*
X1982822Y2125116*
X1983049Y2124178*
Y2121053*
X1765354Y1854331D02*
Y1961754D01*
Y1854331D02*
X1762854Y1864331D01*
X1767854*
X1765354Y1854331*
Y2082677D02*
Y1975254D01*
Y2082677D02*
X1767854Y2072677D01*
X1762854*
X1765354Y2082677*
X1880039Y1854331D02*
X1760354D01*
X1897756Y2082677D02*
X1760354D01*
X1752627Y1971316D02*
X1750354D01*
X1750127Y1968504*
X1750354Y1968816*
X1751036Y1969129*
X1751718*
X1752400Y1968816*
X1752854Y1968191*
X1753082Y1967254*
X1752854Y1966629*
X1752627Y1965691*
X1752173Y1965066*
X1751491Y1964754*
X1750809*
X1750127Y1965066*
X1749900Y1965379*
X1749673Y1966004*
X1756263Y1971316D02*
X1755582Y1971004D01*
X1755354Y1970379*
Y1969754*
X1755582Y1969129*
X1756036Y1968816*
X1756945Y1968504*
X1757627Y1968191*
X1758082Y1967566*
X1758309Y1966941*
Y1966004*
X1758082Y1965379*
X1757854Y1965066*
X1757173Y1964754*
X1756263*
X1755582Y1965066*
X1755354Y1965379*
X1755127Y1966004*
Y1966941*
X1755354Y1967566*
X1755809Y1968191*
X1756491Y1968504*
X1757400Y1968816*
X1757854Y1969129*
X1758082Y1969754*
Y1970379*
X1757854Y1971004*
X1757173Y1971316*
X1756263*
X1760582Y1965379D02*
X1760354Y1965066D01*
X1760582Y1964754*
X1760809Y1965066*
X1760582Y1965379*
X1764218Y1971316D02*
X1763536Y1971004D01*
X1763082Y1970066*
X1762854Y1968504*
Y1967566*
X1763082Y1966004*
X1763536Y1965066*
X1764218Y1964754*
X1764673*
X1765354Y1965066*
X1765809Y1966004*
X1766036Y1967566*
Y1968504*
X1765809Y1970066*
X1765354Y1971004*
X1764673Y1971316*
X1764218*
X1768082Y1969129D02*
Y1964754D01*
Y1967879D02*
X1768763Y1968816D01*
X1769218Y1969129*
X1769900*
X1770354Y1968816*
X1770582Y1967879*
Y1964754*
Y1967879D02*
X1771263Y1968816D01*
X1771718Y1969129*
X1772400*
X1772854Y1968816*
X1773082Y1967879*
Y1964754*
X1775127Y1969129D02*
Y1964754D01*
Y1967879D02*
X1775809Y1968816D01*
X1776263Y1969129*
X1776945*
X1777400Y1968816*
X1777627Y1967879*
Y1964754*
Y1967879D02*
X1778309Y1968816D01*
X1778763Y1969129*
X1779445*
X1779900Y1968816*
X1780127Y1967879*
Y1964754*
X2362205Y2530205D02*
X2620205D01*
X2362205Y2506205D02*
X2620205D01*
X2362205Y2482205D02*
X2620205D01*
X2362205Y2458205D02*
X2620205D01*
X2362205Y2434205D02*
X2620205D01*
X2362205Y2410205D02*
X2620205D01*
X2362205Y2386205D02*
X2620205D01*
X2362205Y2362205D02*
X2620205D01*
X2362205Y2530205D02*
Y2362205D01*
X2446205Y2530205D02*
Y2362205D01*
X2482205Y2530205D02*
Y2362205D01*
X2518205Y2530205D02*
Y2362205D01*
X2572205Y2530205D02*
Y2362205D01*
X2620205Y2530205D02*
Y2362205D01*
X2391023Y2512205D02*
X2392568Y2514580D01*
X2392932Y2516580*
Y2519830*
X2393296Y2520080*
X2400387*
X2400750Y2519830*
Y2517205*
X2400387Y2516955*
X2392932*
X2397023D02*
X2397750Y2515205D01*
X2399659Y2513330*
X2401932Y2512205*
X2407750Y2514830D02*
X2407023Y2516080D01*
X2405932Y2516955*
X2404387Y2518705D02*
X2414477D01*
X2412296Y2520455D02*
Y2512205D01*
X2411932Y2511955*
X2409296Y2512455*
X2451023Y2515205D02*
X2456296D01*
X2455568D02*
X2454750Y2513705D01*
X2453659Y2512830*
X2451387Y2511955*
X2455568D02*
X2453659Y2513080D01*
X2451750Y2513705*
Y2513955*
X2452932Y2514830*
X2453659Y2516080*
Y2516330D02*
Y2520455D01*
X2451387D02*
X2452114Y2519205D01*
X2454750D02*
X2455568Y2520455D01*
X2456296Y2518705D02*
X2451387D01*
X2451023Y2516580D02*
X2452568Y2517455D01*
X2453659Y2518705*
X2455932Y2517205*
X2456659D02*
X2457387Y2518955D01*
Y2520455*
Y2518955D02*
X2462296D01*
X2461568D02*
X2460750Y2516330D01*
X2458932Y2513330*
X2457023Y2511955*
X2461932D02*
X2460387Y2513330D01*
X2458568Y2516330*
X2457750Y2518955*
X2464387Y2512205D02*
X2475296D01*
X2474477Y2513330D02*
X2465114D01*
X2465932Y2514830D02*
Y2516580D01*
X2466296Y2516955*
X2473750*
X2474114Y2516580*
Y2514830*
X2473750Y2514580*
X2466296*
X2465932Y2514830*
Y2515705D02*
X2474114D01*
X2470023Y2516955D02*
Y2512205D01*
X2464750Y2517830D02*
X2475659D01*
X2465932Y2518955D02*
Y2520080D01*
X2466296Y2520455*
X2473750*
X2474114Y2520080*
Y2518955*
X2473750Y2518705*
X2466296*
X2465932Y2518955*
Y2519580D02*
X2474114D01*
X2487750Y2515705D02*
X2489296Y2516955D01*
X2490387Y2518330*
X2489296Y2516955D02*
Y2511955D01*
X2493750Y2513955D02*
X2492296Y2515455D01*
X2491568Y2516955D02*
X2498296D01*
X2496750Y2518080D02*
Y2512205D01*
X2496387Y2511955*
X2494932Y2512205*
X2493750Y2513955D02*
X2492296Y2515455D01*
X2487023Y2518955D02*
X2488568Y2519830D01*
X2488932Y2520705*
X2488568Y2519830D02*
X2492659D01*
X2491114Y2518705D02*
X2489659Y2519830D01*
X2494568Y2520705D02*
X2494114Y2519830D01*
X2493023Y2518955*
X2494114Y2519830D02*
X2498296D01*
X2496750Y2518705D02*
X2495659Y2519830D01*
X2500387Y2516330D02*
X2510932D01*
X2503387D02*
X2502659Y2514830D01*
X2503023Y2514580*
X2509023*
X2509387Y2514330*
X2509023Y2512205*
X2508659Y2511955*
X2505659Y2512205*
X2502296Y2518080D02*
Y2519830D01*
X2502659Y2520080*
X2509023*
X2509387Y2519830*
Y2518080*
X2509023Y2517830*
X2502659*
X2502296Y2518080*
X2547705Y2518205D02*
Y2518580D01*
X2547977Y2519330*
X2548250Y2519705*
X2548796Y2520080*
X2549887*
X2550432Y2519705*
X2550705Y2519330*
X2550977Y2518580*
Y2517830*
X2550705Y2517080*
X2550432Y2516705*
X2549341Y2515955*
Y2514830*
Y2512955D02*
X2549068Y2512580D01*
X2549341Y2512205*
X2549614Y2512580*
X2549341Y2512955*
X2553432Y2518205D02*
Y2518580D01*
X2553705Y2519330*
X2553977Y2519705*
X2554523Y2520080*
X2555614*
X2556159Y2519705*
X2556432Y2519330*
X2556705Y2518580*
Y2517830*
X2556432Y2517080*
X2556159Y2516705*
X2555068Y2515955*
Y2514830*
Y2512955D02*
X2554796Y2512580D01*
X2555068Y2512205*
X2555341Y2512580*
X2555068Y2512955*
X2588887Y2520080D02*
Y2512205D01*
X2586977Y2520080D02*
X2590796D01*
X2594887D02*
X2594341Y2519705D01*
X2593796Y2518955*
X2593523Y2518205*
X2593250Y2517080*
Y2515205*
X2593523Y2514080*
X2593796Y2513330*
X2594341Y2512580*
X2594887Y2512205*
X2595977*
X2596523Y2512580*
X2597068Y2513330*
X2597341Y2514080*
X2597614Y2515205*
Y2517080*
X2597341Y2518205*
X2597068Y2518955*
X2596523Y2519705*
X2595977Y2520080*
X2594887*
X2600068D02*
Y2512205D01*
X2603341*
X2368205Y2494580D02*
X2368750Y2494955D01*
X2369568Y2496080*
Y2488205*
X2372296Y2488955D02*
X2372023Y2488580D01*
X2372296Y2488205*
X2372568Y2488580*
X2372296Y2488955*
X2376659Y2496080D02*
X2375841Y2495705D01*
X2375296Y2494580*
X2375023Y2492705*
Y2491580*
X2375296Y2489705*
X2375841Y2488580*
X2376659Y2488205*
X2377205*
X2378023Y2488580*
X2378568Y2489705*
X2378841Y2491580*
Y2492705*
X2378568Y2494580*
X2378023Y2495705*
X2377205Y2496080*
X2376659*
X2381296Y2494580D02*
X2381841Y2494955D01*
X2382659Y2496080*
Y2488205*
X2388387Y2494955D02*
X2388114Y2495705D01*
X2387296Y2496080*
X2386750*
X2385932Y2495705*
X2385387Y2494580*
X2385114Y2492705*
Y2490830*
X2385387Y2489330*
X2385932Y2488580*
X2386750Y2488205*
X2387023*
X2387841Y2488580*
X2388387Y2489330*
X2388659Y2490455*
Y2490830*
X2388387Y2491955*
X2387841Y2492705*
X2387023Y2493080*
X2386750*
X2385932Y2492705*
X2385387Y2491955*
X2385114Y2490830*
X2461523Y2494205D02*
Y2494580D01*
X2461796Y2495330*
X2462068Y2495705*
X2462614Y2496080*
X2463705*
X2464250Y2495705*
X2464523Y2495330*
X2464796Y2494580*
Y2493830*
X2464523Y2493080*
X2463977Y2491955*
X2461250Y2488205*
X2465068*
X2494205Y2494205D02*
X2506205D01*
X2500205Y2488205D02*
Y2500205D01*
X2526841Y2496080D02*
X2529023Y2492330D01*
Y2488205*
X2531205Y2496080D02*
X2529023Y2492330D01*
X2533659Y2496080D02*
Y2488205D01*
Y2496080D02*
X2537205D01*
X2533659Y2492330D02*
X2535841D01*
X2533659Y2488205D02*
X2537205D01*
X2543477Y2494955D02*
X2542932Y2495705D01*
X2542114Y2496080*
X2541023*
X2540205Y2495705*
X2539659Y2494955*
Y2494205*
X2539932Y2493455*
X2540205Y2493080*
X2540750Y2492705*
X2542387Y2491955*
X2542932Y2491580*
X2543205Y2491205*
X2543477Y2490455*
Y2489330*
X2542932Y2488580*
X2542114Y2488205*
X2541023*
X2540205Y2488580*
X2539659Y2489330*
X2580023Y2494955D02*
Y2488205D01*
X2577568Y2491580D02*
X2582477D01*
X2589841Y2497580D02*
X2584932Y2485580D01*
X2592296Y2491580D02*
X2597205D01*
X2601296Y2496080D02*
X2600477Y2495705D01*
X2599932Y2494580*
X2599659Y2492705*
Y2491580*
X2599932Y2489705*
X2600477Y2488580*
X2601296Y2488205*
X2601841*
X2602659Y2488580*
X2603205Y2489705*
X2603477Y2491580*
Y2492705*
X2603205Y2494580*
X2602659Y2495705*
X2601841Y2496080*
X2601296*
X2606205Y2488955D02*
X2605932Y2488580D01*
X2606205Y2488205*
X2606477Y2488580*
X2606205Y2488955*
X2610568Y2496080D02*
X2609750Y2495705D01*
X2609205Y2494580*
X2608932Y2492705*
Y2491580*
X2609205Y2489705*
X2609750Y2488580*
X2610568Y2488205*
X2611114*
X2611932Y2488580*
X2612477Y2489705*
X2612750Y2491580*
Y2492705*
X2612477Y2494580*
X2611932Y2495705*
X2611114Y2496080*
X2610568*
X2369841Y2472080D02*
X2369023Y2471705D01*
X2368477Y2470580*
X2368205Y2468705*
Y2467580*
X2368477Y2465705*
X2369023Y2464580*
X2369841Y2464205*
X2370387*
X2371205Y2464580*
X2371750Y2465705*
X2372023Y2467580*
Y2468705*
X2371750Y2470580*
X2371205Y2471705*
X2370387Y2472080*
X2369841*
X2374750Y2464955D02*
X2374477Y2464580D01*
X2374750Y2464205*
X2375023Y2464580*
X2374750Y2464955*
X2378841Y2472080D02*
X2378023Y2471705D01*
X2377750Y2470955*
Y2470205*
X2378023Y2469455*
X2378568Y2469080*
X2379659Y2468705*
X2380477Y2468330*
X2381023Y2467580*
X2381296Y2466830*
Y2465705*
X2381023Y2464955*
X2380750Y2464580*
X2379932Y2464205*
X2378841*
X2378023Y2464580*
X2377750Y2464955*
X2377477Y2465705*
Y2466830*
X2377750Y2467580*
X2378296Y2468330*
X2379114Y2468705*
X2380205Y2469080*
X2380750Y2469455*
X2381023Y2470205*
Y2470955*
X2380750Y2471705*
X2379932Y2472080*
X2378841*
X2461796D02*
X2464796D01*
X2463159Y2469080*
X2463977*
X2464523Y2468705*
X2464796Y2468330*
X2465068Y2467205*
Y2466455*
X2464796Y2465330*
X2464250Y2464580*
X2463432Y2464205*
X2462614*
X2461796Y2464580*
X2461523Y2464955*
X2461250Y2465705*
X2494205Y2464205D02*
X2506205Y2476205D01*
X2494205D02*
X2506205Y2464205D01*
X2526841Y2472080D02*
X2529023Y2468330D01*
Y2464205*
X2531205Y2472080D02*
X2529023Y2468330D01*
X2533659Y2472080D02*
Y2464205D01*
Y2472080D02*
X2537205D01*
X2533659Y2468330D02*
X2535841D01*
X2533659Y2464205D02*
X2537205D01*
X2543477Y2470955D02*
X2542932Y2471705D01*
X2542114Y2472080*
X2541023*
X2540205Y2471705*
X2539659Y2470955*
Y2470205*
X2539932Y2469455*
X2540205Y2469080*
X2540750Y2468705*
X2542387Y2467955*
X2542932Y2467580*
X2543205Y2467205*
X2543477Y2466455*
Y2465330*
X2542932Y2464580*
X2542114Y2464205*
X2541023*
X2540205Y2464580*
X2539659Y2465330*
X2580023Y2470955D02*
Y2464205D01*
X2577568Y2467580D02*
X2582477D01*
X2589841Y2473580D02*
X2584932Y2461580D01*
X2592296Y2467580D02*
X2597205D01*
X2601296Y2472080D02*
X2600477Y2471705D01*
X2599932Y2470580*
X2599659Y2468705*
Y2467580*
X2599932Y2465705*
X2600477Y2464580*
X2601296Y2464205*
X2601841*
X2602659Y2464580*
X2603205Y2465705*
X2603477Y2467580*
Y2468705*
X2603205Y2470580*
X2602659Y2471705*
X2601841Y2472080*
X2601296*
X2606205Y2464955D02*
X2605932Y2464580D01*
X2606205Y2464205*
X2606477Y2464580*
X2606205Y2464955*
X2610568Y2472080D02*
X2609750Y2471705D01*
X2609205Y2470580*
X2608932Y2468705*
Y2467580*
X2609205Y2465705*
X2609750Y2464580*
X2610568Y2464205*
X2611114*
X2611932Y2464580*
X2612477Y2465705*
X2612750Y2467580*
Y2468705*
X2612477Y2470580*
X2611932Y2471705*
X2611114Y2472080*
X2610568*
X2368205Y2446580D02*
X2368750Y2446955D01*
X2369568Y2448080*
Y2440205*
X2460705Y2448080D02*
X2457977Y2442830D01*
X2462068*
X2460705Y2448080D02*
Y2440205D01*
X2468341Y2448080D02*
X2465614Y2440205D01*
X2464523Y2448080D02*
X2468341D01*
X2494205Y2440205D02*
X2506205D01*
Y2452205*
X2494205*
Y2440205*
X2500205Y2446205D02*
Y2452205D01*
X2526841Y2448080D02*
X2529023Y2444330D01*
Y2440205*
X2531205Y2448080D02*
X2529023Y2444330D01*
X2533659Y2448080D02*
Y2440205D01*
Y2448080D02*
X2537205D01*
X2533659Y2444330D02*
X2535841D01*
X2533659Y2440205D02*
X2537205D01*
X2543477Y2446955D02*
X2542932Y2447705D01*
X2542114Y2448080*
X2541023*
X2540205Y2447705*
X2539659Y2446955*
Y2446205*
X2539932Y2445455*
X2540205Y2445080*
X2540750Y2444705*
X2542387Y2443955*
X2542932Y2443580*
X2543205Y2443205*
X2543477Y2442455*
Y2441330*
X2542932Y2440580*
X2542114Y2440205*
X2541023*
X2540205Y2440580*
X2539659Y2441330*
X2580023Y2446955D02*
Y2440205D01*
X2577568Y2443580D02*
X2582477D01*
X2589841Y2449580D02*
X2584932Y2437580D01*
X2592296Y2443580D02*
X2597205D01*
X2601296Y2448080D02*
X2600477Y2447705D01*
X2599932Y2446580*
X2599659Y2444705*
Y2443580*
X2599932Y2441705*
X2600477Y2440580*
X2601296Y2440205*
X2601841*
X2602659Y2440580*
X2603205Y2441705*
X2603477Y2443580*
Y2444705*
X2603205Y2446580*
X2602659Y2447705*
X2601841Y2448080*
X2601296*
X2606205Y2440955D02*
X2605932Y2440580D01*
X2606205Y2440205*
X2606477Y2440580*
X2606205Y2440955*
X2610568Y2448080D02*
X2609750Y2447705D01*
X2609205Y2446580*
X2608932Y2444705*
Y2443580*
X2609205Y2441705*
X2609750Y2440580*
X2610568Y2440205*
X2611114*
X2611932Y2440580*
X2612477Y2441705*
X2612750Y2443580*
Y2444705*
X2612477Y2446580*
X2611932Y2447705*
X2611114Y2448080*
X2610568*
X2369841Y2424080D02*
X2369023Y2423705D01*
X2368477Y2422580*
X2368205Y2420705*
Y2419580*
X2368477Y2417705*
X2369023Y2416580*
X2369841Y2416205*
X2370387*
X2371205Y2416580*
X2371750Y2417705*
X2372023Y2419580*
Y2420705*
X2371750Y2422580*
X2371205Y2423705*
X2370387Y2424080*
X2369841*
X2374750Y2416955D02*
X2374477Y2416580D01*
X2374750Y2416205*
X2375023Y2416580*
X2374750Y2416955*
X2377750Y2422205D02*
Y2422580D01*
X2378023Y2423330*
X2378296Y2423705*
X2378841Y2424080*
X2379932*
X2380477Y2423705*
X2380750Y2423330*
X2381023Y2422580*
Y2421830*
X2380750Y2421080*
X2380205Y2419955*
X2377477Y2416205*
X2381296*
X2387296Y2424080D02*
X2384568D01*
X2384296Y2420705*
X2384568Y2421080*
X2385387Y2421455*
X2386205*
X2387023Y2421080*
X2387568Y2420330*
X2387841Y2419205*
X2387568Y2418455*
X2387296Y2417330*
X2386750Y2416580*
X2385932Y2416205*
X2385114*
X2384296Y2416580*
X2384023Y2416955*
X2383750Y2417705*
X2458659Y2424080D02*
X2461659D01*
X2460023Y2421080*
X2460841*
X2461387Y2420705*
X2461659Y2420330*
X2461932Y2419205*
Y2418455*
X2461659Y2417330*
X2461114Y2416580*
X2460296Y2416205*
X2459477*
X2458659Y2416580*
X2458387Y2416955*
X2458114Y2417705*
X2465750Y2424080D02*
X2464932Y2423705D01*
X2464659Y2422955*
Y2422205*
X2464932Y2421455*
X2465477Y2421080*
X2466568Y2420705*
X2467387Y2420330*
X2467932Y2419580*
X2468205Y2418830*
Y2417705*
X2467932Y2416955*
X2467659Y2416580*
X2466841Y2416205*
X2465750*
X2464932Y2416580*
X2464659Y2416955*
X2464387Y2417705*
Y2418830*
X2464659Y2419580*
X2465205Y2420330*
X2466023Y2420705*
X2467114Y2421080*
X2467659Y2421455*
X2467932Y2422205*
Y2422955*
X2467659Y2423705*
X2466841Y2424080*
X2465750*
X2500205Y2416205D02*
X2506205Y2422205D01*
X2500205Y2428205*
X2494205Y2422205*
X2500205Y2416205*
Y2422205D02*
Y2428205D01*
X2526841Y2424080D02*
X2529023Y2420330D01*
Y2416205*
X2531205Y2424080D02*
X2529023Y2420330D01*
X2533659Y2424080D02*
Y2416205D01*
Y2424080D02*
X2537205D01*
X2533659Y2420330D02*
X2535841D01*
X2533659Y2416205D02*
X2537205D01*
X2543477Y2422955D02*
X2542932Y2423705D01*
X2542114Y2424080*
X2541023*
X2540205Y2423705*
X2539659Y2422955*
Y2422205*
X2539932Y2421455*
X2540205Y2421080*
X2540750Y2420705*
X2542387Y2419955*
X2542932Y2419580*
X2543205Y2419205*
X2543477Y2418455*
Y2417330*
X2542932Y2416580*
X2542114Y2416205*
X2541023*
X2540205Y2416580*
X2539659Y2417330*
X2580023Y2422955D02*
Y2416205D01*
X2577568Y2419580D02*
X2582477D01*
X2589841Y2425580D02*
X2584932Y2413580D01*
X2592296Y2419580D02*
X2597205D01*
X2601296Y2424080D02*
X2600477Y2423705D01*
X2599932Y2422580*
X2599659Y2420705*
Y2419580*
X2599932Y2417705*
X2600477Y2416580*
X2601296Y2416205*
X2601841*
X2602659Y2416580*
X2603205Y2417705*
X2603477Y2419580*
Y2420705*
X2603205Y2422580*
X2602659Y2423705*
X2601841Y2424080*
X2601296*
X2606205Y2416955D02*
X2605932Y2416580D01*
X2606205Y2416205*
X2606477Y2416580*
X2606205Y2416955*
X2610568Y2424080D02*
X2609750Y2423705D01*
X2609205Y2422580*
X2608932Y2420705*
Y2419580*
X2609205Y2417705*
X2609750Y2416580*
X2610568Y2416205*
X2611114*
X2611932Y2416580*
X2612477Y2417705*
X2612750Y2419580*
Y2420705*
X2612477Y2422580*
X2611932Y2423705*
X2611114Y2424080*
X2610568*
X2369841Y2400080D02*
X2369023Y2399705D01*
X2368477Y2398580*
X2368205Y2396705*
Y2395580*
X2368477Y2393705*
X2369023Y2392580*
X2369841Y2392205*
X2370387*
X2371205Y2392580*
X2371750Y2393705*
X2372023Y2395580*
Y2396705*
X2371750Y2398580*
X2371205Y2399705*
X2370387Y2400080*
X2369841*
X2374750Y2392955D02*
X2374477Y2392580D01*
X2374750Y2392205*
X2375023Y2392580*
X2374750Y2392955*
X2381023Y2400080D02*
X2378296D01*
X2378023Y2396705*
X2378296Y2397080*
X2379114Y2397455*
X2379932*
X2380750Y2397080*
X2381296Y2396330*
X2381568Y2395205*
X2381296Y2394455*
X2381023Y2393330*
X2380477Y2392580*
X2379659Y2392205*
X2378841*
X2378023Y2392580*
X2377750Y2392955*
X2377477Y2393705*
X2461659Y2400080D02*
X2458932D01*
X2458659Y2396705*
X2458932Y2397080*
X2459750Y2397455*
X2460568*
X2461387Y2397080*
X2461932Y2396330*
X2462205Y2395205*
X2461932Y2394455*
X2461659Y2393330*
X2461114Y2392580*
X2460296Y2392205*
X2459477*
X2458659Y2392580*
X2458387Y2392955*
X2458114Y2393705*
X2468205Y2397455D02*
X2467932Y2396330D01*
X2467387Y2395580*
X2466568Y2395205*
X2466296*
X2465477Y2395580*
X2464932Y2396330*
X2464659Y2397455*
Y2397830*
X2464932Y2398955*
X2465477Y2399705*
X2466296Y2400080*
X2466568*
X2467387Y2399705*
X2467932Y2398955*
X2468205Y2397455*
Y2395580*
X2467932Y2393705*
X2467387Y2392580*
X2466568Y2392205*
X2466023*
X2465205Y2392580*
X2464932Y2393330*
X2494205Y2392205D02*
X2506205D01*
X2494205Y2404205*
X2506205*
X2494205Y2392205*
X2526841Y2400080D02*
X2529023Y2396330D01*
Y2392205*
X2531205Y2400080D02*
X2529023Y2396330D01*
X2533659Y2400080D02*
Y2392205D01*
Y2400080D02*
X2537205D01*
X2533659Y2396330D02*
X2535841D01*
X2533659Y2392205D02*
X2537205D01*
X2543477Y2398955D02*
X2542932Y2399705D01*
X2542114Y2400080*
X2541023*
X2540205Y2399705*
X2539659Y2398955*
Y2398205*
X2539932Y2397455*
X2540205Y2397080*
X2540750Y2396705*
X2542387Y2395955*
X2542932Y2395580*
X2543205Y2395205*
X2543477Y2394455*
Y2393330*
X2542932Y2392580*
X2542114Y2392205*
X2541023*
X2540205Y2392580*
X2539659Y2393330*
X2580023Y2398955D02*
Y2392205D01*
X2577568Y2395580D02*
X2582477D01*
X2589841Y2401580D02*
X2584932Y2389580D01*
X2592296Y2395580D02*
X2597205D01*
X2601296Y2400080D02*
X2600477Y2399705D01*
X2599932Y2398580*
X2599659Y2396705*
Y2395580*
X2599932Y2393705*
X2600477Y2392580*
X2601296Y2392205*
X2601841*
X2602659Y2392580*
X2603205Y2393705*
X2603477Y2395580*
Y2396705*
X2603205Y2398580*
X2602659Y2399705*
X2601841Y2400080*
X2601296*
X2606205Y2392955D02*
X2605932Y2392580D01*
X2606205Y2392205*
X2606477Y2392580*
X2606205Y2392955*
X2610568Y2400080D02*
X2609750Y2399705D01*
X2609205Y2398580*
X2608932Y2396705*
Y2395580*
X2609205Y2393705*
X2609750Y2392580*
X2610568Y2392205*
X2611114*
X2611932Y2392580*
X2612477Y2393705*
X2612750Y2395580*
Y2396705*
X2612477Y2398580*
X2611932Y2399705*
X2611114Y2400080*
X2610568*
X2368205Y2374580D02*
X2368750Y2374955D01*
X2369568Y2376080*
Y2368205*
X2372296Y2368955D02*
X2372023Y2368580D01*
X2372296Y2368205*
X2372568Y2368580*
X2372296Y2368955*
X2378296Y2374955D02*
X2378023Y2375705D01*
X2377205Y2376080*
X2376659*
X2375841Y2375705*
X2375296Y2374580*
X2375023Y2372705*
Y2370830*
X2375296Y2369330*
X2375841Y2368580*
X2376659Y2368205*
X2376932*
X2377750Y2368580*
X2378296Y2369330*
X2378568Y2370455*
Y2370830*
X2378296Y2371955*
X2377750Y2372705*
X2376932Y2373080*
X2376659*
X2375841Y2372705*
X2375296Y2371955*
X2375023Y2370830*
X2463841Y2376080D02*
X2461114Y2370830D01*
X2465205*
X2463841Y2376080D02*
Y2368205D01*
X2494205D02*
X2506205Y2380205D01*
Y2368205*
X2494205Y2380205*
Y2368205*
X2526841Y2376080D02*
X2529023Y2372330D01*
Y2368205*
X2531205Y2376080D02*
X2529023Y2372330D01*
X2533659Y2376080D02*
Y2368205D01*
Y2376080D02*
X2537205D01*
X2533659Y2372330D02*
X2535841D01*
X2533659Y2368205D02*
X2537205D01*
X2543477Y2374955D02*
X2542932Y2375705D01*
X2542114Y2376080*
X2541023*
X2540205Y2375705*
X2539659Y2374955*
Y2374205*
X2539932Y2373455*
X2540205Y2373080*
X2540750Y2372705*
X2542387Y2371955*
X2542932Y2371580*
X2543205Y2371205*
X2543477Y2370455*
Y2369330*
X2542932Y2368580*
X2542114Y2368205*
X2541023*
X2540205Y2368580*
X2539659Y2369330*
X2580023Y2374955D02*
Y2368205D01*
X2577568Y2371580D02*
X2582477D01*
X2589841Y2377580D02*
X2584932Y2365580D01*
X2592296Y2371580D02*
X2597205D01*
X2601296Y2376080D02*
X2600477Y2375705D01*
X2599932Y2374580*
X2599659Y2372705*
Y2371580*
X2599932Y2369705*
X2600477Y2368580*
X2601296Y2368205*
X2601841*
X2602659Y2368580*
X2603205Y2369705*
X2603477Y2371580*
Y2372705*
X2603205Y2374580*
X2602659Y2375705*
X2601841Y2376080*
X2601296*
X2606205Y2368955D02*
X2605932Y2368580D01*
X2606205Y2368205*
X2606477Y2368580*
X2606205Y2368955*
X2610568Y2376080D02*
X2609750Y2375705D01*
X2609205Y2374580*
X2608932Y2372705*
Y2371580*
X2609205Y2369705*
X2609750Y2368580*
X2610568Y2368205*
X2611114*
X2611932Y2368580*
X2612477Y2369705*
X2612750Y2371580*
Y2372705*
X2612477Y2374580*
X2611932Y2375705*
X2611114Y2376080*
X2610568*
G74*
X0Y0D02*
M02*
