%
T1C.00984F0S0
X193012Y1875
X193012Y188091
X193012Y189862
X190354Y19065
X192913Y191142
X194843Y193386
X194094Y194685
X193504Y195276
X194882Y195472
X196457Y199213
X197244Y199213
X197441Y196654
X197244Y194882
X197244Y194291
X195079Y193898
X197244Y193701
X196457Y191339
X195669Y191339
X199016Y190551
X199803Y191929
X198622Y192913
X197638Y193307
X198622Y193701
X197638Y193898
X197638Y194488
X198228Y195669
X197835Y196063
X198228Y196654
X198031Y199213
X198819Y199213
X199606Y199213
X197638Y201378
X198425Y201378
X199213Y201378
X2Y201378
X200591Y198622
X200394Y196654
X203937Y189961
T2C.01969F095S3
X195669Y195669
X196457Y195669
X197244Y200984
X196654Y203937
X197441Y203937
X197441Y204724
X198228Y205512
X199016Y205512
X199803Y205512
X198228Y204724
X199016Y204724
X199803Y204724
X198228Y203937
X199016Y203937
X199803Y203937
X198819Y201772
X199606Y201772
X198031Y201772
X199606Y200984
X198031Y200984
X198819Y200984
X203346Y191929
X204134Y19311
X204134Y194094
X203346Y194685
X203346Y195276
X203346Y195866
X203346Y196654
X203346Y197244
X20374Y198819
X204528Y198819
X200984Y201772
X204528Y201772
X20374Y201772
X204528Y204724
X200591Y204724
X201378Y204724
X20374Y204724
X205709Y205512
X205315Y204724
X206102Y204724
X20689Y204724
X205315Y201772
X206102Y201772
X20689Y201772
X206102Y200787
X20689Y200787
X20689Y199803
X206102Y199803
X205315Y198819
X207283Y193701
X206496Y193701
X207283Y192913
X207283Y192126
X207283Y191339
X208071Y191339
X208071Y192126
X208071Y192913
X208071Y193701
T3C.0315F197S55
X19252Y186417
X191535Y186417
X193504Y186417
T4C.03937F197S55
X187008Y190748
X185039Y192126
X185039Y193701
X187205Y198819
X185236Y198819
X185039Y201181
X187205Y203543
X185236Y203543
X190945Y20689
X192126Y205906
X191142Y203937
X190157Y202559
X191732Y202559
X190748Y200787
X192126Y199803
X190748Y198031
X191732Y197244
X190748Y19626
X197244Y187992
X196063Y190945
X196063Y191732
X192717Y19626
X192717Y198031
X193504Y199803
X195079Y200787
X193307Y202559
X192717Y203937
X194291Y203937
X193307Y205906
X197047Y206693
X194882Y20689
X206496Y203543
X206496Y198819
X205709Y19626
X207283Y19626
X206496Y190354
X207283Y189567
X206496Y18878
X206496Y186417
X208071Y18878
X208071Y190354
X209252Y197441
X208465Y198819
X209252Y2
X209252Y202362
X208465Y203543
X209252Y204724
T5C.04F139S55
X187795Y186614
X188795Y186614
T6C.06299F089S55
X188189Y192134
X188189Y193693
X205512Y193693
X205512Y192134
M30
