*
*
G04 PADS 9.5 Build Number: 522968 generated Gerber (RS-274-X) file*
G04 PC Version=2.1*
*
%IN "V2.0.pcb"*%
*
%MOIN*%
*
%FSLAX35Y35*%
*
*
*
*
G04 PC Standard Apertures*
*
*
G04 Thermal Relief Aperture macro.*
%AMTER*
1,1,$1,0,0*
1,0,$1-$2,0,0*
21,0,$3,$4,0,0,45*
21,0,$3,$4,0,0,135*
%
*
*
G04 Annular Aperture macro.*
%AMANN*
1,1,$1,0,0*
1,0,$2,0,0*
%
*
*
G04 Odd Aperture macro.*
%AMODD*
1,1,$1,0,0*
1,0,$1-0.005,0,0*
%
*
*
G04 PC Custom Aperture Macros*
*
*
*
*
*
*
G04 PC Aperture Table*
*
%ADD010C,0.001*%
%ADD012R,0.04724X0.04724*%
%ADD013R,0.1X0.07087*%
%ADD014R,0.16142X0.16929*%
%ADD018R,0.51181X0.19685*%
%ADD019R,0.11811X0.06299*%
%ADD020R,0.25591X0.23622*%
%ADD022R,0.05906X0.1378*%
%ADD023R,0.1378X0.05906*%
%ADD024R,0.05906X0.01772*%
%ADD025R,0.09685X0.13976*%
%ADD026C,0.01*%
*
*
*
*
G04 PC Circuitry*
G04 Layer Name V2.0.pcb - circuitry*
%LPD*%
*
*
G04 PC Custom Flashes*
G04 Layer Name V2.0.pcb - flashes*
%LPD*%
*
*
G04 PC Circuitry*
G04 Layer Name V2.0.pcb - circuitry*
%LPD*%
*
G54D10*
G54D12*
G01X2000000Y1948819D03*
Y1956693D03*
X1923228Y1927165D03*
X1915354D03*
Y1895669D03*
X1923228D03*
X1905512Y1891732D03*
Y1899606D03*
X1950787Y1860236D03*
Y1868110D03*
X1997244Y1937008D03*
Y1929134D03*
X1956693Y1931102D03*
X1964567D03*
X1997244Y1891732D03*
Y1899606D03*
X2005118Y1911417D03*
X1997244D03*
X2005118Y1879921D03*
X1997244D03*
X2064961Y2070079D03*
Y2062205D03*
X1872047Y2070079D03*
Y2062205D03*
X1956693Y1946850D03*
X1964567D03*
X1915354Y1919291D03*
X1923228D03*
X1915354Y1903543D03*
X1923228D03*
X1956693Y1938976D03*
X1964567D03*
X2005906Y1937008D03*
X2013780D03*
X2005906Y1920472D03*
Y1928346D03*
X1915354Y1887795D03*
X1923228D03*
X1990157Y1964567D03*
Y1956693D03*
X2013780Y1901575D03*
X2005906D03*
X2013780Y1889764D03*
X2005906D03*
X1923228Y1911417D03*
X1915354D03*
X1897638Y1891732D03*
Y1899606D03*
G54D13*
X1899606Y1919291D03*
Y1938976D03*
G54D14*
X2012008Y2033465D03*
X2043110D03*
X2012008Y2062992D03*
X2043110D03*
X2012008Y2003937D03*
X2043110D03*
G54D18*
X1929134Y2063976D03*
Y2002953D03*
G54D19*
X1945669Y1963386D03*
Y1981496D03*
X2044488Y1904724D03*
Y1886614D03*
G54D20*
X1917323Y1972441D03*
X2072835Y1895669D03*
G54D22*
X2039764Y1952756D03*
X2015354D03*
X2039764Y1972441D03*
X2015354D03*
G54D23*
X1972441Y2000394D03*
Y1975984D03*
X1990157Y2000394D03*
Y1975984D03*
G54D24*
X1949213Y1922343D03*
Y1919783D03*
Y1917224D03*
Y1914665D03*
Y1912106D03*
Y1909547D03*
Y1906988D03*
Y1904429D03*
X1972047D03*
Y1906988D03*
Y1909547D03*
Y1912106D03*
Y1914665D03*
Y1917224D03*
Y1919783D03*
Y1922343D03*
G54D25*
X1960630Y1913386D03*
G54D26*
X1836614Y1866142D02*
G75*
G03X1848425Y1854331I11811J-0D01*
G01X2088583*
G03X2100394Y1866142I-0J11811*
G01Y2070866*
G03X2088583Y2082677I-11811J0*
G01X1848425*
G03X1836614Y2070866I0J-11811*
G01Y1866142*
X1855118Y2070472D02*
G03X1855118I-6693J0D01*
G01X2095276D02*
G03X2095276I-6693J0D01*
G01X1855118Y1866535D02*
G03X1855118I-6693J0D01*
G01X2095276D02*
G03X2095276I-6693J0D01*
G74*
G01X0Y0D02*
M02*
