*
*
G04 PADS 9.5 Build Number: 522968 generated Gerber (RS-274-X) file*
G04 PC Version=2.1*
*
%IN "V2.0.pcb"*%
*
%MOIN*%
*
%FSLAX35Y35*%
*
*
*
*
G04 PC Standard Apertures*
*
*
G04 Thermal Relief Aperture macro.*
%AMTER*
1,1,$1,0,0*
1,0,$1-$2,0,0*
21,0,$3,$4,0,0,45*
21,0,$3,$4,0,0,135*
%
*
*
G04 Annular Aperture macro.*
%AMANN*
1,1,$1,0,0*
1,0,$2,0,0*
%
*
*
G04 Odd Aperture macro.*
%AMODD*
1,1,$1,0,0*
1,0,$1-0.005,0,0*
%
*
*
G04 PC Custom Aperture Macros*
*
*
*
*
*
*
G04 PC Aperture Table*
*
%ADD010C,0.001*%
%ADD026C,0.01*%
*
*
*
*
G04 PC Circuitry*
G04 Layer Name V2.0.pcb - circuitry*
%LPD*%
*
G54D10*
G01X2038727Y1888740D02*
X2038622Y1889055D01*
X2038305Y1889161*
X2037873Y1889053*
X2037771Y1888744*
X2037879Y1888526*
X2037885Y1888504*
Y1888386*
X2037870Y1888350*
X2037634Y1888114*
X2037598Y1888100*
X2036772*
X2036736Y1888114*
X2036382Y1888469*
X2036374Y1888478*
X2036020Y1889069*
X2036013Y1889087*
X2035895Y1889914*
Y1889921*
Y1894764*
X2035897Y1894780*
X2036013Y1895126*
Y1895236*
X2036047Y1895284*
X2036402Y1895402*
X2036417Y1895404*
X2037430*
Y1895659*
X2033751*
Y1895404*
X2035118*
X2035166Y1895370*
X2035284Y1895016*
X2035286Y1895000*
Y1889928*
X2035518Y1889116*
X2035982Y1888420*
X2036556Y1887961*
X2037361Y1887846*
X2037942Y1887962*
X2038394Y1888075*
X2038616Y1888408*
X2038727Y1888740*
X2033178Y1892942D02*
X2032402D01*
X2032379Y1892947*
X2031979Y1893147*
Y1889449*
X2031978Y1889439*
X2031860Y1888848*
X2031853Y1888831*
X2031616Y1888476*
X2031610Y1888469*
X2031374Y1888232*
X2031351Y1888219*
X2030878Y1888101*
X2030856*
X2030266Y1888219*
X2030248Y1888226*
X2029894Y1888462*
X2029886Y1888469*
X2029532Y1888823*
X2029522Y1888836*
X2029286Y1889308*
X2029281Y1889331*
Y1892283*
X2029286Y1892306*
X2029404Y1892542*
X2029426Y1892564*
X2029663Y1892683*
X2029685Y1892688*
X2029989*
Y1892942*
X2029213*
X2029190Y1892947*
X2028728Y1893178*
X2028672*
Y1888740*
X2028669Y1888724*
X2028551Y1888370*
X2028504Y1888336*
X2028081*
Y1888081*
X2028740*
X2028763Y1888076*
X2029224Y1887845*
X2029281*
Y1888740*
X2029375Y1888763*
X2029604Y1888305*
X2030524Y1887845*
X2031676*
X2032124Y1888181*
X2032353Y1888754*
X2032470Y1889453*
Y1892283*
X2032475Y1892306*
X2032593Y1892542*
X2032622Y1892567*
X2032976Y1892685*
X2032992Y1892688*
X2033178*
Y1892942*
X2027273Y1892824D02*
X2026850D01*
X2026838Y1892826*
X2026366Y1892944*
X2026362Y1892945*
X2026016Y1893060*
X2025956*
Y1892047*
X2025870Y1892012*
X2025171Y1892711*
X2024367Y1892941*
X2023562Y1892826*
X2022872Y1892367*
X2022411Y1891559*
X2022294Y1890394*
X2022411Y1889231*
X2022989Y1888421*
X2023564Y1887961*
X2024371Y1887846*
X2025295Y1887961*
X2025874Y1888425*
X2025956Y1888386*
Y1886732*
X2025950Y1886710*
X2025832Y1886474*
X2025803Y1886449*
X2025449Y1886331*
X2025433Y1886328*
X2025247*
Y1886074*
X2027273*
Y1886328*
X2026969*
X2026946Y1886333*
X2026710Y1886451*
X2026688Y1886474*
X2026569Y1886710*
X2026564Y1886732*
Y1892165*
X2026567Y1892181*
X2026685Y1892535*
X2026710Y1892564*
X2026946Y1892683*
X2026969Y1892688*
X2027273*
Y1892824*
X2025956Y1891575D02*
Y1888976D01*
X2025947Y1888949*
X2025711Y1888594*
X2025705Y1888587*
X2025350Y1888232*
X2025331Y1888220*
X2024622Y1887984*
X2024596Y1887982*
X2024006Y1888101*
X2023985Y1888111*
X2023394Y1888583*
X2023380Y1888600*
X2023026Y1889308*
X2023021Y1889325*
X2022903Y1890388*
Y1890394*
Y1890400*
X2023021Y1891345*
X2023023Y1891354*
X2023260Y1892063*
X2023272Y1892083*
X2023744Y1892555*
X2023770Y1892569*
X2024360Y1892687*
X2024382Y1892686*
X2024855Y1892568*
X2024858Y1892567*
X2025213Y1892449*
X2025232Y1892437*
X2025587Y1892083*
X2025591Y1892077*
X2025946Y1891605*
X2025956Y1891575*
X2020422Y1892942D02*
X2019173D01*
X2019157Y1892945*
X2018515Y1893159*
Y1888386*
X2018509Y1888363*
X2018391Y1888127*
X2018362Y1888102*
X2018008Y1887984*
X2017992Y1887981*
X2017097*
Y1887845*
X2020422*
Y1887981*
X2019528*
X2019512Y1887984*
X2019157Y1888102*
X2019129Y1888127*
X2019010Y1888363*
X2019005Y1888386*
Y1892283*
X2019010Y1892306*
X2019129Y1892542*
X2019157Y1892567*
X2019512Y1892685*
X2019528Y1892688*
X2020422*
Y1892942*
X2019354Y1895118D02*
X2019136Y1895553D01*
X2018701Y1895771*
X2018271Y1895556*
X2018162Y1895118*
X2018270Y1894687*
X2018701Y1894579*
X2019139Y1894689*
X2019354Y1895118*
X2014989Y1892942D02*
X2014213D01*
X2014183Y1892952*
X2013710Y1893306*
X2013699Y1893319*
X2013462Y1893673*
X2013455Y1893693*
X2013337Y1894397*
X2013232Y1894714*
X2013081*
Y1892992*
X2013031Y1892942*
X2011192*
Y1892688*
X2013031*
X2013081Y1892638*
Y1889213*
X2013080Y1889200*
X2012962Y1888728*
X2012961Y1888724*
X2012843Y1888370*
X2012818Y1888341*
X2012581Y1888223*
X2012571Y1888219*
X2012099Y1888101*
X2012071Y1888102*
X2011716Y1888220*
X2011705Y1888226*
X2011350Y1888462*
X2011336Y1888476*
X2011100Y1888831*
X2011093Y1888846*
X2010990Y1889258*
X2010844Y1889185*
X2010952Y1888643*
X2011296Y1888185*
X2011749Y1887845*
X2012893*
X2013228Y1888181*
X2013572Y1888754*
Y1892638*
X2013622Y1892688*
X2014989*
Y1892942*
X2009084Y1890393D02*
X2008967Y1891438D01*
X2008388Y1892249*
X2007695Y1892827*
X2006890Y1892942*
X2006081Y1892826*
X2005392Y1892367*
X2004929Y1891557*
X2004707Y1890444*
X2008425*
X2008475Y1890388*
X2008357Y1889325*
X2008352Y1889308*
X2007997Y1888600*
X2007984Y1888583*
X2007393Y1888111*
X2007370Y1888100*
X2006662Y1887982*
X2006644*
X2006053Y1888101*
X2006041Y1888105*
X2005568Y1888341*
X2005555Y1888350*
X2005201Y1888705*
X2005191Y1888718*
X2005191D02*
X2004969Y1889163D01*
X2004838*
X2005043Y1888650*
X2005505Y1888187*
X2005965Y1887843*
X2006769Y1887728*
X2007696Y1887960*
X2008390Y1888422*
X2008967Y1889231*
X2009084Y1890393*
X2008475Y1890630D02*
X2008425Y1890580D01*
X2005472*
X2005422Y1890630*
Y1891575*
X2005430Y1891601*
X2005784Y1892191*
X2005791Y1892201*
X2006264Y1892673*
X2006289Y1892687*
X2006880Y1892805*
X2006908Y1892802*
X2007499Y1892566*
X2007510Y1892560*
X2007983Y1892205*
X2007997Y1892188*
X2008352Y1891479*
X2008357Y1891464*
X2008475Y1890637*
Y1890630*
X2003533Y1892942D02*
X2002402D01*
X2002383Y1892946*
X2001801Y1893178*
X2001625*
Y1891575*
X2001536Y1891544*
X2001065Y1892132*
X2000597Y1892600*
X2000141Y1892942*
X1999571*
X1998882Y1892827*
X1998672Y1892617*
Y1892408*
X1998782Y1891968*
X1999091Y1891865*
X1999288Y1891964*
X1999399Y1892408*
Y1892638*
X1999449Y1892688*
X1999803*
X1999819Y1892685*
X2000173Y1892567*
X2000187Y1892560*
X2000660Y1892205*
X2000661Y1892204*
X2001252Y1891732*
X2001265Y1891715*
X2001620Y1891007*
X2001625Y1890984*
Y1888386*
X2001620Y1888363*
X2001501Y1888127*
X2001479Y1888105*
X2001243Y1887987*
X2001220Y1887981*
X2000207*
Y1887845*
X2003533*
Y1887981*
X2002638*
X2002615Y1887987*
X2002379Y1888105*
X2002357Y1888127*
X2002239Y1888363*
X2002233Y1888386*
Y1892283*
X2002239Y1892306*
X2002357Y1892542*
X2002379Y1892564*
X2002615Y1892683*
X2002638Y1892688*
X2003533*
Y1892942*
X1991958Y1887981D02*
X1991654D01*
X1991638Y1887984*
X1991283Y1888102*
X1991254Y1888127*
X1991136Y1888363*
X1991131Y1888386*
Y1895000*
X1991134Y1895016*
X1991252Y1895370*
X1991299Y1895404*
X1991840*
Y1895659*
X1989176*
X1988245Y1895542*
X1987671Y1895198*
X1987213Y1894625*
X1987098Y1893937*
X1987214Y1893239*
X1987328Y1892785*
X1987782Y1892444*
X1988487Y1892092*
X1988484Y1892001*
X1987666Y1891651*
X1987090Y1891074*
X1986859Y1890498*
X1986744Y1889803*
X1986859Y1888997*
X1987317Y1888425*
X1988126Y1887962*
X1989058Y1887845*
X1991958*
Y1887981*
X1990522Y1895000D02*
Y1892165D01*
X1990472Y1892115*
X1989291*
X1989279Y1892117*
X1988807Y1892235*
X1988789Y1892243*
X1988316Y1892598*
X1988306Y1892608*
X1987952Y1893080*
X1987943Y1893103*
X1987825Y1893930*
X1987824Y1893937*
X1987825Y1893947*
X1987943Y1894537*
X1987952Y1894558*
X1988306Y1895030*
X1988316Y1895040*
X1988789Y1895394*
X1988819Y1895404*
X1990354*
X1990402Y1895370*
X1990520Y1895016*
X1990522Y1895000*
Y1891929D02*
Y1888386D01*
X1990517Y1888363*
X1990399Y1888127*
X1990370Y1888102*
X1990016Y1887984*
X1990000Y1887981*
X1989173*
X1989165Y1887982*
X1988456Y1888100*
X1988435Y1888110*
X1987962Y1888464*
X1987949Y1888478*
X1987595Y1889069*
X1987588Y1889087*
X1987470Y1889914*
Y1889928*
X1987588Y1890755*
X1987593Y1890770*
X1987947Y1891479*
X1987966Y1891500*
X1988557Y1891854*
X1988576Y1891861*
X1989402Y1891979*
X1989409*
X1990472*
X1990522Y1891929*
X1985697Y1890393D02*
X1985465Y1891320D01*
X1984999Y1892135*
X1984308Y1892826*
X1983268Y1892942*
X1982346Y1892827*
X1981652Y1892133*
X1981072Y1891320*
X1980956Y1890396*
X1981189Y1889349*
X1981653Y1888537*
X1982346Y1887959*
X1983268Y1887729*
X1984308Y1887960*
X1985000Y1888537*
X1985465Y1889349*
X1985697Y1890393*
X1984971Y1890276D02*
Y1890269D01*
X1984853Y1889325*
X1984849Y1889311*
X1984495Y1888484*
X1984479Y1888464*
X1984006Y1888110*
X1983985Y1888100*
X1983276Y1887982*
X1983259*
X1982551Y1888100*
X1982524Y1888114*
X1982051Y1888587*
X1982042Y1888600*
X1981688Y1889308*
X1981683Y1889325*
X1981565Y1890269*
X1981564Y1890276*
Y1890281*
X1981683Y1891344*
X1981686Y1891358*
X1982041Y1892185*
X1982055Y1892204*
X1982646Y1892677*
X1982667Y1892687*
X1983258Y1892805*
X1983276*
X1983985Y1892687*
X1984012Y1892673*
X1984484Y1892201*
X1984495Y1892185*
X1984849Y1891358*
X1984853Y1891344*
X1984971Y1890281*
Y1890276*
X1979791Y1890393D02*
X1979559Y1891320D01*
X1979094Y1892135*
X1978402Y1892826*
X1977363Y1892942*
X1976441Y1892827*
X1975747Y1892133*
X1975166Y1891320*
X1975051Y1890396*
X1975283Y1889349*
X1975748Y1888537*
X1976441Y1887959*
X1977363Y1887729*
X1978403Y1887960*
X1979095Y1888537*
X1979559Y1889349*
X1979791Y1890393*
X1979066Y1890276D02*
X1979065Y1890269D01*
X1978947Y1889325*
X1978944Y1889311*
X1978589Y1888484*
X1978573Y1888464*
X1978101Y1888110*
X1978079Y1888100*
X1977370Y1887982*
X1977354*
X1976645Y1888100*
X1976618Y1888114*
X1976146Y1888587*
X1976136Y1888600*
X1975782Y1889308*
X1975777Y1889325*
X1975659Y1890269*
Y1890276*
Y1890281*
X1975777Y1891344*
X1975781Y1891358*
X1976135Y1892185*
X1976150Y1892204*
X1976740Y1892677*
X1976762Y1892687*
X1977352Y1892805*
X1977370*
X1978079Y1892687*
X1978106Y1892673*
X1978579Y1892201*
X1978589Y1892185*
X1978944Y1891358*
X1978947Y1891344*
X1979065Y1890281*
X1979066Y1890276*
X1973411Y1889399D02*
X1973262D01*
X1973039Y1888840*
X1973032Y1888828*
X1972678Y1888356*
X1972656Y1888339*
X1972066Y1888103*
X1972055Y1888100*
X1971347Y1887982*
X1971339Y1887981*
X1970748*
X1970726Y1887987*
X1970253Y1888223*
X1970240Y1888232*
X1970004Y1888469*
X1969991Y1888492*
X1969873Y1888964*
X1969877Y1888999*
X1970113Y1889471*
X1970122Y1889484*
X1970476Y1889839*
X1970496Y1889851*
X1971558Y1890205*
X1972495Y1890556*
X1973069Y1891015*
X1973293Y1891575*
X1973066Y1892141*
X1972722Y1892600*
X1972152Y1892942*
X1971461*
X1970756Y1892825*
X1970748Y1892824*
X1969921*
X1969886Y1892839*
X1969836Y1892888*
X1969622Y1891603*
X1969777Y1891526*
X1969993Y1892066*
X1970009Y1892087*
X1970482Y1892442*
X1970489Y1892446*
X1970962Y1892683*
X1970972Y1892686*
X1971445Y1892804*
X1971457Y1892806*
X1972047*
X1972075Y1892798*
X1972429Y1892561*
X1972437Y1892555*
X1972673Y1892319*
X1972685Y1892299*
X1972803Y1891945*
X1972805Y1891919*
X1972687Y1891329*
X1972673Y1891303*
X1972437Y1891067*
X1972417Y1891055*
X1972063Y1890937*
X1972061Y1890936*
X1971236Y1890701*
X1970301Y1890350*
X1969722Y1889887*
X1969499Y1889552*
Y1889218*
X1969614Y1888643*
X1969955Y1888187*
X1970526Y1887845*
X1972156*
X1972737Y1888078*
X1972778Y1888076*
X1973011Y1887960*
X1973301Y1887863*
X1973411Y1889399*
X1967745Y1892942D02*
X1966969D01*
X1966939Y1892952*
X1966466Y1893306*
X1966454Y1893319*
X1966218Y1893673*
X1966211Y1893693*
X1966093Y1894397*
X1965988Y1894714*
X1965837*
Y1892992*
X1965787Y1892942*
X1963948*
Y1892688*
X1965787*
X1965837Y1892638*
Y1889213*
X1965836Y1889200*
X1965718Y1888728*
X1965717Y1888724*
X1965599Y1888370*
X1965574Y1888341*
X1965337Y1888223*
X1965327Y1888219*
X1964855Y1888101*
X1964827Y1888102*
X1964472Y1888220*
X1964460Y1888226*
X1964106Y1888462*
X1964092Y1888476*
X1963856Y1888831*
X1963849Y1888846*
X1963746Y1889258*
X1963600Y1889185*
X1963708Y1888643*
X1964051Y1888185*
X1964505Y1887845*
X1965649*
X1965984Y1888181*
X1966328Y1888754*
Y1892638*
X1966378Y1892688*
X1967745*
Y1892942*
X1962194Y1892115D02*
X1957215D01*
Y1891743*
X1962194*
Y1892115*
X1956052Y1888374D02*
X1955824Y1888831D01*
X1955355Y1889417*
X1954766Y1890124*
X1953232Y1891658*
X1953226Y1891665*
X1952754Y1892374*
X1952748Y1892386*
X1952512Y1893094*
X1952510Y1893100*
X1952392Y1893691*
X1952391Y1893701*
X1952392Y1893709*
X1952510Y1894418*
X1952513Y1894428*
X1952749Y1895019*
X1952765Y1895040*
X1953238Y1895394*
X1953259Y1895404*
X1953968Y1895522*
X1953989Y1895521*
X1954461Y1895403*
X1954471Y1895399*
X1954944Y1895163*
X1954963Y1895146*
X1955199Y1894792*
X1955205Y1894780*
X1955323Y1894425*
X1955324Y1894397*
X1955206Y1893925*
X1955199Y1893909*
X1954976Y1893575*
X1955079Y1893268*
X1955396Y1893162*
X1955832Y1893271*
X1955934Y1893476*
Y1893815*
X1955819Y1894622*
X1955246Y1895195*
X1954548Y1895544*
X1953856Y1895775*
X1952931Y1895543*
X1952242Y1895199*
X1951897Y1894508*
X1951666Y1893816*
X1951780Y1893245*
X1952013Y1892778*
X1952015Y1892774*
X1952247Y1892193*
X1954839Y1889602*
X1954842Y1889599*
X1955432Y1888890*
X1955435Y1888886*
X1955672Y1888532*
X1955630Y1888454*
X1952559*
X1952531Y1888462*
X1952177Y1888699*
X1952160Y1888718*
X1951924Y1889190*
X1951919Y1889203*
X1951809Y1889753*
X1951670*
X1951895Y1887845*
X1956052*
Y1888374*
X1950264Y1891811D02*
X1950030Y1893334D01*
X1949562Y1894622*
X1949214Y1895085*
X1948868Y1895431*
X1948409Y1895661*
X1947836Y1895776*
X1947380Y1895661*
X1946919Y1895431*
X1946573Y1895085*
X1946225Y1894621*
X1945757Y1893452*
X1945523Y1891811*
X1945758Y1890051*
X1946226Y1888764*
X1946573Y1888301*
X1946915Y1887959*
X1947836Y1887728*
X1948412Y1887844*
X1948756Y1887958*
X1949216Y1888303*
X1949562Y1888764*
X1950030Y1890051*
X1950264Y1891811*
X1949420D02*
Y1891807D01*
X1949302Y1890154*
X1949301Y1890148*
X1949065Y1888967*
X1949057Y1888949*
X1948821Y1888594*
X1948815Y1888587*
X1948461Y1888232*
X1948448Y1888223*
X1948211Y1888105*
X1948205Y1888102*
X1947850Y1887984*
X1947812Y1887987*
X1947579Y1888103*
X1947228Y1888220*
X1947202Y1888240*
X1946730Y1888949*
X1946723Y1888967*
X1946486Y1890148*
Y1890154*
X1946367Y1891807*
Y1891811*
Y1891815*
X1946486Y1893232*
X1946486D02*
Y1893238D01*
X1946723Y1894419*
X1946727Y1894432*
X1946963Y1894904*
X1946973Y1894917*
X1947445Y1895390*
X1947480Y1895404*
X1948189*
X1948224Y1895390*
X1948457Y1895157*
X1948807Y1894923*
X1948824Y1894904*
X1949060Y1894432*
X1949065Y1894419*
X1949301Y1893238*
X1949302Y1893232*
X1949302D02*
X1949420Y1891815D01*
Y1891811*
X1944241Y1888374D02*
X1944013Y1888831D01*
X1943544Y1889417*
X1942955Y1890124*
X1941421Y1891658*
X1941415Y1891665*
X1940943Y1892374*
X1940937Y1892386*
X1940701Y1893094*
X1940699Y1893100*
X1940581Y1893691*
X1940580Y1893701*
X1940581Y1893709*
X1940699Y1894418*
X1940702Y1894428*
X1940938Y1895019*
X1940954Y1895040*
X1941427Y1895394*
X1941448Y1895404*
X1942157Y1895522*
X1942177Y1895521*
X1942650Y1895403*
X1942660Y1895399*
X1943133Y1895163*
X1943152Y1895146*
X1943388Y1894792*
X1943394Y1894780*
X1943512Y1894425*
X1943513Y1894397*
X1943395Y1893925*
X1943388Y1893909*
X1943165Y1893575*
X1943268Y1893268*
X1943585Y1893162*
X1944021Y1893271*
X1944123Y1893476*
Y1893815*
X1944008Y1894622*
X1943435Y1895195*
X1942737Y1895544*
X1942045Y1895775*
X1941120Y1895543*
X1940431Y1895199*
X1940086Y1894508*
X1939855Y1893816*
X1939969Y1893245*
X1940202Y1892778*
X1940204Y1892774*
X1940436Y1892193*
X1943027Y1889602*
X1943031Y1889599*
X1943621Y1888890*
X1943624Y1888886*
X1943861Y1888532*
X1943861D02*
X1943819Y1888454D01*
X1940748*
X1940720Y1888462*
X1940366Y1888699*
X1940349Y1888718*
X1940113Y1889190*
X1940108Y1889203*
X1939998Y1889753*
X1939859*
X1940084Y1887845*
X1944241*
Y1888374*
X1938336D02*
X1938107Y1888831D01*
X1937638Y1889417*
X1937050Y1890124*
X1935516Y1891658*
X1935510Y1891665*
X1935037Y1892374*
X1935031Y1892386*
X1934795Y1893094*
X1934793Y1893100*
X1934675Y1893691*
X1934674Y1893701*
X1934675Y1893709*
X1934793Y1894418*
X1934796Y1894428*
X1935032Y1895019*
X1935049Y1895040*
X1935521Y1895394*
X1935543Y1895404*
X1936252Y1895522*
X1936272Y1895521*
X1936744Y1895403*
X1936755Y1895399*
X1937227Y1895163*
X1937246Y1895146*
X1937483Y1894792*
X1937488Y1894780*
X1937606Y1894425*
X1937608Y1894397*
X1937489Y1893925*
X1937483Y1893909*
X1937260Y1893575*
X1937362Y1893268*
X1937679Y1893162*
X1938115Y1893271*
X1938218Y1893476*
Y1893815*
X1938102Y1894622*
X1937529Y1895195*
X1936831Y1895544*
X1936140Y1895775*
X1935214Y1895543*
X1934525Y1895199*
X1934180Y1894508*
X1933949Y1893816*
X1934063Y1893245*
X1934297Y1892778*
X1934298Y1892774*
X1934531Y1892193*
X1937122Y1889602*
X1937125Y1889599*
X1937716Y1888890*
X1937719Y1888886*
X1937955Y1888532*
X1937913Y1888454*
X1934843*
X1934815Y1888462*
X1934460Y1888699*
X1934443Y1888718*
X1934207Y1889190*
X1934203Y1889203*
X1934093Y1889753*
X1933954*
X1934178Y1887845*
X1938336*
Y1888374*
X1932548Y1891811D02*
X1932314Y1893334D01*
X1931845Y1894622*
X1931498Y1895085*
X1931151Y1895431*
X1930692Y1895661*
X1930119Y1895776*
X1929663Y1895661*
X1929203Y1895431*
X1928857Y1895085*
X1928509Y1894621*
X1928041Y1893452*
X1927806Y1891811*
X1928041Y1890051*
X1928509Y1888764*
X1928857Y1888301*
X1929199Y1887959*
X1930119Y1887728*
X1930696Y1887844*
X1931039Y1887958*
X1931500Y1888303*
X1931845Y1888764*
X1932313Y1890051*
X1932548Y1891811*
X1931704D02*
X1931703Y1891807D01*
X1931585Y1890154*
X1931584Y1890148*
X1931348Y1888967*
X1931341Y1888949*
X1931105Y1888594*
X1931098Y1888587*
X1930744Y1888232*
X1930731Y1888223*
X1930495Y1888105*
X1930488Y1888102*
X1930134Y1887984*
X1930096Y1887987*
X1929863Y1888103*
X1929512Y1888220*
X1929486Y1888240*
X1929014Y1888949*
X1929006Y1888967*
X1928770Y1890148*
X1928769Y1890154*
X1928651Y1891807*
Y1891811*
Y1891815*
X1928769Y1893232*
X1928769D02*
X1928770Y1893238D01*
X1929006Y1894419*
X1929010Y1894432*
X1929247Y1894904*
X1929256Y1894917*
X1929728Y1895390*
X1929764Y1895404*
X1930472*
X1930508Y1895390*
X1930741Y1895157*
X1931091Y1894923*
X1931108Y1894904*
X1931344Y1894432*
X1931348Y1894419*
X1931584Y1893238*
X1931585Y1893232*
X1931585D02*
X1931703Y1891815D01*
X1931704Y1891811*
X1926642Y1891340D02*
X1926525Y1892395D01*
X1926408Y1893218*
X1926174Y1894035*
X1925826Y1894615*
X1925361Y1895080*
X1924897Y1895428*
X1924316Y1895661*
X1923740Y1895776*
X1923171Y1895662*
X1922714Y1895319*
X1922484Y1894975*
X1922376Y1894758*
X1922483Y1894330*
X1922795Y1894226*
X1923110Y1894331*
X1923218Y1894654*
Y1895000*
X1923220Y1895016*
X1923338Y1895370*
X1923386Y1895404*
X1923610*
X1923836Y1895517*
X1923874Y1895520*
X1924583Y1895284*
X1924595Y1895278*
X1925303Y1894805*
X1925320Y1894786*
X1925557Y1894314*
X1925561Y1894300*
X1925679Y1893591*
Y1893590*
X1925798Y1892763*
Y1892756*
Y1891575*
X1925705Y1891549*
X1925354Y1892134*
X1925010Y1892479*
X1924551Y1892708*
X1923978Y1892823*
X1923057Y1892593*
X1922480Y1892015*
X1922017Y1891321*
X1921901Y1890396*
X1922134Y1889230*
X1922597Y1888421*
X1923289Y1887959*
X1924097Y1887729*
X1924674Y1887844*
X1925136Y1887959*
X1925597Y1888306*
X1925942Y1888650*
X1926408Y1889816*
X1926642Y1891340*
X1925798Y1890984D02*
Y1890980D01*
X1925680Y1889681*
X1925677Y1889667*
X1925322Y1888723*
X1925315Y1888709*
X1924842Y1888118*
X1924811Y1888100*
X1924103Y1887982*
X1924085*
X1923494Y1888101*
X1923474Y1888110*
X1923001Y1888464*
X1922984Y1888488*
X1922748Y1889197*
X1922746Y1889208*
X1922627Y1890389*
Y1890394*
X1922628Y1890401*
X1922746Y1891228*
X1922749Y1891239*
X1922985Y1891830*
X1923001Y1891851*
X1923474Y1892205*
X1923482Y1892210*
X1923954Y1892446*
X1923986Y1892451*
X1924577Y1892332*
X1924595Y1892325*
X1924949Y1892089*
X1924957Y1892083*
X1925429Y1891610*
X1925437Y1891601*
X1925791Y1891010*
X1925798Y1890984*
X1919911Y1895068D02*
X1919606D01*
X1919600*
X1918655Y1895187*
X1918626Y1895201*
X1918050Y1895777*
X1918003*
Y1888858*
X1918000Y1888842*
X1917882Y1888488*
X1917879Y1888482*
X1917761Y1888245*
X1917732Y1888220*
X1917024Y1887984*
X1917008Y1887981*
X1916704*
Y1887845*
X1919911*
Y1887981*
X1919606*
X1919594Y1887983*
X1919122Y1888101*
X1919111Y1888105*
X1919111D02*
X1918875Y1888223D01*
X1918851Y1888249*
X1918615Y1888840*
X1918611Y1888858*
Y1894409*
X1918617Y1894432*
X1918735Y1894668*
X1918764Y1894693*
X1919118Y1894811*
X1919134Y1894814*
X1919911*
Y1895068*
X1914586Y1893751D02*
X1914249Y1895659D01*
X1910207*
Y1895368*
X1911145Y1893845*
X1911149Y1893837*
X1911740Y1892301*
Y1892299*
X1912213Y1890882*
X1912215Y1890871*
X1912333Y1889690*
Y1889685*
Y1888043*
X1912437Y1887836*
X1912756Y1887730*
X1913075Y1887836*
X1913182Y1888051*
X1913296Y1888391*
X1913179Y1889439*
X1912826Y1890615*
X1912591Y1891319*
X1912121Y1892261*
X1912120Y1892263*
X1911530Y1893561*
X1910821Y1894978*
X1910866Y1895050*
X1913110*
X1913122Y1895049*
X1913595Y1894930*
X1913610Y1894923*
X1913965Y1894687*
X1913979Y1894673*
X1914215Y1894319*
X1914220Y1894310*
X1914443Y1893751*
X1914586*
X1909044Y1892115D02*
X1904066D01*
Y1891743*
X1909044*
Y1892115*
X1903375Y1895659D02*
X1901467D01*
Y1895404*
X1901654*
X1901676Y1895399*
X1901912Y1895281*
X1901940Y1895236*
Y1894882*
X1901938Y1894870*
X1900639Y1889437*
X1900542Y1889436*
X1899125Y1894751*
X1899123Y1894764*
Y1895236*
X1899157Y1895284*
X1899512Y1895402*
X1899528Y1895404*
X1899596*
Y1895659*
X1898042*
Y1895404*
X1898228*
X1898244Y1895402*
X1898598Y1895284*
X1898627Y1895259*
X1898864Y1894786*
X1898867Y1894777*
X1900747Y1887845*
X1900906*
X1902668Y1894776*
X1902786Y1895248*
X1902819Y1895284*
X1903173Y1895402*
X1903189Y1895404*
X1903375*
Y1895659*
X1896992Y1889328D02*
X1896774Y1889766D01*
X1896342Y1889982*
X1896034Y1889776*
Y1889573*
X1896150Y1889108*
X1896268Y1888756*
Y1888724*
X1896150Y1888370*
X1896130Y1888344*
X1895776Y1888108*
X1895754Y1888100*
X1894809Y1887982*
X1894793*
X1894203Y1888101*
X1894177Y1888114*
X1893705Y1888587*
X1893695Y1888600*
X1893341Y1889308*
X1893336Y1889325*
X1893218Y1890269*
Y1890276*
Y1890283*
X1893336Y1891109*
X1893338Y1891118*
X1893575Y1891827*
X1893587Y1891846*
X1894059Y1892319*
X1894085Y1892332*
X1894675Y1892451*
X1894699Y1892450*
X1895526Y1892213*
X1895540Y1892207*
X1895894Y1891971*
X1895906Y1891959*
X1896245Y1891507*
X1896640*
X1896409Y1895659*
X1892736*
X1892838Y1895050*
X1896102*
X1896152Y1895004*
X1896388Y1891933*
X1896389Y1891929*
X1896303Y1891894*
X1895833Y1892364*
X1895374Y1892708*
X1894454Y1892823*
X1893762Y1892592*
X1893070Y1892131*
X1892726Y1891442*
X1892609Y1890394*
X1892726Y1889345*
X1893188Y1888420*
X1893878Y1887960*
X1894923Y1887728*
X1895614Y1887843*
X1896306Y1888189*
X1896767Y1888766*
X1896992Y1889328*
X1890854Y1888268D02*
X1890744Y1888706D01*
X1890315Y1888920*
X1889880Y1888703*
X1889662Y1888268*
X1889877Y1887838*
X1890315Y1887729*
X1890746Y1887837*
X1890854Y1888268*
X1885304Y1891811D02*
X1885069Y1893334D01*
X1884601Y1894622*
X1884253Y1895085*
X1883907Y1895431*
X1883448Y1895661*
X1882875Y1895776*
X1882419Y1895661*
X1881959Y1895431*
X1881613Y1895085*
X1881264Y1894621*
X1880797Y1893452*
X1880562Y1891811*
X1880797Y1890051*
X1881265Y1888764*
X1881613Y1888301*
X1881955Y1887959*
X1882875Y1887728*
X1883452Y1887844*
X1883795Y1887958*
X1884256Y1888303*
X1884601Y1888764*
X1885069Y1890051*
X1885304Y1891811*
X1884459D02*
Y1891807D01*
X1884341Y1890154*
X1884340Y1890148*
X1884104Y1888967*
X1884097Y1888949*
X1883861Y1888594*
X1883861D02*
X1883854Y1888587D01*
X1883500Y1888232*
X1883487Y1888223*
X1883251Y1888105*
X1883244Y1888102*
X1882890Y1887984*
X1882852Y1887987*
X1882619Y1888103*
X1882268Y1888220*
X1882242Y1888240*
X1881769Y1888949*
X1881762Y1888967*
X1881526Y1890148*
X1881525Y1890154*
X1881407Y1891807*
Y1891811*
Y1891815*
X1881525Y1893232*
X1881525D02*
X1881526Y1893238D01*
X1881762Y1894419*
X1881766Y1894432*
X1882003Y1894904*
X1882012Y1894917*
X1882484Y1895390*
X1882520Y1895404*
X1883228*
X1883264Y1895390*
X1883496Y1895157*
X1883847Y1894923*
X1883864Y1894904*
X1884100Y1894432*
X1884104Y1894419*
X1884340Y1893238*
X1884341Y1893232*
X1884341D02*
X1884459Y1891815D01*
Y1891811*
X1880600Y1891528D02*
Y1892075D01*
X1880700Y1890778D02*
Y1892775D01*
X1880800Y1890043D02*
Y1893460D01*
X1880900Y1889768D02*
Y1893710D01*
X1881000Y1889493D02*
Y1893960D01*
X1881100Y1889218D02*
Y1894210D01*
X1881200Y1888943D02*
Y1894460D01*
X1881300Y1888717D02*
Y1894668D01*
X1881400Y1888584D02*
Y1894802D01*
X1881500Y1888451D02*
Y1890503D01*
Y1892933D02*
Y1894935D01*
X1881600Y1888317D02*
Y1889777D01*
Y1893609D02*
Y1895068D01*
X1881700Y1888213D02*
Y1889277D01*
Y1894109D02*
Y1895173D01*
X1881800Y1888113D02*
Y1888903D01*
Y1894499D02*
Y1895273D01*
X1881900Y1888013D02*
Y1888753D01*
Y1894699D02*
Y1895373D01*
X1882000Y1887947D02*
Y1888603D01*
Y1894899D02*
Y1895452D01*
X1882100Y1887922D02*
Y1888453D01*
Y1895005D02*
Y1895502D01*
X1882200Y1887897D02*
Y1888303D01*
Y1895105D02*
Y1895552D01*
X1882300Y1887872D02*
Y1888210D01*
Y1895205D02*
Y1895602D01*
X1882400Y1887847D02*
Y1888176D01*
Y1895305D02*
Y1895652D01*
X1882500Y1887822D02*
Y1888143D01*
Y1895400D02*
Y1895682D01*
X1882600Y1887797D02*
Y1888110D01*
Y1895404D02*
Y1895707D01*
X1882700Y1887772D02*
Y1888063D01*
Y1895404D02*
Y1895732D01*
X1882800Y1887747D02*
Y1888013D01*
Y1895404D02*
Y1895757D01*
X1882900Y1887733D02*
Y1887987D01*
Y1895404D02*
Y1895771D01*
X1883000Y1887753D02*
Y1888021D01*
Y1895404D02*
Y1895751D01*
X1883100Y1887773D02*
Y1888054D01*
Y1895404D02*
Y1895731D01*
X1883200Y1887793D02*
Y1888087D01*
Y1895404D02*
Y1895711D01*
X1883300Y1887813D02*
Y1888130D01*
Y1895353D02*
Y1895691D01*
X1883400Y1887833D02*
Y1888180D01*
Y1895253D02*
Y1895671D01*
X1883500Y1887860D02*
Y1888232D01*
Y1895155D02*
Y1895635D01*
X1883600Y1887893D02*
Y1888332D01*
Y1895088D02*
Y1895585D01*
X1883700Y1887926D02*
Y1888432D01*
Y1895021D02*
Y1895535D01*
X1883800Y1887962D02*
Y1888532D01*
Y1894955D02*
Y1895485D01*
X1883900Y1888037D02*
Y1888654D01*
Y1894831D02*
Y1895435D01*
X1884000Y1888112D02*
Y1888804D01*
Y1894631D02*
Y1895339D01*
X1884100Y1888187D02*
Y1888954D01*
Y1894431D02*
Y1895239D01*
X1884200Y1888262D02*
Y1889446D01*
Y1893940D02*
Y1895139D01*
X1884300Y1888363D02*
Y1889946D01*
Y1893440D02*
Y1895023D01*
X1884400Y1888496D02*
Y1890977D01*
Y1892526D02*
Y1894890D01*
X1884500Y1888629D02*
Y1894757D01*
X1884600Y1888763D02*
Y1894623D01*
X1884700Y1889036D02*
Y1894350D01*
X1884800Y1889311D02*
Y1894075D01*
X1884900Y1889586D02*
Y1893800D01*
X1885000Y1889861D02*
Y1893525D01*
X1885100Y1890282D02*
Y1893135D01*
X1885200Y1891032D02*
Y1892485D01*
X1885300Y1891782D02*
Y1891835D01*
X1889700Y1888192D02*
Y1888343D01*
X1889800Y1887992D02*
Y1888543D01*
X1889900Y1887832D02*
Y1888713D01*
X1890000Y1887807D02*
Y1888763D01*
X1890100Y1887782D02*
Y1888813D01*
X1890200Y1887757D02*
Y1888863D01*
X1890300Y1887732D02*
Y1888913D01*
X1890400Y1887750D02*
Y1888878D01*
X1890500Y1887775D02*
Y1888828D01*
X1890600Y1887800D02*
Y1888778D01*
X1890700Y1887825D02*
Y1888728D01*
X1890800Y1888052D02*
Y1888484D01*
X1892700Y1889578D02*
Y1891209D01*
X1892800Y1889197D02*
Y1891591D01*
Y1895276D02*
Y1895659D01*
X1892900Y1888997D02*
Y1891791D01*
Y1895050D02*
Y1895659D01*
X1893000Y1888797D02*
Y1891991D01*
Y1895050D02*
Y1895659D01*
X1893100Y1888597D02*
Y1892151D01*
Y1895050D02*
Y1895659D01*
X1893200Y1888412D02*
Y1892218D01*
Y1895050D02*
Y1895659D01*
X1893300Y1888346D02*
Y1889614D01*
Y1890855D02*
Y1892284D01*
Y1895050D02*
Y1895659D01*
X1893400Y1888279D02*
Y1889191D01*
Y1891303D02*
Y1892351D01*
Y1895050D02*
Y1895659D01*
X1893500Y1888212D02*
Y1888991D01*
Y1891603D02*
Y1892418D01*
Y1895050D02*
Y1895659D01*
X1893600Y1888146D02*
Y1888791D01*
Y1891860D02*
Y1892484D01*
Y1895050D02*
Y1895659D01*
X1893700Y1888079D02*
Y1888592D01*
Y1891960D02*
Y1892551D01*
Y1895050D02*
Y1895659D01*
X1893800Y1888012D02*
Y1888491D01*
Y1892060D02*
Y1892605D01*
Y1895050D02*
Y1895659D01*
X1893900Y1887955D02*
Y1888391D01*
Y1892160D02*
Y1892638D01*
Y1895050D02*
Y1895659D01*
X1894000Y1887933D02*
Y1888291D01*
Y1892260D02*
Y1892672D01*
Y1895050D02*
Y1895659D01*
X1894100Y1887911D02*
Y1888191D01*
Y1892336D02*
Y1892705D01*
Y1895050D02*
Y1895659D01*
X1894200Y1887889D02*
Y1888101D01*
Y1892356D02*
Y1892738D01*
Y1895050D02*
Y1895659D01*
X1894300Y1887866D02*
Y1888081D01*
Y1892376D02*
Y1892772D01*
Y1895050D02*
Y1895659D01*
X1894400Y1887844D02*
Y1888061D01*
Y1892396D02*
Y1892805D01*
Y1895050D02*
Y1895659D01*
X1894500Y1887822D02*
Y1888041D01*
Y1892416D02*
Y1892817D01*
Y1895050D02*
Y1895659D01*
X1894600Y1887800D02*
Y1888021D01*
Y1892436D02*
Y1892805D01*
Y1895050D02*
Y1895659D01*
X1894700Y1887778D02*
Y1888001D01*
Y1892449D02*
Y1892792D01*
Y1895050D02*
Y1895659D01*
X1894800Y1887755D02*
Y1887982D01*
Y1892421D02*
Y1892780D01*
Y1895050D02*
Y1895659D01*
X1894900Y1887733D02*
Y1887993D01*
Y1892392D02*
Y1892767D01*
Y1895050D02*
Y1895659D01*
X1895000Y1887741D02*
Y1888006D01*
Y1892364D02*
Y1892755D01*
Y1895050D02*
Y1895659D01*
X1895100Y1887758D02*
Y1888018D01*
Y1892335D02*
Y1892742D01*
Y1895050D02*
Y1895659D01*
X1895200Y1887774D02*
Y1888031D01*
Y1892306D02*
Y1892730D01*
Y1895050D02*
Y1895659D01*
X1895300Y1887791D02*
Y1888043D01*
Y1892278D02*
Y1892717D01*
Y1895050D02*
Y1895659D01*
X1895400Y1887808D02*
Y1888056D01*
Y1892249D02*
Y1892689D01*
Y1895050D02*
Y1895659D01*
X1895500Y1887824D02*
Y1888068D01*
Y1892221D02*
Y1892614D01*
Y1895050D02*
Y1895659D01*
X1895600Y1887841D02*
Y1888081D01*
Y1892167D02*
Y1892539D01*
Y1895050D02*
Y1895659D01*
X1895700Y1887886D02*
Y1888093D01*
Y1892100D02*
Y1892464D01*
Y1895050D02*
Y1895659D01*
X1895800Y1887936D02*
Y1888124D01*
Y1892033D02*
Y1892389D01*
Y1895050D02*
Y1895659D01*
X1895900Y1887986D02*
Y1888191D01*
Y1891966D02*
Y1892297D01*
Y1895050D02*
Y1895659D01*
X1896000Y1888036D02*
Y1888257D01*
Y1891834D02*
Y1892197D01*
Y1895050D02*
Y1895659D01*
X1896100Y1888086D02*
Y1888324D01*
Y1889310D02*
Y1889820D01*
Y1891701D02*
Y1892097D01*
Y1895050D02*
Y1895659D01*
X1896200Y1888136D02*
Y1888521D01*
Y1888960D02*
Y1889887D01*
Y1891567D02*
Y1891997D01*
Y1894383D02*
Y1895659D01*
X1896300Y1888186D02*
Y1889954D01*
Y1891507D02*
Y1891897D01*
Y1893083D02*
Y1895659D01*
X1896400Y1888306D02*
Y1889953D01*
Y1891507D02*
Y1895659D01*
X1896500Y1888431D02*
Y1889903D01*
Y1891507D02*
Y1894028D01*
X1896600Y1888556D02*
Y1889853D01*
Y1891507D02*
Y1892228D01*
X1896700Y1888681D02*
Y1889803D01*
X1896800Y1888847D02*
Y1889713D01*
X1896900Y1889097D02*
Y1889513D01*
X1898100Y1895404D02*
Y1895659D01*
X1898200Y1895404D02*
Y1895659D01*
X1898300Y1895383D02*
Y1895659D01*
X1898400Y1895350D02*
Y1895659D01*
X1898500Y1895316D02*
Y1895659D01*
X1898600Y1895283D02*
Y1895659D01*
X1898700Y1895113D02*
Y1895659D01*
X1898800Y1894913D02*
Y1895659D01*
X1898900Y1894656D02*
Y1895659D01*
X1899000Y1894287D02*
Y1895659D01*
X1899100Y1893918D02*
Y1895659D01*
X1899200Y1893549D02*
Y1894469D01*
Y1895298D02*
Y1895659D01*
X1899300Y1893181D02*
Y1894094D01*
Y1895331D02*
Y1895659D01*
X1899400Y1892812D02*
Y1893719D01*
Y1895365D02*
Y1895659D01*
X1899500Y1892443D02*
Y1893344D01*
Y1895398D02*
Y1895659D01*
X1899600Y1892074D02*
Y1892969D01*
X1899700Y1891706D02*
Y1892594D01*
X1899800Y1891337D02*
Y1892219D01*
X1899900Y1890968D02*
Y1891844D01*
X1900000Y1890599D02*
Y1891469D01*
X1900100Y1890231D02*
Y1891094D01*
X1900200Y1889862D02*
Y1890719D01*
X1900300Y1889493D02*
Y1890344D01*
X1900400Y1889124D02*
Y1889969D01*
X1900500Y1888756D02*
Y1889594D01*
X1900600Y1888387D02*
Y1889400D01*
X1900700Y1888018D02*
Y1889692D01*
X1900800Y1887845D02*
Y1890110D01*
X1900900Y1887845D02*
Y1890528D01*
X1901000Y1888215D02*
Y1890946D01*
X1901100Y1888608D02*
Y1891364D01*
X1901200Y1889002D02*
Y1891782D01*
X1901300Y1889395D02*
Y1892201D01*
X1901400Y1889788D02*
Y1892619D01*
X1901500Y1890182D02*
Y1893037D01*
Y1895404D02*
Y1895659D01*
X1901600Y1890575D02*
Y1893455D01*
Y1895404D02*
Y1895659D01*
X1901700Y1890968D02*
Y1893873D01*
Y1895387D02*
Y1895659D01*
X1901800Y1891362D02*
Y1894292D01*
Y1895337D02*
Y1895659D01*
X1901900Y1891755D02*
Y1894710D01*
Y1895287D02*
Y1895659D01*
X1902000Y1892148D02*
Y1895659D01*
X1902100Y1892542D02*
Y1895659D01*
X1902200Y1892935D02*
Y1895659D01*
X1902300Y1893328D02*
Y1895659D01*
X1902400Y1893722D02*
Y1895659D01*
X1902500Y1894115D02*
Y1895659D01*
X1902600Y1894508D02*
Y1895659D01*
X1902700Y1894904D02*
Y1895659D01*
X1902800Y1895272D02*
Y1895659D01*
X1902900Y1895311D02*
Y1895659D01*
X1903000Y1895344D02*
Y1895659D01*
X1903100Y1895377D02*
Y1895659D01*
X1903200Y1895404D02*
Y1895659D01*
X1903300Y1895404D02*
Y1895659D01*
X1904100Y1891743D02*
Y1892115D01*
X1904200Y1891743D02*
Y1892115D01*
X1904300Y1891743D02*
Y1892115D01*
X1904400Y1891743D02*
Y1892115D01*
X1904500Y1891743D02*
Y1892115D01*
X1904600Y1891743D02*
Y1892115D01*
X1904700Y1891743D02*
Y1892115D01*
X1904800Y1891743D02*
Y1892115D01*
X1904900Y1891743D02*
Y1892115D01*
X1905000Y1891743D02*
Y1892115D01*
X1905100Y1891743D02*
Y1892115D01*
X1905200Y1891743D02*
Y1892115D01*
X1905300Y1891743D02*
Y1892115D01*
X1905400Y1891743D02*
Y1892115D01*
X1905500Y1891743D02*
Y1892115D01*
X1905600Y1891743D02*
Y1892115D01*
X1905700Y1891743D02*
Y1892115D01*
X1905800Y1891743D02*
Y1892115D01*
X1905900Y1891743D02*
Y1892115D01*
X1906000Y1891743D02*
Y1892115D01*
X1906100Y1891743D02*
Y1892115D01*
X1906200Y1891743D02*
Y1892115D01*
X1906300Y1891743D02*
Y1892115D01*
X1906400Y1891743D02*
Y1892115D01*
X1906500Y1891743D02*
Y1892115D01*
X1906600Y1891743D02*
Y1892115D01*
X1906700Y1891743D02*
Y1892115D01*
X1906800Y1891743D02*
Y1892115D01*
X1906900Y1891743D02*
Y1892115D01*
X1907000Y1891743D02*
Y1892115D01*
X1907100Y1891743D02*
Y1892115D01*
X1907200Y1891743D02*
Y1892115D01*
X1907300Y1891743D02*
Y1892115D01*
X1907400Y1891743D02*
Y1892115D01*
X1907500Y1891743D02*
Y1892115D01*
X1907600Y1891743D02*
Y1892115D01*
X1907700Y1891743D02*
Y1892115D01*
X1907800Y1891743D02*
Y1892115D01*
X1907900Y1891743D02*
Y1892115D01*
X1908000Y1891743D02*
Y1892115D01*
X1908100Y1891743D02*
Y1892115D01*
X1908200Y1891743D02*
Y1892115D01*
X1908300Y1891743D02*
Y1892115D01*
X1908400Y1891743D02*
Y1892115D01*
X1908500Y1891743D02*
Y1892115D01*
X1908600Y1891743D02*
Y1892115D01*
X1908700Y1891743D02*
Y1892115D01*
X1908800Y1891743D02*
Y1892115D01*
X1908900Y1891743D02*
Y1892115D01*
X1909000Y1891743D02*
Y1892115D01*
X1910300Y1895218D02*
Y1895659D01*
X1910400Y1895056D02*
Y1895659D01*
X1910500Y1894893D02*
Y1895659D01*
X1910600Y1894731D02*
Y1895659D01*
X1910700Y1894568D02*
Y1895659D01*
X1910800Y1894406D02*
Y1895659D01*
X1910900Y1894243D02*
Y1894820D01*
Y1895050D02*
Y1895659D01*
X1911000Y1894081D02*
Y1894620D01*
Y1895050D02*
Y1895659D01*
X1911100Y1893918D02*
Y1894420D01*
Y1895050D02*
Y1895659D01*
X1911200Y1893704D02*
Y1894220D01*
Y1895050D02*
Y1895659D01*
X1911300Y1893444D02*
Y1894020D01*
Y1895050D02*
Y1895659D01*
X1911400Y1893184D02*
Y1893820D01*
Y1895050D02*
Y1895659D01*
X1911500Y1892924D02*
Y1893620D01*
Y1895050D02*
Y1895659D01*
X1911600Y1892664D02*
Y1893406D01*
Y1895050D02*
Y1895659D01*
X1911700Y1892404D02*
Y1893186D01*
Y1895050D02*
Y1895659D01*
X1911800Y1892120D02*
Y1892966D01*
Y1895050D02*
Y1895659D01*
X1911900Y1891820D02*
Y1892746D01*
Y1895050D02*
Y1895659D01*
X1912000Y1891520D02*
Y1892526D01*
Y1895050D02*
Y1895659D01*
X1912100Y1891220D02*
Y1892306D01*
Y1895050D02*
Y1895659D01*
X1912200Y1890920D02*
Y1892102D01*
Y1895050D02*
Y1895659D01*
X1912300Y1890022D02*
Y1891902D01*
Y1895050D02*
Y1895659D01*
X1912400Y1887910D02*
Y1891702D01*
Y1895050D02*
Y1895659D01*
X1912500Y1887815D02*
Y1891502D01*
Y1895050D02*
Y1895659D01*
X1912600Y1887782D02*
Y1891294D01*
Y1895050D02*
Y1895659D01*
X1912700Y1887749D02*
Y1890994D01*
Y1895050D02*
Y1895659D01*
X1912800Y1887745D02*
Y1890694D01*
Y1895050D02*
Y1895659D01*
X1912900Y1887778D02*
Y1890369D01*
Y1895050D02*
Y1895659D01*
X1913000Y1887811D02*
Y1890036D01*
Y1895050D02*
Y1895659D01*
X1913100Y1887887D02*
Y1889703D01*
Y1895050D02*
Y1895659D01*
X1913200Y1888105D02*
Y1889251D01*
Y1895029D02*
Y1895659D01*
X1913300Y1895004D02*
Y1895659D01*
X1913400Y1894979D02*
Y1895659D01*
X1913500Y1894954D02*
Y1895659D01*
X1913600Y1894929D02*
Y1895659D01*
X1913700Y1894864D02*
Y1895659D01*
X1913800Y1894797D02*
Y1895659D01*
X1913900Y1894730D02*
Y1895659D01*
X1914000Y1894641D02*
Y1895659D01*
X1914100Y1894491D02*
Y1895659D01*
X1914200Y1894341D02*
Y1895659D01*
X1914300Y1894109D02*
Y1895372D01*
X1914400Y1893859D02*
Y1894805D01*
X1914500Y1893751D02*
Y1894239D01*
X1916800Y1887845D02*
Y1887981D01*
X1916900Y1887845D02*
Y1887981D01*
X1917000Y1887845D02*
Y1887981D01*
X1917100Y1887845D02*
Y1888010D01*
X1917200Y1887845D02*
Y1888043D01*
X1917300Y1887845D02*
Y1888076D01*
X1917400Y1887845D02*
Y1888110D01*
X1917500Y1887845D02*
Y1888143D01*
X1917600Y1887845D02*
Y1888176D01*
X1917700Y1887845D02*
Y1888210D01*
X1917800Y1887845D02*
Y1888323D01*
X1917900Y1887845D02*
Y1888542D01*
X1918000Y1887845D02*
Y1888842D01*
X1918100Y1887845D02*
Y1895727D01*
X1918200Y1887845D02*
Y1895627D01*
X1918300Y1887845D02*
Y1895527D01*
X1918400Y1887845D02*
Y1895427D01*
X1918500Y1887845D02*
Y1895327D01*
X1918600Y1887845D02*
Y1895227D01*
X1918700Y1887845D02*
Y1888627D01*
Y1894598D02*
Y1895181D01*
X1918800Y1887845D02*
Y1888377D01*
Y1894705D02*
Y1895169D01*
X1918900Y1887845D02*
Y1888211D01*
Y1894739D02*
Y1895156D01*
X1919000Y1887845D02*
Y1888161D01*
Y1894772D02*
Y1895144D01*
X1919100Y1887845D02*
Y1888111D01*
Y1894805D02*
Y1895131D01*
X1919200Y1887845D02*
Y1888082D01*
Y1894814D02*
Y1895119D01*
X1919300Y1887845D02*
Y1888057D01*
Y1894814D02*
Y1895106D01*
X1919400Y1887845D02*
Y1888032D01*
Y1894814D02*
Y1895094D01*
X1919500Y1887845D02*
Y1888007D01*
Y1894814D02*
Y1895081D01*
X1919600Y1887845D02*
Y1887982D01*
Y1894814D02*
Y1895069D01*
X1919700Y1887845D02*
Y1887981D01*
Y1894814D02*
Y1895068D01*
X1919800Y1887845D02*
Y1887981D01*
Y1894814D02*
Y1895068D01*
X1919900Y1887845D02*
Y1887981D01*
Y1894814D02*
Y1895068D01*
X1922000Y1889901D02*
Y1891187D01*
X1922100Y1889401D02*
Y1891446D01*
X1922200Y1889115D02*
Y1891596D01*
X1922300Y1888940D02*
Y1891746D01*
X1922400Y1888765D02*
Y1891896D01*
Y1894661D02*
Y1894806D01*
X1922500Y1888590D02*
Y1892036D01*
Y1894324D02*
Y1894998D01*
X1922600Y1888419D02*
Y1892136D01*
Y1894291D02*
Y1895148D01*
X1922700Y1888352D02*
Y1889663D01*
Y1890907D02*
Y1892236D01*
Y1894258D02*
Y1895298D01*
X1922800Y1888285D02*
Y1889040D01*
Y1891367D02*
Y1892336D01*
Y1894228D02*
Y1895384D01*
X1922900Y1888219D02*
Y1888740D01*
Y1891617D02*
Y1892436D01*
Y1894261D02*
Y1895459D01*
X1923000Y1888152D02*
Y1888465D01*
Y1891850D02*
Y1892536D01*
Y1894294D02*
Y1895534D01*
X1923100Y1888085D02*
Y1888390D01*
Y1891925D02*
Y1892603D01*
Y1894328D02*
Y1895609D01*
X1923200Y1888019D02*
Y1888315D01*
Y1892000D02*
Y1892628D01*
Y1894601D02*
Y1895668D01*
X1923300Y1887956D02*
Y1888240D01*
Y1892075D02*
Y1892653D01*
Y1895255D02*
Y1895688D01*
X1923400Y1887928D02*
Y1888165D01*
Y1892150D02*
Y1892678D01*
Y1895404D02*
Y1895708D01*
X1923500Y1887899D02*
Y1888099D01*
Y1892219D02*
Y1892703D01*
Y1895404D02*
Y1895728D01*
X1923600Y1887870D02*
Y1888079D01*
Y1892269D02*
Y1892728D01*
Y1895404D02*
Y1895748D01*
X1923700Y1887842D02*
Y1888059D01*
Y1892319D02*
Y1892753D01*
Y1895449D02*
Y1895768D01*
X1923800Y1887813D02*
Y1888039D01*
Y1892369D02*
Y1892778D01*
Y1895499D02*
Y1895764D01*
X1923900Y1887785D02*
Y1888019D01*
Y1892419D02*
Y1892803D01*
Y1895511D02*
Y1895744D01*
X1924000Y1887756D02*
Y1887999D01*
Y1892448D02*
Y1892818D01*
Y1895478D02*
Y1895724D01*
X1924100Y1887729D02*
Y1887982D01*
Y1892428D02*
Y1892798D01*
Y1895445D02*
Y1895704D01*
X1924200Y1887749D02*
Y1887998D01*
Y1892408D02*
Y1892778D01*
Y1895411D02*
Y1895684D01*
X1924300Y1887769D02*
Y1888015D01*
Y1892388D02*
Y1892758D01*
Y1895378D02*
Y1895664D01*
X1924400Y1887789D02*
Y1888032D01*
Y1892368D02*
Y1892738D01*
Y1895345D02*
Y1895627D01*
X1924500Y1887809D02*
Y1888048D01*
Y1892348D02*
Y1892718D01*
Y1895311D02*
Y1895587D01*
X1924600Y1887829D02*
Y1888065D01*
Y1892322D02*
Y1892683D01*
Y1895274D02*
Y1895547D01*
X1924700Y1887851D02*
Y1888082D01*
Y1892255D02*
Y1892633D01*
Y1895208D02*
Y1895507D01*
X1924800Y1887876D02*
Y1888098D01*
Y1892188D02*
Y1892583D01*
Y1895141D02*
Y1895467D01*
X1924900Y1887901D02*
Y1888191D01*
Y1892122D02*
Y1892533D01*
Y1895074D02*
Y1895426D01*
X1925000Y1887926D02*
Y1888316D01*
Y1892039D02*
Y1892483D01*
Y1895008D02*
Y1895351D01*
X1925100Y1887951D02*
Y1888441D01*
Y1891939D02*
Y1892388D01*
Y1894941D02*
Y1895276D01*
X1925200Y1888008D02*
Y1888566D01*
Y1891839D02*
Y1892288D01*
Y1894874D02*
Y1895201D01*
X1925300Y1888083D02*
Y1888691D01*
Y1891739D02*
Y1892188D01*
Y1894808D02*
Y1895126D01*
X1925400Y1888158D02*
Y1888930D01*
Y1891639D02*
Y1892058D01*
Y1894627D02*
Y1895041D01*
X1925500Y1888233D02*
Y1889196D01*
Y1891495D02*
Y1891891D01*
Y1894427D02*
Y1894941D01*
X1925600Y1888309D02*
Y1889463D01*
Y1891328D02*
Y1891724D01*
Y1894066D02*
Y1894841D01*
X1925700Y1888409D02*
Y1889904D01*
Y1891161D02*
Y1891558D01*
Y1893446D02*
Y1894741D01*
X1925800Y1888509D02*
Y1894641D01*
X1925900Y1888609D02*
Y1894492D01*
X1926000Y1888796D02*
Y1894325D01*
X1926100Y1889046D02*
Y1894159D01*
X1926200Y1889296D02*
Y1893945D01*
X1926300Y1889546D02*
Y1893595D01*
X1926400Y1889796D02*
Y1893245D01*
X1926500Y1890413D02*
Y1892572D01*
X1926600Y1891063D02*
Y1891722D01*
X1927900Y1891109D02*
Y1892466D01*
X1928000Y1890359D02*
Y1893166D01*
X1928100Y1889889D02*
Y1893600D01*
X1928200Y1889614D02*
Y1893850D01*
X1928300Y1889339D02*
Y1894100D01*
X1928400Y1889064D02*
Y1894350D01*
X1928500Y1888789D02*
Y1894600D01*
X1928600Y1888643D02*
Y1894743D01*
X1928700Y1888510D02*
Y1891120D01*
Y1892404D02*
Y1894876D01*
X1928800Y1888376D02*
Y1889997D01*
Y1893389D02*
Y1895010D01*
X1928900Y1888257D02*
Y1889497D01*
Y1893889D02*
Y1895129D01*
X1929000Y1888157D02*
Y1888997D01*
Y1894389D02*
Y1895229D01*
X1929100Y1888057D02*
Y1888819D01*
Y1894611D02*
Y1895329D01*
X1929200Y1887958D02*
Y1888669D01*
Y1894811D02*
Y1895429D01*
X1929300Y1887933D02*
Y1888519D01*
Y1894961D02*
Y1895480D01*
X1929400Y1887908D02*
Y1888369D01*
Y1895061D02*
Y1895530D01*
X1929500Y1887883D02*
Y1888226D01*
Y1895161D02*
Y1895580D01*
X1929600Y1887858D02*
Y1888191D01*
Y1895261D02*
Y1895630D01*
X1929700Y1887833D02*
Y1888158D01*
Y1895361D02*
Y1895671D01*
X1929800Y1887808D02*
Y1888124D01*
Y1895404D02*
Y1895696D01*
X1929900Y1887783D02*
Y1888085D01*
Y1895404D02*
Y1895721D01*
X1930000Y1887758D02*
Y1888035D01*
Y1895404D02*
Y1895746D01*
X1930100Y1887733D02*
Y1887985D01*
Y1895404D02*
Y1895771D01*
X1930200Y1887745D02*
Y1888006D01*
Y1895404D02*
Y1895759D01*
X1930300Y1887765D02*
Y1888039D01*
Y1895404D02*
Y1895739D01*
X1930400Y1887785D02*
Y1888073D01*
Y1895404D02*
Y1895719D01*
X1930500Y1887805D02*
Y1888107D01*
Y1895396D02*
Y1895699D01*
X1930600Y1887825D02*
Y1888157D01*
Y1895297D02*
Y1895679D01*
X1930700Y1887845D02*
Y1888207D01*
Y1895197D02*
Y1895657D01*
X1930800Y1887878D02*
Y1888288D01*
Y1895117D02*
Y1895607D01*
X1930900Y1887912D02*
Y1888388D01*
Y1895051D02*
Y1895557D01*
X1931000Y1887945D02*
Y1888488D01*
Y1894984D02*
Y1895507D01*
X1931100Y1888004D02*
Y1888588D01*
Y1894916D02*
Y1895457D01*
X1931200Y1888079D02*
Y1888737D01*
Y1894720D02*
Y1895383D01*
X1931300Y1888154D02*
Y1888887D01*
Y1894520D02*
Y1895283D01*
X1931400Y1888229D02*
Y1889225D01*
Y1894160D02*
Y1895183D01*
X1931500Y1888304D02*
Y1889725D01*
Y1893660D02*
Y1895082D01*
X1931600Y1888437D02*
Y1890360D01*
Y1893056D02*
Y1894949D01*
X1931700Y1888570D02*
Y1891760D01*
Y1891856D02*
Y1894815D01*
X1931800Y1888704D02*
Y1894682D01*
X1931900Y1888915D02*
Y1894471D01*
X1932000Y1889190D02*
Y1894196D01*
X1932100Y1889465D02*
Y1893921D01*
X1932200Y1889740D02*
Y1893646D01*
X1932300Y1890015D02*
Y1893371D01*
X1932400Y1890701D02*
Y1892772D01*
X1932500Y1891451D02*
Y1892122D01*
X1934000Y1889361D02*
Y1889753D01*
Y1893562D02*
Y1893968D01*
X1934100Y1888511D02*
Y1889717D01*
Y1893172D02*
Y1894268D01*
X1934200Y1887845D02*
Y1889217D01*
Y1892972D02*
Y1894548D01*
X1934300Y1887845D02*
Y1889005D01*
Y1892770D02*
Y1894748D01*
X1934400Y1887845D02*
Y1888805D01*
Y1892520D02*
Y1894948D01*
X1934500Y1887845D02*
Y1888672D01*
Y1892270D02*
Y1895148D01*
X1934600Y1887845D02*
Y1888606D01*
Y1892124D02*
Y1895236D01*
X1934700Y1887845D02*
Y1888539D01*
Y1892024D02*
Y1893568D01*
Y1893858D02*
Y1895286D01*
X1934800Y1887845D02*
Y1888472D01*
Y1891924D02*
Y1893080D01*
Y1894438D02*
Y1895336D01*
X1934900Y1887845D02*
Y1888454D01*
Y1891824D02*
Y1892780D01*
Y1894688D02*
Y1895386D01*
X1935000Y1887845D02*
Y1888454D01*
Y1891724D02*
Y1892480D01*
Y1894938D02*
Y1895436D01*
X1935100Y1887845D02*
Y1888454D01*
Y1891624D02*
Y1892280D01*
Y1895078D02*
Y1895486D01*
X1935200Y1887845D02*
Y1888454D01*
Y1891524D02*
Y1892130D01*
Y1895153D02*
Y1895536D01*
X1935300Y1887845D02*
Y1888454D01*
Y1891424D02*
Y1891980D01*
Y1895228D02*
Y1895565D01*
X1935400Y1887845D02*
Y1888454D01*
Y1891324D02*
Y1891830D01*
Y1895303D02*
Y1895590D01*
X1935500Y1887845D02*
Y1888454D01*
Y1891224D02*
Y1891680D01*
Y1895378D02*
Y1895615D01*
X1935600Y1887845D02*
Y1888454D01*
Y1891124D02*
Y1891573D01*
Y1895413D02*
Y1895640D01*
X1935700Y1887845D02*
Y1888454D01*
Y1891024D02*
Y1891473D01*
Y1895430D02*
Y1895665D01*
X1935800Y1887845D02*
Y1888454D01*
Y1890924D02*
Y1891373D01*
Y1895446D02*
Y1895690D01*
X1935900Y1887845D02*
Y1888454D01*
Y1890824D02*
Y1891273D01*
Y1895463D02*
Y1895715D01*
X1936000Y1887845D02*
Y1888454D01*
Y1890724D02*
Y1891173D01*
Y1895480D02*
Y1895740D01*
X1936100Y1887845D02*
Y1888454D01*
Y1890624D02*
Y1891073D01*
Y1895496D02*
Y1895765D01*
X1936200Y1887845D02*
Y1888454D01*
Y1890524D02*
Y1890973D01*
Y1895513D02*
Y1895755D01*
X1936300Y1887845D02*
Y1888454D01*
Y1890424D02*
Y1890873D01*
Y1895514D02*
Y1895721D01*
X1936400Y1887845D02*
Y1888454D01*
Y1890324D02*
Y1890773D01*
Y1895489D02*
Y1895688D01*
X1936500Y1887845D02*
Y1888454D01*
Y1890224D02*
Y1890673D01*
Y1895464D02*
Y1895655D01*
X1936600Y1887845D02*
Y1888454D01*
Y1890124D02*
Y1890573D01*
Y1895439D02*
Y1895621D01*
X1936700Y1887845D02*
Y1888454D01*
Y1890024D02*
Y1890473D01*
Y1895414D02*
Y1895588D01*
X1936800Y1887845D02*
Y1888454D01*
Y1889924D02*
Y1890373D01*
Y1895376D02*
Y1895555D01*
X1936900Y1887845D02*
Y1888454D01*
Y1889824D02*
Y1890273D01*
Y1895326D02*
Y1895510D01*
X1937000Y1887845D02*
Y1888454D01*
Y1889724D02*
Y1890173D01*
Y1895276D02*
Y1895460D01*
X1937100Y1887845D02*
Y1888454D01*
Y1889624D02*
Y1890063D01*
Y1895226D02*
Y1895410D01*
X1937200Y1887845D02*
Y1888454D01*
Y1889509D02*
Y1889943D01*
Y1895176D02*
Y1895360D01*
X1937300Y1887845D02*
Y1888454D01*
Y1889389D02*
Y1889823D01*
Y1893455D02*
Y1893635D01*
Y1895065D02*
Y1895310D01*
X1937400Y1887845D02*
Y1888454D01*
Y1889269D02*
Y1889703D01*
Y1893255D02*
Y1893785D01*
Y1894915D02*
Y1895260D01*
X1937500Y1887845D02*
Y1888454D01*
Y1889149D02*
Y1889583D01*
Y1893222D02*
Y1893967D01*
Y1894745D02*
Y1895210D01*
X1937600Y1887845D02*
Y1888454D01*
Y1889029D02*
Y1889463D01*
Y1893189D02*
Y1894367D01*
Y1894445D02*
Y1895125D01*
X1937700Y1887845D02*
Y1888454D01*
Y1888909D02*
Y1889340D01*
Y1893167D02*
Y1895025D01*
X1937800Y1887845D02*
Y1888454D01*
Y1888764D02*
Y1889215D01*
Y1893192D02*
Y1894925D01*
X1937900Y1887845D02*
Y1888454D01*
Y1888614D02*
Y1889090D01*
Y1893217D02*
Y1894825D01*
X1938000Y1887845D02*
Y1888965D01*
Y1893242D02*
Y1894725D01*
X1938100Y1887845D02*
Y1888840D01*
Y1893267D02*
Y1894625D01*
X1938200Y1887845D02*
Y1888646D01*
Y1893441D02*
Y1893939D01*
X1938300Y1887845D02*
Y1888446D01*
X1939900Y1889408D02*
Y1889753D01*
Y1893590D02*
Y1893951D01*
X1940000Y1888558D02*
Y1889745D01*
Y1893183D02*
Y1894251D01*
X1940100Y1887845D02*
Y1889245D01*
Y1892983D02*
Y1894537D01*
X1940200Y1887845D02*
Y1889016D01*
Y1892783D02*
Y1894737D01*
X1940300Y1887845D02*
Y1888816D01*
Y1892534D02*
Y1894937D01*
X1940400Y1887845D02*
Y1888676D01*
Y1892284D02*
Y1895137D01*
X1940500Y1887845D02*
Y1888609D01*
Y1892130D02*
Y1895233D01*
X1940600Y1887845D02*
Y1888543D01*
Y1892030D02*
Y1893595D01*
Y1893825D02*
Y1895283D01*
X1940700Y1887845D02*
Y1888476D01*
Y1891930D02*
Y1893096D01*
Y1894423D02*
Y1895333D01*
X1940800Y1887845D02*
Y1888454D01*
Y1891830D02*
Y1892796D01*
Y1894674D02*
Y1895383D01*
X1940900Y1887845D02*
Y1888454D01*
Y1891730D02*
Y1892496D01*
Y1894924D02*
Y1895433D01*
X1941000Y1887845D02*
Y1888454D01*
Y1891630D02*
Y1892288D01*
Y1895074D02*
Y1895483D01*
X1941100Y1887845D02*
Y1888454D01*
Y1891530D02*
Y1892138D01*
Y1895149D02*
Y1895533D01*
X1941200Y1887845D02*
Y1888454D01*
Y1891430D02*
Y1891988D01*
Y1895224D02*
Y1895563D01*
X1941300Y1887845D02*
Y1888454D01*
Y1891330D02*
Y1891838D01*
Y1895299D02*
Y1895588D01*
X1941400Y1887845D02*
Y1888454D01*
Y1891230D02*
Y1891688D01*
Y1895374D02*
Y1895613D01*
X1941500Y1887845D02*
Y1888454D01*
Y1891130D02*
Y1891579D01*
Y1895412D02*
Y1895638D01*
X1941600Y1887845D02*
Y1888454D01*
Y1891030D02*
Y1891479D01*
Y1895429D02*
Y1895663D01*
X1941700Y1887845D02*
Y1888454D01*
Y1890930D02*
Y1891379D01*
Y1895446D02*
Y1895688D01*
X1941800Y1887845D02*
Y1888454D01*
Y1890830D02*
Y1891279D01*
Y1895462D02*
Y1895713D01*
X1941900Y1887845D02*
Y1888454D01*
Y1890730D02*
Y1891179D01*
Y1895479D02*
Y1895738D01*
X1942000Y1887845D02*
Y1888454D01*
Y1890630D02*
Y1891079D01*
Y1895496D02*
Y1895763D01*
X1942100Y1887845D02*
Y1888454D01*
Y1890530D02*
Y1890979D01*
Y1895512D02*
Y1895756D01*
X1942200Y1887845D02*
Y1888454D01*
Y1890430D02*
Y1890879D01*
Y1895515D02*
Y1895723D01*
X1942300Y1887845D02*
Y1888454D01*
Y1890330D02*
Y1890779D01*
Y1895490D02*
Y1895690D01*
X1942400Y1887845D02*
Y1888454D01*
Y1890230D02*
Y1890679D01*
Y1895465D02*
Y1895656D01*
X1942500Y1887845D02*
Y1888454D01*
Y1890130D02*
Y1890579D01*
Y1895440D02*
Y1895623D01*
X1942600Y1887845D02*
Y1888454D01*
Y1890030D02*
Y1890479D01*
Y1895415D02*
Y1895590D01*
X1942700Y1887845D02*
Y1888454D01*
Y1889930D02*
Y1890379D01*
Y1895379D02*
Y1895556D01*
X1942800Y1887845D02*
Y1888454D01*
Y1889830D02*
Y1890279D01*
Y1895329D02*
Y1895513D01*
X1942900Y1887845D02*
Y1888454D01*
Y1889730D02*
Y1890179D01*
Y1895279D02*
Y1895463D01*
X1943000Y1887845D02*
Y1888454D01*
Y1889630D02*
Y1890070D01*
Y1895229D02*
Y1895413D01*
X1943100Y1887845D02*
Y1888454D01*
Y1889516D02*
Y1889950D01*
Y1895179D02*
Y1895363D01*
X1943200Y1887845D02*
Y1888454D01*
Y1889396D02*
Y1889830D01*
Y1893471D02*
Y1893627D01*
Y1895074D02*
Y1895313D01*
X1943300Y1887845D02*
Y1888454D01*
Y1889276D02*
Y1889710D01*
Y1893257D02*
Y1893777D01*
Y1894924D02*
Y1895263D01*
X1943400Y1887845D02*
Y1888454D01*
Y1889156D02*
Y1889590D01*
Y1893224D02*
Y1893945D01*
Y1894761D02*
Y1895213D01*
X1943500Y1887845D02*
Y1888454D01*
Y1889036D02*
Y1889470D01*
Y1893190D02*
Y1894345D01*
Y1894461D02*
Y1895130D01*
X1943600Y1887845D02*
Y1888454D01*
Y1888916D02*
Y1889347D01*
Y1893166D02*
Y1895030D01*
X1943700Y1887845D02*
Y1888454D01*
Y1888772D02*
Y1889222D01*
Y1893191D02*
Y1894930D01*
X1943800Y1887845D02*
Y1888454D01*
Y1888622D02*
Y1889097D01*
Y1893216D02*
Y1894830D01*
X1943900Y1887845D02*
Y1888972D01*
Y1893241D02*
Y1894730D01*
X1944000Y1887845D02*
Y1888847D01*
Y1893266D02*
Y1894630D01*
X1944100Y1887845D02*
Y1888657D01*
Y1893430D02*
Y1893978D01*
X1944200Y1887845D02*
Y1888457D01*
X1945600Y1891233D02*
Y1892350D01*
X1945700Y1890483D02*
Y1893050D01*
X1945800Y1889934D02*
Y1893558D01*
X1945900Y1889659D02*
Y1893808D01*
X1946000Y1889384D02*
Y1894058D01*
X1946100Y1889109D02*
Y1894308D01*
X1946200Y1888834D02*
Y1894558D01*
X1946300Y1888665D02*
Y1894721D01*
X1946400Y1888532D02*
Y1891352D01*
Y1892205D02*
Y1894854D01*
X1946500Y1888398D02*
Y1890080D01*
Y1893306D02*
Y1894988D01*
X1946600Y1888274D02*
Y1889580D01*
Y1893806D02*
Y1895112D01*
X1946700Y1888174D02*
Y1889080D01*
Y1894306D02*
Y1895212D01*
X1946800Y1888074D02*
Y1888844D01*
Y1894578D02*
Y1895312D01*
X1946900Y1887974D02*
Y1888694D01*
Y1894778D02*
Y1895412D01*
X1947000Y1887937D02*
Y1888544D01*
Y1894945D02*
Y1895472D01*
X1947100Y1887912D02*
Y1888394D01*
Y1895045D02*
Y1895522D01*
X1947200Y1887887D02*
Y1888244D01*
Y1895145D02*
Y1895572D01*
X1947300Y1887862D02*
Y1888196D01*
Y1895245D02*
Y1895622D01*
X1947400Y1887837D02*
Y1888163D01*
Y1895345D02*
Y1895667D01*
X1947500Y1887812D02*
Y1888130D01*
Y1895404D02*
Y1895692D01*
X1947600Y1887787D02*
Y1888093D01*
Y1895404D02*
Y1895717D01*
X1947700Y1887762D02*
Y1888043D01*
Y1895404D02*
Y1895742D01*
X1947800Y1887737D02*
Y1887993D01*
Y1895404D02*
Y1895767D01*
X1947900Y1887741D02*
Y1888001D01*
Y1895404D02*
Y1895763D01*
X1948000Y1887761D02*
Y1888034D01*
Y1895404D02*
Y1895743D01*
X1948100Y1887781D02*
Y1888067D01*
Y1895404D02*
Y1895723D01*
X1948200Y1887801D02*
Y1888101D01*
Y1895403D02*
Y1895703D01*
X1948300Y1887821D02*
Y1888149D01*
Y1895314D02*
Y1895683D01*
X1948400Y1887841D02*
Y1888199D01*
Y1895214D02*
Y1895663D01*
X1948500Y1887873D02*
Y1888272D01*
Y1895128D02*
Y1895615D01*
X1948600Y1887906D02*
Y1888372D01*
Y1895062D02*
Y1895565D01*
X1948700Y1887940D02*
Y1888472D01*
Y1894995D02*
Y1895515D01*
X1948800Y1887991D02*
Y1888572D01*
Y1894928D02*
Y1895465D01*
X1948900Y1888066D02*
Y1888713D01*
Y1894753D02*
Y1895399D01*
X1949000Y1888141D02*
Y1888863D01*
Y1894553D02*
Y1895299D01*
X1949100Y1888216D02*
Y1889143D01*
Y1894243D02*
Y1895199D01*
X1949200Y1888291D02*
Y1889643D01*
Y1893743D02*
Y1895099D01*
X1949300Y1888415D02*
Y1890143D01*
Y1893243D02*
Y1894971D01*
X1949400Y1888548D02*
Y1891528D01*
Y1892054D02*
Y1894837D01*
X1949500Y1888682D02*
Y1894704D01*
X1949600Y1888869D02*
Y1894517D01*
X1949700Y1889144D02*
Y1894242D01*
X1949800Y1889419D02*
Y1893967D01*
X1949900Y1889694D02*
Y1893692D01*
X1950000Y1889969D02*
Y1893417D01*
X1950100Y1890577D02*
Y1892879D01*
X1950200Y1891327D02*
Y1892229D01*
X1951700Y1889502D02*
Y1889753D01*
Y1893645D02*
Y1893918D01*
X1951800Y1888652D02*
Y1889753D01*
Y1893205D02*
Y1894218D01*
X1951900Y1887845D02*
Y1889300D01*
Y1893005D02*
Y1894515D01*
X1952000Y1887845D02*
Y1889038D01*
Y1892805D02*
Y1894715D01*
X1952100Y1887845D02*
Y1888838D01*
Y1892562D02*
Y1894915D01*
X1952200Y1887845D02*
Y1888683D01*
Y1892312D02*
Y1895115D01*
X1952300Y1887845D02*
Y1888617D01*
Y1892141D02*
Y1895228D01*
X1952400Y1887845D02*
Y1888550D01*
Y1892041D02*
Y1893651D01*
Y1893759D02*
Y1895278D01*
X1952500Y1887845D02*
Y1888483D01*
Y1891941D02*
Y1893151D01*
Y1894359D02*
Y1895328D01*
X1952600Y1887845D02*
Y1888454D01*
Y1891841D02*
Y1892829D01*
Y1894646D02*
Y1895378D01*
X1952700Y1887845D02*
Y1888454D01*
Y1891741D02*
Y1892529D01*
Y1894896D02*
Y1895428D01*
X1952800Y1887845D02*
Y1888454D01*
Y1891641D02*
Y1892304D01*
Y1895066D02*
Y1895478D01*
X1952900Y1887845D02*
Y1888454D01*
Y1891541D02*
Y1892154D01*
Y1895141D02*
Y1895528D01*
X1953000Y1887845D02*
Y1888454D01*
Y1891441D02*
Y1892004D01*
Y1895216D02*
Y1895561D01*
X1953100Y1887845D02*
Y1888454D01*
Y1891341D02*
Y1891854D01*
Y1895291D02*
Y1895586D01*
X1953200Y1887845D02*
Y1888454D01*
Y1891241D02*
Y1891704D01*
Y1895366D02*
Y1895611D01*
X1953300Y1887845D02*
Y1888454D01*
Y1891141D02*
Y1891590D01*
Y1895410D02*
Y1895636D01*
X1953400Y1887845D02*
Y1888454D01*
Y1891041D02*
Y1891490D01*
Y1895427D02*
Y1895661D01*
X1953500Y1887845D02*
Y1888454D01*
Y1890941D02*
Y1891390D01*
Y1895444D02*
Y1895686D01*
X1953600Y1887845D02*
Y1888454D01*
Y1890841D02*
Y1891290D01*
Y1895460D02*
Y1895711D01*
X1953700Y1887845D02*
Y1888454D01*
Y1890741D02*
Y1891190D01*
Y1895477D02*
Y1895736D01*
X1953800Y1887845D02*
Y1888454D01*
Y1890641D02*
Y1891090D01*
Y1895494D02*
Y1895761D01*
X1953900Y1887845D02*
Y1888454D01*
Y1890541D02*
Y1890990D01*
Y1895510D02*
Y1895760D01*
X1954000Y1887845D02*
Y1888454D01*
Y1890441D02*
Y1890890D01*
Y1895518D02*
Y1895727D01*
X1954100Y1887845D02*
Y1888454D01*
Y1890341D02*
Y1890790D01*
Y1895493D02*
Y1895693D01*
X1954200Y1887845D02*
Y1888454D01*
Y1890241D02*
Y1890690D01*
Y1895468D02*
Y1895660D01*
X1954300Y1887845D02*
Y1888454D01*
Y1890141D02*
Y1890590D01*
Y1895443D02*
Y1895627D01*
X1954400Y1887845D02*
Y1888454D01*
Y1890041D02*
Y1890490D01*
Y1895418D02*
Y1895593D01*
X1954500Y1887845D02*
Y1888454D01*
Y1889941D02*
Y1890390D01*
Y1895385D02*
Y1895560D01*
X1954600Y1887845D02*
Y1888454D01*
Y1889841D02*
Y1890290D01*
Y1895335D02*
Y1895518D01*
X1954700Y1887845D02*
Y1888454D01*
Y1889741D02*
Y1890190D01*
Y1895285D02*
Y1895468D01*
X1954800Y1887845D02*
Y1888454D01*
Y1889641D02*
Y1890083D01*
Y1895235D02*
Y1895418D01*
X1954900Y1887845D02*
Y1888454D01*
Y1889529D02*
Y1889963D01*
Y1895185D02*
Y1895368D01*
X1955000Y1887845D02*
Y1888454D01*
Y1889409D02*
Y1889843D01*
Y1893505D02*
Y1893611D01*
Y1895090D02*
Y1895318D01*
X1955100Y1887845D02*
Y1888454D01*
Y1889289D02*
Y1889723D01*
Y1893261D02*
Y1893761D01*
Y1894940D02*
Y1895268D01*
X1955200Y1887845D02*
Y1888454D01*
Y1889169D02*
Y1889603D01*
Y1893228D02*
Y1893911D01*
Y1894790D02*
Y1895218D01*
X1955300Y1887845D02*
Y1888454D01*
Y1889049D02*
Y1889483D01*
Y1893194D02*
Y1894301D01*
Y1894494D02*
Y1895141D01*
X1955400Y1887845D02*
Y1888454D01*
Y1888929D02*
Y1889361D01*
Y1893163D02*
Y1895041D01*
X1955500Y1887845D02*
Y1888454D01*
Y1888789D02*
Y1889236D01*
Y1893188D02*
Y1894941D01*
X1955600Y1887845D02*
Y1888454D01*
Y1888639D02*
Y1889111D01*
Y1893213D02*
Y1894841D01*
X1955700Y1887845D02*
Y1888986D01*
Y1893238D02*
Y1894741D01*
X1955800Y1887845D02*
Y1888861D01*
Y1893263D02*
Y1894641D01*
X1955900Y1887845D02*
Y1888679D01*
Y1893408D02*
Y1894055D01*
X1956000Y1887845D02*
Y1888479D01*
X1957300Y1891743D02*
Y1892115D01*
X1957400Y1891743D02*
Y1892115D01*
X1957500Y1891743D02*
Y1892115D01*
X1957600Y1891743D02*
Y1892115D01*
X1957700Y1891743D02*
Y1892115D01*
X1957800Y1891743D02*
Y1892115D01*
X1957900Y1891743D02*
Y1892115D01*
X1958000Y1891743D02*
Y1892115D01*
X1958100Y1891743D02*
Y1892115D01*
X1958200Y1891743D02*
Y1892115D01*
X1958300Y1891743D02*
Y1892115D01*
X1958400Y1891743D02*
Y1892115D01*
X1958500Y1891743D02*
Y1892115D01*
X1958600Y1891743D02*
Y1892115D01*
X1958700Y1891743D02*
Y1892115D01*
X1958800Y1891743D02*
Y1892115D01*
X1958900Y1891743D02*
Y1892115D01*
X1959000Y1891743D02*
Y1892115D01*
X1959100Y1891743D02*
Y1892115D01*
X1959200Y1891743D02*
Y1892115D01*
X1959300Y1891743D02*
Y1892115D01*
X1959400Y1891743D02*
Y1892115D01*
X1959500Y1891743D02*
Y1892115D01*
X1959600Y1891743D02*
Y1892115D01*
X1959700Y1891743D02*
Y1892115D01*
X1959800Y1891743D02*
Y1892115D01*
X1959900Y1891743D02*
Y1892115D01*
X1960000Y1891743D02*
Y1892115D01*
X1960100Y1891743D02*
Y1892115D01*
X1960200Y1891743D02*
Y1892115D01*
X1960300Y1891743D02*
Y1892115D01*
X1960400Y1891743D02*
Y1892115D01*
X1960500Y1891743D02*
Y1892115D01*
X1960600Y1891743D02*
Y1892115D01*
X1960700Y1891743D02*
Y1892115D01*
X1960800Y1891743D02*
Y1892115D01*
X1960900Y1891743D02*
Y1892115D01*
X1961000Y1891743D02*
Y1892115D01*
X1961100Y1891743D02*
Y1892115D01*
X1961200Y1891743D02*
Y1892115D01*
X1961300Y1891743D02*
Y1892115D01*
X1961400Y1891743D02*
Y1892115D01*
X1961500Y1891743D02*
Y1892115D01*
X1961600Y1891743D02*
Y1892115D01*
X1961700Y1891743D02*
Y1892115D01*
X1961800Y1891743D02*
Y1892115D01*
X1961900Y1891743D02*
Y1892115D01*
X1962000Y1891743D02*
Y1892115D01*
X1962100Y1891743D02*
Y1892115D01*
X1963600Y1889184D02*
Y1889185D01*
X1963700Y1888684D02*
Y1889235D01*
X1963800Y1888521D02*
Y1889043D01*
X1963900Y1888387D02*
Y1888765D01*
X1964000Y1888254D02*
Y1888615D01*
Y1892688D02*
Y1892942D01*
X1964100Y1888149D02*
Y1888467D01*
Y1892688D02*
Y1892942D01*
X1964200Y1888074D02*
Y1888400D01*
Y1892688D02*
Y1892942D01*
X1964300Y1887999D02*
Y1888333D01*
Y1892688D02*
Y1892942D01*
X1964400Y1887924D02*
Y1888266D01*
Y1892688D02*
Y1892942D01*
X1964500Y1887849D02*
Y1888211D01*
Y1892688D02*
Y1892942D01*
X1964600Y1887845D02*
Y1888178D01*
Y1892688D02*
Y1892942D01*
X1964700Y1887845D02*
Y1888144D01*
Y1892688D02*
Y1892942D01*
X1964800Y1887845D02*
Y1888111D01*
Y1892688D02*
Y1892942D01*
X1964900Y1887845D02*
Y1888112D01*
Y1892688D02*
Y1892942D01*
X1965000Y1887845D02*
Y1888137D01*
Y1892688D02*
Y1892942D01*
X1965100Y1887845D02*
Y1888162D01*
Y1892688D02*
Y1892942D01*
X1965200Y1887845D02*
Y1888187D01*
Y1892688D02*
Y1892942D01*
X1965300Y1887845D02*
Y1888212D01*
Y1892688D02*
Y1892942D01*
X1965400Y1887845D02*
Y1888254D01*
Y1892688D02*
Y1892942D01*
X1965500Y1887845D02*
Y1888304D01*
Y1892688D02*
Y1892942D01*
X1965600Y1887845D02*
Y1888374D01*
Y1892688D02*
Y1892942D01*
X1965700Y1887897D02*
Y1888674D01*
Y1892688D02*
Y1892942D01*
X1965800Y1887997D02*
Y1889057D01*
Y1892686D02*
Y1892944D01*
X1965900Y1888097D02*
Y1894714D01*
X1966000Y1888207D02*
Y1894677D01*
X1966100Y1888374D02*
Y1894356D01*
X1966200Y1888541D02*
Y1893756D01*
X1966300Y1888707D02*
Y1893550D01*
X1966400Y1892688D02*
Y1893400D01*
X1966500Y1892688D02*
Y1893281D01*
X1966600Y1892688D02*
Y1893206D01*
X1966700Y1892688D02*
Y1893131D01*
X1966800Y1892688D02*
Y1893056D01*
X1966900Y1892688D02*
Y1892981D01*
X1967000Y1892688D02*
Y1892942D01*
X1967100Y1892688D02*
Y1892942D01*
X1967200Y1892688D02*
Y1892942D01*
X1967300Y1892688D02*
Y1892942D01*
X1967400Y1892688D02*
Y1892942D01*
X1967500Y1892688D02*
Y1892942D01*
X1967600Y1892688D02*
Y1892942D01*
X1967700Y1892688D02*
Y1892942D01*
X1969500Y1889212D02*
Y1889554D01*
X1969600Y1888712D02*
Y1889704D01*
X1969700Y1888528D02*
Y1889854D01*
Y1891564D02*
Y1892069D01*
X1969800Y1888395D02*
Y1889949D01*
Y1891583D02*
Y1892669D01*
X1969900Y1888261D02*
Y1888855D01*
Y1889046D02*
Y1890029D01*
Y1891833D02*
Y1892829D01*
X1970000Y1888161D02*
Y1888473D01*
Y1889246D02*
Y1890109D01*
Y1892078D02*
Y1892824D01*
X1970100Y1888101D02*
Y1888373D01*
Y1889446D02*
Y1890189D01*
Y1892155D02*
Y1892824D01*
X1970200Y1888041D02*
Y1888273D01*
Y1889562D02*
Y1890269D01*
Y1892230D02*
Y1892824D01*
X1970300Y1887981D02*
Y1888200D01*
Y1889662D02*
Y1890349D01*
Y1892305D02*
Y1892824D01*
X1970400Y1887921D02*
Y1888150D01*
Y1889762D02*
Y1890387D01*
Y1892380D02*
Y1892824D01*
X1970500Y1887861D02*
Y1888100D01*
Y1889852D02*
Y1890424D01*
Y1892452D02*
Y1892824D01*
X1970600Y1887845D02*
Y1888050D01*
Y1889885D02*
Y1890462D01*
Y1892502D02*
Y1892824D01*
X1970700Y1887845D02*
Y1888000D01*
Y1889919D02*
Y1890499D01*
Y1892552D02*
Y1892824D01*
X1970800Y1887845D02*
Y1887981D01*
Y1889952D02*
Y1890537D01*
Y1892602D02*
Y1892832D01*
X1970900Y1887845D02*
Y1887981D01*
Y1889985D02*
Y1890574D01*
Y1892652D02*
Y1892849D01*
X1971000Y1887845D02*
Y1887981D01*
Y1890019D02*
Y1890612D01*
Y1892693D02*
Y1892865D01*
X1971100Y1887845D02*
Y1887981D01*
Y1890052D02*
Y1890649D01*
Y1892718D02*
Y1892882D01*
X1971200Y1887845D02*
Y1887981D01*
Y1890085D02*
Y1890687D01*
Y1892743D02*
Y1892899D01*
X1971300Y1887845D02*
Y1887981D01*
Y1890119D02*
Y1890719D01*
Y1892768D02*
Y1892915D01*
X1971400Y1887845D02*
Y1887991D01*
Y1890152D02*
Y1890747D01*
Y1892793D02*
Y1892932D01*
X1971500Y1887845D02*
Y1888008D01*
Y1890185D02*
Y1890776D01*
Y1892806D02*
Y1892942D01*
X1971600Y1887845D02*
Y1888024D01*
Y1890220D02*
Y1890804D01*
Y1892806D02*
Y1892942D01*
X1971700Y1887845D02*
Y1888041D01*
Y1890258D02*
Y1890833D01*
Y1892806D02*
Y1892942D01*
X1971800Y1887845D02*
Y1888058D01*
Y1890295D02*
Y1890862D01*
Y1892806D02*
Y1892942D01*
X1971900Y1887845D02*
Y1888074D01*
Y1890333D02*
Y1890890D01*
Y1892806D02*
Y1892942D01*
X1972000Y1887845D02*
Y1888091D01*
Y1890370D02*
Y1890919D01*
Y1892806D02*
Y1892942D01*
X1972100Y1887845D02*
Y1888117D01*
Y1890408D02*
Y1890949D01*
Y1892781D02*
Y1892942D01*
X1972200Y1887863D02*
Y1888157D01*
Y1890445D02*
Y1890982D01*
Y1892714D02*
Y1892913D01*
X1972300Y1887903D02*
Y1888197D01*
Y1890483D02*
Y1891016D01*
Y1892647D02*
Y1892853D01*
X1972400Y1887943D02*
Y1888237D01*
Y1890520D02*
Y1891049D01*
Y1892581D02*
Y1892793D01*
X1972500Y1887983D02*
Y1888277D01*
Y1890560D02*
Y1891130D01*
Y1892492D02*
Y1892733D01*
X1972600Y1888023D02*
Y1888317D01*
Y1890640D02*
Y1891230D01*
Y1892392D02*
Y1892673D01*
X1972700Y1888063D02*
Y1888385D01*
Y1890720D02*
Y1891395D01*
Y1892255D02*
Y1892613D01*
X1972800Y1888065D02*
Y1888519D01*
Y1890800D02*
Y1891895D01*
Y1891955D02*
Y1892496D01*
X1972900Y1888015D02*
Y1888652D01*
Y1890880D02*
Y1892362D01*
X1973000Y1887965D02*
Y1888785D01*
Y1890960D02*
Y1892229D01*
X1973100Y1887930D02*
Y1888993D01*
Y1891093D02*
Y1892056D01*
X1973200Y1887897D02*
Y1889243D01*
Y1891343D02*
Y1891806D01*
X1973300Y1887863D02*
Y1889399D01*
X1973400Y1889247D02*
Y1889399D01*
X1975100Y1890174D02*
Y1890791D01*
X1975200Y1889724D02*
Y1891367D01*
X1975300Y1889320D02*
Y1891507D01*
X1975400Y1889145D02*
Y1891647D01*
X1975500Y1888970D02*
Y1891787D01*
X1975600Y1888795D02*
Y1891927D01*
X1975700Y1888620D02*
Y1889942D01*
Y1890650D02*
Y1892067D01*
X1975800Y1888493D02*
Y1889272D01*
Y1891403D02*
Y1892186D01*
X1975900Y1888410D02*
Y1889072D01*
Y1891636D02*
Y1892286D01*
X1976000Y1888326D02*
Y1888872D01*
Y1891870D02*
Y1892386D01*
X1976100Y1888243D02*
Y1888672D01*
Y1892103D02*
Y1892486D01*
X1976200Y1888160D02*
Y1888532D01*
Y1892245D02*
Y1892586D01*
X1976300Y1888076D02*
Y1888432D01*
Y1892325D02*
Y1892686D01*
X1976400Y1887993D02*
Y1888332D01*
Y1892405D02*
Y1892786D01*
X1976500Y1887944D02*
Y1888232D01*
Y1892485D02*
Y1892834D01*
X1976600Y1887919D02*
Y1888132D01*
Y1892565D02*
Y1892846D01*
X1976700Y1887894D02*
Y1888091D01*
Y1892645D02*
Y1892859D01*
X1976800Y1887869D02*
Y1888075D01*
Y1892694D02*
Y1892871D01*
X1976900Y1887844D02*
Y1888058D01*
Y1892714D02*
Y1892884D01*
X1977000Y1887819D02*
Y1888041D01*
Y1892734D02*
Y1892896D01*
X1977100Y1887794D02*
Y1888025D01*
Y1892754D02*
Y1892909D01*
X1977200Y1887769D02*
Y1888008D01*
Y1892774D02*
Y1892921D01*
X1977300Y1887744D02*
Y1887991D01*
Y1892794D02*
Y1892934D01*
X1977400Y1887737D02*
Y1887987D01*
Y1892800D02*
Y1892938D01*
X1977500Y1887759D02*
Y1888004D01*
Y1892784D02*
Y1892927D01*
X1977600Y1887781D02*
Y1888020D01*
Y1892767D02*
Y1892915D01*
X1977700Y1887803D02*
Y1888037D01*
Y1892750D02*
Y1892904D01*
X1977800Y1887826D02*
Y1888054D01*
Y1892734D02*
Y1892893D01*
X1977900Y1887848D02*
Y1888070D01*
Y1892717D02*
Y1892882D01*
X1978000Y1887870D02*
Y1888087D01*
Y1892700D02*
Y1892871D01*
X1978100Y1887892D02*
Y1888109D01*
Y1892678D02*
Y1892860D01*
X1978200Y1887915D02*
Y1888184D01*
Y1892579D02*
Y1892849D01*
X1978300Y1887937D02*
Y1888259D01*
Y1892479D02*
Y1892838D01*
X1978400Y1887959D02*
Y1888334D01*
Y1892379D02*
Y1892827D01*
X1978500Y1888041D02*
Y1888409D01*
Y1892279D02*
Y1892729D01*
X1978600Y1888124D02*
Y1888509D01*
Y1892160D02*
Y1892629D01*
X1978700Y1888207D02*
Y1888743D01*
Y1891927D02*
Y1892529D01*
X1978800Y1888291D02*
Y1888976D01*
Y1891693D02*
Y1892429D01*
X1978900Y1888374D02*
Y1889209D01*
Y1891460D02*
Y1892329D01*
X1979000Y1888457D02*
Y1889746D01*
Y1890870D02*
Y1892229D01*
X1979100Y1888545D02*
Y1892124D01*
X1979200Y1888720D02*
Y1891949D01*
X1979300Y1888895D02*
Y1891774D01*
X1979400Y1889070D02*
Y1891599D01*
X1979500Y1889245D02*
Y1891424D01*
X1979600Y1889533D02*
Y1891158D01*
X1979700Y1889983D02*
Y1890758D01*
X1981000Y1890199D02*
Y1890746D01*
X1981100Y1889749D02*
Y1891359D01*
X1981200Y1889330D02*
Y1891499D01*
X1981300Y1889155D02*
Y1891639D01*
X1981400Y1888980D02*
Y1891779D01*
X1981500Y1888805D02*
Y1891919D01*
X1981600Y1888630D02*
Y1889986D01*
Y1890601D02*
Y1892059D01*
X1981700Y1888498D02*
Y1889283D01*
Y1891390D02*
Y1892180D01*
X1981800Y1888414D02*
Y1889083D01*
Y1891624D02*
Y1892280D01*
X1981900Y1888331D02*
Y1888883D01*
Y1891857D02*
Y1892380D01*
X1982000Y1888248D02*
Y1888683D01*
Y1892090D02*
Y1892480D01*
X1982100Y1888164D02*
Y1888538D01*
Y1892240D02*
Y1892580D01*
X1982200Y1888081D02*
Y1888438D01*
Y1892320D02*
Y1892680D01*
X1982300Y1887998D02*
Y1888338D01*
Y1892400D02*
Y1892780D01*
X1982400Y1887946D02*
Y1888238D01*
Y1892480D02*
Y1892833D01*
X1982500Y1887921D02*
Y1888138D01*
Y1892560D02*
Y1892846D01*
X1982600Y1887896D02*
Y1888092D01*
Y1892640D02*
Y1892858D01*
X1982700Y1887871D02*
Y1888075D01*
Y1892693D02*
Y1892871D01*
X1982800Y1887846D02*
Y1888059D01*
Y1892713D02*
Y1892883D01*
X1982900Y1887821D02*
Y1888042D01*
Y1892733D02*
Y1892896D01*
X1983000Y1887796D02*
Y1888025D01*
Y1892753D02*
Y1892908D01*
X1983100Y1887771D02*
Y1888009D01*
Y1892773D02*
Y1892921D01*
X1983200Y1887746D02*
Y1887992D01*
Y1892793D02*
Y1892933D01*
X1983300Y1887736D02*
Y1887986D01*
Y1892801D02*
Y1892938D01*
X1983400Y1887758D02*
Y1888003D01*
Y1892785D02*
Y1892927D01*
X1983500Y1887780D02*
Y1888020D01*
Y1892768D02*
Y1892916D01*
X1983600Y1887802D02*
Y1888036D01*
Y1892751D02*
Y1892905D01*
X1983700Y1887824D02*
Y1888053D01*
Y1892735D02*
Y1892894D01*
X1983800Y1887847D02*
Y1888070D01*
Y1892718D02*
Y1892883D01*
X1983900Y1887869D02*
Y1888086D01*
Y1892701D02*
Y1892872D01*
X1984000Y1887891D02*
Y1888106D01*
Y1892682D02*
Y1892860D01*
X1984100Y1887913D02*
Y1888180D01*
Y1892585D02*
Y1892849D01*
X1984200Y1887936D02*
Y1888255D01*
Y1892485D02*
Y1892838D01*
X1984300Y1887958D02*
Y1888330D01*
Y1892385D02*
Y1892827D01*
X1984400Y1888036D02*
Y1888405D01*
Y1892285D02*
Y1892734D01*
X1984500Y1888120D02*
Y1888496D01*
Y1892173D02*
Y1892634D01*
X1984600Y1888203D02*
Y1888730D01*
Y1891940D02*
Y1892534D01*
X1984700Y1888286D02*
Y1888963D01*
Y1891706D02*
Y1892434D01*
X1984800Y1888370D02*
Y1889196D01*
Y1891473D02*
Y1892334D01*
X1984900Y1888453D02*
Y1889702D01*
Y1890920D02*
Y1892234D01*
X1985000Y1888536D02*
Y1892133D01*
X1985100Y1888711D02*
Y1891958D01*
X1985200Y1888886D02*
Y1891783D01*
X1985300Y1889061D02*
Y1891608D01*
X1985400Y1889236D02*
Y1891433D01*
X1985500Y1889508D02*
Y1891180D01*
X1985600Y1889958D02*
Y1890780D01*
X1986800Y1889407D02*
Y1890142D01*
X1986900Y1888945D02*
Y1890600D01*
X1987000Y1888820D02*
Y1890850D01*
X1987100Y1888695D02*
Y1891084D01*
Y1893925D02*
Y1893949D01*
X1987200Y1888570D02*
Y1891184D01*
Y1893325D02*
Y1894549D01*
X1987300Y1888445D02*
Y1891284D01*
Y1892896D02*
Y1894734D01*
X1987400Y1888377D02*
Y1891384D01*
Y1892731D02*
Y1894859D01*
X1987500Y1888320D02*
Y1889705D01*
Y1890137D02*
Y1891484D01*
Y1892656D02*
Y1894984D01*
X1987600Y1888263D02*
Y1889060D01*
Y1890784D02*
Y1891584D01*
Y1892581D02*
Y1895109D01*
X1987700Y1888205D02*
Y1888894D01*
Y1890984D02*
Y1891665D01*
Y1892506D02*
Y1895215D01*
X1987800Y1888148D02*
Y1888727D01*
Y1891184D02*
Y1891708D01*
Y1892435D02*
Y1895275D01*
X1987900Y1888091D02*
Y1888560D01*
Y1891384D02*
Y1891751D01*
Y1892385D02*
Y1893402D01*
Y1894322D02*
Y1895335D01*
X1988000Y1888034D02*
Y1888436D01*
Y1891520D02*
Y1891794D01*
Y1892335D02*
Y1893016D01*
Y1894621D02*
Y1895395D01*
X1988100Y1887977D02*
Y1888361D01*
Y1891580D02*
Y1891837D01*
Y1892285D02*
Y1892883D01*
Y1894755D02*
Y1895455D01*
X1988200Y1887953D02*
Y1888286D01*
Y1891640D02*
Y1891879D01*
Y1892235D02*
Y1892750D01*
Y1894888D02*
Y1895515D01*
X1988300Y1887940D02*
Y1888211D01*
Y1891700D02*
Y1891922D01*
Y1892185D02*
Y1892616D01*
Y1895021D02*
Y1895549D01*
X1988400Y1887928D02*
Y1888136D01*
Y1891760D02*
Y1891965D01*
Y1892135D02*
Y1892535D01*
Y1895103D02*
Y1895562D01*
X1988500Y1887915D02*
Y1888093D01*
Y1891820D02*
Y1892012D01*
Y1892083D02*
Y1892460D01*
Y1895178D02*
Y1895574D01*
X1988600Y1887903D02*
Y1888076D01*
Y1891864D02*
Y1892385D01*
Y1895253D02*
Y1895587D01*
X1988700Y1887890D02*
Y1888060D01*
Y1891878D02*
Y1892310D01*
Y1895328D02*
Y1895599D01*
X1988800Y1887878D02*
Y1888043D01*
Y1891893D02*
Y1892237D01*
Y1895401D02*
Y1895612D01*
X1988900Y1887865D02*
Y1888026D01*
Y1891907D02*
Y1892212D01*
Y1895404D02*
Y1895624D01*
X1989000Y1887853D02*
Y1888010D01*
Y1891921D02*
Y1892187D01*
Y1895404D02*
Y1895637D01*
X1989100Y1887845D02*
Y1887993D01*
Y1891935D02*
Y1892162D01*
Y1895404D02*
Y1895649D01*
X1989200Y1887845D02*
Y1887981D01*
Y1891950D02*
Y1892137D01*
Y1895404D02*
Y1895659D01*
X1989300Y1887845D02*
Y1887981D01*
Y1891964D02*
Y1892115D01*
Y1895404D02*
Y1895659D01*
X1989400Y1887845D02*
Y1887981D01*
Y1891978D02*
Y1892115D01*
Y1895404D02*
Y1895659D01*
X1989500Y1887845D02*
Y1887981D01*
Y1891979D02*
Y1892115D01*
Y1895404D02*
Y1895659D01*
X1989600Y1887845D02*
Y1887981D01*
Y1891979D02*
Y1892115D01*
Y1895404D02*
Y1895659D01*
X1989700Y1887845D02*
Y1887981D01*
Y1891979D02*
Y1892115D01*
Y1895404D02*
Y1895659D01*
X1989800Y1887845D02*
Y1887981D01*
Y1891979D02*
Y1892115D01*
Y1895404D02*
Y1895659D01*
X1989900Y1887845D02*
Y1887981D01*
Y1891979D02*
Y1892115D01*
Y1895404D02*
Y1895659D01*
X1990000Y1887845D02*
Y1887981D01*
Y1891979D02*
Y1892115D01*
Y1895404D02*
Y1895659D01*
X1990100Y1887845D02*
Y1888012D01*
Y1891979D02*
Y1892115D01*
Y1895404D02*
Y1895659D01*
X1990200Y1887845D02*
Y1888045D01*
Y1891979D02*
Y1892115D01*
Y1895404D02*
Y1895659D01*
X1990300Y1887845D02*
Y1888079D01*
Y1891979D02*
Y1892115D01*
Y1895404D02*
Y1895659D01*
X1990400Y1887845D02*
Y1888129D01*
Y1891979D02*
Y1892115D01*
Y1895375D02*
Y1895659D01*
X1990500Y1887845D02*
Y1888329D01*
Y1891971D02*
Y1892124D01*
Y1895075D02*
Y1895659D01*
X1990600Y1887845D02*
Y1895659D01*
X1990700Y1887845D02*
Y1895659D01*
X1990800Y1887845D02*
Y1895659D01*
X1990900Y1887845D02*
Y1895659D01*
X1991000Y1887845D02*
Y1895659D01*
X1991100Y1887845D02*
Y1895659D01*
X1991200Y1887845D02*
Y1888236D01*
Y1895215D02*
Y1895659D01*
X1991300Y1887845D02*
Y1888097D01*
Y1895404D02*
Y1895659D01*
X1991400Y1887845D02*
Y1888063D01*
Y1895404D02*
Y1895659D01*
X1991500Y1887845D02*
Y1888030D01*
Y1895404D02*
Y1895659D01*
X1991600Y1887845D02*
Y1887997D01*
Y1895404D02*
Y1895659D01*
X1991700Y1887845D02*
Y1887981D01*
Y1895404D02*
Y1895659D01*
X1991800Y1887845D02*
Y1887981D01*
Y1895404D02*
Y1895659D01*
X1991900Y1887845D02*
Y1887981D01*
X1998700Y1892296D02*
Y1892645D01*
X1998800Y1891962D02*
Y1892745D01*
X1998900Y1891929D02*
Y1892830D01*
X1999000Y1891895D02*
Y1892847D01*
X1999100Y1891870D02*
Y1892864D01*
X1999200Y1891920D02*
Y1892880D01*
X1999300Y1892012D02*
Y1892897D01*
X1999400Y1892649D02*
Y1892914D01*
X1999500Y1892688D02*
Y1892930D01*
X1999600Y1892688D02*
Y1892942D01*
X1999700Y1892688D02*
Y1892942D01*
X1999800Y1892688D02*
Y1892942D01*
X1999900Y1892658D02*
Y1892942D01*
X2000000Y1892625D02*
Y1892942D01*
X2000100Y1892592D02*
Y1892942D01*
X2000200Y1892550D02*
Y1892898D01*
X2000300Y1887845D02*
Y1887981D01*
Y1892475D02*
Y1892823D01*
X2000400Y1887845D02*
Y1887981D01*
Y1892400D02*
Y1892748D01*
X2000500Y1887845D02*
Y1887981D01*
Y1892325D02*
Y1892673D01*
X2000600Y1887845D02*
Y1887981D01*
Y1892250D02*
Y1892597D01*
X2000700Y1887845D02*
Y1887981D01*
Y1892173D02*
Y1892497D01*
X2000800Y1887845D02*
Y1887981D01*
Y1892093D02*
Y1892397D01*
X2000900Y1887845D02*
Y1887981D01*
Y1892013D02*
Y1892297D01*
X2001000Y1887845D02*
Y1887981D01*
Y1891933D02*
Y1892197D01*
X2001100Y1887845D02*
Y1887981D01*
Y1891853D02*
Y1892088D01*
X2001200Y1887845D02*
Y1887981D01*
Y1891773D02*
Y1891963D01*
X2001300Y1887845D02*
Y1888015D01*
Y1891646D02*
Y1891838D01*
X2001400Y1887845D02*
Y1888065D01*
Y1891446D02*
Y1891713D01*
X2001500Y1887845D02*
Y1888125D01*
Y1891246D02*
Y1891588D01*
X2001600Y1887845D02*
Y1888324D01*
Y1891046D02*
Y1891532D01*
X2001700Y1887845D02*
Y1893178D01*
X2001800Y1887845D02*
Y1893178D01*
X2001900Y1887845D02*
Y1893139D01*
X2002000Y1887845D02*
Y1893099D01*
X2002100Y1887845D02*
Y1893059D01*
X2002200Y1887845D02*
Y1893019D01*
X2002300Y1887845D02*
Y1888241D01*
Y1892428D02*
Y1892979D01*
X2002400Y1887845D02*
Y1888094D01*
Y1892575D02*
Y1892942D01*
X2002500Y1887845D02*
Y1888044D01*
Y1892625D02*
Y1892942D01*
X2002600Y1887845D02*
Y1887994D01*
Y1892675D02*
Y1892942D01*
X2002700Y1887845D02*
Y1887981D01*
Y1892688D02*
Y1892942D01*
X2002800Y1887845D02*
Y1887981D01*
Y1892688D02*
Y1892942D01*
X2002900Y1887845D02*
Y1887981D01*
Y1892688D02*
Y1892942D01*
X2003000Y1887845D02*
Y1887981D01*
Y1892688D02*
Y1892942D01*
X2003100Y1887845D02*
Y1887981D01*
Y1892688D02*
Y1892942D01*
X2003200Y1887845D02*
Y1887981D01*
Y1892688D02*
Y1892942D01*
X2003300Y1887845D02*
Y1887981D01*
Y1892688D02*
Y1892942D01*
X2003400Y1887845D02*
Y1887981D01*
Y1892688D02*
Y1892942D01*
X2003500Y1887845D02*
Y1887981D01*
Y1892688D02*
Y1892942D01*
X2004800Y1890444D02*
Y1890910D01*
X2004900Y1889007D02*
Y1889163D01*
Y1890444D02*
Y1891410D01*
X2005000Y1888757D02*
Y1889101D01*
Y1890444D02*
Y1891681D01*
X2005100Y1888593D02*
Y1888901D01*
Y1890444D02*
Y1891856D01*
X2005200Y1888493D02*
Y1888706D01*
Y1890444D02*
Y1892031D01*
X2005300Y1888393D02*
Y1888606D01*
Y1890444D02*
Y1892206D01*
X2005400Y1888293D02*
Y1888506D01*
Y1890444D02*
Y1892372D01*
X2005500Y1888193D02*
Y1888406D01*
Y1890444D02*
Y1890580D01*
Y1891718D02*
Y1892439D01*
X2005600Y1888116D02*
Y1888325D01*
Y1890444D02*
Y1890580D01*
Y1891885D02*
Y1892505D01*
X2005700Y1888041D02*
Y1888275D01*
Y1890444D02*
Y1890580D01*
Y1892051D02*
Y1892572D01*
X2005800Y1887966D02*
Y1888225D01*
Y1890444D02*
Y1890580D01*
Y1892209D02*
Y1892639D01*
X2005900Y1887891D02*
Y1888175D01*
Y1890444D02*
Y1890580D01*
Y1892309D02*
Y1892705D01*
X2006000Y1887838D02*
Y1888125D01*
Y1890444D02*
Y1890580D01*
Y1892409D02*
Y1892772D01*
X2006100Y1887824D02*
Y1888091D01*
Y1890444D02*
Y1890580D01*
Y1892509D02*
Y1892829D01*
X2006200Y1887809D02*
Y1888071D01*
Y1890444D02*
Y1890580D01*
Y1892609D02*
Y1892843D01*
X2006300Y1887795D02*
Y1888051D01*
Y1890444D02*
Y1890580D01*
Y1892689D02*
Y1892857D01*
X2006400Y1887781D02*
Y1888031D01*
Y1890444D02*
Y1890580D01*
Y1892709D02*
Y1892872D01*
X2006500Y1887766D02*
Y1888011D01*
Y1890444D02*
Y1890580D01*
Y1892729D02*
Y1892886D01*
X2006600Y1887752D02*
Y1887991D01*
Y1890444D02*
Y1890580D01*
Y1892749D02*
Y1892900D01*
X2006700Y1887738D02*
Y1887989D01*
Y1890444D02*
Y1890580D01*
Y1892769D02*
Y1892915D01*
X2006800Y1887736D02*
Y1888005D01*
Y1890444D02*
Y1890580D01*
Y1892789D02*
Y1892929D01*
X2006900Y1887761D02*
Y1888022D01*
Y1890444D02*
Y1890580D01*
Y1892805D02*
Y1892940D01*
X2007000Y1887786D02*
Y1888039D01*
Y1890444D02*
Y1890580D01*
Y1892766D02*
Y1892926D01*
X2007100Y1887811D02*
Y1888055D01*
Y1890444D02*
Y1890580D01*
Y1892726D02*
Y1892912D01*
X2007200Y1887836D02*
Y1888072D01*
Y1890444D02*
Y1890580D01*
Y1892686D02*
Y1892897D01*
X2007300Y1887861D02*
Y1888089D01*
Y1890444D02*
Y1890580D01*
Y1892646D02*
Y1892883D01*
X2007400Y1887886D02*
Y1888116D01*
Y1890444D02*
Y1890580D01*
Y1892606D02*
Y1892869D01*
X2007500Y1887911D02*
Y1888196D01*
Y1890444D02*
Y1890580D01*
Y1892566D02*
Y1892854D01*
X2007600Y1887936D02*
Y1888276D01*
Y1890444D02*
Y1890580D01*
Y1892492D02*
Y1892840D01*
X2007700Y1887962D02*
Y1888356D01*
Y1890444D02*
Y1890580D01*
Y1892417D02*
Y1892823D01*
X2007800Y1888029D02*
Y1888436D01*
Y1890444D02*
Y1890580D01*
Y1892342D02*
Y1892739D01*
X2007900Y1888096D02*
Y1888516D01*
Y1890444D02*
Y1890580D01*
Y1892267D02*
Y1892656D01*
X2008000Y1888162D02*
Y1888605D01*
Y1890444D02*
Y1890580D01*
Y1892183D02*
Y1892573D01*
X2008100Y1888229D02*
Y1888805D01*
Y1890444D02*
Y1890580D01*
Y1891983D02*
Y1892489D01*
X2008200Y1888296D02*
Y1889005D01*
Y1890444D02*
Y1890580D01*
Y1891783D02*
Y1892406D01*
X2008300Y1888362D02*
Y1889205D01*
Y1890444D02*
Y1890580D01*
Y1891583D02*
Y1892323D01*
X2008400Y1888437D02*
Y1889714D01*
Y1890444D02*
Y1890580D01*
Y1891160D02*
Y1892233D01*
X2008500Y1888577D02*
Y1892093D01*
X2008600Y1888717D02*
Y1891953D01*
X2008700Y1888857D02*
Y1891813D01*
X2008800Y1888997D02*
Y1891673D01*
X2008900Y1889137D02*
Y1891533D01*
X2009000Y1889558D02*
Y1891146D01*
X2010900Y1888905D02*
Y1889213D01*
X2011000Y1888579D02*
Y1889219D01*
X2011100Y1888446D02*
Y1888831D01*
X2011200Y1888313D02*
Y1888681D01*
Y1892688D02*
Y1892942D01*
X2011300Y1888182D02*
Y1888531D01*
Y1892688D02*
Y1892942D01*
X2011400Y1888107D02*
Y1888429D01*
Y1892688D02*
Y1892942D01*
X2011500Y1888032D02*
Y1888362D01*
Y1892688D02*
Y1892942D01*
X2011600Y1887957D02*
Y1888296D01*
Y1892688D02*
Y1892942D01*
X2011700Y1887882D02*
Y1888229D01*
Y1892688D02*
Y1892942D01*
X2011800Y1887845D02*
Y1888192D01*
Y1892688D02*
Y1892942D01*
X2011900Y1887845D02*
Y1888159D01*
Y1892688D02*
Y1892942D01*
X2012000Y1887845D02*
Y1888126D01*
Y1892688D02*
Y1892942D01*
X2012100Y1887845D02*
Y1888101D01*
Y1892688D02*
Y1892942D01*
X2012200Y1887845D02*
Y1888126D01*
Y1892688D02*
Y1892942D01*
X2012300Y1887845D02*
Y1888151D01*
Y1892688D02*
Y1892942D01*
X2012400Y1887845D02*
Y1888176D01*
Y1892688D02*
Y1892942D01*
X2012500Y1887845D02*
Y1888201D01*
Y1892688D02*
Y1892942D01*
X2012600Y1887845D02*
Y1888232D01*
Y1892688D02*
Y1892942D01*
X2012700Y1887845D02*
Y1888282D01*
Y1892688D02*
Y1892942D01*
X2012800Y1887845D02*
Y1888332D01*
Y1892688D02*
Y1892942D01*
X2012900Y1887853D02*
Y1888542D01*
Y1892688D02*
Y1892942D01*
X2013000Y1887953D02*
Y1888880D01*
Y1892688D02*
Y1892942D01*
X2013100Y1888053D02*
Y1894714D01*
X2013200Y1888153D02*
Y1894714D01*
X2013300Y1888301D02*
Y1894509D01*
X2013400Y1888467D02*
Y1894020D01*
X2013500Y1888634D02*
Y1893617D01*
X2013600Y1892683D02*
Y1893467D01*
X2013700Y1892688D02*
Y1893317D01*
X2013800Y1892688D02*
Y1893239D01*
X2013900Y1892688D02*
Y1893164D01*
X2014000Y1892688D02*
Y1893089D01*
X2014100Y1892688D02*
Y1893014D01*
X2014200Y1892688D02*
Y1892944D01*
X2014300Y1892688D02*
Y1892942D01*
X2014400Y1892688D02*
Y1892942D01*
X2014500Y1892688D02*
Y1892942D01*
X2014600Y1892688D02*
Y1892942D01*
X2014700Y1892688D02*
Y1892942D01*
X2014800Y1892688D02*
Y1892942D01*
X2014900Y1892688D02*
Y1892942D01*
X2017100Y1887845D02*
Y1887981D01*
X2017200Y1887845D02*
Y1887981D01*
X2017300Y1887845D02*
Y1887981D01*
X2017400Y1887845D02*
Y1887981D01*
X2017500Y1887845D02*
Y1887981D01*
X2017600Y1887845D02*
Y1887981D01*
X2017700Y1887845D02*
Y1887981D01*
X2017800Y1887845D02*
Y1887981D01*
X2017900Y1887845D02*
Y1887981D01*
X2018000Y1887845D02*
Y1887982D01*
X2018100Y1887845D02*
Y1888015D01*
X2018200Y1887845D02*
Y1888048D01*
Y1894965D02*
Y1895271D01*
X2018300Y1887845D02*
Y1888081D01*
Y1894679D02*
Y1895570D01*
X2018400Y1887845D02*
Y1888145D01*
Y1894654D02*
Y1895620D01*
X2018500Y1887845D02*
Y1888345D01*
Y1894629D02*
Y1895670D01*
X2018600Y1887845D02*
Y1893130D01*
Y1894604D02*
Y1895720D01*
X2018700Y1887845D02*
Y1893097D01*
Y1894579D02*
Y1895770D01*
X2018800Y1887845D02*
Y1893064D01*
Y1894604D02*
Y1895721D01*
X2018900Y1887845D02*
Y1893030D01*
Y1894629D02*
Y1895671D01*
X2019000Y1887845D02*
Y1892997D01*
Y1894654D02*
Y1895621D01*
X2019100Y1887845D02*
Y1888184D01*
Y1892485D02*
Y1892964D01*
Y1894679D02*
Y1895571D01*
X2019200Y1887845D02*
Y1888088D01*
Y1892581D02*
Y1892942D01*
Y1894811D02*
Y1895425D01*
X2019300Y1887845D02*
Y1888055D01*
Y1892615D02*
Y1892942D01*
Y1895011D02*
Y1895225D01*
X2019400Y1887845D02*
Y1888021D01*
Y1892648D02*
Y1892942D01*
X2019500Y1887845D02*
Y1887988D01*
Y1892681D02*
Y1892942D01*
X2019600Y1887845D02*
Y1887981D01*
Y1892688D02*
Y1892942D01*
X2019700Y1887845D02*
Y1887981D01*
Y1892688D02*
Y1892942D01*
X2019800Y1887845D02*
Y1887981D01*
Y1892688D02*
Y1892942D01*
X2019900Y1887845D02*
Y1887981D01*
Y1892688D02*
Y1892942D01*
X2020000Y1887845D02*
Y1887981D01*
Y1892688D02*
Y1892942D01*
X2020100Y1887845D02*
Y1887981D01*
Y1892688D02*
Y1892942D01*
X2020200Y1887845D02*
Y1887981D01*
Y1892688D02*
Y1892942D01*
X2020300Y1887845D02*
Y1887981D01*
Y1892688D02*
Y1892942D01*
X2020400Y1887845D02*
Y1887981D01*
Y1892688D02*
Y1892942D01*
X2022300Y1890337D02*
Y1890450D01*
X2022400Y1889337D02*
Y1891450D01*
X2022500Y1889106D02*
Y1891715D01*
X2022600Y1888966D02*
Y1891890D01*
X2022700Y1888826D02*
Y1892065D01*
X2022800Y1888686D02*
Y1892240D01*
X2022900Y1888546D02*
Y1892385D01*
X2023000Y1888412D02*
Y1889516D01*
Y1891175D02*
Y1892452D01*
X2023100Y1888332D02*
Y1889161D01*
Y1891584D02*
Y1892518D01*
X2023200Y1888252D02*
Y1888961D01*
Y1891884D02*
Y1892585D01*
X2023300Y1888172D02*
Y1888761D01*
Y1892111D02*
Y1892652D01*
X2023400Y1888092D02*
Y1888578D01*
Y1892211D02*
Y1892718D01*
X2023500Y1888012D02*
Y1888498D01*
Y1892311D02*
Y1892785D01*
X2023600Y1887956D02*
Y1888418D01*
Y1892411D02*
Y1892832D01*
X2023700Y1887942D02*
Y1888338D01*
Y1892511D02*
Y1892846D01*
X2023800Y1887927D02*
Y1888258D01*
Y1892575D02*
Y1892860D01*
X2023900Y1887913D02*
Y1888178D01*
Y1892595D02*
Y1892874D01*
X2024000Y1887899D02*
Y1888102D01*
Y1892615D02*
Y1892889D01*
X2024100Y1887884D02*
Y1888082D01*
Y1892635D02*
Y1892903D01*
X2024200Y1887870D02*
Y1888062D01*
Y1892655D02*
Y1892917D01*
X2024300Y1887856D02*
Y1888042D01*
Y1892675D02*
Y1892932D01*
X2024400Y1887849D02*
Y1888022D01*
Y1892682D02*
Y1892932D01*
X2024500Y1887862D02*
Y1888002D01*
Y1892657D02*
Y1892903D01*
X2024600Y1887874D02*
Y1887982D01*
Y1892632D02*
Y1892874D01*
X2024700Y1887887D02*
Y1888010D01*
Y1892607D02*
Y1892846D01*
X2024800Y1887899D02*
Y1888043D01*
Y1892582D02*
Y1892817D01*
X2024900Y1887912D02*
Y1888077D01*
Y1892553D02*
Y1892789D01*
X2025000Y1887924D02*
Y1888110D01*
Y1892520D02*
Y1892760D01*
X2025100Y1887937D02*
Y1888143D01*
Y1892487D02*
Y1892732D01*
X2025200Y1887949D02*
Y1888177D01*
Y1892453D02*
Y1892682D01*
X2025300Y1886074D02*
Y1886328D01*
Y1887965D02*
Y1888210D01*
Y1892369D02*
Y1892582D01*
X2025400Y1886074D02*
Y1886328D01*
Y1888045D02*
Y1888282D01*
Y1892269D02*
Y1892482D01*
X2025500Y1886074D02*
Y1886348D01*
Y1888125D02*
Y1888382D01*
Y1892169D02*
Y1892382D01*
X2025600Y1886074D02*
Y1886381D01*
Y1888205D02*
Y1888482D01*
Y1892065D02*
Y1892282D01*
X2025700Y1886074D02*
Y1886414D01*
Y1888285D02*
Y1888582D01*
Y1891932D02*
Y1892182D01*
X2025800Y1886074D02*
Y1886448D01*
Y1888365D02*
Y1888728D01*
Y1891799D02*
Y1892082D01*
X2025900Y1886074D02*
Y1886609D01*
Y1888436D02*
Y1888878D01*
Y1891665D02*
Y1891998D01*
X2026000Y1886074D02*
Y1893060D01*
X2026100Y1886074D02*
Y1893032D01*
X2026200Y1886074D02*
Y1892999D01*
X2026300Y1886074D02*
Y1892965D01*
X2026400Y1886074D02*
Y1892935D01*
X2026500Y1886074D02*
Y1892910D01*
X2026600Y1886074D02*
Y1886649D01*
Y1892281D02*
Y1892885D01*
X2026700Y1886074D02*
Y1886458D01*
Y1892558D02*
Y1892860D01*
X2026800Y1886074D02*
Y1886406D01*
Y1892609D02*
Y1892835D01*
X2026900Y1886074D02*
Y1886356D01*
Y1892659D02*
Y1892824D01*
X2027000Y1886074D02*
Y1886328D01*
Y1892688D02*
Y1892824D01*
X2027100Y1886074D02*
Y1886328D01*
Y1892688D02*
Y1892824D01*
X2027200Y1886074D02*
Y1886328D01*
Y1892688D02*
Y1892824D01*
X2028100Y1888081D02*
Y1888336D01*
X2028200Y1888081D02*
Y1888336D01*
X2028300Y1888081D02*
Y1888336D01*
X2028400Y1888081D02*
Y1888336D01*
X2028500Y1888081D02*
Y1888336D01*
X2028600Y1888081D02*
Y1888516D01*
X2028700Y1888081D02*
Y1893178D01*
X2028800Y1888057D02*
Y1893143D01*
X2028900Y1888007D02*
Y1893093D01*
X2029000Y1887957D02*
Y1893043D01*
X2029100Y1887907D02*
Y1892993D01*
X2029200Y1887857D02*
Y1892944D01*
X2029300Y1888780D02*
Y1889280D01*
Y1892334D02*
Y1892942D01*
X2029400Y1888713D02*
Y1889080D01*
Y1892534D02*
Y1892942D01*
X2029500Y1888513D02*
Y1888880D01*
Y1892601D02*
Y1892942D01*
X2029600Y1888313D02*
Y1888754D01*
Y1892651D02*
Y1892942D01*
X2029700Y1888257D02*
Y1888654D01*
Y1892688D02*
Y1892942D01*
X2029800Y1888207D02*
Y1888554D01*
Y1892688D02*
Y1892942D01*
X2029900Y1888157D02*
Y1888458D01*
Y1892688D02*
Y1892942D01*
X2030000Y1888107D02*
Y1888391D01*
X2030100Y1888057D02*
Y1888325D01*
X2030200Y1888007D02*
Y1888258D01*
X2030300Y1887957D02*
Y1888212D01*
X2030400Y1887907D02*
Y1888192D01*
X2030500Y1887857D02*
Y1888172D01*
X2030600Y1887845D02*
Y1888152D01*
X2030700Y1887845D02*
Y1888132D01*
X2030800Y1887845D02*
Y1888112D01*
X2030900Y1887845D02*
Y1888107D01*
X2031000Y1887845D02*
Y1888132D01*
X2031100Y1887845D02*
Y1888157D01*
X2031200Y1887845D02*
Y1888182D01*
X2031300Y1887845D02*
Y1888207D01*
X2031400Y1887845D02*
Y1888258D01*
X2031500Y1887845D02*
Y1888358D01*
X2031600Y1887845D02*
Y1888458D01*
X2031700Y1887863D02*
Y1888602D01*
X2031800Y1887938D02*
Y1888752D01*
X2031900Y1888013D02*
Y1889048D01*
X2032000Y1888088D02*
Y1893137D01*
X2032100Y1888163D02*
Y1893087D01*
X2032200Y1888371D02*
Y1893037D01*
X2032300Y1888621D02*
Y1892987D01*
X2032400Y1889035D02*
Y1892942D01*
X2032500Y1892356D02*
Y1892942D01*
X2032600Y1892552D02*
Y1892942D01*
X2032700Y1892593D02*
Y1892942D01*
X2032800Y1892626D02*
Y1892942D01*
X2032900Y1892660D02*
Y1892942D01*
X2033000Y1892688D02*
Y1892942D01*
X2033100Y1892688D02*
Y1892942D01*
X2033800Y1895404D02*
Y1895659D01*
X2033900Y1895404D02*
Y1895659D01*
X2034000Y1895404D02*
Y1895659D01*
X2034100Y1895404D02*
Y1895659D01*
X2034200Y1895404D02*
Y1895659D01*
X2034300Y1895404D02*
Y1895659D01*
X2034400Y1895404D02*
Y1895659D01*
X2034500Y1895404D02*
Y1895659D01*
X2034600Y1895404D02*
Y1895659D01*
X2034700Y1895404D02*
Y1895659D01*
X2034800Y1895404D02*
Y1895659D01*
X2034900Y1895404D02*
Y1895659D01*
X2035000Y1895404D02*
Y1895659D01*
X2035100Y1895404D02*
Y1895659D01*
X2035200Y1895267D02*
Y1895659D01*
X2035300Y1889880D02*
Y1895659D01*
X2035400Y1889530D02*
Y1895659D01*
X2035500Y1889180D02*
Y1895659D01*
X2035600Y1888993D02*
Y1895659D01*
X2035700Y1888843D02*
Y1895659D01*
X2035800Y1888693D02*
Y1895659D01*
X2035900Y1888543D02*
Y1889882D01*
Y1894787D02*
Y1895659D01*
X2036000Y1888406D02*
Y1889182D01*
Y1895087D02*
Y1895659D01*
X2036100Y1888326D02*
Y1888936D01*
Y1895301D02*
Y1895659D01*
X2036200Y1888246D02*
Y1888769D01*
Y1895335D02*
Y1895659D01*
X2036300Y1888166D02*
Y1888602D01*
Y1895368D02*
Y1895659D01*
X2036400Y1888086D02*
Y1888451D01*
Y1895401D02*
Y1895659D01*
X2036500Y1888006D02*
Y1888351D01*
Y1895404D02*
Y1895659D01*
X2036600Y1887955D02*
Y1888251D01*
Y1895404D02*
Y1895659D01*
X2036700Y1887940D02*
Y1888151D01*
Y1895404D02*
Y1895659D01*
X2036800Y1887926D02*
Y1888100D01*
Y1895404D02*
Y1895659D01*
X2036900Y1887912D02*
Y1888100D01*
Y1895404D02*
Y1895659D01*
X2037000Y1887898D02*
Y1888100D01*
Y1895404D02*
Y1895659D01*
X2037100Y1887883D02*
Y1888100D01*
Y1895404D02*
Y1895659D01*
X2037200Y1887869D02*
Y1888100D01*
Y1895404D02*
Y1895659D01*
X2037300Y1887855D02*
Y1888100D01*
Y1895404D02*
Y1895659D01*
X2037400Y1887854D02*
Y1888100D01*
Y1895404D02*
Y1895659D01*
X2037500Y1887874D02*
Y1888100D01*
X2037600Y1887894D02*
Y1888100D01*
X2037700Y1887914D02*
Y1888180D01*
X2037800Y1887934D02*
Y1888280D01*
Y1888685D02*
Y1888832D01*
X2037900Y1887954D02*
Y1889059D01*
X2038000Y1887977D02*
Y1889084D01*
X2038100Y1888002D02*
Y1889109D01*
X2038200Y1888027D02*
Y1889134D01*
X2038300Y1888052D02*
Y1889159D01*
X2038400Y1888084D02*
Y1889129D01*
X2038500Y1888234D02*
Y1889096D01*
X2038600Y1888384D02*
Y1889062D01*
X2038700Y1888660D02*
Y1888821D01*
*
G04 PC Custom Flashes*
G04 Layer Name V2.0.pcb - flashes*
%LPD*%
*
*
G04 PC Circuitry*
G04 Layer Name V2.0.pcb - circuitry*
%LPD*%
*
G54D10*
G54D26*
X1836614Y1866142D02*
G75*
G03X1848425Y1854331I11811J-0D01*
G01X2088583*
G03X2100394Y1866142I-0J11811*
G01Y2070866*
G03X2088583Y2082677I-11811J0*
G01X1848425*
G03X1836614Y2070866I0J-11811*
G01Y1866142*
X1855118Y2070472D02*
G03X1855118I-6693J0D01*
G01X2095276D02*
G03X2095276I-6693J0D01*
G01X1855118Y1866535D02*
G03X1855118I-6693J0D01*
G01X2095276D02*
G03X2095276I-6693J0D01*
G74*
G01X0Y0D02*
M02*
