*
*
G04 PADS 9.5 Build Number: 522968 generated Gerber (RS-274-X) file*
G04 PC Version=2.1*
*
%IN "Jupiter转接板-20210830-"*%
*
%MOIN*%
*
%FSLAX35Y35*%
*
*
*
*
G04 PC Standard Apertures*
*
*
G04 Thermal Relief Aperture macro.*
%AMTER*
1,1,$1,0,0*
1,0,$1-$2,0,0*
21,0,$3,$4,0,0,45*
21,0,$3,$4,0,0,135*
%
*
*
G04 Annular Aperture macro.*
%AMANN*
1,1,$1,0,0*
1,0,$2,0,0*
%
*
*
G04 Odd Aperture macro.*
%AMODD*
1,1,$1,0,0*
1,0,$1-0.005,0,0*
%
*
*
G04 PC Custom Aperture Macros*
*
*
*
*
*
*
G04 PC Aperture Table*
*
%ADD010C,0.001*%
%ADD011C,0.01*%
*
*
*
*
G04 PC Circuitry*
G04 Layer Name Jupiter转接板-20210830- - circuitry*
%LPD*%
*
*
G04 PC Custom Flashes*
G04 Layer Name Jupiter转接板-20210830- - flashes*
%LPD*%
*
*
G04 PC Circuitry*
G04 Layer Name Jupiter转接板-20210830- - circuitry*
%LPD*%
*
G54D10*
G01X1850394Y1956693D02*
X1850396D01*
X2086614Y1948819D02*
X2086617D01*
X1954724Y1850394D02*
X1954727D01*
X1962598Y2086614D02*
X1962601D01*
G54D11*
X2033402Y2066929D02*
X2041402D01*
X2037402Y2062929D02*
Y2070929D01*
X2023402Y2066929D02*
X2031402D01*
X2027402Y2062929D02*
Y2070929D01*
X2066866Y2035433D02*
X2074866D01*
X2070866Y2031433D02*
Y2039433D01*
X2066866Y2025433D02*
X2074866D01*
X2070866Y2021433D02*
Y2029433D01*
X2066866Y1927165D02*
X2074866D01*
X2070866Y1923165D02*
Y1931165D01*
X2066866Y1917165D02*
X2074866D01*
X2070866Y1913165D02*
Y1921165D01*
X1944819Y2066929D02*
X1952819D01*
X1948819Y2062929D02*
Y2070929D01*
X1934819Y2066929D02*
X1942819D01*
X1938819Y2062929D02*
Y2070929D01*
X1974346Y2066929D02*
X1982346D01*
X1978346Y2062929D02*
Y2070929D01*
X1984346Y2066929D02*
X1992346D01*
X1988346Y2062929D02*
Y2070929D01*
X1994346Y2066929D02*
X2002346D01*
X1998346Y2062929D02*
Y2070929D01*
X2066866Y1966535D02*
X2074866D01*
X2070866Y1962535D02*
Y1970535D01*
X2066866Y1976535D02*
X2074866D01*
X2070866Y1972535D02*
Y1980535D01*
X2066866Y1986535D02*
X2074866D01*
X2070866Y1982535D02*
Y1990535D01*
X1866079Y1998031D02*
X1874079D01*
X1870079Y1994031D02*
Y2002031D01*
X1866079Y2008031D02*
X1874079D01*
X1870079Y2004031D02*
Y2012031D01*
X1866079Y2018031D02*
X1874079D01*
X1870079Y2014031D02*
Y2022031D01*
X1866079Y2028031D02*
X1874079D01*
X1870079Y2024031D02*
Y2032031D01*
X1893717Y2057024D02*
X1901717Y2065024D01*
X1893717D02*
X1901717Y2057024D01*
X1909307D02*
X1917307Y2065024D01*
X1909307D02*
X1917307Y2057024D01*
X1996079Y1866079D02*
X2004079Y1874079D01*
X1996079D02*
X2004079Y1866079D01*
X2011669D02*
X2019669Y1874079D01*
X2011669D02*
X2019669Y1866079D01*
X1925134Y1866142D02*
X1933134D01*
X1929134Y1862142D02*
Y1870142D01*
X1935134Y1866142D02*
X1943134D01*
X1939134Y1862142D02*
Y1870142D01*
X1945134Y1866142D02*
X1953134D01*
X1949134Y1862142D02*
Y1870142D01*
X1955134Y1866142D02*
X1963134D01*
X1959134Y1862142D02*
Y1870142D01*
X1891669Y1877890D02*
X1899669D01*
Y1885890*
X1891669*
Y1877890*
X1895669Y1881890D02*
Y1885890D01*
X2035370Y1871984D02*
X2043370D01*
Y1879984*
X2035370*
Y1871984*
X2039370Y1875984D02*
Y1879984D01*
X2068835Y1887732D02*
X2076835D01*
Y1895732*
X2068835*
Y1887732*
X2072835Y1891732D02*
Y1895732D01*
X1879858Y1933008D02*
X1887858D01*
Y1941008*
X1879858*
Y1933008*
X1883858Y1937008D02*
Y1941008D01*
X1996000Y1942850D02*
X2004000D01*
Y1950850*
X1996000*
Y1942850*
X2000000Y1946850D02*
Y1950850D01*
X2029465Y1942850D02*
X2037465D01*
Y1950850*
X2029465*
Y1942850*
X2033465Y1946850D02*
Y1950850D01*
X1862142Y1956630D02*
X1870142D01*
Y1964630*
X1862142*
Y1956630*
X1866142Y1960630D02*
Y1964630D01*
X2021591Y2007811D02*
X2029591D01*
Y2015811*
X2021591*
Y2007811*
X2025591Y2011811D02*
Y2015811D01*
X1960567Y2029465D02*
X1968567D01*
Y2037465*
X1960567*
Y2029465*
X1964567Y2033465D02*
Y2037465D01*
X1870016Y2043244D02*
X1878016D01*
Y2051244*
X1870016*
Y2043244*
X1874016Y2047244D02*
Y2051244D01*
X1850394Y1862205D02*
G75*
G03X1862205Y1850394I11811J-0D01*
G01X2074803*
G03X2086614Y1862205I0J11811*
G01Y2074803*
G03X2074803Y2086614I-11811J0*
G01X1862205*
G03X1850394Y2074803I-0J-11811*
G01Y1862205*
X1877165Y2066929D02*
G03X1877165I-7086J0D01*
G01X2074016D02*
G03X2074016I-7087J0D01*
G01Y1870079D02*
G03X2074016I-7087J0D01*
G01X1877165D02*
G03X1877165I-7086J0D01*
G01X1850394Y2116142D02*
X1950049D01*
X1850394D02*
X1860394Y2118642D01*
Y2113642*
X1850394Y2116142*
X2086614D02*
X1986958D01*
X2086614D02*
X2076614Y2113642D01*
Y2118642*
X2086614Y2116142*
X1850394Y1961693D02*
Y2121142D01*
X2086614Y1953819D02*
Y2121142D01*
X1955777Y2118017D02*
X1955549Y2118642D01*
X1954868Y2118954*
X1954413*
X1953731Y2118642*
X1953277Y2117704*
X1953049Y2116142*
Y2114579*
X1953277Y2113329*
X1953731Y2112704*
X1954413Y2112392*
X1954640*
X1955322Y2112704*
X1955777Y2113329*
X1956004Y2114267*
Y2114579*
X1955777Y2115517*
X1955322Y2116142*
X1954640Y2116454*
X1954413*
X1953731Y2116142*
X1953277Y2115517*
X1953049Y2114579*
X1959413Y2118954D02*
X1958731Y2118642D01*
X1958277Y2117704*
X1958049Y2116142*
Y2115204*
X1958277Y2113642*
X1958731Y2112704*
X1959413Y2112392*
X1959868*
X1960549Y2112704*
X1961004Y2113642*
X1961231Y2115204*
Y2116142*
X1961004Y2117704*
X1960549Y2118642*
X1959868Y2118954*
X1959413*
X1963504Y2113017D02*
X1963277Y2112704D01*
X1963504Y2112392*
X1963731Y2112704*
X1963504Y2113017*
X1967140Y2118954D02*
X1966458Y2118642D01*
X1966004Y2117704*
X1965777Y2116142*
Y2115204*
X1966004Y2113642*
X1966458Y2112704*
X1967140Y2112392*
X1967595*
X1968277Y2112704*
X1968731Y2113642*
X1968958Y2115204*
Y2116142*
X1968731Y2117704*
X1968277Y2118642*
X1967595Y2118954*
X1967140*
X1971004Y2116767D02*
Y2112392D01*
Y2115517D02*
X1971686Y2116454D01*
X1972140Y2116767*
X1972822*
X1973277Y2116454*
X1973504Y2115517*
Y2112392*
Y2115517D02*
X1974186Y2116454D01*
X1974640Y2116767*
X1975322*
X1975777Y2116454*
X1976004Y2115517*
Y2112392*
X1978049Y2116767D02*
Y2112392D01*
Y2115517D02*
X1978731Y2116454D01*
X1979186Y2116767*
X1979868*
X1980322Y2116454*
X1980549Y2115517*
Y2112392*
Y2115517D02*
X1981231Y2116454D01*
X1981686Y2116767*
X1982368*
X1982822Y2116454*
X1983049Y2115517*
Y2112392*
X1793307Y1850394D02*
Y1961754D01*
Y1850394D02*
X1790807Y1860394D01*
X1795807*
X1793307Y1850394*
Y2086614D02*
Y1975254D01*
Y2086614D02*
X1795807Y2076614D01*
X1790807*
X1793307Y2086614*
X1949724Y1850394D02*
X1788307D01*
X1957598Y2086614D02*
X1788307D01*
X1780580Y1970379D02*
X1780353Y1971004D01*
X1779671Y1971316*
X1779216*
X1778534Y1971004*
X1778080Y1970066*
X1777853Y1968504*
Y1966941*
X1778080Y1965691*
X1778534Y1965066*
X1779216Y1964754*
X1779443*
X1780125Y1965066*
X1780580Y1965691*
X1780807Y1966629*
Y1966941*
X1780580Y1967879*
X1780125Y1968504*
X1779443Y1968816*
X1779216*
X1778534Y1968504*
X1778080Y1967879*
X1777853Y1966941*
X1784216Y1971316D02*
X1783534Y1971004D01*
X1783080Y1970066*
X1782853Y1968504*
Y1967566*
X1783080Y1966004*
X1783534Y1965066*
X1784216Y1964754*
X1784671*
X1785353Y1965066*
X1785807Y1966004*
X1786034Y1967566*
Y1968504*
X1785807Y1970066*
X1785353Y1971004*
X1784671Y1971316*
X1784216*
X1788307Y1965379D02*
X1788080Y1965066D01*
X1788307Y1964754*
X1788534Y1965066*
X1788307Y1965379*
X1791943Y1971316D02*
X1791262Y1971004D01*
X1790807Y1970066*
X1790580Y1968504*
Y1967566*
X1790807Y1966004*
X1791262Y1965066*
X1791943Y1964754*
X1792398*
X1793080Y1965066*
X1793534Y1966004*
X1793762Y1967566*
Y1968504*
X1793534Y1970066*
X1793080Y1971004*
X1792398Y1971316*
X1791943*
X1795807Y1969129D02*
Y1964754D01*
Y1967879D02*
X1796489Y1968816D01*
X1796943Y1969129*
X1797625*
X1798080Y1968816*
X1798307Y1967879*
Y1964754*
Y1967879D02*
X1798989Y1968816D01*
X1799443Y1969129*
X1800125*
X1800580Y1968816*
X1800807Y1967879*
Y1964754*
X1802853Y1969129D02*
Y1964754D01*
Y1967879D02*
X1803534Y1968816D01*
X1803989Y1969129*
X1804671*
X1805125Y1968816*
X1805353Y1967879*
Y1964754*
Y1967879D02*
X1806034Y1968816D01*
X1806489Y1969129*
X1807171*
X1807625Y1968816*
X1807853Y1967879*
Y1964754*
X2362205Y2458205D02*
X2620205D01*
X2362205Y2434205D02*
X2620205D01*
X2362205Y2410205D02*
X2620205D01*
X2362205Y2386205D02*
X2620205D01*
X2362205Y2362205D02*
X2620205D01*
X2362205Y2458205D02*
Y2362205D01*
X2446205Y2458205D02*
Y2362205D01*
X2482205Y2458205D02*
Y2362205D01*
X2518205Y2458205D02*
Y2362205D01*
X2572205Y2458205D02*
Y2362205D01*
X2620205Y2458205D02*
Y2362205D01*
X2391023Y2440205D02*
X2392568Y2442580D01*
X2392932Y2444580*
Y2447830*
X2393296Y2448080*
X2400387*
X2400750Y2447830*
Y2445205*
X2400387Y2444955*
X2392932*
X2397023D02*
X2397750Y2443205D01*
X2399659Y2441330*
X2401932Y2440205*
X2407750Y2442830D02*
X2407023Y2444080D01*
X2405932Y2444955*
X2404387Y2446705D02*
X2414477D01*
X2412296Y2448455D02*
Y2440205D01*
X2411932Y2439955*
X2409296Y2440455*
X2451023Y2443205D02*
X2456296D01*
X2455568D02*
X2454750Y2441705D01*
X2453659Y2440830*
X2451387Y2439955*
X2455568D02*
X2453659Y2441080D01*
X2451750Y2441705*
Y2441955*
X2452932Y2442830*
X2453659Y2444080*
Y2444330D02*
Y2448455D01*
X2451387D02*
X2452114Y2447205D01*
X2454750D02*
X2455568Y2448455D01*
X2456296Y2446705D02*
X2451387D01*
X2451023Y2444580D02*
X2452568Y2445455D01*
X2453659Y2446705*
X2455932Y2445205*
X2456659D02*
X2457387Y2446955D01*
Y2448455*
Y2446955D02*
X2462296D01*
X2461568D02*
X2460750Y2444330D01*
X2458932Y2441330*
X2457023Y2439955*
X2461932D02*
X2460387Y2441330D01*
X2458568Y2444330*
X2457750Y2446955*
X2464387Y2440205D02*
X2475296D01*
X2474477Y2441330D02*
X2465114D01*
X2465932Y2442830D02*
Y2444580D01*
X2466296Y2444955*
X2473750*
X2474114Y2444580*
Y2442830*
X2473750Y2442580*
X2466296*
X2465932Y2442830*
Y2443705D02*
X2474114D01*
X2470023Y2444955D02*
Y2440205D01*
X2464750Y2445830D02*
X2475659D01*
X2465932Y2446955D02*
Y2448080D01*
X2466296Y2448455*
X2473750*
X2474114Y2448080*
Y2446955*
X2473750Y2446705*
X2466296*
X2465932Y2446955*
Y2447580D02*
X2474114D01*
X2487750Y2443705D02*
X2489296Y2444955D01*
X2490387Y2446330*
X2489296Y2444955D02*
Y2439955D01*
X2493750Y2441955D02*
X2492296Y2443455D01*
X2491568Y2444955D02*
X2498296D01*
X2496750Y2446080D02*
Y2440205D01*
X2496387Y2439955*
X2494932Y2440205*
X2493750Y2441955D02*
X2492296Y2443455D01*
X2487023Y2446955D02*
X2488568Y2447830D01*
X2488932Y2448705*
X2488568Y2447830D02*
X2492659D01*
X2491114Y2446705D02*
X2489659Y2447830D01*
X2494568Y2448705D02*
X2494114Y2447830D01*
X2493023Y2446955*
X2494114Y2447830D02*
X2498296D01*
X2496750Y2446705D02*
X2495659Y2447830D01*
X2500387Y2444330D02*
X2510932D01*
X2503387D02*
X2502659Y2442830D01*
X2503023Y2442580*
X2509023*
X2509387Y2442330*
X2509023Y2440205*
X2508659Y2439955*
X2505659Y2440205*
X2502296Y2446080D02*
Y2447830D01*
X2502659Y2448080*
X2509023*
X2509387Y2447830*
Y2446080*
X2509023Y2445830*
X2502659*
X2502296Y2446080*
X2547705Y2446205D02*
Y2446580D01*
X2547977Y2447330*
X2548250Y2447705*
X2548796Y2448080*
X2549887*
X2550432Y2447705*
X2550705Y2447330*
X2550977Y2446580*
Y2445830*
X2550705Y2445080*
X2550432Y2444705*
X2549341Y2443955*
Y2442830*
Y2440955D02*
X2549068Y2440580D01*
X2549341Y2440205*
X2549614Y2440580*
X2549341Y2440955*
X2553432Y2446205D02*
Y2446580D01*
X2553705Y2447330*
X2553977Y2447705*
X2554523Y2448080*
X2555614*
X2556159Y2447705*
X2556432Y2447330*
X2556705Y2446580*
Y2445830*
X2556432Y2445080*
X2556159Y2444705*
X2555068Y2443955*
Y2442830*
Y2440955D02*
X2554796Y2440580D01*
X2555068Y2440205*
X2555341Y2440580*
X2555068Y2440955*
X2588887Y2448080D02*
Y2440205D01*
X2586977Y2448080D02*
X2590796D01*
X2594887D02*
X2594341Y2447705D01*
X2593796Y2446955*
X2593523Y2446205*
X2593250Y2445080*
Y2443205*
X2593523Y2442080*
X2593796Y2441330*
X2594341Y2440580*
X2594887Y2440205*
X2595977*
X2596523Y2440580*
X2597068Y2441330*
X2597341Y2442080*
X2597614Y2443205*
Y2445080*
X2597341Y2446205*
X2597068Y2446955*
X2596523Y2447705*
X2595977Y2448080*
X2594887*
X2600068D02*
Y2440205D01*
X2603341*
X2368205Y2422580D02*
X2368750Y2422955D01*
X2369568Y2424080*
Y2416205*
X2372296Y2416955D02*
X2372023Y2416580D01*
X2372296Y2416205*
X2372568Y2416580*
X2372296Y2416955*
X2376659Y2424080D02*
X2375841Y2423705D01*
X2375296Y2422580*
X2375023Y2420705*
Y2419580*
X2375296Y2417705*
X2375841Y2416580*
X2376659Y2416205*
X2377205*
X2378023Y2416580*
X2378568Y2417705*
X2378841Y2419580*
Y2420705*
X2378568Y2422580*
X2378023Y2423705*
X2377205Y2424080*
X2376659*
X2381296Y2422580D02*
X2381841Y2422955D01*
X2382659Y2424080*
Y2416205*
X2388387Y2422955D02*
X2388114Y2423705D01*
X2387296Y2424080*
X2386750*
X2385932Y2423705*
X2385387Y2422580*
X2385114Y2420705*
Y2418830*
X2385387Y2417330*
X2385932Y2416580*
X2386750Y2416205*
X2387023*
X2387841Y2416580*
X2388387Y2417330*
X2388659Y2418455*
Y2418830*
X2388387Y2419955*
X2387841Y2420705*
X2387023Y2421080*
X2386750*
X2385932Y2420705*
X2385387Y2419955*
X2385114Y2418830*
X2458387Y2422205D02*
Y2422580D01*
X2458659Y2423330*
X2458932Y2423705*
X2459477Y2424080*
X2460568*
X2461114Y2423705*
X2461387Y2423330*
X2461659Y2422580*
Y2421830*
X2461387Y2421080*
X2460841Y2419955*
X2458114Y2416205*
X2461932*
X2464659Y2422205D02*
Y2422580D01*
X2464932Y2423330*
X2465205Y2423705*
X2465750Y2424080*
X2466841*
X2467387Y2423705*
X2467659Y2423330*
X2467932Y2422580*
Y2421830*
X2467659Y2421080*
X2467114Y2419955*
X2464387Y2416205*
X2468205*
X2494205Y2422205D02*
X2506205D01*
X2500205Y2416205D02*
Y2428205D01*
X2526841Y2424080D02*
X2529023Y2420330D01*
Y2416205*
X2531205Y2424080D02*
X2529023Y2420330D01*
X2533659Y2424080D02*
Y2416205D01*
Y2424080D02*
X2537205D01*
X2533659Y2420330D02*
X2535841D01*
X2533659Y2416205D02*
X2537205D01*
X2543477Y2422955D02*
X2542932Y2423705D01*
X2542114Y2424080*
X2541023*
X2540205Y2423705*
X2539659Y2422955*
Y2422205*
X2539932Y2421455*
X2540205Y2421080*
X2540750Y2420705*
X2542387Y2419955*
X2542932Y2419580*
X2543205Y2419205*
X2543477Y2418455*
Y2417330*
X2542932Y2416580*
X2542114Y2416205*
X2541023*
X2540205Y2416580*
X2539659Y2417330*
X2580023Y2422955D02*
Y2416205D01*
X2577568Y2419580D02*
X2582477D01*
X2589841Y2425580D02*
X2584932Y2413580D01*
X2592296Y2419580D02*
X2597205D01*
X2601296Y2424080D02*
X2600477Y2423705D01*
X2599932Y2422580*
X2599659Y2420705*
Y2419580*
X2599932Y2417705*
X2600477Y2416580*
X2601296Y2416205*
X2601841*
X2602659Y2416580*
X2603205Y2417705*
X2603477Y2419580*
Y2420705*
X2603205Y2422580*
X2602659Y2423705*
X2601841Y2424080*
X2601296*
X2606205Y2416955D02*
X2605932Y2416580D01*
X2606205Y2416205*
X2606477Y2416580*
X2606205Y2416955*
X2610568Y2424080D02*
X2609750Y2423705D01*
X2609205Y2422580*
X2608932Y2420705*
Y2419580*
X2609205Y2417705*
X2609750Y2416580*
X2610568Y2416205*
X2611114*
X2611932Y2416580*
X2612477Y2417705*
X2612750Y2419580*
Y2420705*
X2612477Y2422580*
X2611932Y2423705*
X2611114Y2424080*
X2610568*
X2368205Y2398580D02*
X2368750Y2398955D01*
X2369568Y2400080*
Y2392205*
X2372296Y2392955D02*
X2372023Y2392580D01*
X2372296Y2392205*
X2372568Y2392580*
X2372296Y2392955*
X2378296Y2398955D02*
X2378023Y2399705D01*
X2377205Y2400080*
X2376659*
X2375841Y2399705*
X2375296Y2398580*
X2375023Y2396705*
Y2394830*
X2375296Y2393330*
X2375841Y2392580*
X2376659Y2392205*
X2376932*
X2377750Y2392580*
X2378296Y2393330*
X2378568Y2394455*
Y2394830*
X2378296Y2395955*
X2377750Y2396705*
X2376932Y2397080*
X2376659*
X2375841Y2396705*
X2375296Y2395955*
X2375023Y2394830*
X2463841Y2400080D02*
X2461114Y2394830D01*
X2465205*
X2463841Y2400080D02*
Y2392205D01*
X2494205D02*
X2506205Y2404205D01*
X2494205D02*
X2506205Y2392205D01*
X2526841Y2400080D02*
X2529023Y2396330D01*
Y2392205*
X2531205Y2400080D02*
X2529023Y2396330D01*
X2533659Y2400080D02*
Y2392205D01*
Y2400080D02*
X2537205D01*
X2533659Y2396330D02*
X2535841D01*
X2533659Y2392205D02*
X2537205D01*
X2543477Y2398955D02*
X2542932Y2399705D01*
X2542114Y2400080*
X2541023*
X2540205Y2399705*
X2539659Y2398955*
Y2398205*
X2539932Y2397455*
X2540205Y2397080*
X2540750Y2396705*
X2542387Y2395955*
X2542932Y2395580*
X2543205Y2395205*
X2543477Y2394455*
Y2393330*
X2542932Y2392580*
X2542114Y2392205*
X2541023*
X2540205Y2392580*
X2539659Y2393330*
X2580023Y2398955D02*
Y2392205D01*
X2577568Y2395580D02*
X2582477D01*
X2589841Y2401580D02*
X2584932Y2389580D01*
X2592296Y2395580D02*
X2597205D01*
X2601296Y2400080D02*
X2600477Y2399705D01*
X2599932Y2398580*
X2599659Y2396705*
Y2395580*
X2599932Y2393705*
X2600477Y2392580*
X2601296Y2392205*
X2601841*
X2602659Y2392580*
X2603205Y2393705*
X2603477Y2395580*
Y2396705*
X2603205Y2398580*
X2602659Y2399705*
X2601841Y2400080*
X2601296*
X2606205Y2392955D02*
X2605932Y2392580D01*
X2606205Y2392205*
X2606477Y2392580*
X2606205Y2392955*
X2610568Y2400080D02*
X2609750Y2399705D01*
X2609205Y2398580*
X2608932Y2396705*
Y2395580*
X2609205Y2393705*
X2609750Y2392580*
X2610568Y2392205*
X2611114*
X2611932Y2392580*
X2612477Y2393705*
X2612750Y2395580*
Y2396705*
X2612477Y2398580*
X2611932Y2399705*
X2611114Y2400080*
X2610568*
X2368205Y2374580D02*
X2368750Y2374955D01*
X2369568Y2376080*
Y2368205*
X2459341Y2374580D02*
X2459887Y2374955D01*
X2460705Y2376080*
Y2368205*
X2464796Y2376080D02*
X2463977Y2375705D01*
X2463432Y2374580*
X2463159Y2372705*
Y2371580*
X2463432Y2369705*
X2463977Y2368580*
X2464796Y2368205*
X2465341*
X2466159Y2368580*
X2466705Y2369705*
X2466977Y2371580*
Y2372705*
X2466705Y2374580*
X2466159Y2375705*
X2465341Y2376080*
X2464796*
X2494205Y2368205D02*
X2506205D01*
Y2380205*
X2494205*
Y2368205*
X2500205Y2374205D02*
Y2380205D01*
X2526841Y2376080D02*
X2529023Y2372330D01*
Y2368205*
X2531205Y2376080D02*
X2529023Y2372330D01*
X2533659Y2376080D02*
Y2368205D01*
Y2376080D02*
X2537205D01*
X2533659Y2372330D02*
X2535841D01*
X2533659Y2368205D02*
X2537205D01*
X2543477Y2374955D02*
X2542932Y2375705D01*
X2542114Y2376080*
X2541023*
X2540205Y2375705*
X2539659Y2374955*
Y2374205*
X2539932Y2373455*
X2540205Y2373080*
X2540750Y2372705*
X2542387Y2371955*
X2542932Y2371580*
X2543205Y2371205*
X2543477Y2370455*
Y2369330*
X2542932Y2368580*
X2542114Y2368205*
X2541023*
X2540205Y2368580*
X2539659Y2369330*
X2580023Y2374955D02*
Y2368205D01*
X2577568Y2371580D02*
X2582477D01*
X2589841Y2377580D02*
X2584932Y2365580D01*
X2592296Y2371580D02*
X2597205D01*
X2601296Y2376080D02*
X2600477Y2375705D01*
X2599932Y2374580*
X2599659Y2372705*
Y2371580*
X2599932Y2369705*
X2600477Y2368580*
X2601296Y2368205*
X2601841*
X2602659Y2368580*
X2603205Y2369705*
X2603477Y2371580*
Y2372705*
X2603205Y2374580*
X2602659Y2375705*
X2601841Y2376080*
X2601296*
X2606205Y2368955D02*
X2605932Y2368580D01*
X2606205Y2368205*
X2606477Y2368580*
X2606205Y2368955*
X2610568Y2376080D02*
X2609750Y2375705D01*
X2609205Y2374580*
X2608932Y2372705*
Y2371580*
X2609205Y2369705*
X2609750Y2368580*
X2610568Y2368205*
X2611114*
X2611932Y2368580*
X2612477Y2369705*
X2612750Y2371580*
Y2372705*
X2612477Y2374580*
X2611932Y2375705*
X2611114Y2376080*
X2610568*
G74*
X0Y0D02*
M02*
