%
T1C.03937F197S55
X189567Y188189
X188386Y193701
X186614Y196063
X187402Y204724
X196457Y203346
X202559Y201181
X2Y194685
X203346Y194685
X203937Y187598
X207283Y189173
T2C.04F139S55
X192913Y186614
X193913Y186614
X187008Y199803
X187008Y200803
X187008Y201803
X187008Y202803
X193882Y206693
X194882Y206693
X197835Y206693
X198835Y206693
X194913Y186614
X195913Y186614
X199835Y206693
X20374Y206693
X20274Y206693
X207087Y203543
X207087Y202543
X207087Y198654
X207087Y197654
X207087Y196654
X207087Y192717
X207087Y191717
T3C.06299F089S55
X189772Y206102
X191331Y206102
X200008Y187008
X201567Y187008
M30
