*
*
G04 PADS 9.5 Build Number: 522968 generated Gerber (RS-274-X) file*
G04 PC Version=2.1*
*
%IN "Jupiter转接板-20210830-"*%
*
%MOIN*%
*
%FSLAX35Y35*%
*
*
*
*
G04 PC Standard Apertures*
*
*
G04 Thermal Relief Aperture macro.*
%AMTER*
1,1,$1,0,0*
1,0,$1-$2,0,0*
21,0,$3,$4,0,0,45*
21,0,$3,$4,0,0,135*
%
*
*
G04 Annular Aperture macro.*
%AMANN*
1,1,$1,0,0*
1,0,$2,0,0*
%
*
*
G04 Odd Aperture macro.*
%AMODD*
1,1,$1,0,0*
1,0,$1-0.005,0,0*
%
*
*
G04 PC Custom Aperture Macros*
*
*
*
*
*
*
G04 PC Aperture Table*
*
%ADD010C,0.001*%
%ADD011C,0.01*%
%ADD029C,0.005*%
*
*
*
*
G04 PC Circuitry*
G04 Layer Name Jupiter转接板-20210830- - circuitry*
%LPD*%
*
G54D10*
G01X1944989Y1885541D02*
X1944853D01*
Y1884528*
X1944851Y1884512*
X1944732Y1884157*
X1944707Y1884129*
X1944471Y1884010*
X1944449Y1884005*
X1937838*
X1936908Y1883889*
X1936219Y1883430*
X1935757Y1882621*
X1935641Y1881812*
X1935757Y1881231*
X1935871Y1880779*
X1936203Y1880557*
X1936537Y1880446*
X1936967Y1880553*
X1937072Y1880975*
X1936858Y1881297*
X1936527Y1881407*
X1936320*
X1936216Y1881303*
X1936146*
X1935910Y1881539*
X1935896Y1881563*
X1935778Y1882035*
Y1882059*
X1935896Y1882532*
X1935900Y1882542*
X1936136Y1883014*
X1936163Y1883039*
X1936753Y1883275*
X1936765Y1883278*
X1937710Y1883396*
X1937717*
X1944449*
X1944471Y1883391*
X1944707Y1883273*
X1944732Y1883244*
X1944851Y1882890*
X1944853Y1882874*
Y1881861*
X1944989*
Y1885541*
X1945105Y1900707D02*
X1944998Y1901028D01*
X1944571Y1901242*
X1944249Y1901027*
X1944034Y1900705*
X1944251Y1900270*
X1944571Y1900058*
X1944996Y1900271*
X1945105Y1900707*
X1942509Y1890619D02*
X1937953D01*
X1937930Y1890625*
X1937694Y1890743*
X1937669Y1890772*
X1937551Y1891126*
X1937548Y1891142*
Y1891328*
X1937412*
Y1891142*
X1937411Y1891130*
X1937293Y1890658*
X1937176Y1890074*
Y1890011*
X1938189*
X1938211Y1889916*
X1937749Y1889685*
X1937405Y1889226*
X1937176Y1888768*
Y1888194*
X1937292Y1887615*
X1937517Y1887165*
X1938084Y1886938*
X1938901Y1886822*
X1941614*
X1941630Y1886819*
X1941984Y1886701*
X1942016Y1886669*
X1942134Y1886315*
X1942137Y1886299*
Y1886113*
X1942273*
Y1886890*
X1942278Y1886912*
X1942509Y1887374*
Y1887430*
X1938780*
X1938770Y1887431*
X1938179Y1887549*
X1938173Y1887551*
X1937819Y1887669*
X1937793Y1887689*
X1937557Y1888043*
X1937548Y1888071*
Y1889016*
X1937557Y1889043*
X1937793Y1889398*
X1937799Y1889405*
X1938154Y1889760*
X1938170Y1889771*
X1938761Y1890007*
X1938780Y1890011*
X1941614*
X1941630Y1890008*
X1941984Y1889890*
X1942016Y1889858*
X1942134Y1889504*
X1942137Y1889488*
Y1889302*
X1942273*
Y1890079*
X1942278Y1890101*
X1942509Y1890563*
Y1890619*
X1942391Y1893454D02*
X1941378D01*
X1941343Y1893539*
X1942042Y1894239*
X1942272Y1895043*
X1942157Y1895846*
X1941699Y1896418*
X1940890Y1896880*
X1939725Y1896997*
X1938677Y1896881*
X1937867Y1896418*
X1937292Y1895727*
X1937176Y1894921*
X1937292Y1894115*
X1937756Y1893535*
X1937717Y1893454*
X1936063*
X1936041Y1893459*
X1935804Y1893577*
X1935779Y1893606*
X1935661Y1893961*
X1935659Y1893976*
Y1894281*
X1935522*
Y1892137*
X1935659*
Y1892323*
X1935661Y1892339*
X1935779Y1892693*
X1935804Y1892722*
X1936041Y1892840*
X1936063Y1892845*
X1941496*
X1941512Y1892843*
X1941866Y1892725*
X1941898Y1892693*
X1942016Y1892339*
X1942019Y1892323*
Y1892137*
X1942155*
Y1893031*
X1942163Y1893059*
X1942391Y1893401*
Y1893454*
X1942017Y1895027D02*
X1941899Y1894555D01*
X1941898Y1894551*
X1941780Y1894197*
X1941768Y1894177*
X1941413Y1893823*
X1941408Y1893818*
X1940936Y1893464*
X1940906Y1893454*
X1938307*
X1938285Y1893459*
X1937812Y1893695*
X1937793Y1893712*
X1937321Y1894421*
X1937312Y1894449*
Y1894803*
X1937313Y1894813*
X1937431Y1895404*
X1937445Y1895429*
X1937917Y1895901*
X1937930Y1895911*
X1938639Y1896265*
X1938656Y1896270*
X1939719Y1896388*
X1939731*
X1940675Y1896270*
X1940685Y1896268*
X1941394Y1896032*
X1941408Y1896024*
X1941880Y1895670*
X1941899Y1895640*
X1942018Y1895049*
X1942017Y1895027*
X1942627Y1900895D02*
X1937717D01*
X1937694Y1900900*
X1937458Y1901018*
X1937433Y1901047*
X1937315Y1901402*
X1937312Y1901417*
Y1902312*
X1937176*
Y1898869*
X1937312*
Y1899764*
X1937315Y1899780*
X1937433Y1900134*
X1937458Y1900163*
X1937694Y1900281*
X1937717Y1900286*
X1941496*
X1941512Y1900284*
X1941866Y1900166*
X1941898Y1900134*
X1942016Y1899780*
X1942018Y1899770*
X1942131Y1898869*
X1942273*
Y1899291*
Y1899298*
X1942391Y1900125*
X1942394Y1900134*
X1942627Y1900835*
Y1900895*
X1944044Y1906328D02*
X1942323D01*
X1942273Y1906378*
Y1908218*
X1942137*
Y1906378*
X1942087Y1906328*
X1938661*
X1938649Y1906329*
X1938177Y1906448*
X1938173Y1906449*
X1937819Y1906567*
X1937799Y1906579*
X1937563Y1906815*
X1937548Y1906850*
Y1907323*
X1937551Y1907339*
X1937787Y1908047*
X1937807Y1908073*
X1938161Y1908309*
X1938179Y1908317*
X1938706Y1908422*
X1938634Y1908566*
X1938092Y1908457*
X1937634Y1908114*
X1937291Y1907656*
X1937177Y1907087*
X1937292Y1906512*
X1937517Y1906063*
X1938084Y1905836*
X1938784Y1905719*
X1942087*
X1942137Y1905669*
Y1904302*
X1942273*
Y1904606*
X1942274Y1904616*
X1942392Y1905207*
X1942399Y1905225*
X1942636Y1905579*
X1942642Y1905587*
X1942996Y1905941*
X1943023Y1905955*
X1943732Y1906073*
X1943740Y1906074*
X1944044*
Y1906328*
X1942390Y1912522D02*
X1942275Y1913328D01*
X1941815Y1914018*
X1941008Y1914479*
X1939893Y1914590*
Y1910866*
X1939837Y1910816*
X1938774Y1910935*
X1938757Y1910940*
X1938049Y1911294*
X1938032Y1911307*
X1937559Y1911898*
X1937549Y1911921*
X1937431Y1912630*
X1937430Y1912638*
X1937431Y1912648*
X1937549Y1913238*
X1937554Y1913251*
X1937790Y1913723*
X1937799Y1913736*
X1938154Y1914090*
X1938167Y1914100*
X1938611Y1914322*
Y1914454*
X1938096Y1914247*
X1937636Y1913903*
X1937292Y1913329*
X1937176Y1912519*
X1937292Y1911596*
X1937869Y1910903*
X1938680Y1910324*
X1939724Y1910208*
X1940771Y1910324*
X1941697Y1910903*
X1942158Y1911595*
X1942390Y1912522*
X1942255Y1912520D02*
X1942254Y1912511D01*
X1942136Y1911803*
X1942122Y1911776*
X1941650Y1911303*
X1941637Y1911294*
X1940928Y1910940*
X1940913Y1910935*
X1940086Y1910817*
X1940029Y1910866*
Y1913937*
X1940085Y1913987*
X1941030Y1913869*
X1941042Y1913865*
X1941633Y1913629*
X1941650Y1913618*
X1942122Y1913146*
X1942136Y1913120*
X1942254Y1912529*
X1942255Y1912520*
X1942509Y1917667D02*
X1940906D01*
X1940878Y1917758*
X1941580Y1918226*
X1942044Y1918807*
X1942275Y1919268*
X1942389Y1919839*
X1942161Y1920524*
X1941948Y1920737*
X1941740*
X1941417Y1920630*
X1941314Y1920319*
X1941413Y1920120*
X1941740Y1920011*
X1941969*
X1942016Y1919976*
X1942134Y1919622*
Y1919590*
X1942016Y1919236*
X1942011Y1919226*
X1941657Y1918636*
X1941645Y1918622*
X1941055Y1918150*
X1941051Y1918147*
X1940343Y1917675*
X1940315Y1917667*
X1937717*
X1937694Y1917672*
X1937458Y1917790*
X1937433Y1917819*
X1937315Y1918173*
X1937312Y1918189*
Y1919084*
X1937176*
Y1915759*
X1937312*
Y1916535*
X1937315Y1916551*
X1937433Y1916906*
X1937458Y1916934*
X1937694Y1917053*
X1937717Y1917058*
X1941614*
X1941630Y1917055*
X1941984Y1916937*
X1942016Y1916906*
X1942134Y1916551*
X1942137Y1916535*
Y1915759*
X1942273*
Y1916063*
Y1916070*
X1942391Y1916897*
X1942392Y1916898*
X1942509Y1917603*
Y1917667*
X1945107Y1930000D02*
X1944991Y1930808D01*
X1944762Y1931153*
X1944753Y1931181*
Y1931417*
X1944756Y1931433*
X1944874Y1931787*
X1944899Y1931816*
X1944990Y1931862*
X1943415Y1932072*
X1943336Y1931915*
X1944114Y1931581*
X1944130Y1931571*
X1944602Y1931098*
X1944612Y1931085*
X1944848Y1930613*
X1944852Y1930600*
X1944970Y1930010*
X1944971Y1930000*
Y1929992*
X1944852Y1929283*
X1944843Y1929261*
X1944489Y1928789*
X1944467Y1928772*
X1943877Y1928536*
X1943868Y1928534*
X1943278Y1928416*
X1943256*
X1942783Y1928534*
X1942768Y1928541*
X1942413Y1928777*
X1942406Y1928784*
X1942287Y1928902*
X1942281Y1928909*
X1942045Y1929264*
X1942042Y1929269*
X1941806Y1929741*
X1941804Y1929745*
X1941569Y1930334*
X1941101Y1931270*
X1940520Y1931850*
X1939943Y1932196*
X1939251Y1932312*
X1938443Y1932196*
X1937753Y1931736*
X1937292Y1931045*
X1937177Y1930122*
X1937410Y1929305*
X1937412Y1929300*
X1937530Y1928591*
Y1928583*
X1937525Y1928560*
X1937407Y1928324*
X1937404Y1928319*
X1937210Y1928029*
X1939224Y1927693*
X1939303Y1927852*
X1938403Y1928302*
X1938394Y1928307*
X1937803Y1928780*
X1937792Y1928793*
X1937437Y1929384*
X1937431Y1929401*
X1937313Y1930110*
Y1930126*
X1937431Y1930835*
X1937440Y1930857*
X1937795Y1931329*
X1937816Y1931346*
X1938407Y1931582*
X1938418Y1931585*
X1939245Y1931703*
X1939264Y1931702*
X1939737Y1931584*
X1939754Y1931575*
X1940227Y1931221*
X1940237Y1931211*
X1940591Y1930739*
X1940595Y1930733*
X1941067Y1929907*
X1941069Y1929902*
X1941539Y1928845*
X1942004Y1928265*
X1942461Y1927922*
X1943266Y1927807*
X1943839Y1927921*
X1944531Y1928383*
X1944991Y1929073*
X1945107Y1930000*
X1945105Y1936140D02*
X1944998Y1936461D01*
X1944571Y1936675*
X1944249Y1936460*
X1944034Y1936138*
X1944251Y1935704*
X1944571Y1935491*
X1944996Y1935704*
X1945105Y1936140*
X1945344Y1959950D02*
X1937717D01*
X1937694Y1959955*
X1937458Y1960073*
X1937433Y1960102*
X1937315Y1960457*
X1937312Y1960472*
Y1961485*
X1937176*
Y1957924*
X1937312*
Y1958819*
X1937315Y1958835*
X1937433Y1959189*
X1937458Y1959218*
X1937694Y1959336*
X1937717Y1959341*
X1944449*
X1944471Y1959336*
X1944707Y1959218*
X1944732Y1959189*
X1944851Y1958835*
X1944853Y1958819*
Y1957924*
X1944989*
Y1958346*
X1944990Y1958354*
X1945108Y1959180*
X1945110Y1959189*
X1945344Y1959890*
Y1959950*
X1942627Y1936328D02*
X1937717D01*
X1937694Y1936333*
X1937458Y1936451*
X1937433Y1936480*
X1937315Y1936835*
X1937312Y1936850*
Y1937745*
X1937176*
Y1934302*
X1937312*
Y1935197*
X1937315Y1935213*
X1937433Y1935567*
X1937458Y1935596*
X1937694Y1935714*
X1937717Y1935719*
X1941496*
X1941512Y1935717*
X1941866Y1935599*
X1941898Y1935567*
X1942016Y1935213*
X1942018Y1935203*
X1942131Y1934302*
X1942273*
Y1934724*
Y1934731*
X1942391Y1935558*
X1942394Y1935567*
X1942627Y1936268*
Y1936328*
X1942387Y1944046D02*
X1942170Y1944371D01*
X1941965Y1944474*
X1941650Y1944369*
X1941552Y1944173*
X1941655Y1943967*
X1941768Y1943854*
X1941777Y1943841*
X1941895Y1943605*
X1941898Y1943567*
X1941780Y1943213*
X1941710Y1943184*
X1941244Y1943416*
X1940553Y1943532*
X1940098Y1943418*
X1939522Y1943072*
X1939182Y1942618*
X1939066Y1941690*
Y1941236*
X1939294Y1940894*
X1939287Y1940831*
X1939051Y1940595*
X1939038Y1940585*
X1938802Y1940467*
X1938757*
X1938521Y1940585*
X1938499Y1940608*
X1938380Y1940844*
X1938376Y1940861*
X1938257Y1941924*
X1938140Y1942861*
X1937908Y1943441*
X1937680Y1943783*
X1937340Y1944010*
X1937004Y1944122*
X1936323Y1944008*
X1935870Y1943556*
X1935640Y1942863*
X1935523Y1941811*
X1935640Y1940877*
X1935870Y1940184*
X1936325Y1939730*
X1936766Y1939620*
X1936986Y1939730*
X1936992Y1939732*
X1937335Y1939847*
X1937557Y1940069*
X1937790Y1940534*
X1937875Y1940542*
X1938220Y1940082*
X1938539Y1939975*
X1938983Y1940197*
X1939330Y1940660*
X1939401Y1940669*
X1939986Y1940201*
X1940557Y1939973*
X1941240Y1940087*
X1941697Y1940430*
X1942157Y1941005*
X1942272Y1941810*
X1942157Y1942499*
X1941810Y1942962*
X1941811Y1943023*
X1942277Y1943605*
X1942387Y1944046*
X1942135Y1941799D02*
X1942017Y1941326D01*
X1942010Y1941311*
X1941774Y1940957*
X1941755Y1940940*
X1941282Y1940703*
X1941268Y1940699*
X1940559Y1940581*
X1940539*
X1940067Y1940700*
X1940056Y1940703*
X1939584Y1940940*
X1939565Y1940957*
X1939328Y1941311*
X1939322Y1941326*
X1939203Y1941799*
Y1941823*
X1939322Y1942296*
X1939328Y1942311*
X1939565Y1942666*
X1939590Y1942685*
X1939945Y1942803*
X1939951Y1942805*
X1940541Y1942923*
X1940559*
X1941268Y1942805*
X1941282Y1942801*
X1941755Y1942564*
X1941774Y1942547*
X1942010Y1942193*
X1942016Y1942181*
X1942134Y1941827*
X1942135Y1941799*
X1937876Y1940957D02*
X1937640Y1940602D01*
X1937634Y1940595*
X1937398Y1940358*
X1937372Y1940345*
X1936781Y1940227*
X1936760*
X1936287Y1940345*
X1936264Y1940358*
X1936028Y1940595*
X1936017Y1940611*
X1935780Y1941202*
X1935778Y1941211*
X1935660Y1941801*
X1935659Y1941811*
Y1942520*
X1935664Y1942542*
X1935900Y1943014*
X1935910Y1943027*
X1936264Y1943382*
X1936287Y1943395*
X1936760Y1943513*
X1936784*
X1937256Y1943395*
X1937286Y1943374*
X1937522Y1943020*
X1937530Y1942998*
X1937648Y1942056*
X1937883Y1940995*
X1937876Y1940957*
X1942509Y1946604D02*
X1941496D01*
X1941458Y1946686*
X1942160Y1947505*
X1942390Y1948309*
X1942276Y1948877*
X1941936Y1949331*
X1941480Y1949558*
X1940783Y1949674*
X1937717*
X1937694Y1949680*
X1937458Y1949798*
X1937436Y1949820*
X1937317Y1950056*
X1937312Y1950079*
Y1950265*
X1937176*
Y1948475*
X1937312*
Y1948543*
X1937315Y1948559*
X1937433Y1948913*
X1937458Y1948942*
X1937694Y1949060*
X1937717Y1949066*
X1941378*
X1941406Y1949057*
X1941760Y1948821*
X1941768Y1948815*
X1942004Y1948579*
X1942016Y1948559*
X1942134Y1948205*
Y1948173*
X1942017Y1947821*
X1941899Y1947350*
X1941886Y1947327*
X1941531Y1946973*
X1941526Y1946968*
X1941054Y1946614*
X1941024Y1946604*
X1937717*
X1937694Y1946609*
X1937458Y1946727*
X1937433Y1946756*
X1937315Y1947110*
X1937312Y1947126*
Y1947194*
X1937176*
Y1945404*
X1937312*
Y1945591*
X1937317Y1945613*
X1937436Y1945849*
X1937458Y1945871*
X1937694Y1945990*
X1937717Y1945995*
X1941969*
X1942013Y1945967*
X1942131Y1945731*
X1942137Y1945709*
Y1945404*
X1942273*
Y1946181*
X1942281Y1946209*
X1942509Y1946551*
Y1946604*
X1942390Y1953622D02*
X1942274Y1954436D01*
X1942045Y1955008*
X1941593Y1955347*
X1941019Y1955462*
X1937717*
X1937681Y1955476*
X1937563Y1955595*
X1937554Y1955608*
X1937436Y1955844*
X1937430Y1955866*
Y1955984*
X1937458Y1956029*
X1937694Y1956147*
X1937707Y1956151*
X1938257Y1956261*
Y1956407*
X1937732*
X1937394Y1956182*
X1937176Y1955964*
Y1955635*
X1937288Y1955073*
X1937739Y1954848*
X1937760Y1954778*
X1937292Y1953960*
X1937177Y1953033*
X1937293Y1952336*
X1937522Y1951764*
X1937975Y1951424*
X1938423Y1951312*
X1939110Y1951541*
X1939685Y1952001*
X1939915Y1952461*
X1940149Y1953048*
X1940384Y1953868*
X1940502Y1954809*
X1940551Y1954853*
X1941142*
X1941158Y1954851*
X1941866Y1954614*
X1941892Y1954595*
X1942128Y1954240*
X1942136Y1954222*
X1942254Y1953632*
X1942255Y1953622*
X1942254Y1953614*
X1942136Y1952905*
X1942134Y1952898*
X1942016Y1952543*
X1941996Y1952517*
X1941642Y1952281*
X1941614Y1952273*
X1941154*
X1940943Y1952167*
X1940841Y1951965*
X1940945Y1951654*
X1941260Y1951549*
X1941587Y1951658*
X1942043Y1952114*
X1942274Y1952807*
X1942390Y1953622*
X1940365Y1954803D02*
X1940364Y1954795D01*
X1940246Y1954086*
Y1954085*
X1940128Y1953494*
X1940125Y1953485*
X1939889Y1952895*
X1939884Y1952886*
X1939648Y1952531*
X1939642Y1952524*
X1939169Y1952051*
X1939144Y1952038*
X1938553Y1951919*
X1938531Y1951920*
X1938059Y1952038*
X1938055Y1952039*
X1937701Y1952157*
X1937675Y1952177*
X1937439Y1952531*
X1937432Y1952547*
X1937314Y1953019*
X1937312Y1953031*
X1937313Y1953039*
X1937431Y1953865*
X1937438Y1953885*
X1938028Y1954830*
X1938071Y1954853*
X1940315*
X1940365Y1954803*
X1944989Y1973542D02*
X1943318Y1973876D01*
Y1973734*
X1944114Y1973392*
X1944117Y1973391*
X1944589Y1973155*
X1944614Y1973126*
X1944732Y1972772*
X1944734Y1972768*
X1944852Y1972296*
X1944853Y1972283*
Y1971693*
X1944803Y1971643*
X1937717*
X1937694Y1971648*
X1937458Y1971766*
X1937433Y1971795*
X1937315Y1972150*
X1937312Y1972165*
Y1972470*
X1937176*
Y1970207*
X1937312*
Y1970512*
X1937315Y1970528*
X1937433Y1970882*
X1937458Y1970911*
X1937694Y1971029*
X1937717Y1971034*
X1944803*
X1944853Y1970984*
Y1970512*
X1944852Y1970500*
X1944734Y1970027*
X1944732Y1970024*
X1944614Y1969669*
X1944597Y1969645*
X1944124Y1969291*
X1944114Y1969285*
X1943318Y1968943*
Y1968805*
X1944989Y1969251*
Y1973542*
X1942509Y1976722D02*
X1940906D01*
X1940878Y1976813*
X1941580Y1977281*
X1942044Y1977862*
X1942275Y1978323*
X1942389Y1978894*
X1942161Y1979579*
X1941948Y1979793*
X1941740*
X1941417Y1979685*
X1941314Y1979374*
X1941413Y1979175*
X1941740Y1979066*
X1941969*
X1942016Y1979032*
X1942134Y1978677*
Y1978646*
X1942016Y1978291*
X1942011Y1978281*
X1941657Y1977691*
X1941645Y1977677*
X1941055Y1977205*
X1941051Y1977202*
X1940343Y1976730*
X1940315Y1976722*
X1937717*
X1937694Y1976727*
X1937458Y1976845*
X1937433Y1976874*
X1937315Y1977228*
X1937312Y1977244*
Y1978139*
X1937176*
Y1974814*
X1937312*
Y1975591*
X1937315Y1975606*
X1937433Y1975961*
X1937458Y1975990*
X1937694Y1976108*
X1937717Y1976113*
X1941614*
X1941630Y1976110*
X1941984Y1975992*
X1942016Y1975961*
X1942134Y1975606*
X1942137Y1975591*
Y1974814*
X1942273*
Y1975118*
Y1975125*
X1942391Y1975952*
X1942392Y1975953*
X1942509Y1976658*
Y1976722*
X1942390Y1983150D02*
X1942274Y1983963D01*
X1942045Y1984535*
X1941593Y1984874*
X1941019Y1984989*
X1937717*
X1937681Y1985004*
X1937563Y1985122*
X1937554Y1985135*
X1937436Y1985371*
X1937430Y1985394*
Y1985512*
X1937458Y1985557*
X1937694Y1985675*
X1937707Y1985679*
X1938257Y1985789*
Y1985934*
X1937732*
X1937394Y1985709*
X1937176Y1985491*
Y1985162*
X1937288Y1984601*
X1937739Y1984375*
X1937760Y1984306*
X1937292Y1983488*
X1937177Y1982560*
X1937293Y1981864*
X1937522Y1981291*
X1937975Y1980952*
X1938423Y1980839*
X1939110Y1981068*
X1939685Y1981528*
X1939915Y1981989*
X1940149Y1982575*
X1940384Y1983396*
X1940502Y1984337*
X1940551Y1984381*
X1941142*
X1941158Y1984378*
X1941866Y1984142*
X1941892Y1984122*
X1942128Y1983768*
X1942136Y1983750*
X1942254Y1983159*
X1942255Y1983150*
X1942254Y1983141*
X1942136Y1982433*
X1942134Y1982425*
X1942016Y1982071*
X1941996Y1982045*
X1941642Y1981809*
X1941614Y1981800*
X1941154*
X1940943Y1981695*
X1940841Y1981492*
X1940945Y1981181*
X1941260Y1981076*
X1941587Y1981185*
X1942043Y1981641*
X1942274Y1982334*
X1942390Y1983150*
X1940365Y1984331D02*
X1940364Y1984322D01*
X1940246Y1983614*
Y1983612*
X1940128Y1983022*
X1940125Y1983013*
X1939889Y1982422*
X1939884Y1982413*
X1939648Y1982059*
X1939642Y1982051*
X1939169Y1981579*
X1939144Y1981565*
X1938553Y1981447*
X1938531Y1981448*
X1938059Y1981566*
X1938055Y1981567*
X1937701Y1981685*
X1937675Y1981705*
X1937439Y1982059*
X1937432Y1982074*
X1937314Y1982547*
X1937312Y1982559*
X1937313Y1982566*
X1937431Y1983393*
X1937438Y1983412*
X1938028Y1984357*
X1938071Y1984381*
X1940315*
X1940365Y1984331*
X1942509Y1987942D02*
X1941496D01*
X1941458Y1988025*
X1942160Y1988843*
X1942390Y1989648*
X1942276Y1990215*
X1941936Y1990669*
X1941480Y1990897*
X1940783Y1991013*
X1937717*
X1937694Y1991018*
X1937458Y1991136*
X1937436Y1991159*
X1937317Y1991395*
X1937312Y1991417*
Y1991604*
X1937176*
Y1989814*
X1937312*
Y1989882*
X1937315Y1989898*
X1937433Y1990252*
X1937458Y1990281*
X1937694Y1990399*
X1937717Y1990404*
X1941378*
X1941406Y1990396*
X1941760Y1990160*
X1941768Y1990153*
X1942004Y1989917*
X1942016Y1989898*
X1942134Y1989543*
Y1989512*
X1942017Y1989159*
X1941899Y1988689*
X1941886Y1988665*
X1941531Y1988311*
X1941526Y1988306*
X1941054Y1987952*
X1941024Y1987942*
X1937717*
X1937694Y1987947*
X1937458Y1988066*
X1937433Y1988094*
X1937315Y1988449*
X1937312Y1988465*
Y1988533*
X1937176*
Y1986743*
X1937312*
Y1986929*
X1937317Y1986951*
X1937436Y1987188*
X1937458Y1987210*
X1937694Y1987328*
X1937717Y1987333*
X1941969*
X1942013Y1987306*
X1942131Y1987070*
X1942137Y1987047*
Y1986743*
X1942273*
Y1987520*
X1942281Y1987547*
X1942509Y1987889*
Y1987942*
X1942390Y1995080D02*
X1942274Y1995894D01*
X1942157Y1996244*
X1942155Y1996260*
Y1996614*
X1942169Y1996650*
X1942336Y1996816*
X1940956Y1997028*
Y1996881*
X1941400Y1996659*
X1941413Y1996650*
X1941886Y1996177*
X1941895Y1996164*
X1942131Y1995692*
X1942135Y1995681*
X1942253Y1995209*
X1942254Y1995187*
X1942136Y1994596*
X1942134Y1994590*
X1942016Y1994236*
X1941996Y1994210*
X1941642Y1993974*
X1941630Y1993968*
X1941276Y1993850*
X1941250Y1993849*
X1940659Y1993967*
X1940625Y1993993*
X1940506Y1994230*
X1940504Y1994236*
X1940386Y1994588*
X1940033Y1995413*
X1940032Y1995416*
X1939680Y1996353*
X1939218Y1996931*
X1938882Y1997155*
X1938882D02*
X1938548D01*
X1937974Y1997040*
X1937522Y1996701*
X1937293Y1996129*
X1937176Y1995311*
Y1994733*
X1937292Y1994386*
X1937293Y1994382*
X1937411Y1993910*
X1937410Y1993882*
X1937194Y1993235*
X1938848Y1993124*
Y1993271*
X1938173Y1993496*
X1938154Y1993508*
X1937681Y1993980*
X1937672Y1993993*
X1937436Y1994466*
X1937431Y1994481*
X1937313Y1995308*
X1937312Y1995315*
Y1995787*
X1937317Y1995810*
X1937554Y1996282*
X1937563Y1996295*
X1937799Y1996531*
X1937823Y1996545*
X1938295Y1996663*
X1938329Y1996659*
X1938802Y1996423*
X1938815Y1996413*
X1939169Y1996059*
X1939179Y1996046*
X1939651Y1995101*
X1939653Y1995096*
X1940005Y1994157*
X1940236Y1993811*
X1940461Y1993586*
X1941028Y1993359*
X1941590Y1993471*
X1942044Y1993926*
X1942275Y1994502*
X1942390Y1995080*
X1944989Y2002047D02*
X1944872Y2002746D01*
X1944759Y2003197*
X1944427Y2003419*
X1944094Y2003530*
X1943780Y2003425*
X1943676Y2003114*
X1943776Y2002915*
X1944103Y2002806*
X1944331*
X1944347Y2002803*
X1944701Y2002685*
X1944730Y2002660*
X1944848Y2002424*
X1944853Y2002402*
Y2002047*
X1944852Y2002035*
X1944734Y2001563*
X1944727Y2001547*
X1944490Y2001193*
X1944471Y2001176*
X1943999Y2000940*
X1943985Y2000935*
X1943276Y2000817*
X1943268Y2000816*
X1942323*
X1942273Y2000866*
Y2002706*
X1942137*
Y2000866*
X1942087Y2000816*
X1937717*
X1937694Y2000821*
X1937458Y2000940*
X1937433Y2000968*
X1937315Y2001323*
X1937312Y2001339*
Y2002352*
X1937176*
Y1999026*
X1937312*
Y1999685*
X1937315Y1999701*
X1937433Y2000055*
X1937458Y2000084*
X1937694Y2000202*
X1937717Y2000207*
X1942087*
X1942137Y2000157*
Y1998790*
X1942273*
Y2000157*
X1942323Y2000207*
X1943146*
X1943956Y2000323*
X1944529Y2000781*
X1944873Y2001356*
X1944873D02*
X1944989Y2002047D01*
Y2024603D02*
X1944873Y2025536D01*
X1944529Y2026224*
X1943959Y2026566*
X1943269Y2026681*
X1942688Y2026565*
X1942230Y2026451*
X1941773Y2025994*
X1941423Y2025293*
X1941332Y2025295*
X1940981Y2026113*
X1940405Y2026690*
X1939829Y2026920*
X1939133Y2027036*
X1938328Y2026921*
X1937755Y2026463*
X1937292Y2025653*
X1937176Y2024721*
Y2021822*
X1937312*
Y2022126*
X1937315Y2022142*
X1937433Y2022496*
X1937458Y2022525*
X1937694Y2022643*
X1937717Y2022648*
X1944449*
X1944471Y2022643*
X1944707Y2022525*
X1944732Y2022496*
X1944851Y2022142*
X1944853Y2022126*
Y2021940*
X1944989*
Y2024603*
X1944853Y2024252D02*
Y2023780D01*
X1944851Y2023764*
X1944732Y2023409*
X1944707Y2023380*
X1944471Y2023262*
X1944449Y2023257*
X1941496*
X1941446Y2023307*
Y2024488*
X1941447Y2024498*
X1941565Y2025089*
X1941574Y2025109*
X1941929Y2025581*
X1941939Y2025591*
X1942411Y2025946*
X1942434Y2025955*
X1943261Y2026073*
X1943276*
X1943985Y2025955*
X1944006Y2025946*
X1944479Y2025591*
X1944495Y2025570*
X1944731Y2024979*
X1944734Y2024969*
X1944852Y2024260*
X1944853Y2024252*
X1941310Y2024370D02*
Y2023307D01*
X1941260Y2023257*
X1937717*
X1937694Y2023262*
X1937458Y2023380*
X1937433Y2023409*
X1937315Y2023764*
X1937312Y2023780*
Y2024606*
X1937313Y2024615*
X1937431Y2025323*
X1937440Y2025345*
X1937795Y2025817*
X1937809Y2025830*
X1938399Y2026185*
X1938418Y2026191*
X1939245Y2026309*
X1939259*
X1940086Y2026191*
X1940101Y2026186*
X1940810Y2025832*
X1940830Y2025813*
X1941185Y2025223*
X1941191Y2025204*
X1941309Y2024377*
X1941310Y2024370*
X1945313Y2050068D02*
X1938071D01*
X1938055Y2050071*
X1937701Y2050189*
X1937672Y2050214*
X1937554Y2050450*
X1937548Y2050472*
Y2050777*
X1937412*
Y2050591*
X1937411Y2050578*
X1937293Y2050107*
X1937176Y2049523*
Y2049459*
X1938071*
X1938103Y2049371*
X1937402Y2048787*
X1937176Y2048335*
Y2047996*
X1937291Y2047189*
X1937866Y2046614*
X1938561Y2046151*
X1939724Y2046035*
X1940772Y2046151*
X1941579Y2046612*
X1942041Y2047305*
X1942272Y2048113*
X1942158Y2048798*
X1941693Y2049378*
X1941732Y2049459*
X1944213*
X1944225Y2049458*
X1944697Y2049340*
X1944732Y2049307*
X1944851Y2048953*
X1944853Y2048937*
Y2048633*
X1944989*
Y2049173*
X1944991Y2049185*
X1945109Y2049658*
X1945113Y2049668*
X1945313Y2050068*
X1942019Y2048110D02*
X1942018Y2048100D01*
X1941899Y2047510*
X1941882Y2047481*
X1941291Y2047008*
X1941276Y2047000*
X1940567Y2046764*
X1940557Y2046761*
X1939613Y2046643*
X1939613D02*
X1939600D01*
X1938655Y2046761*
X1938646Y2046764*
X1937937Y2047000*
X1937913Y2047017*
X1937558Y2047490*
X1937549Y2047510*
X1937431Y2048100*
X1937432Y2048122*
X1937550Y2048595*
X1937557Y2048610*
X1937793Y2048965*
X1937807Y2048979*
X1938161Y2049215*
X1938170Y2049220*
X1938761Y2049456*
X1938780Y2049459*
X1941378*
X1941413Y2049445*
X1941650Y2049209*
X1941656Y2049201*
X1941892Y2048847*
X1941900Y2048827*
X1942018Y2048118*
X1942019Y2048110*
X1942390Y2007010D02*
X1942275Y2007816D01*
X1941815Y2008506*
X1941008Y2008967*
X1939893Y2009079*
Y2005354*
X1939837Y2005305*
X1938774Y2005423*
X1938757Y2005428*
X1938049Y2005782*
X1938032Y2005796*
X1937559Y2006386*
X1937549Y2006409*
X1937431Y2007118*
X1937430Y2007126*
X1937431Y2007136*
X1937549Y2007726*
X1937554Y2007739*
X1937790Y2008211*
X1937799Y2008224*
X1938154Y2008579*
X1938167Y2008588*
X1938611Y2008810*
Y2008942*
X1938096Y2008736*
X1937636Y2008391*
X1937292Y2007818*
X1937176Y2007007*
X1937292Y2006084*
X1937869Y2005391*
X1938680Y2004812*
X1939724Y2004696*
X1940771Y2004812*
X1941697Y2005391*
X1942158Y2006084*
X1942390Y2007010*
X1942255Y2007008D02*
X1942254Y2007000D01*
X1942136Y2006291*
X1942122Y2006264*
X1941650Y2005791*
X1941637Y2005782*
X1940928Y2005428*
X1940913Y2005423*
X1940086Y2005305*
X1940029Y2005354*
Y2008425*
X1940085Y2008475*
X1941030Y2008357*
X1941042Y2008354*
X1941633Y2008117*
X1941650Y2008106*
X1942122Y2007634*
X1942136Y2007608*
X1942254Y2007018*
X1942255Y2007008*
X1942509Y2012155D02*
X1940906D01*
X1940878Y2012246*
X1941580Y2012714*
X1942044Y2013295*
X1942275Y2013757*
X1942389Y2014327*
X1942161Y2015012*
X1941948Y2015226*
X1941740*
X1941417Y2015118*
X1941314Y2014807*
X1941413Y2014608*
X1941740Y2014499*
X1941969*
X1942016Y2014465*
X1942134Y2014110*
Y2014079*
X1942016Y2013724*
X1942011Y2013714*
X1941657Y2013124*
X1941645Y2013111*
X1941055Y2012638*
X1941051Y2012636*
X1940343Y2012163*
X1940315Y2012155*
X1937717*
X1937694Y2012160*
X1937458Y2012278*
X1937433Y2012307*
X1937315Y2012661*
X1937312Y2012677*
Y2013572*
X1937176*
Y2010247*
X1937312*
Y2011024*
X1937315Y2011039*
X1937433Y2011394*
X1937458Y2011423*
X1937694Y2011541*
X1937717Y2011546*
X1941614*
X1941630Y2011543*
X1941984Y2011425*
X1942016Y2011394*
X1942134Y2011039*
X1942137Y2011024*
Y2010247*
X1942273*
Y2010551*
Y2010558*
X1942391Y2011385*
X1942392Y2011386*
X1942509Y2012091*
Y2012155*
X1942389Y2030512D02*
X1942159Y2031435D01*
X1941580Y2032245*
X1940772Y2032707*
X1939725Y2032824*
X1938797Y2032708*
X1937870Y2032129*
X1937409Y2031436*
X1937178Y2030512*
X1937408Y2029590*
X1937987Y2028895*
X1938798Y2028316*
X1939725Y2028200*
X1940769Y2028316*
X1941580Y2028895*
X1942159Y2029590*
X1942389Y2030512*
X1942254Y2030502D02*
X1942136Y2029911D01*
X1942126Y2029890*
X1941653Y2029299*
X1941634Y2029285*
X1940807Y2028930*
X1940793Y2028927*
X1939730Y2028809*
X1939719*
X1938656Y2028927*
X1938639Y2028932*
X1937930Y2029286*
X1937914Y2029299*
X1937441Y2029890*
X1937431Y2029911*
X1937313Y2030502*
X1937312Y2030512*
X1937313Y2030520*
X1937431Y2031229*
X1937445Y2031256*
X1937917Y2031728*
X1937933Y2031739*
X1938760Y2032093*
X1938773Y2032097*
X1939718Y2032215*
X1939730*
X1940793Y2032097*
X1940807Y2032093*
X1941634Y2031739*
X1941653Y2031724*
X1942126Y2031134*
X1942136Y2031112*
X1942254Y2030522*
Y2030502*
X1942390Y2036299D02*
X1942274Y2037113D01*
X1942045Y2037685*
X1941593Y2038024*
X1941019Y2038139*
X1937717*
X1937681Y2038154*
X1937563Y2038272*
X1937554Y2038285*
X1937436Y2038521*
X1937430Y2038543*
Y2038661*
X1937458Y2038706*
X1937694Y2038824*
X1937707Y2038829*
X1938257Y2038939*
Y2039084*
X1937732*
X1937394Y2038859*
X1937176Y2038641*
Y2038312*
X1937288Y2037750*
X1937739Y2037525*
X1937760Y2037456*
X1937292Y2036637*
X1937177Y2035710*
X1937293Y2035014*
X1937522Y2034441*
X1937975Y2034101*
X1938423Y2033989*
X1939110Y2034218*
X1939685Y2034678*
X1939915Y2035139*
X1940149Y2035725*
X1940384Y2036545*
X1940502Y2037487*
X1940551Y2037530*
X1941142*
X1941158Y2037528*
X1941866Y2037292*
X1941892Y2037272*
X1942128Y2036917*
X1942128D02*
X1942136Y2036900D01*
X1942254Y2036309*
X1942255Y2036299*
X1942254Y2036291*
X1942136Y2035582*
X1942134Y2035575*
X1942016Y2035220*
X1941996Y2035195*
X1941642Y2034958*
X1941614Y2034950*
X1941154*
X1940943Y2034845*
X1940841Y2034642*
X1940945Y2034331*
X1941260Y2034226*
X1941587Y2034335*
X1942043Y2034791*
X1942274Y2035484*
X1942390Y2036299*
X1940365Y2037480D02*
X1940364Y2037472D01*
X1940246Y2036763*
Y2036762*
X1940128Y2036171*
X1940125Y2036163*
X1939889Y2035572*
X1939884Y2035563*
X1939648Y2035208*
X1939642Y2035201*
X1939169Y2034728*
X1939144Y2034715*
X1938553Y2034597*
X1938531*
X1938059Y2034715*
X1938055Y2034716*
X1937701Y2034834*
X1937675Y2034854*
X1937439Y2035208*
X1937432Y2035224*
X1937314Y2035697*
X1937312Y2035709*
X1937313Y2035716*
X1937431Y2036543*
X1937438Y2036562*
X1938028Y2037507*
X1938071Y2037530*
X1940315*
X1940365Y2037480*
X1942509Y2041682D02*
X1940906D01*
X1940878Y2041774*
X1941580Y2042242*
X1942044Y2042822*
X1942275Y2043284*
X1942389Y2043855*
X1942161Y2044540*
X1941948Y2044753*
X1941740*
X1941417Y2044646*
X1941314Y2044335*
X1941413Y2044135*
X1941740Y2044026*
X1941969*
X1942016Y2043992*
X1942134Y2043638*
Y2043606*
X1942016Y2043252*
X1942011Y2043242*
X1941657Y2042651*
X1941645Y2042638*
X1941055Y2042166*
X1941051Y2042163*
X1940343Y2041691*
X1940315Y2041682*
X1937717*
X1937694Y2041688*
X1937458Y2041806*
X1937433Y2041835*
X1937315Y2042189*
X1937312Y2042205*
Y2043100*
X1937176*
Y2039774*
X1937312*
Y2040551*
X1937315Y2040567*
X1937433Y2040921*
X1937458Y2040950*
X1937694Y2041068*
X1937717Y2041074*
X1941614*
X1941630Y2041071*
X1941984Y2040953*
X1942016Y2040921*
X1942134Y2040567*
X1942137Y2040551*
Y2039774*
X1942273*
Y2040079*
Y2040086*
X1942391Y2040913*
X1942392Y2040914*
X1942509Y2041618*
Y2041682*
X1925304Y1884959D02*
X1923633Y1885293D01*
Y1885151*
X1924429Y1884810*
X1924432Y1884809*
X1924432D02*
X1924904Y1884572D01*
X1924929Y1884543*
X1925047Y1884189*
X1925049Y1884185*
X1925167Y1883713*
X1925168Y1883701*
Y1883110*
X1925118Y1883060*
X1918031*
X1918009Y1883066*
X1917773Y1883184*
X1917748Y1883213*
X1917630Y1883567*
X1917627Y1883583*
Y1883887*
X1917491*
Y1881625*
X1917627*
Y1881929*
X1917630Y1881945*
X1917748Y1882299*
X1917773Y1882328*
X1918009Y1882446*
X1918031Y1882452*
X1925118*
X1925168Y1882402*
Y1881929*
X1925167Y1881917*
X1925049Y1881445*
X1925047Y1881441*
X1924929Y1881087*
X1924912Y1881062*
X1924439Y1880708*
X1924429Y1880702*
X1923633Y1880361*
Y1880223*
X1925304Y1880668*
Y1884959*
X1925420Y1888896D02*
X1925313Y1889217D01*
X1924885Y1889430*
X1924564Y1889216*
X1924349Y1888894*
X1924566Y1888459*
X1924885Y1888247*
X1925311Y1888460*
X1925420Y1888896*
X1922942Y1889084D02*
X1918031D01*
X1918009Y1889089*
X1917773Y1889207*
X1917748Y1889236*
X1917630Y1889590*
X1917627Y1889606*
Y1890501*
X1917491*
Y1887058*
X1917627*
Y1887953*
X1917630Y1887969*
X1917748Y1888323*
X1917773Y1888352*
X1918009Y1888470*
X1918031Y1888475*
X1921811*
X1921827Y1888473*
X1922181Y1888355*
X1922213Y1888323*
X1922331Y1887969*
X1922333Y1887959*
X1922446Y1887058*
X1922588*
Y1887480*
Y1887487*
X1922706Y1888314*
X1922708Y1888323*
X1922942Y1889024*
Y1889084*
X1922824Y1892981D02*
X1922047D01*
X1922016Y1893071*
X1922592Y1893531*
X1922705Y1894212*
X1922593Y1894772*
X1922022Y1895115*
X1922016Y1895197*
X1922592Y1895657*
X1922705Y1896337*
X1922593Y1896785*
X1922370Y1897008*
X1922032Y1897233*
X1918031*
X1918009Y1897239*
X1917773Y1897357*
X1917751Y1897379*
X1917632Y1897615*
X1917627Y1897638*
Y1897706*
X1917491*
Y1896152*
X1917627*
Y1896220*
X1917632Y1896243*
X1917751Y1896479*
X1917773Y1896501*
X1918009Y1896620*
X1918031Y1896625*
X1921929*
X1921945Y1896622*
X1922299Y1896504*
X1922331Y1896473*
X1922449Y1896118*
X1922448Y1896084*
X1922212Y1895493*
X1922188Y1895467*
X1921479Y1895113*
X1921457Y1895107*
X1918031*
X1918009Y1895113*
X1917773Y1895231*
X1917751Y1895253*
X1917632Y1895489*
X1917627Y1895512*
Y1895580*
X1917491*
Y1894026*
X1917627*
Y1894094*
X1917632Y1894117*
X1917751Y1894353*
X1917773Y1894375*
X1918009Y1894494*
X1918031Y1894499*
X1921575*
X1921585Y1894498*
X1922175Y1894380*
X1922207Y1894358*
X1922443Y1894004*
X1922448Y1893958*
X1922212Y1893367*
X1922193Y1893344*
X1921839Y1893108*
X1921827Y1893102*
X1921473Y1892984*
X1921457Y1892981*
X1918031*
X1918009Y1892987*
X1917773Y1893105*
X1917751Y1893127*
X1917632Y1893363*
X1917627Y1893386*
Y1893454*
X1917491*
Y1891900*
X1917627*
Y1891969*
X1917632Y1891991*
X1917751Y1892227*
X1917773Y1892249*
X1918009Y1892368*
X1918031Y1892373*
X1922283*
X1922328Y1892345*
X1922446Y1892109*
X1922452Y1892087*
Y1891900*
X1922588*
Y1892559*
X1922596Y1892587*
X1922824Y1892929*
Y1892981*
X1922705Y1900711D02*
X1922590Y1901517D01*
X1922130Y1902207*
X1921323Y1902668*
X1920207Y1902779*
Y1899055*
X1920152Y1899005*
X1919089Y1899124*
X1919072Y1899129*
X1918363Y1899483*
X1918347Y1899496*
X1917874Y1900087*
X1917864Y1900110*
X1917746Y1900819*
X1917745Y1900827*
X1917746Y1900837*
X1917864Y1901427*
X1917869Y1901440*
X1918105Y1901912*
X1918114Y1901925*
X1918469Y1902279*
X1918482Y1902289*
X1918926Y1902511*
Y1902643*
X1918411Y1902436*
X1917951Y1902092*
X1917607Y1901518*
X1917491Y1900708*
X1917607Y1899785*
X1918184Y1899092*
X1918995Y1898513*
X1920039Y1898397*
X1921086Y1898513*
X1922012Y1899092*
X1922473Y1899784*
X1922705Y1900711*
X1922570Y1900709D02*
X1922569Y1900700D01*
X1922451Y1899992*
X1922437Y1899965*
X1921964Y1899492*
X1921951Y1899483*
X1921243Y1899129*
X1921228Y1899124*
X1920401Y1899006*
X1920344Y1899055*
Y1902126*
X1920400Y1902176*
X1921345Y1902057*
X1921357Y1902054*
X1921948Y1901818*
X1921964Y1901807*
X1922437Y1901335*
X1922451Y1901309*
X1922569Y1900718*
X1922570Y1900709*
X1923053Y1912398D02*
X1922840Y1912717D01*
X1922402Y1912936*
X1921970Y1912720*
X1921863Y1912400*
X1921972Y1911964*
X1922402Y1911749*
X1922837Y1911966*
X1923053Y1912398*
X1925422Y1924213D02*
X1925306Y1925140D01*
X1924847Y1925829*
X1924274Y1926172*
X1923461Y1926289*
X1923002*
X1922424Y1926057*
X1921842Y1925708*
X1920193Y1924059*
X1920190Y1924057*
X1919246Y1923230*
X1919245Y1923229*
X1918538Y1922640*
X1918185Y1922287*
X1918100Y1922323*
Y1925157*
X1918102Y1925173*
X1918220Y1925528*
X1918226Y1925540*
X1918462Y1925894*
X1918488Y1925914*
X1918841Y1926031*
X1919399Y1926254*
Y1926400*
X1917491Y1926176*
Y1921900*
X1918133*
X1918591Y1922244*
X1919181Y1922716*
X1919888Y1923305*
X1921421Y1924839*
X1921429Y1924845*
X1922138Y1925317*
X1922147Y1925322*
X1922737Y1925558*
X1922748Y1925561*
X1923456Y1925679*
X1923473*
X1924181Y1925561*
X1924196Y1925557*
X1924668Y1925320*
X1924686Y1925306*
X1925040Y1924833*
X1925049Y1924811*
X1925167Y1924103*
X1925168Y1924094*
X1925167Y1924085*
X1925049Y1923494*
X1925042Y1923476*
X1924805Y1923122*
X1924799Y1923114*
X1924445Y1922760*
X1924425Y1922748*
X1924071Y1922630*
X1924033Y1922632*
X1923563Y1922867*
X1923228Y1922979*
X1922914Y1922874*
X1922808Y1922557*
X1922917Y1922121*
X1923122Y1922019*
X1923458*
X1924270Y1922251*
X1924961Y1922711*
X1925306Y1923401*
X1925422Y1924213*
X1918682Y1912398D02*
X1918470Y1912717D01*
X1918031Y1912936*
X1917600Y1912720*
X1917493Y1912400*
X1917602Y1911964*
X1918031Y1911749*
X1918467Y1911966*
X1918682Y1912398*
X1925421Y1930118D02*
X1925191Y1931037D01*
X1924849Y1931379*
X1924384Y1931728*
X1923098Y1932313*
X1921457Y1932430*
X1919816Y1932313*
X1918530Y1931728*
X1918064Y1931379*
X1917718Y1931033*
X1917491Y1930579*
Y1929657*
X1917718Y1929203*
X1918064Y1928857*
X1918530Y1928508*
X1919816Y1927923*
X1921457Y1927806*
X1923098Y1927923*
X1924384Y1928508*
X1924849Y1928857*
X1925191Y1929199*
X1925421Y1930118*
X1925163Y1930096D02*
X1925046Y1929863D01*
X1924929Y1929512*
X1924910Y1929486*
X1924201Y1929014*
X1924188Y1929007*
X1923006Y1928653*
X1922996Y1928651*
X1921461Y1928533*
X1921453*
X1919917Y1928651*
X1919907Y1928653*
X1918726Y1929007*
X1918718Y1929010*
X1918245Y1929247*
X1918232Y1929256*
X1917996Y1929492*
X1917990Y1929500*
X1917754Y1929854*
X1917745Y1929882*
Y1930472*
X1917754Y1930500*
X1917990Y1930855*
X1917996Y1930862*
X1918232Y1931098*
X1918245Y1931108*
X1918718Y1931344*
X1918730Y1931348*
X1919911Y1931584*
X1919917Y1931585*
X1921453Y1931703*
X1921461*
X1922996Y1931585*
X1923002Y1931584*
X1924183Y1931348*
X1924201Y1931341*
X1924910Y1930868*
X1924929Y1930843*
X1925166Y1930134*
X1925163Y1930096*
X1925422Y1936024D02*
X1925306Y1936951D01*
X1924847Y1937640*
X1924274Y1937983*
X1923461Y1938100*
X1923002*
X1922424Y1937868*
X1921842Y1937519*
X1920193Y1935870*
X1920190Y1935868*
X1919246Y1935041*
X1919245Y1935040*
X1918538Y1934451*
X1918185Y1934099*
X1918100Y1934134*
Y1936969*
X1918102Y1936984*
X1918220Y1937339*
X1918226Y1937351*
X1918462Y1937705*
X1918488Y1937725*
X1918841Y1937842*
X1919399Y1938065*
Y1938211*
X1917491Y1937987*
Y1933711*
X1918133*
X1918591Y1934055*
X1919181Y1934527*
X1919888Y1935116*
X1921421Y1936650*
X1921429Y1936656*
X1922138Y1937128*
X1922147Y1937133*
X1922737Y1937369*
X1922748Y1937372*
X1923456Y1937490*
X1923473*
X1924181Y1937372*
X1924196Y1937368*
X1924668Y1937131*
X1924686Y1937117*
X1925040Y1936644*
X1925049Y1936622*
X1925167Y1935914*
X1925168Y1935906*
X1925167Y1935896*
X1925049Y1935305*
X1925042Y1935287*
X1924805Y1934933*
X1924799Y1934925*
X1924445Y1934571*
X1924425Y1934559*
X1924071Y1934441*
X1924033Y1934443*
X1923563Y1934678*
X1923228Y1934790*
X1922914Y1934685*
X1922808Y1934368*
X1922917Y1933932*
X1923122Y1933830*
X1923458*
X1924270Y1934062*
X1924961Y1934522*
X1925306Y1935212*
X1925422Y1936024*
Y1942233D02*
X1918386D01*
X1918370Y1942236*
X1918016Y1942354*
X1918009Y1942357*
X1917773Y1942475*
X1917746Y1942510*
X1917628Y1943100*
X1917627Y1943110*
Y1943533*
X1917491*
Y1940326*
X1917627*
Y1941102*
X1917632Y1941125*
X1917751Y1941361*
X1917777Y1941385*
X1918367Y1941621*
X1918386Y1941625*
X1924055*
X1924071Y1941622*
X1924425Y1941504*
X1924457Y1941473*
X1924575Y1941118*
X1924578Y1941102*
Y1940326*
X1924714*
Y1941220*
X1924716Y1941236*
X1924834Y1941591*
X1924847Y1941610*
X1925422Y1942186*
Y1942233*
Y1948139D02*
X1918386D01*
X1918370Y1948142*
X1918016Y1948260*
X1918009Y1948262*
X1917773Y1948380*
X1917746Y1948415*
X1917628Y1949006*
X1917627Y1949016*
Y1949438*
X1917491*
Y1946231*
X1917627*
Y1947008*
X1917632Y1947030*
X1917751Y1947266*
X1917777Y1947291*
X1918367Y1947527*
X1918386Y1947530*
X1924055*
X1924071Y1947528*
X1924425Y1947410*
X1924457Y1947378*
X1924575Y1947024*
X1924578Y1947008*
Y1946231*
X1924714*
Y1947126*
X1924716Y1947142*
X1924834Y1947496*
X1924847Y1947516*
X1925422Y1948092*
Y1948139*
Y1954044D02*
X1918386D01*
X1918370Y1954047*
X1918016Y1954165*
X1918009Y1954168*
X1917773Y1954286*
X1917746Y1954321*
X1917628Y1954911*
X1917627Y1954921*
Y1955344*
X1917491*
Y1952137*
X1917627*
Y1952913*
X1917632Y1952936*
X1917751Y1953172*
X1917777Y1953196*
X1918367Y1953432*
X1918386Y1953436*
X1924055*
X1924071Y1953433*
X1924425Y1953315*
X1924457Y1953284*
X1924575Y1952929*
X1924578Y1952913*
Y1952137*
X1924714*
Y1953031*
X1924716Y1953047*
X1924834Y1953402*
X1924847Y1953421*
X1925422Y1953997*
Y1954044*
Y1959950D02*
X1918386D01*
X1918370Y1959953*
X1918016Y1960071*
X1918009Y1960073*
X1917773Y1960191*
X1917773D02*
X1917746Y1960226D01*
X1917628Y1960817*
X1917627Y1960827*
Y1961249*
X1917491*
Y1958042*
X1917627*
Y1958819*
X1917632Y1958841*
X1917751Y1959077*
X1917777Y1959102*
X1918367Y1959338*
X1918386Y1959341*
X1924055*
X1924071Y1959339*
X1924425Y1959221*
X1924457Y1959189*
X1924575Y1958835*
X1924578Y1958819*
Y1958042*
X1924714*
Y1958937*
X1924716Y1958953*
X1924834Y1959307*
X1924847Y1959327*
X1925422Y1959903*
Y1959950*
X1925304Y1967745D02*
X1925014D01*
X1923491Y1966808*
X1923483Y1966804*
X1921946Y1966213*
X1920647Y1965740*
X1920635Y1965738*
X1919454Y1965620*
X1919449Y1965619*
X1917807*
X1917600Y1965516*
X1917493Y1965195*
X1917602Y1964759*
X1917807Y1964656*
X1918146*
X1919086Y1964774*
X1920261Y1965009*
X1921081Y1965360*
X1923205Y1966422*
X1924620Y1967248*
X1924696Y1967205*
Y1964843*
X1924694Y1964830*
X1924576Y1964358*
X1924569Y1964342*
X1924333Y1963988*
X1924319Y1963974*
X1923965Y1963738*
X1923956Y1963733*
X1923396Y1963509*
Y1963367*
X1925304Y1963703*
Y1967745*
Y1979911D02*
X1925168D01*
Y1979724*
X1925163Y1979702*
X1925045Y1979466*
X1925026Y1979445*
X1924435Y1979091*
X1924422Y1979085*
X1917491Y1977323*
Y1977047*
X1924420Y1975403*
X1925010Y1975285*
X1925047Y1975252*
X1925166Y1974898*
X1925168Y1974882*
Y1974696*
X1925304*
Y1976604*
X1925168*
Y1976417*
X1925163Y1976395*
X1925045Y1976159*
X1925016Y1976134*
X1924661Y1976016*
X1924634Y1976014*
X1919083Y1977314*
X1919044Y1977362*
Y1977480*
X1919083Y1977529*
X1924396Y1978828*
X1924748Y1978945*
X1924786Y1978942*
X1925022Y1978824*
X1925035Y1978815*
X1925153Y1978697*
X1925168Y1978661*
Y1978357*
X1925304*
Y1979911*
X1921761Y1973887D02*
X1921389D01*
Y1968908*
X1921761*
Y1973887*
X1925422Y1984517D02*
X1920157D01*
X1920107Y1984567*
Y1985816*
X1919853*
Y1984567*
X1919803Y1984517*
X1918268*
X1918245Y1984522*
X1917773Y1984758*
X1917747Y1984791*
X1917629Y1985263*
X1917627Y1985276*
Y1985580*
X1917491*
Y1982727*
X1917627*
Y1983150*
X1917628Y1983159*
X1917746Y1983750*
X1917783Y1983789*
X1918256Y1983907*
X1918268Y1983908*
X1919803*
X1919853Y1983858*
Y1980837*
X1920143*
X1925422Y1984122*
Y1984517*
X1924318Y1983816D02*
X1920184Y1981218D01*
X1920107Y1981260*
Y1983858*
X1920157Y1983908*
X1924291*
X1924318Y1983816*
X1918802Y1987756D02*
X1918581Y1988199D01*
X1918365Y1988415*
X1917826*
X1917497Y1987756*
X1917714Y1987321*
X1918150Y1987103*
X1918585Y1987321*
X1918802Y1987756*
X1925421Y1995079D02*
X1925191Y1995998D01*
X1924849Y1996340*
X1924384Y1996689*
X1923098Y1997274*
X1921457Y1997391*
X1919816Y1997274*
X1918530Y1996689*
X1918064Y1996340*
X1917718Y1995994*
X1917491Y1995539*
Y1994618*
X1917718Y1994163*
X1918064Y1993817*
X1918530Y1993468*
X1919816Y1992884*
X1921457Y1992767*
X1923098Y1992884*
X1924384Y1993468*
X1924849Y1993817*
X1925191Y1994159*
X1925421Y1995079*
X1925163Y1995056D02*
X1925046Y1994823D01*
X1924929Y1994472*
X1924910Y1994447*
X1924201Y1993974*
X1924188Y1993968*
X1923006Y1993614*
X1922996Y1993612*
X1921461Y1993493*
X1921453*
X1919917Y1993612*
X1919907Y1993614*
X1918726Y1993968*
X1918718Y1993971*
X1918245Y1994207*
X1918232Y1994217*
X1917996Y1994453*
X1917990Y1994460*
X1917754Y1994815*
X1917745Y1994843*
Y1995433*
X1917754Y1995461*
X1917990Y1995815*
X1917996Y1995823*
X1918232Y1996059*
X1918245Y1996068*
X1918718Y1996305*
X1918730Y1996309*
X1919911Y1996545*
X1919917Y1996546*
X1921453Y1996664*
X1921461*
X1922996Y1996546*
X1923002Y1996545*
X1924183Y1996309*
X1924201Y1996301*
X1924910Y1995829*
X1924929Y1995803*
X1925166Y1995095*
X1925163Y1995056*
X1917500Y1881625D02*
Y1883887D01*
Y1887058D02*
Y1890501D01*
Y1891900D02*
Y1893454D01*
Y1894026D02*
Y1895580D01*
Y1896152D02*
Y1897706D01*
Y1900639D02*
Y1900768D01*
Y1912372D02*
Y1912421D01*
Y1921900D02*
Y1926177D01*
Y1929639D02*
Y1930597D01*
Y1933711D02*
Y1937988D01*
Y1940326D02*
Y1943533D01*
Y1946231D02*
Y1949438D01*
Y1952137D02*
Y1955344D01*
Y1958042D02*
Y1961249D01*
Y1965167D02*
Y1965216D01*
Y1977045D02*
Y1977326D01*
Y1982727D02*
Y1985580D01*
Y1987750D02*
Y1987762D01*
Y1994600D02*
Y1995557D01*
X1917600Y1881625D02*
Y1883887D01*
Y1887058D02*
Y1890501D01*
Y1891900D02*
Y1893454D01*
Y1894026D02*
Y1895580D01*
Y1896152D02*
Y1897706D01*
Y1899839D02*
Y1901468D01*
Y1911972D02*
Y1912720D01*
Y1921900D02*
Y1926189D01*
Y1929439D02*
Y1930797D01*
Y1933711D02*
Y1938000D01*
Y1940326D02*
Y1943533D01*
Y1946231D02*
Y1949438D01*
Y1952137D02*
Y1955344D01*
Y1958042D02*
Y1961249D01*
Y1964767D02*
Y1965516D01*
Y1977022D02*
Y1977351D01*
Y1982727D02*
Y1985580D01*
Y1987550D02*
Y1987962D01*
Y1994400D02*
Y1995757D01*
X1917700Y1882156D02*
Y1883356D01*
Y1888179D02*
Y1889380D01*
Y1892126D02*
Y1893228D01*
Y1894252D02*
Y1895354D01*
Y1896378D02*
Y1897480D01*
Y1899673D02*
Y1901673D01*
Y1911915D02*
Y1912770D01*
Y1921900D02*
Y1926201D01*
Y1929239D02*
Y1930997D01*
Y1933711D02*
Y1938012D01*
Y1941260D02*
Y1942741D01*
Y1947165D02*
Y1948647D01*
Y1953071D02*
Y1954552D01*
Y1958976D02*
Y1960458D01*
Y1964710D02*
Y1965566D01*
Y1976998D02*
Y1977376D01*
Y1983519D02*
Y1984978D01*
Y1987350D02*
Y1988162D01*
Y1994200D02*
Y1995957D01*
X1917800Y1882342D02*
Y1883170D01*
Y1888365D02*
Y1889194D01*
Y1892263D02*
Y1893091D01*
Y1894389D02*
Y1895217D01*
Y1896515D02*
Y1897343D01*
Y1899553D02*
Y1900494D01*
Y1901105D02*
Y1901840D01*
Y1911865D02*
Y1912820D01*
Y1921900D02*
Y1926212D01*
Y1929121D02*
Y1929785D01*
Y1930570D02*
Y1931115D01*
Y1933711D02*
Y1938023D01*
Y1941394D02*
Y1942461D01*
Y1947300D02*
Y1948367D01*
Y1953205D02*
Y1954272D01*
Y1959111D02*
Y1960178D01*
Y1964660D02*
Y1965616D01*
Y1976974D02*
Y1977402D01*
Y1983793D02*
Y1984745D01*
Y1987278D02*
Y1988362D01*
Y1994082D02*
Y1994745D01*
Y1995530D02*
Y1996076D01*
X1917900Y1882392D02*
Y1883120D01*
Y1888415D02*
Y1889144D01*
Y1892313D02*
Y1893041D01*
Y1894439D02*
Y1895167D01*
Y1896565D02*
Y1897293D01*
Y1899433D02*
Y1900055D01*
Y1901502D02*
Y1902006D01*
Y1911815D02*
Y1912870D01*
Y1921900D02*
Y1926224D01*
Y1929021D02*
Y1929635D01*
Y1930720D02*
Y1931215D01*
Y1933711D02*
Y1938035D01*
Y1941434D02*
Y1942411D01*
Y1947340D02*
Y1948317D01*
Y1953245D02*
Y1954222D01*
Y1959151D02*
Y1960128D01*
Y1964656D02*
Y1965619D01*
Y1976950D02*
Y1977427D01*
Y1983818D02*
Y1984695D01*
Y1987228D02*
Y1988415D01*
Y1993982D02*
Y1994595D01*
Y1995680D02*
Y1996176D01*
X1918000Y1882442D02*
Y1883070D01*
Y1888465D02*
Y1889094D01*
Y1892363D02*
Y1892991D01*
Y1894489D02*
Y1895117D01*
Y1896615D02*
Y1897243D01*
Y1899313D02*
Y1899930D01*
Y1901702D02*
Y1902128D01*
Y1911765D02*
Y1912920D01*
Y1921900D02*
Y1926236D01*
Y1928921D02*
Y1929488D01*
Y1930866D02*
Y1931315D01*
Y1933711D02*
Y1938047D01*
Y1941474D02*
Y1942361D01*
Y1947380D02*
Y1948267D01*
Y1953285D02*
Y1954172D01*
Y1959191D02*
Y1960078D01*
Y1964656D02*
Y1965619D01*
Y1976927D02*
Y1977453D01*
Y1983843D02*
Y1984645D01*
Y1987178D02*
Y1988415D01*
Y1993882D02*
Y1994449D01*
Y1995827D02*
Y1996276D01*
X1918100Y1882452D02*
Y1883060D01*
Y1888475D02*
Y1889084D01*
Y1892373D02*
Y1892981D01*
Y1894499D02*
Y1895107D01*
Y1896625D02*
Y1897233D01*
Y1899193D02*
Y1899805D01*
Y1901902D02*
Y1902203D01*
Y1911783D02*
Y1912902D01*
Y1921900D02*
Y1922317D01*
Y1925164D02*
Y1926248D01*
Y1928830D02*
Y1929388D01*
Y1930966D02*
Y1931406D01*
Y1933711D02*
Y1934128D01*
Y1936975D02*
Y1938059D01*
Y1941514D02*
Y1942326D01*
Y1947420D02*
Y1948232D01*
Y1953325D02*
Y1954137D01*
Y1959231D02*
Y1960043D01*
Y1964656D02*
Y1965619D01*
Y1976903D02*
Y1977478D01*
Y1983868D02*
Y1984595D01*
Y1987128D02*
Y1988415D01*
Y1993791D02*
Y1994349D01*
Y1995927D02*
Y1996367D01*
X1918200Y1882452D02*
Y1883060D01*
Y1888475D02*
Y1889084D01*
Y1892373D02*
Y1892981D01*
Y1894499D02*
Y1895107D01*
Y1896625D02*
Y1897233D01*
Y1899081D02*
Y1899680D01*
Y1902011D02*
Y1902278D01*
Y1911833D02*
Y1912852D01*
Y1921951D02*
Y1922303D01*
Y1925467D02*
Y1926259D01*
Y1928755D02*
Y1929288D01*
Y1931066D02*
Y1931481D01*
Y1933762D02*
Y1934114D01*
Y1937278D02*
Y1938070D01*
Y1941554D02*
Y1942293D01*
Y1947460D02*
Y1948198D01*
Y1953365D02*
Y1954104D01*
Y1959271D02*
Y1960009D01*
Y1964663D02*
Y1965619D01*
Y1976879D02*
Y1977504D01*
Y1983893D02*
Y1984545D01*
Y1987128D02*
Y1988415D01*
Y1993716D02*
Y1994249D01*
Y1996027D02*
Y1996442D01*
X1918300Y1882452D02*
Y1883060D01*
Y1888475D02*
Y1889084D01*
Y1892373D02*
Y1892981D01*
Y1894499D02*
Y1895107D01*
Y1896625D02*
Y1897233D01*
Y1899009D02*
Y1899555D01*
Y1902111D02*
Y1902353D01*
Y1911883D02*
Y1912802D01*
Y1922026D02*
Y1922403D01*
Y1925650D02*
Y1926271D01*
Y1928680D02*
Y1929219D01*
Y1931135D02*
Y1931556D01*
Y1933837D02*
Y1934214D01*
Y1937461D02*
Y1938082D01*
Y1941594D02*
Y1942259D01*
Y1947500D02*
Y1948165D01*
Y1953405D02*
Y1954070D01*
Y1959311D02*
Y1959976D01*
Y1964675D02*
Y1965619D01*
Y1976855D02*
Y1977529D01*
Y1983908D02*
Y1984517D01*
Y1987178D02*
Y1988415D01*
Y1993641D02*
Y1994180D01*
Y1996096D02*
Y1996517D01*
X1918400Y1882452D02*
Y1883060D01*
Y1888475D02*
Y1889084D01*
Y1892373D02*
Y1892981D01*
Y1894499D02*
Y1895107D01*
Y1896625D02*
Y1897233D01*
Y1898938D02*
Y1899465D01*
Y1902211D02*
Y1902428D01*
Y1911933D02*
Y1912752D01*
Y1922101D02*
Y1922503D01*
Y1925800D02*
Y1926283D01*
Y1928605D02*
Y1929169D01*
Y1931185D02*
Y1931631D01*
Y1933912D02*
Y1934314D01*
Y1937611D02*
Y1938094D01*
Y1941625D02*
Y1942233D01*
Y1947530D02*
Y1948139D01*
Y1953436D02*
Y1954044D01*
Y1959341D02*
Y1959950D01*
Y1964688D02*
Y1965619D01*
Y1976832D02*
Y1977554D01*
Y1983908D02*
Y1984517D01*
Y1987228D02*
Y1988380D01*
Y1993566D02*
Y1994130D01*
Y1996146D02*
Y1996592D01*
X1918500Y1882452D02*
Y1883060D01*
Y1888475D02*
Y1889084D01*
Y1892373D02*
Y1892981D01*
Y1894499D02*
Y1895107D01*
Y1896625D02*
Y1897233D01*
Y1898866D02*
Y1899415D01*
Y1902298D02*
Y1902472D01*
Y1912033D02*
Y1912672D01*
Y1922176D02*
Y1922603D01*
Y1925918D02*
Y1926295D01*
Y1928530D02*
Y1929119D01*
Y1931235D02*
Y1931706D01*
Y1933987D02*
Y1934414D01*
Y1937729D02*
Y1938106D01*
Y1941625D02*
Y1942233D01*
Y1947530D02*
Y1948139D01*
Y1953436D02*
Y1954044D01*
Y1959341D02*
Y1959950D01*
Y1964700D02*
Y1965619D01*
Y1976808D02*
Y1977580D01*
Y1983908D02*
Y1984517D01*
Y1987278D02*
Y1988280D01*
Y1993491D02*
Y1994080D01*
Y1996196D02*
Y1996667D01*
X1918600Y1882452D02*
Y1883060D01*
Y1888475D02*
Y1889084D01*
Y1892373D02*
Y1892981D01*
Y1894499D02*
Y1895107D01*
Y1896625D02*
Y1897233D01*
Y1898795D02*
Y1899365D01*
Y1902348D02*
Y1902512D01*
Y1912233D02*
Y1912522D01*
Y1922251D02*
Y1922692D01*
Y1925951D02*
Y1926306D01*
Y1928476D02*
Y1929069D01*
Y1931285D02*
Y1931760D01*
Y1934062D02*
Y1934503D01*
Y1937762D02*
Y1938118D01*
Y1941625D02*
Y1942233D01*
Y1947530D02*
Y1948139D01*
Y1953436D02*
Y1954044D01*
Y1959341D02*
Y1959950D01*
Y1964713D02*
Y1965619D01*
Y1976784D02*
Y1977605D01*
Y1983908D02*
Y1984517D01*
Y1987351D02*
Y1988161D01*
Y1993436D02*
Y1994030D01*
Y1996246D02*
Y1996721D01*
X1918700Y1882452D02*
Y1883060D01*
Y1888475D02*
Y1889084D01*
Y1892373D02*
Y1892981D01*
Y1894499D02*
Y1895107D01*
Y1896625D02*
Y1897233D01*
Y1898723D02*
Y1899315D01*
Y1902398D02*
Y1902552D01*
Y1922331D02*
Y1922775D01*
Y1925984D02*
Y1926318D01*
Y1928430D02*
Y1929019D01*
Y1931335D02*
Y1931806D01*
Y1934142D02*
Y1934586D01*
Y1937795D02*
Y1938129D01*
Y1941625D02*
Y1942233D01*
Y1947530D02*
Y1948139D01*
Y1953436D02*
Y1954044D01*
Y1959341D02*
Y1959950D01*
Y1964725D02*
Y1965619D01*
Y1976761D02*
Y1977631D01*
Y1983908D02*
Y1984517D01*
Y1987551D02*
Y1987961D01*
Y1993391D02*
Y1993980D01*
Y1996296D02*
Y1996766D01*
X1918800Y1882452D02*
Y1883060D01*
Y1888475D02*
Y1889084D01*
Y1892373D02*
Y1892981D01*
Y1894499D02*
Y1895107D01*
Y1896625D02*
Y1897233D01*
Y1898652D02*
Y1899265D01*
Y1902448D02*
Y1902592D01*
Y1922411D02*
Y1922859D01*
Y1926018D02*
Y1926330D01*
Y1928385D02*
Y1928985D01*
Y1931362D02*
Y1931851D01*
Y1934222D02*
Y1934670D01*
Y1937829D02*
Y1938141D01*
Y1941625D02*
Y1942233D01*
Y1947530D02*
Y1948139D01*
Y1953436D02*
Y1954044D01*
Y1959341D02*
Y1959950D01*
Y1964738D02*
Y1965619D01*
Y1976737D02*
Y1977656D01*
Y1983908D02*
Y1984517D01*
Y1987751D02*
Y1987761D01*
Y1993346D02*
Y1993946D01*
Y1996323D02*
Y1996812D01*
X1918900Y1882452D02*
Y1883060D01*
Y1888475D02*
Y1889084D01*
Y1892373D02*
Y1892981D01*
Y1894499D02*
Y1895107D01*
Y1896625D02*
Y1897233D01*
Y1898581D02*
Y1899215D01*
Y1902498D02*
Y1902632D01*
Y1922491D02*
Y1922942D01*
Y1926055D02*
Y1926342D01*
Y1928339D02*
Y1928955D01*
Y1931382D02*
Y1931897D01*
Y1934302D02*
Y1934753D01*
Y1937866D02*
Y1938153D01*
Y1941625D02*
Y1942233D01*
Y1947530D02*
Y1948139D01*
Y1953436D02*
Y1954044D01*
Y1959341D02*
Y1959950D01*
Y1964750D02*
Y1965619D01*
Y1976713D02*
Y1977682D01*
Y1983908D02*
Y1984517D01*
Y1993300D02*
Y1993916D01*
Y1996343D02*
Y1996857D01*
X1919000Y1882452D02*
Y1883060D01*
Y1888475D02*
Y1889084D01*
Y1892373D02*
Y1892981D01*
Y1894499D02*
Y1895107D01*
Y1896625D02*
Y1897233D01*
Y1898512D02*
Y1899165D01*
Y1922571D02*
Y1923025D01*
Y1926095D02*
Y1926354D01*
Y1928294D02*
Y1928925D01*
Y1931402D02*
Y1931942D01*
Y1934382D02*
Y1934836D01*
Y1937906D02*
Y1938165D01*
Y1941625D02*
Y1942233D01*
Y1947530D02*
Y1948139D01*
Y1953436D02*
Y1954044D01*
Y1959341D02*
Y1959950D01*
Y1964763D02*
Y1965619D01*
Y1976689D02*
Y1977707D01*
Y1983908D02*
Y1984517D01*
Y1993255D02*
Y1993886D01*
Y1996363D02*
Y1996903D01*
X1919100Y1882452D02*
Y1883060D01*
Y1888475D02*
Y1889084D01*
Y1892373D02*
Y1892981D01*
Y1894499D02*
Y1895107D01*
Y1896625D02*
Y1897233D01*
Y1898501D02*
Y1899122D01*
Y1922651D02*
Y1923109D01*
Y1926135D02*
Y1926365D01*
Y1928249D02*
Y1928895D01*
Y1931422D02*
Y1931988D01*
Y1934462D02*
Y1934920D01*
Y1937946D02*
Y1938176D01*
Y1941625D02*
Y1942233D01*
Y1947530D02*
Y1948139D01*
Y1953436D02*
Y1954044D01*
Y1959341D02*
Y1959950D01*
Y1964777D02*
Y1965619D01*
Y1976666D02*
Y1977310D01*
Y1977533D02*
Y1977732D01*
Y1983908D02*
Y1984517D01*
Y1993209D02*
Y1993856D01*
Y1996383D02*
Y1996948D01*
X1919200Y1882452D02*
Y1883060D01*
Y1888475D02*
Y1889084D01*
Y1892373D02*
Y1892981D01*
Y1894499D02*
Y1895107D01*
Y1896625D02*
Y1897233D01*
Y1898490D02*
Y1899111D01*
Y1922732D02*
Y1923192D01*
Y1926175D02*
Y1926377D01*
Y1928203D02*
Y1928865D01*
Y1931442D02*
Y1932033D01*
Y1934543D02*
Y1935003D01*
Y1937986D02*
Y1938188D01*
Y1941625D02*
Y1942233D01*
Y1947530D02*
Y1948139D01*
Y1953436D02*
Y1954044D01*
Y1959341D02*
Y1959950D01*
Y1964797D02*
Y1965619D01*
Y1976642D02*
Y1977286D01*
Y1977558D02*
Y1977758D01*
Y1983908D02*
Y1984517D01*
Y1993164D02*
Y1993826D01*
Y1996403D02*
Y1996994D01*
X1919300Y1882452D02*
Y1883060D01*
Y1888475D02*
Y1889084D01*
Y1892373D02*
Y1892981D01*
Y1894499D02*
Y1895107D01*
Y1896625D02*
Y1897233D01*
Y1898479D02*
Y1899100D01*
Y1922815D02*
Y1923278D01*
Y1926215D02*
Y1926389D01*
Y1928158D02*
Y1928835D01*
Y1931462D02*
Y1932079D01*
Y1934626D02*
Y1935089D01*
Y1938026D02*
Y1938200D01*
Y1941625D02*
Y1942233D01*
Y1947530D02*
Y1948139D01*
Y1953436D02*
Y1954044D01*
Y1959341D02*
Y1959950D01*
Y1964817D02*
Y1965619D01*
Y1976618D02*
Y1977263D01*
Y1977582D02*
Y1977783D01*
Y1983908D02*
Y1984517D01*
Y1993118D02*
Y1993796D01*
Y1996423D02*
Y1997039D01*
X1919400Y1882452D02*
Y1883060D01*
Y1888475D02*
Y1889084D01*
Y1892373D02*
Y1892981D01*
Y1894499D02*
Y1895107D01*
Y1896625D02*
Y1897233D01*
Y1898468D02*
Y1899089D01*
Y1922898D02*
Y1923365D01*
Y1928112D02*
Y1928805D01*
Y1931482D02*
Y1932124D01*
Y1934709D02*
Y1935176D01*
Y1941625D02*
Y1942233D01*
Y1947530D02*
Y1948139D01*
Y1953436D02*
Y1954044D01*
Y1959341D02*
Y1959950D01*
Y1964837D02*
Y1965619D01*
Y1976594D02*
Y1977239D01*
Y1977606D02*
Y1977809D01*
Y1983908D02*
Y1984517D01*
Y1993073D02*
Y1993766D01*
Y1996443D02*
Y1997085D01*
X1919500Y1882452D02*
Y1883060D01*
Y1888475D02*
Y1889084D01*
Y1892373D02*
Y1892981D01*
Y1894499D02*
Y1895107D01*
Y1896625D02*
Y1897233D01*
Y1898457D02*
Y1899078D01*
Y1922982D02*
Y1923453D01*
Y1928067D02*
Y1928775D01*
Y1931502D02*
Y1932169D01*
Y1934793D02*
Y1935264D01*
Y1941625D02*
Y1942233D01*
Y1947530D02*
Y1948139D01*
Y1953436D02*
Y1954044D01*
Y1959341D02*
Y1959950D01*
Y1964857D02*
Y1965624D01*
Y1976571D02*
Y1977216D01*
Y1977631D02*
Y1977834D01*
Y1983908D02*
Y1984517D01*
Y1993027D02*
Y1993736D01*
Y1996463D02*
Y1997130D01*
X1919600Y1882452D02*
Y1883060D01*
Y1888475D02*
Y1889084D01*
Y1892373D02*
Y1892981D01*
Y1894499D02*
Y1895107D01*
Y1896625D02*
Y1897233D01*
Y1898446D02*
Y1899067D01*
Y1923065D02*
Y1923540D01*
Y1928021D02*
Y1928745D01*
Y1931522D02*
Y1932215D01*
Y1934876D02*
Y1935351D01*
Y1941625D02*
Y1942233D01*
Y1947530D02*
Y1948139D01*
Y1953436D02*
Y1954044D01*
Y1959341D02*
Y1959950D01*
Y1964877D02*
Y1965634D01*
Y1976547D02*
Y1977193D01*
Y1977655D02*
Y1977860D01*
Y1983908D02*
Y1984517D01*
Y1992982D02*
Y1993706D01*
Y1996483D02*
Y1997176D01*
X1919700Y1882452D02*
Y1883060D01*
Y1888475D02*
Y1889084D01*
Y1892373D02*
Y1892981D01*
Y1894499D02*
Y1895107D01*
Y1896625D02*
Y1897233D01*
Y1898434D02*
Y1899056D01*
Y1923148D02*
Y1923628D01*
Y1927976D02*
Y1928715D01*
Y1931542D02*
Y1932260D01*
Y1934959D02*
Y1935439D01*
Y1941625D02*
Y1942233D01*
Y1947530D02*
Y1948139D01*
Y1953436D02*
Y1954044D01*
Y1959341D02*
Y1959950D01*
Y1964897D02*
Y1965644D01*
Y1976523D02*
Y1977169D01*
Y1977680D02*
Y1977885D01*
Y1983908D02*
Y1984517D01*
Y1992936D02*
Y1993676D01*
Y1996503D02*
Y1997221D01*
X1919800Y1882452D02*
Y1883060D01*
Y1888475D02*
Y1889084D01*
Y1892373D02*
Y1892981D01*
Y1894499D02*
Y1895107D01*
Y1896625D02*
Y1897233D01*
Y1898423D02*
Y1899045D01*
Y1923232D02*
Y1923715D01*
Y1927930D02*
Y1928685D01*
Y1931562D02*
Y1932306D01*
Y1935043D02*
Y1935526D01*
Y1941625D02*
Y1942233D01*
Y1947530D02*
Y1948139D01*
Y1953436D02*
Y1954044D01*
Y1959341D02*
Y1959950D01*
Y1964917D02*
Y1965654D01*
Y1976499D02*
Y1977146D01*
Y1977704D02*
Y1977910D01*
Y1983908D02*
Y1984517D01*
Y1992891D02*
Y1993646D01*
Y1996523D02*
Y1997266D01*
X1919900Y1882452D02*
Y1883060D01*
Y1888475D02*
Y1889084D01*
Y1892373D02*
Y1892981D01*
Y1894499D02*
Y1895107D01*
Y1896625D02*
Y1897233D01*
Y1898412D02*
Y1899033D01*
Y1923317D02*
Y1923803D01*
Y1927917D02*
Y1928655D01*
Y1931582D02*
Y1932319D01*
Y1935128D02*
Y1935614D01*
Y1941625D02*
Y1942233D01*
Y1947530D02*
Y1948139D01*
Y1953436D02*
Y1954044D01*
Y1959341D02*
Y1959950D01*
Y1964937D02*
Y1965664D01*
Y1976476D02*
Y1977122D01*
Y1977729D02*
Y1977936D01*
Y1980837D02*
Y1985816D01*
Y1992878D02*
Y1993616D01*
Y1996543D02*
Y1997280D01*
X1920000Y1882452D02*
Y1883060D01*
Y1888475D02*
Y1889084D01*
Y1892373D02*
Y1892981D01*
Y1894499D02*
Y1895107D01*
Y1896625D02*
Y1897233D01*
Y1898401D02*
Y1899022D01*
Y1923417D02*
Y1923890D01*
Y1927910D02*
Y1928645D01*
Y1931592D02*
Y1932326D01*
Y1935228D02*
Y1935701D01*
Y1941625D02*
Y1942233D01*
Y1947530D02*
Y1948139D01*
Y1953436D02*
Y1954044D01*
Y1959341D02*
Y1959950D01*
Y1964957D02*
Y1965674D01*
Y1976452D02*
Y1977099D01*
Y1977753D02*
Y1977961D01*
Y1980837D02*
Y1985816D01*
Y1992871D02*
Y1993605D01*
Y1996552D02*
Y1997287D01*
X1920100Y1882452D02*
Y1883060D01*
Y1888475D02*
Y1889084D01*
Y1892373D02*
Y1892981D01*
Y1894499D02*
Y1895107D01*
Y1896625D02*
Y1897233D01*
Y1898404D02*
Y1899011D01*
Y1923517D02*
Y1923978D01*
Y1927903D02*
Y1928637D01*
Y1931599D02*
Y1932333D01*
Y1935328D02*
Y1935789D01*
Y1941625D02*
Y1942233D01*
Y1947530D02*
Y1948139D01*
Y1953436D02*
Y1954044D01*
Y1959341D02*
Y1959950D01*
Y1964977D02*
Y1965684D01*
Y1976428D02*
Y1977076D01*
Y1977778D02*
Y1977987D01*
Y1980837D02*
Y1985816D01*
Y1992864D02*
Y1993598D01*
Y1996560D02*
Y1997294D01*
X1920200Y1882452D02*
Y1883060D01*
Y1888475D02*
Y1889084D01*
Y1892373D02*
Y1892981D01*
Y1894499D02*
Y1895107D01*
Y1896625D02*
Y1897233D01*
Y1898415D02*
Y1899029D01*
Y1923617D02*
Y1924066D01*
Y1927896D02*
Y1928629D01*
Y1931607D02*
Y1932340D01*
Y1935428D02*
Y1935877D01*
Y1941625D02*
Y1942233D01*
Y1947530D02*
Y1948139D01*
Y1953436D02*
Y1954044D01*
Y1959341D02*
Y1959950D01*
Y1964997D02*
Y1965694D01*
Y1976405D02*
Y1977052D01*
Y1977802D02*
Y1978012D01*
Y1980873D02*
Y1981228D01*
Y1983908D02*
Y1984517D01*
Y1992856D02*
Y1993590D01*
Y1996568D02*
Y1997301D01*
X1920300Y1882452D02*
Y1883060D01*
Y1888475D02*
Y1889084D01*
Y1892373D02*
Y1892981D01*
Y1894499D02*
Y1895107D01*
Y1896625D02*
Y1897233D01*
Y1898426D02*
Y1902770D01*
Y1923717D02*
Y1924166D01*
Y1927889D02*
Y1928622D01*
Y1931615D02*
Y1932348D01*
Y1935528D02*
Y1935977D01*
Y1941625D02*
Y1942233D01*
Y1947530D02*
Y1948139D01*
Y1953436D02*
Y1954044D01*
Y1959341D02*
Y1959950D01*
Y1965025D02*
Y1965704D01*
Y1976381D02*
Y1977029D01*
Y1977826D02*
Y1978037D01*
Y1980935D02*
Y1981290D01*
Y1983908D02*
Y1984517D01*
Y1992849D02*
Y1993582D01*
Y1996575D02*
Y1997308D01*
X1920400Y1882452D02*
Y1883060D01*
Y1888475D02*
Y1889084D01*
Y1892373D02*
Y1892981D01*
Y1894499D02*
Y1895107D01*
Y1896625D02*
Y1897233D01*
Y1898437D02*
Y1899006D01*
Y1902176D02*
Y1902760D01*
Y1923817D02*
Y1924266D01*
Y1927882D02*
Y1928614D01*
Y1931622D02*
Y1932355D01*
Y1935628D02*
Y1936077D01*
Y1941625D02*
Y1942233D01*
Y1947530D02*
Y1948139D01*
Y1953436D02*
Y1954044D01*
Y1959341D02*
Y1959950D01*
Y1965068D02*
Y1965714D01*
Y1976357D02*
Y1977005D01*
Y1977851D02*
Y1978063D01*
Y1980997D02*
Y1981353D01*
Y1983908D02*
Y1984517D01*
Y1992842D02*
Y1993574D01*
Y1996583D02*
Y1997315D01*
X1920500Y1882452D02*
Y1883060D01*
Y1888475D02*
Y1889084D01*
Y1892373D02*
Y1892981D01*
Y1894499D02*
Y1895107D01*
Y1896625D02*
Y1897233D01*
Y1898448D02*
Y1899020D01*
Y1902163D02*
Y1902750D01*
Y1923917D02*
Y1924366D01*
Y1927874D02*
Y1928606D01*
Y1931630D02*
Y1932362D01*
Y1935728D02*
Y1936177D01*
Y1941625D02*
Y1942233D01*
Y1947530D02*
Y1948139D01*
Y1953436D02*
Y1954044D01*
Y1959341D02*
Y1959950D01*
Y1965111D02*
Y1965724D01*
Y1976333D02*
Y1976982D01*
Y1977875D02*
Y1978088D01*
Y1981059D02*
Y1981416D01*
Y1983908D02*
Y1984517D01*
Y1992835D02*
Y1993567D01*
Y1996591D02*
Y1997322D01*
X1920600Y1882452D02*
Y1883060D01*
Y1888475D02*
Y1889084D01*
Y1892373D02*
Y1892981D01*
Y1894499D02*
Y1895107D01*
Y1896625D02*
Y1897233D01*
Y1898459D02*
Y1899034D01*
Y1902151D02*
Y1902740D01*
Y1924017D02*
Y1924466D01*
Y1927867D02*
Y1928598D01*
Y1931638D02*
Y1932369D01*
Y1935828D02*
Y1936277D01*
Y1941625D02*
Y1942233D01*
Y1947530D02*
Y1948139D01*
Y1953436D02*
Y1954044D01*
Y1959341D02*
Y1959950D01*
Y1965154D02*
Y1965734D01*
Y1976310D02*
Y1976958D01*
Y1977900D02*
Y1978114D01*
Y1981122D02*
Y1981479D01*
Y1983908D02*
Y1984517D01*
Y1992828D02*
Y1993559D01*
Y1996598D02*
Y1997330D01*
X1920700Y1882452D02*
Y1883060D01*
Y1888475D02*
Y1889084D01*
Y1892373D02*
Y1892981D01*
Y1894499D02*
Y1895107D01*
Y1896625D02*
Y1897233D01*
Y1898470D02*
Y1899048D01*
Y1902138D02*
Y1902730D01*
Y1924117D02*
Y1924566D01*
Y1927860D02*
Y1928591D01*
Y1931645D02*
Y1932376D01*
Y1935928D02*
Y1936377D01*
Y1941625D02*
Y1942233D01*
Y1947530D02*
Y1948139D01*
Y1953436D02*
Y1954044D01*
Y1959341D02*
Y1959950D01*
Y1965197D02*
Y1965760D01*
Y1976286D02*
Y1976935D01*
Y1977924D02*
Y1978139D01*
Y1981184D02*
Y1981542D01*
Y1983908D02*
Y1984517D01*
Y1992821D02*
Y1993551D01*
Y1996606D02*
Y1997337D01*
X1920800Y1882452D02*
Y1883060D01*
Y1888475D02*
Y1889084D01*
Y1892373D02*
Y1892981D01*
Y1894499D02*
Y1895107D01*
Y1896625D02*
Y1897233D01*
Y1898481D02*
Y1899063D01*
Y1902126D02*
Y1902720D01*
Y1924217D02*
Y1924666D01*
Y1927853D02*
Y1928583D01*
Y1931653D02*
Y1932383D01*
Y1936028D02*
Y1936477D01*
Y1941625D02*
Y1942233D01*
Y1947530D02*
Y1948139D01*
Y1953436D02*
Y1954044D01*
Y1959341D02*
Y1959950D01*
Y1965240D02*
Y1965796D01*
Y1976262D02*
Y1976912D01*
Y1977949D02*
Y1978165D01*
Y1981246D02*
Y1981605D01*
Y1983908D02*
Y1984517D01*
Y1992814D02*
Y1993544D01*
Y1996614D02*
Y1997344D01*
X1920900Y1882452D02*
Y1883060D01*
Y1888475D02*
Y1889084D01*
Y1892373D02*
Y1892981D01*
Y1894499D02*
Y1895107D01*
Y1896625D02*
Y1897233D01*
Y1898492D02*
Y1899077D01*
Y1902113D02*
Y1902710D01*
Y1924317D02*
Y1924766D01*
Y1927846D02*
Y1928575D01*
Y1931661D02*
Y1932390D01*
Y1936128D02*
Y1936577D01*
Y1941625D02*
Y1942233D01*
Y1947530D02*
Y1948139D01*
Y1953436D02*
Y1954044D01*
Y1959341D02*
Y1959950D01*
Y1965283D02*
Y1965832D01*
Y1976238D02*
Y1976888D01*
Y1977973D02*
Y1978190D01*
Y1981308D02*
Y1981668D01*
Y1983908D02*
Y1984517D01*
Y1992806D02*
Y1993536D01*
Y1996621D02*
Y1997351D01*
X1921000Y1882452D02*
Y1883060D01*
Y1888475D02*
Y1889084D01*
Y1892373D02*
Y1892981D01*
Y1894499D02*
Y1895107D01*
Y1896625D02*
Y1897233D01*
Y1898504D02*
Y1899091D01*
Y1902101D02*
Y1902700D01*
Y1924417D02*
Y1924866D01*
Y1927839D02*
Y1928568D01*
Y1931669D02*
Y1932398D01*
Y1936228D02*
Y1936677D01*
Y1941625D02*
Y1942233D01*
Y1947530D02*
Y1948139D01*
Y1953436D02*
Y1954044D01*
Y1959341D02*
Y1959950D01*
Y1965325D02*
Y1965869D01*
Y1976215D02*
Y1976865D01*
Y1977998D02*
Y1978215D01*
Y1981371D02*
Y1981730D01*
Y1983908D02*
Y1984517D01*
Y1992799D02*
Y1993528D01*
Y1996629D02*
Y1997358D01*
X1921100Y1882452D02*
Y1883060D01*
Y1888475D02*
Y1889084D01*
Y1892373D02*
Y1892981D01*
Y1894499D02*
Y1895107D01*
Y1896625D02*
Y1897233D01*
Y1898522D02*
Y1899106D01*
Y1902088D02*
Y1902690D01*
Y1924517D02*
Y1924966D01*
Y1927832D02*
Y1928560D01*
Y1931676D02*
Y1932405D01*
Y1936328D02*
Y1936777D01*
Y1941625D02*
Y1942233D01*
Y1947530D02*
Y1948139D01*
Y1953436D02*
Y1954044D01*
Y1959341D02*
Y1959950D01*
Y1965370D02*
Y1965905D01*
Y1976191D02*
Y1976841D01*
Y1978022D02*
Y1978241D01*
Y1981433D02*
Y1981793D01*
Y1983908D02*
Y1984517D01*
Y1992792D02*
Y1993521D01*
Y1996637D02*
Y1997365D01*
X1921200Y1882452D02*
Y1883060D01*
Y1888475D02*
Y1889084D01*
Y1892373D02*
Y1892981D01*
Y1894499D02*
Y1895107D01*
Y1896625D02*
Y1897233D01*
Y1898585D02*
Y1899120D01*
Y1902076D02*
Y1902680D01*
Y1924617D02*
Y1925066D01*
Y1927824D02*
Y1928552D01*
Y1931684D02*
Y1932412D01*
Y1936428D02*
Y1936877D01*
Y1941625D02*
Y1942233D01*
Y1947530D02*
Y1948139D01*
Y1953436D02*
Y1954044D01*
Y1959341D02*
Y1959950D01*
Y1965420D02*
Y1965942D01*
Y1976167D02*
Y1976818D01*
Y1978046D02*
Y1978266D01*
Y1981495D02*
Y1981856D01*
Y1983908D02*
Y1984517D01*
Y1992785D02*
Y1993513D01*
Y1996645D02*
Y1997372D01*
X1921300Y1882452D02*
Y1883060D01*
Y1888475D02*
Y1889084D01*
Y1892373D02*
Y1892981D01*
Y1894499D02*
Y1895107D01*
Y1896625D02*
Y1897233D01*
Y1898647D02*
Y1899157D01*
Y1902063D02*
Y1902670D01*
Y1924717D02*
Y1925166D01*
Y1927817D02*
Y1928545D01*
Y1931692D02*
Y1932419D01*
Y1936528D02*
Y1936977D01*
Y1941625D02*
Y1942233D01*
Y1947530D02*
Y1948139D01*
Y1953436D02*
Y1954044D01*
Y1959341D02*
Y1959950D01*
Y1965470D02*
Y1965978D01*
Y1976144D02*
Y1976795D01*
Y1978071D02*
Y1978292D01*
Y1981557D02*
Y1981919D01*
Y1983908D02*
Y1984517D01*
Y1992778D02*
Y1993505D01*
Y1996652D02*
Y1997380D01*
X1921400Y1882452D02*
Y1883060D01*
Y1888475D02*
Y1889084D01*
Y1892373D02*
Y1892981D01*
Y1894499D02*
Y1895107D01*
Y1896625D02*
Y1897233D01*
Y1898710D02*
Y1899207D01*
Y1902037D02*
Y1902624D01*
Y1924817D02*
Y1925266D01*
Y1927810D02*
Y1928537D01*
Y1931699D02*
Y1932426D01*
Y1936628D02*
Y1937077D01*
Y1941625D02*
Y1942233D01*
Y1947530D02*
Y1948139D01*
Y1953436D02*
Y1954044D01*
Y1959341D02*
Y1959950D01*
Y1965520D02*
Y1966014D01*
Y1968908D02*
Y1973887D01*
Y1976120D02*
Y1976771D01*
Y1978095D02*
Y1978317D01*
Y1981619D02*
Y1981982D01*
Y1983908D02*
Y1984517D01*
Y1992771D02*
Y1993498D01*
Y1996660D02*
Y1997387D01*
X1921500Y1882452D02*
Y1883060D01*
Y1888475D02*
Y1889084D01*
Y1892373D02*
Y1892993D01*
Y1894499D02*
Y1895123D01*
Y1896625D02*
Y1897233D01*
Y1898772D02*
Y1899257D01*
Y1901997D02*
Y1902567D01*
Y1924892D02*
Y1925366D01*
Y1927809D02*
Y1928536D01*
Y1931700D02*
Y1932427D01*
Y1936703D02*
Y1937177D01*
Y1941625D02*
Y1942233D01*
Y1947530D02*
Y1948139D01*
Y1953436D02*
Y1954044D01*
Y1959341D02*
Y1959950D01*
Y1965570D02*
Y1966051D01*
Y1968908D02*
Y1973887D01*
Y1976096D02*
Y1976748D01*
Y1978120D02*
Y1978343D01*
Y1981682D02*
Y1982045D01*
Y1983908D02*
Y1984517D01*
Y1992770D02*
Y1993496D01*
Y1996661D02*
Y1997388D01*
X1921600Y1882452D02*
Y1883060D01*
Y1888475D02*
Y1889084D01*
Y1892373D02*
Y1893027D01*
Y1894495D02*
Y1895173D01*
Y1896625D02*
Y1897233D01*
Y1898835D02*
Y1899307D01*
Y1901957D02*
Y1902510D01*
Y1924959D02*
Y1925466D01*
Y1927816D02*
Y1928544D01*
Y1931693D02*
Y1932420D01*
Y1936770D02*
Y1937277D01*
Y1941625D02*
Y1942233D01*
Y1947530D02*
Y1948139D01*
Y1953436D02*
Y1954044D01*
Y1959341D02*
Y1959950D01*
Y1965620D02*
Y1966087D01*
Y1968908D02*
Y1973887D01*
Y1976072D02*
Y1976724D01*
Y1978144D02*
Y1978368D01*
Y1981744D02*
Y1982108D01*
Y1983908D02*
Y1984517D01*
Y1992777D02*
Y1993504D01*
Y1996653D02*
Y1997381D01*
X1921700Y1882452D02*
Y1883060D01*
Y1888475D02*
Y1889084D01*
Y1892373D02*
Y1893060D01*
Y1894475D02*
Y1895223D01*
Y1896625D02*
Y1897233D01*
Y1898897D02*
Y1899357D01*
Y1901917D02*
Y1902452D01*
Y1925025D02*
Y1925566D01*
Y1927823D02*
Y1928551D01*
Y1931685D02*
Y1932413D01*
Y1936836D02*
Y1937377D01*
Y1941625D02*
Y1942233D01*
Y1947530D02*
Y1948139D01*
Y1953436D02*
Y1954044D01*
Y1959341D02*
Y1959950D01*
Y1965670D02*
Y1966123D01*
Y1968908D02*
Y1973887D01*
Y1976049D02*
Y1976701D01*
Y1978169D02*
Y1978393D01*
Y1981806D02*
Y1982170D01*
Y1983908D02*
Y1984517D01*
Y1992784D02*
Y1993512D01*
Y1996646D02*
Y1997373D01*
X1921800Y1882452D02*
Y1883060D01*
Y1888475D02*
Y1889084D01*
Y1892373D02*
Y1893093D01*
Y1894455D02*
Y1895273D01*
Y1896625D02*
Y1897233D01*
Y1898960D02*
Y1899407D01*
Y1901877D02*
Y1902395D01*
Y1925092D02*
Y1925666D01*
Y1927831D02*
Y1928559D01*
Y1931677D02*
Y1932406D01*
Y1936903D02*
Y1937477D01*
Y1941625D02*
Y1942233D01*
Y1947530D02*
Y1948139D01*
Y1953436D02*
Y1954044D01*
Y1959341D02*
Y1959950D01*
Y1965720D02*
Y1966160D01*
Y1976025D02*
Y1976678D01*
Y1978193D02*
Y1978419D01*
Y1981868D02*
Y1982233D01*
Y1983908D02*
Y1984517D01*
Y1992791D02*
Y1993520D01*
Y1996638D02*
Y1997366D01*
X1921900Y1882452D02*
Y1883060D01*
Y1888448D02*
Y1889084D01*
Y1892373D02*
Y1893149D01*
Y1894435D02*
Y1895323D01*
Y1896625D02*
Y1897233D01*
Y1899022D02*
Y1899457D01*
Y1901837D02*
Y1902338D01*
Y1912252D02*
Y1912510D01*
Y1925159D02*
Y1925743D01*
Y1927838D02*
Y1928567D01*
Y1931670D02*
Y1932399D01*
Y1936970D02*
Y1937554D01*
Y1941625D02*
Y1942233D01*
Y1947530D02*
Y1948139D01*
Y1953436D02*
Y1954044D01*
Y1959341D02*
Y1959950D01*
Y1965770D02*
Y1966196D01*
Y1976001D02*
Y1976654D01*
Y1978218D02*
Y1978444D01*
Y1981931D02*
Y1982296D01*
Y1983908D02*
Y1984517D01*
Y1992798D02*
Y1993527D01*
Y1996630D02*
Y1997359D01*
X1922000Y1882452D02*
Y1883060D01*
Y1888415D02*
Y1889084D01*
Y1892373D02*
Y1893015D01*
Y1893048D02*
Y1893215D01*
Y1894415D02*
Y1895141D01*
Y1895174D02*
Y1895373D01*
Y1896604D02*
Y1897233D01*
Y1899085D02*
Y1899528D01*
Y1901771D02*
Y1902281D01*
Y1911950D02*
Y1912735D01*
Y1925225D02*
Y1925803D01*
Y1927845D02*
Y1928574D01*
Y1931662D02*
Y1932391D01*
Y1937036D02*
Y1937614D01*
Y1941625D02*
Y1942233D01*
Y1947530D02*
Y1948139D01*
Y1953436D02*
Y1954044D01*
Y1959341D02*
Y1959950D01*
Y1965820D02*
Y1966234D01*
Y1975977D02*
Y1976631D01*
Y1978242D02*
Y1978470D01*
Y1981993D02*
Y1982359D01*
Y1983908D02*
Y1984517D01*
Y1992805D02*
Y1993535D01*
Y1996623D02*
Y1997352D01*
X1922100Y1882452D02*
Y1883060D01*
Y1888382D02*
Y1889084D01*
Y1892373D02*
Y1892981D01*
Y1893138D02*
Y1893282D01*
Y1894395D02*
Y1895068D01*
Y1895264D02*
Y1895423D01*
Y1896571D02*
Y1897188D01*
Y1899224D02*
Y1899628D01*
Y1901671D02*
Y1902224D01*
Y1911900D02*
Y1912785D01*
Y1925292D02*
Y1925863D01*
Y1927852D02*
Y1928582D01*
Y1931654D02*
Y1932384D01*
Y1937103D02*
Y1937674D01*
Y1941625D02*
Y1942233D01*
Y1947530D02*
Y1948139D01*
Y1953436D02*
Y1954044D01*
Y1959341D02*
Y1959950D01*
Y1965870D02*
Y1966272D01*
Y1975954D02*
Y1976607D01*
Y1978266D02*
Y1978495D01*
Y1982055D02*
Y1982422D01*
Y1983908D02*
Y1984517D01*
Y1992813D02*
Y1993543D01*
Y1996615D02*
Y1997345D01*
X1922200Y1882452D02*
Y1883060D01*
Y1888343D02*
Y1889084D01*
Y1892373D02*
Y1892981D01*
Y1893218D02*
Y1893350D01*
Y1894367D02*
Y1895008D01*
Y1895344D02*
Y1895476D01*
Y1896537D02*
Y1897122D01*
Y1899374D02*
Y1899728D01*
Y1901571D02*
Y1902102D01*
Y1911850D02*
Y1912835D01*
Y1925343D02*
Y1925923D01*
Y1927859D02*
Y1928590D01*
Y1931647D02*
Y1932377D01*
Y1937154D02*
Y1937734D01*
Y1941625D02*
Y1942233D01*
Y1947530D02*
Y1948139D01*
Y1953436D02*
Y1954044D01*
Y1959341D02*
Y1959950D01*
Y1965920D02*
Y1966310D01*
Y1975930D02*
Y1976584D01*
Y1978291D02*
Y1978521D01*
Y1982117D02*
Y1982485D01*
Y1983908D02*
Y1984517D01*
Y1992820D02*
Y1993550D01*
Y1996607D02*
Y1997338D01*
X1922300Y1882452D02*
Y1883060D01*
Y1888061D02*
Y1889084D01*
Y1892370D02*
Y1892981D01*
Y1893298D02*
Y1893588D01*
Y1894219D02*
Y1894948D01*
Y1895424D02*
Y1895714D01*
Y1896504D02*
Y1897055D01*
Y1899524D02*
Y1899828D01*
Y1901471D02*
Y1901952D01*
Y1911800D02*
Y1912885D01*
Y1925383D02*
Y1925983D01*
Y1927866D02*
Y1928597D01*
Y1931639D02*
Y1932370D01*
Y1937194D02*
Y1937794D01*
Y1941625D02*
Y1942233D01*
Y1947530D02*
Y1948139D01*
Y1953436D02*
Y1954044D01*
Y1959341D02*
Y1959950D01*
Y1965970D02*
Y1966349D01*
Y1975906D02*
Y1976561D01*
Y1978315D02*
Y1978546D01*
Y1982179D02*
Y1982548D01*
Y1983908D02*
Y1984517D01*
Y1992827D02*
Y1993558D01*
Y1996599D02*
Y1997331D01*
X1922400Y1882452D02*
Y1883060D01*
Y1887424D02*
Y1889084D01*
Y1892202D02*
Y1892981D01*
Y1893378D02*
Y1893838D01*
Y1894069D02*
Y1894888D01*
Y1895504D02*
Y1895964D01*
Y1896265D02*
Y1896978D01*
Y1899674D02*
Y1899928D01*
Y1901371D02*
Y1901802D01*
Y1911750D02*
Y1912935D01*
Y1925423D02*
Y1926043D01*
Y1927873D02*
Y1928605D01*
Y1931631D02*
Y1932363D01*
Y1937234D02*
Y1937854D01*
Y1941625D02*
Y1942233D01*
Y1947530D02*
Y1948139D01*
Y1953436D02*
Y1954044D01*
Y1959341D02*
Y1959950D01*
Y1966020D02*
Y1966387D01*
Y1975883D02*
Y1976537D01*
Y1978340D02*
Y1978571D01*
Y1982242D02*
Y1982610D01*
Y1983908D02*
Y1984517D01*
Y1992834D02*
Y1993566D01*
Y1996592D02*
Y1997323D01*
X1922500Y1882452D02*
Y1883060D01*
Y1887058D02*
Y1889084D01*
Y1891900D02*
Y1892981D01*
Y1893458D02*
Y1894828D01*
Y1895584D02*
Y1896878D01*
Y1899891D02*
Y1900286D01*
Y1901062D02*
Y1901652D01*
Y1911798D02*
Y1912887D01*
Y1925463D02*
Y1926088D01*
Y1927881D02*
Y1928613D01*
Y1931623D02*
Y1932356D01*
Y1937274D02*
Y1937899D01*
Y1941625D02*
Y1942233D01*
Y1947530D02*
Y1948139D01*
Y1953436D02*
Y1954044D01*
Y1959341D02*
Y1959950D01*
Y1966070D02*
Y1966426D01*
Y1975859D02*
Y1976514D01*
Y1978364D02*
Y1978597D01*
Y1982304D02*
Y1982673D01*
Y1983908D02*
Y1984517D01*
Y1992841D02*
Y1993573D01*
Y1996584D02*
Y1997316D01*
X1922600Y1882452D02*
Y1883060D01*
Y1887569D02*
Y1889084D01*
Y1892593D02*
Y1892981D01*
Y1893581D02*
Y1894737D01*
Y1895707D02*
Y1896756D01*
Y1900291D02*
Y1901446D01*
Y1911848D02*
Y1912837D01*
Y1925503D02*
Y1926128D01*
Y1927888D02*
Y1928620D01*
Y1931616D02*
Y1932349D01*
Y1937314D02*
Y1937939D01*
Y1941625D02*
Y1942233D01*
Y1947530D02*
Y1948139D01*
Y1953436D02*
Y1954044D01*
Y1959341D02*
Y1959950D01*
Y1966120D02*
Y1966464D01*
Y1975835D02*
Y1976490D01*
Y1978389D02*
Y1978622D01*
Y1982366D02*
Y1982736D01*
Y1983908D02*
Y1984517D01*
Y1992848D02*
Y1993581D01*
Y1996576D02*
Y1997309D01*
X1922700Y1882452D02*
Y1883060D01*
Y1888269D02*
Y1889084D01*
Y1892743D02*
Y1892981D01*
Y1894181D02*
Y1894237D01*
Y1896307D02*
Y1896356D01*
Y1900691D02*
Y1900746D01*
Y1911898D02*
Y1912787D01*
Y1925543D02*
Y1926168D01*
Y1927895D02*
Y1928628D01*
Y1931608D02*
Y1932341D01*
Y1937354D02*
Y1937979D01*
Y1941625D02*
Y1942233D01*
Y1947530D02*
Y1948139D01*
Y1953436D02*
Y1954044D01*
Y1959341D02*
Y1959950D01*
Y1966170D02*
Y1966503D01*
Y1975811D02*
Y1976467D01*
Y1978413D02*
Y1978648D01*
Y1982428D02*
Y1982799D01*
Y1983908D02*
Y1984517D01*
Y1992855D02*
Y1993589D01*
Y1996569D02*
Y1997302D01*
X1922800Y1882452D02*
Y1883060D01*
Y1888597D02*
Y1889084D01*
Y1892893D02*
Y1892981D01*
Y1911948D02*
Y1912737D01*
Y1925570D02*
Y1926208D01*
Y1927902D02*
Y1928636D01*
Y1931600D02*
Y1932334D01*
Y1937381D02*
Y1938019D01*
Y1941625D02*
Y1942233D01*
Y1947530D02*
Y1948139D01*
Y1953436D02*
Y1954044D01*
Y1959341D02*
Y1959950D01*
Y1966220D02*
Y1966541D01*
Y1975788D02*
Y1976444D01*
Y1978438D02*
Y1978673D01*
Y1982491D02*
Y1982862D01*
Y1983908D02*
Y1984517D01*
Y1992863D02*
Y1993596D01*
Y1996561D02*
Y1997295D01*
X1922900Y1882452D02*
Y1883060D01*
Y1888897D02*
Y1889084D01*
Y1912093D02*
Y1912627D01*
Y1922189D02*
Y1922833D01*
Y1925587D02*
Y1926248D01*
Y1927909D02*
Y1928644D01*
Y1931593D02*
Y1932327D01*
Y1934000D02*
Y1934644D01*
Y1937398D02*
Y1938059D01*
Y1941625D02*
Y1942233D01*
Y1947530D02*
Y1948139D01*
Y1953436D02*
Y1954044D01*
Y1959341D02*
Y1959950D01*
Y1966270D02*
Y1966580D01*
Y1975764D02*
Y1976420D01*
Y1978462D02*
Y1978699D01*
Y1982553D02*
Y1982925D01*
Y1983908D02*
Y1984517D01*
Y1992870D02*
Y1993604D01*
Y1996553D02*
Y1997288D01*
X1923000Y1882452D02*
Y1883060D01*
Y1912293D02*
Y1912477D01*
Y1922080D02*
Y1922903D01*
Y1925603D02*
Y1926288D01*
Y1927916D02*
Y1928651D01*
Y1931585D02*
Y1932320D01*
Y1933891D02*
Y1934714D01*
Y1937414D02*
Y1938099D01*
Y1941625D02*
Y1942233D01*
Y1947530D02*
Y1948139D01*
Y1953436D02*
Y1954044D01*
Y1959341D02*
Y1959950D01*
Y1966320D02*
Y1966618D01*
Y1975740D02*
Y1976397D01*
Y1978486D02*
Y1978724D01*
Y1982615D02*
Y1982988D01*
Y1983908D02*
Y1984517D01*
Y1992877D02*
Y1993612D01*
Y1996545D02*
Y1997281D01*
X1923100Y1882452D02*
Y1883060D01*
Y1922030D02*
Y1922936D01*
Y1925620D02*
Y1926289D01*
Y1927924D02*
Y1928681D01*
Y1931565D02*
Y1932312D01*
Y1933841D02*
Y1934747D01*
Y1937431D02*
Y1938100D01*
Y1941625D02*
Y1942233D01*
Y1947530D02*
Y1948139D01*
Y1953436D02*
Y1954044D01*
Y1959341D02*
Y1959950D01*
Y1966370D02*
Y1966657D01*
Y1975716D02*
Y1976373D01*
Y1978511D02*
Y1978749D01*
Y1982677D02*
Y1983050D01*
Y1983908D02*
Y1984517D01*
Y1992885D02*
Y1993642D01*
Y1996525D02*
Y1997273D01*
X1923200Y1882452D02*
Y1883060D01*
Y1922019D02*
Y1922969D01*
Y1925637D02*
Y1926289D01*
Y1927970D02*
Y1928711D01*
Y1931545D02*
Y1932266D01*
Y1933830D02*
Y1934780D01*
Y1937448D02*
Y1938100D01*
Y1941625D02*
Y1942233D01*
Y1947530D02*
Y1948139D01*
Y1953436D02*
Y1954044D01*
Y1959341D02*
Y1959950D01*
Y1966420D02*
Y1966695D01*
Y1975693D02*
Y1976350D01*
Y1978535D02*
Y1978775D01*
Y1982739D02*
Y1983113D01*
Y1983908D02*
Y1984517D01*
Y1992930D02*
Y1993672D01*
Y1996505D02*
Y1997227D01*
X1923300Y1882452D02*
Y1883060D01*
Y1922019D02*
Y1922955D01*
Y1925653D02*
Y1926289D01*
Y1928015D02*
Y1928741D01*
Y1931525D02*
Y1932221D01*
Y1933830D02*
Y1934766D01*
Y1937464D02*
Y1938100D01*
Y1941625D02*
Y1942233D01*
Y1947530D02*
Y1948139D01*
Y1953436D02*
Y1954044D01*
Y1959341D02*
Y1959950D01*
Y1966478D02*
Y1966734D01*
Y1975669D02*
Y1976327D01*
Y1978560D02*
Y1978800D01*
Y1982802D02*
Y1983176D01*
Y1983908D02*
Y1984517D01*
Y1992976D02*
Y1993702D01*
Y1996485D02*
Y1997182D01*
X1923400Y1882452D02*
Y1883060D01*
Y1922019D02*
Y1922922D01*
Y1925670D02*
Y1926289D01*
Y1928061D02*
Y1928771D01*
Y1931505D02*
Y1932176D01*
Y1933830D02*
Y1934733D01*
Y1937481D02*
Y1938100D01*
Y1941625D02*
Y1942233D01*
Y1947530D02*
Y1948139D01*
Y1953436D02*
Y1954044D01*
Y1959341D02*
Y1959950D01*
Y1963367D02*
Y1963511D01*
Y1966536D02*
Y1966772D01*
Y1975645D02*
Y1976303D01*
Y1978584D02*
Y1978826D01*
Y1982864D02*
Y1983239D01*
Y1983908D02*
Y1984517D01*
Y1993021D02*
Y1993732D01*
Y1996465D02*
Y1997136D01*
X1923500Y1882452D02*
Y1883060D01*
Y1922031D02*
Y1922888D01*
Y1925675D02*
Y1926283D01*
Y1928106D02*
Y1928801D01*
Y1931485D02*
Y1932130D01*
Y1933842D02*
Y1934699D01*
Y1937486D02*
Y1938094D01*
Y1941625D02*
Y1942233D01*
Y1947530D02*
Y1948139D01*
Y1953436D02*
Y1954044D01*
Y1959341D02*
Y1959950D01*
Y1963385D02*
Y1963551D01*
Y1966594D02*
Y1966813D01*
Y1975622D02*
Y1976280D01*
Y1978609D02*
Y1978851D01*
Y1982926D02*
Y1983302D01*
Y1983908D02*
Y1984517D01*
Y1993067D02*
Y1993762D01*
Y1996445D02*
Y1997091D01*
X1923600Y1882452D02*
Y1883060D01*
Y1922059D02*
Y1922849D01*
Y1925658D02*
Y1926269D01*
Y1928152D02*
Y1928831D01*
Y1931465D02*
Y1932085D01*
Y1933870D02*
Y1934660D01*
Y1937469D02*
Y1938080D01*
Y1941625D02*
Y1942233D01*
Y1947530D02*
Y1948139D01*
Y1953436D02*
Y1954044D01*
Y1959341D02*
Y1959950D01*
Y1963403D02*
Y1963591D01*
Y1966653D02*
Y1966875D01*
Y1975598D02*
Y1976256D01*
Y1978633D02*
Y1978876D01*
Y1982988D02*
Y1983365D01*
Y1983908D02*
Y1984517D01*
Y1993112D02*
Y1993792D01*
Y1996425D02*
Y1997045D01*
X1923700Y1880241D02*
Y1880390D01*
Y1882452D02*
Y1883060D01*
Y1885122D02*
Y1885280D01*
Y1922088D02*
Y1922799D01*
Y1925641D02*
Y1926254D01*
Y1928197D02*
Y1928861D01*
Y1931445D02*
Y1932039D01*
Y1933899D02*
Y1934610D01*
Y1937452D02*
Y1938065D01*
Y1941625D02*
Y1942233D01*
Y1947530D02*
Y1948139D01*
Y1953436D02*
Y1954044D01*
Y1959341D02*
Y1959950D01*
Y1963420D02*
Y1963631D01*
Y1966711D02*
Y1966937D01*
Y1975574D02*
Y1976233D01*
Y1978658D02*
Y1978902D01*
Y1983051D02*
Y1983428D01*
Y1983908D02*
Y1984517D01*
Y1993158D02*
Y1993822D01*
Y1996405D02*
Y1997000D01*
X1923800Y1880267D02*
Y1880432D01*
Y1882452D02*
Y1883060D01*
Y1885079D02*
Y1885260D01*
Y1922116D02*
Y1922749D01*
Y1925625D02*
Y1926240D01*
Y1928242D02*
Y1928891D01*
Y1931425D02*
Y1931994D01*
Y1933927D02*
Y1934560D01*
Y1937436D02*
Y1938051D01*
Y1941625D02*
Y1942233D01*
Y1947530D02*
Y1948139D01*
Y1953436D02*
Y1954044D01*
Y1959341D02*
Y1959950D01*
Y1963438D02*
Y1963671D01*
Y1966769D02*
Y1966998D01*
Y1975550D02*
Y1976210D01*
Y1978682D02*
Y1978927D01*
Y1983113D02*
Y1983490D01*
Y1983908D02*
Y1984517D01*
Y1993203D02*
Y1993852D01*
Y1996385D02*
Y1996954D01*
X1923900Y1880294D02*
Y1880475D01*
Y1882452D02*
Y1883060D01*
Y1885037D02*
Y1885240D01*
Y1922145D02*
Y1922699D01*
Y1925608D02*
Y1926226D01*
Y1928288D02*
Y1928921D01*
Y1931405D02*
Y1931948D01*
Y1933956D02*
Y1934510D01*
Y1937419D02*
Y1938037D01*
Y1941625D02*
Y1942233D01*
Y1947530D02*
Y1948139D01*
Y1953436D02*
Y1954044D01*
Y1959341D02*
Y1959950D01*
Y1963456D02*
Y1963711D01*
Y1966828D02*
Y1967060D01*
Y1975527D02*
Y1976186D01*
Y1978706D02*
Y1978953D01*
Y1983175D02*
Y1983553D01*
Y1983908D02*
Y1984517D01*
Y1993249D02*
Y1993882D01*
Y1996365D02*
Y1996909D01*
X1924000Y1880321D02*
Y1880518D01*
Y1882452D02*
Y1883060D01*
Y1884994D02*
Y1885220D01*
Y1922173D02*
Y1922649D01*
Y1925591D02*
Y1926212D01*
Y1928333D02*
Y1928951D01*
Y1931385D02*
Y1931903D01*
Y1933985D02*
Y1934460D01*
Y1937402D02*
Y1938023D01*
Y1941625D02*
Y1942233D01*
Y1947530D02*
Y1948139D01*
Y1953436D02*
Y1954044D01*
Y1959341D02*
Y1959950D01*
Y1963473D02*
Y1963761D01*
Y1966886D02*
Y1967121D01*
Y1975503D02*
Y1976163D01*
Y1978731D02*
Y1978978D01*
Y1983237D02*
Y1983616D01*
Y1983908D02*
Y1984517D01*
Y1993294D02*
Y1993912D01*
Y1996345D02*
Y1996863D01*
X1924100Y1880347D02*
Y1880561D01*
Y1882452D02*
Y1883060D01*
Y1884951D02*
Y1885200D01*
Y1922202D02*
Y1922639D01*
Y1925575D02*
Y1926197D01*
Y1928379D02*
Y1928981D01*
Y1931365D02*
Y1931857D01*
Y1934013D02*
Y1934450D01*
Y1937386D02*
Y1938008D01*
Y1941613D02*
Y1942233D01*
Y1947518D02*
Y1948139D01*
Y1953424D02*
Y1954044D01*
Y1959329D02*
Y1959950D01*
Y1963491D02*
Y1963828D01*
Y1966944D02*
Y1967183D01*
Y1975479D02*
Y1976139D01*
Y1978755D02*
Y1979004D01*
Y1983299D02*
Y1983679D01*
Y1983908D02*
Y1984517D01*
Y1993339D02*
Y1993942D01*
Y1996325D02*
Y1996818D01*
X1924200Y1880374D02*
Y1880604D01*
Y1882452D02*
Y1883060D01*
Y1884908D02*
Y1885180D01*
Y1922231D02*
Y1922673D01*
Y1925554D02*
Y1926183D01*
Y1928424D02*
Y1929013D01*
Y1931341D02*
Y1931812D01*
Y1934042D02*
Y1934484D01*
Y1937365D02*
Y1937994D01*
Y1941579D02*
Y1942233D01*
Y1947485D02*
Y1948139D01*
Y1953390D02*
Y1954044D01*
Y1959296D02*
Y1959950D01*
Y1963508D02*
Y1963895D01*
Y1967003D02*
Y1967244D01*
Y1975455D02*
Y1976116D01*
Y1978780D02*
Y1979029D01*
Y1983362D02*
Y1983742D01*
Y1983908D02*
Y1984517D01*
Y1993385D02*
Y1993974D01*
Y1996302D02*
Y1996773D01*
X1924300Y1880401D02*
Y1880647D01*
Y1882452D02*
Y1883060D01*
Y1884865D02*
Y1885160D01*
Y1922271D02*
Y1922706D01*
Y1925504D02*
Y1926157D01*
Y1928470D02*
Y1929080D01*
Y1931275D02*
Y1931766D01*
Y1934082D02*
Y1934517D01*
Y1937315D02*
Y1937968D01*
Y1941546D02*
Y1942233D01*
Y1947451D02*
Y1948139D01*
Y1953357D02*
Y1954044D01*
Y1959262D02*
Y1959950D01*
Y1963526D02*
Y1963961D01*
Y1967061D02*
Y1967306D01*
Y1975432D02*
Y1976093D01*
Y1978804D02*
Y1979054D01*
Y1983424D02*
Y1983805D01*
Y1983908D02*
Y1984517D01*
Y1993430D02*
Y1994040D01*
Y1996235D02*
Y1996727D01*
X1924400Y1880427D02*
Y1880690D01*
Y1882452D02*
Y1883060D01*
Y1884822D02*
Y1885140D01*
Y1888792D02*
Y1888970D01*
Y1922337D02*
Y1922739D01*
Y1925454D02*
Y1926097D01*
Y1928520D02*
Y1929146D01*
Y1931208D02*
Y1931716D01*
Y1934148D02*
Y1934550D01*
Y1937265D02*
Y1937908D01*
Y1941513D02*
Y1942233D01*
Y1947418D02*
Y1948139D01*
Y1953324D02*
Y1954044D01*
Y1959229D02*
Y1959950D01*
Y1963544D02*
Y1964089D01*
Y1967119D02*
Y1967367D01*
Y1975408D02*
Y1976069D01*
Y1978829D02*
Y1979080D01*
Y1983486D02*
Y1984517D01*
Y1993481D02*
Y1994107D01*
Y1996169D02*
Y1996677D01*
X1924500Y1880454D02*
Y1880753D01*
Y1882452D02*
Y1883060D01*
Y1884774D02*
Y1885120D01*
Y1888592D02*
Y1889120D01*
Y1922404D02*
Y1922815D01*
Y1925404D02*
Y1926037D01*
Y1928595D02*
Y1929213D01*
Y1931141D02*
Y1931641D01*
Y1934215D02*
Y1934626D01*
Y1937215D02*
Y1937848D01*
Y1941343D02*
Y1942233D01*
Y1947249D02*
Y1948139D01*
Y1953154D02*
Y1954044D01*
Y1959060D02*
Y1959950D01*
Y1963561D02*
Y1964239D01*
Y1967178D02*
Y1967429D01*
Y1975387D02*
Y1976046D01*
Y1978862D02*
Y1979130D01*
Y1983548D02*
Y1984517D01*
Y1993556D02*
Y1994174D01*
Y1996102D02*
Y1996602D01*
X1924600Y1880481D02*
Y1880828D01*
Y1882452D02*
Y1883060D01*
Y1884724D02*
Y1885100D01*
Y1888437D02*
Y1889240D01*
Y1922471D02*
Y1922915D01*
Y1925354D02*
Y1925977D01*
Y1928670D02*
Y1929280D01*
Y1931075D02*
Y1931566D01*
Y1934282D02*
Y1934726D01*
Y1937165D02*
Y1937788D01*
Y1940326D02*
Y1942233D01*
Y1946231D02*
Y1948139D01*
Y1952137D02*
Y1954044D01*
Y1958042D02*
Y1959950D01*
Y1963579D02*
Y1964454D01*
Y1967236D02*
Y1967490D01*
Y1975367D02*
Y1976022D01*
Y1978896D02*
Y1979190D01*
Y1983611D02*
Y1984517D01*
Y1993631D02*
Y1994240D01*
Y1996035D02*
Y1996527D01*
X1924700Y1880507D02*
Y1880903D01*
Y1882452D02*
Y1883060D01*
Y1884674D02*
Y1885080D01*
Y1888370D02*
Y1889307D01*
Y1922537D02*
Y1923015D01*
Y1925286D02*
Y1925917D01*
Y1928745D02*
Y1929346D01*
Y1931008D02*
Y1931491D01*
Y1934348D02*
Y1934826D01*
Y1937098D02*
Y1937728D01*
Y1940326D02*
Y1942233D01*
Y1946231D02*
Y1948139D01*
Y1952137D02*
Y1954044D01*
Y1958042D02*
Y1959950D01*
Y1963597D02*
Y1967552D01*
Y1975347D02*
Y1976028D01*
Y1978929D02*
Y1979250D01*
Y1983673D02*
Y1984517D01*
Y1993706D02*
Y1994307D01*
Y1995969D02*
Y1996452D01*
X1924800Y1880534D02*
Y1880978D01*
Y1882452D02*
Y1883060D01*
Y1884624D02*
Y1885060D01*
Y1888304D02*
Y1889374D01*
Y1922604D02*
Y1923115D01*
Y1925153D02*
Y1925857D01*
Y1928820D02*
Y1929413D01*
Y1930941D02*
Y1931416D01*
Y1934415D02*
Y1934926D01*
Y1936964D02*
Y1937668D01*
Y1941487D02*
Y1942233D01*
Y1947393D02*
Y1948139D01*
Y1953298D02*
Y1954044D01*
Y1959204D02*
Y1959950D01*
Y1963614D02*
Y1967613D01*
Y1975327D02*
Y1976062D01*
Y1978935D02*
Y1979310D01*
Y1983735D02*
Y1984517D01*
Y1993781D02*
Y1994374D01*
Y1995902D02*
Y1996377D01*
X1924900Y1880561D02*
Y1881053D01*
Y1882452D02*
Y1883060D01*
Y1884574D02*
Y1885040D01*
Y1888254D02*
Y1889423D01*
Y1922671D02*
Y1923264D01*
Y1925020D02*
Y1925749D01*
Y1928908D02*
Y1929480D01*
Y1930875D02*
Y1931329D01*
Y1934482D02*
Y1935075D01*
Y1936831D02*
Y1937560D01*
Y1941664D02*
Y1942233D01*
Y1947569D02*
Y1948139D01*
Y1953475D02*
Y1954044D01*
Y1959380D02*
Y1959950D01*
Y1963632D02*
Y1967675D01*
Y1975307D02*
Y1976095D01*
Y1978885D02*
Y1979370D01*
Y1983797D02*
Y1984517D01*
Y1993868D02*
Y1994440D01*
Y1995835D02*
Y1996289D01*
X1925000Y1880587D02*
Y1881299D01*
Y1882452D02*
Y1883060D01*
Y1884331D02*
Y1885020D01*
Y1888304D02*
Y1889373D01*
Y1922789D02*
Y1923414D01*
Y1924886D02*
Y1925599D01*
Y1929008D02*
Y1929724D01*
Y1930631D02*
Y1931229D01*
Y1934600D02*
Y1935225D01*
Y1936698D02*
Y1937410D01*
Y1941764D02*
Y1942233D01*
Y1947669D02*
Y1948139D01*
Y1953575D02*
Y1954044D01*
Y1959480D02*
Y1959950D01*
Y1963650D02*
Y1967737D01*
Y1975287D02*
Y1976128D01*
Y1978835D02*
Y1979430D01*
Y1983859D02*
Y1984517D01*
Y1993968D02*
Y1994684D01*
Y1995591D02*
Y1996189D01*
X1925100Y1880614D02*
Y1881651D01*
Y1882452D02*
Y1883060D01*
Y1883979D02*
Y1885000D01*
Y1888354D02*
Y1889323D01*
Y1922989D02*
Y1923749D01*
Y1924507D02*
Y1925449D01*
Y1929108D02*
Y1929970D01*
Y1930331D02*
Y1931129D01*
Y1934800D02*
Y1935560D01*
Y1936318D02*
Y1937260D01*
Y1941864D02*
Y1942233D01*
Y1947769D02*
Y1948139D01*
Y1953675D02*
Y1954044D01*
Y1959580D02*
Y1959950D01*
Y1963667D02*
Y1967745D01*
Y1975094D02*
Y1976269D01*
Y1978750D02*
Y1979576D01*
Y1983922D02*
Y1984517D01*
Y1994068D02*
Y1994931D01*
Y1995291D02*
Y1996089D01*
X1925200Y1880641D02*
Y1884980D01*
Y1888404D02*
Y1889273D01*
Y1923189D02*
Y1925299D01*
Y1929234D02*
Y1931002D01*
Y1935000D02*
Y1937110D01*
Y1941964D02*
Y1942233D01*
Y1947869D02*
Y1948139D01*
Y1953775D02*
Y1954044D01*
Y1959680D02*
Y1959950D01*
Y1963685D02*
Y1967745D01*
Y1974696D02*
Y1976604D01*
Y1978357D02*
Y1979911D01*
Y1983984D02*
Y1984517D01*
Y1994195D02*
Y1995962D01*
X1925300Y1880667D02*
Y1884960D01*
Y1888454D02*
Y1889223D01*
Y1923389D02*
Y1925149D01*
Y1929634D02*
Y1930602D01*
Y1935200D02*
Y1936960D01*
Y1942064D02*
Y1942233D01*
Y1947969D02*
Y1948139D01*
Y1953875D02*
Y1954044D01*
Y1959780D02*
Y1959950D01*
Y1963703D02*
Y1967745D01*
Y1974696D02*
Y1976604D01*
Y1978357D02*
Y1979911D01*
Y1984046D02*
Y1984517D01*
Y1994595D02*
Y1995562D01*
X1925400Y1888814D02*
Y1888957D01*
Y1924059D02*
Y1924389D01*
Y1930034D02*
Y1930202D01*
Y1935870D02*
Y1936200D01*
Y1942164D02*
Y1942233D01*
Y1948069D02*
Y1948139D01*
Y1953975D02*
Y1954044D01*
Y1959880D02*
Y1959950D01*
Y1984108D02*
Y1984517D01*
Y1994995D02*
Y1995162D01*
X1935600Y1892137D02*
Y1894281D01*
Y1941194D02*
Y1942506D01*
X1935700Y1881519D02*
Y1882224D01*
Y1892455D02*
Y1893844D01*
Y1940696D02*
Y1941599D01*
Y1942614D02*
Y1943044D01*
X1935800Y1881061D02*
Y1881948D01*
Y1882146D02*
Y1882697D01*
Y1892719D02*
Y1893580D01*
Y1940396D02*
Y1941153D01*
Y1942814D02*
Y1943344D01*
X1935900Y1880759D02*
Y1881553D01*
Y1882542D02*
Y1882872D01*
Y1892770D02*
Y1893530D01*
Y1940155D02*
Y1940903D01*
Y1943014D02*
Y1943585D01*
X1936000Y1880693D02*
Y1881449D01*
Y1882742D02*
Y1883047D01*
Y1892820D02*
Y1893480D01*
Y1940055D02*
Y1940653D01*
Y1943118D02*
Y1943685D01*
X1936100Y1880626D02*
Y1881349D01*
Y1882942D02*
Y1883222D01*
Y1892845D02*
Y1893454D01*
Y1939955D02*
Y1940522D01*
Y1943218D02*
Y1943785D01*
X1936200Y1880559D02*
Y1881292D01*
Y1883054D02*
Y1883397D01*
Y1892845D02*
Y1893454D01*
Y1939855D02*
Y1940422D01*
Y1943318D02*
Y1943885D01*
X1936300Y1880525D02*
Y1881387D01*
Y1883094D02*
Y1883484D01*
Y1892845D02*
Y1893454D01*
Y1939755D02*
Y1940342D01*
Y1943398D02*
Y1943985D01*
X1936400Y1880492D02*
Y1881407D01*
Y1883134D02*
Y1883550D01*
Y1892845D02*
Y1893454D01*
Y1939711D02*
Y1940317D01*
Y1943423D02*
Y1944021D01*
X1936500Y1880458D02*
Y1881407D01*
Y1883174D02*
Y1883617D01*
Y1892845D02*
Y1893454D01*
Y1939686D02*
Y1940292D01*
Y1943448D02*
Y1944038D01*
X1936600Y1880461D02*
Y1881382D01*
Y1883214D02*
Y1883684D01*
Y1892845D02*
Y1893454D01*
Y1939661D02*
Y1940267D01*
Y1943473D02*
Y1944055D01*
X1936700Y1880486D02*
Y1881349D01*
Y1883254D02*
Y1883750D01*
Y1892845D02*
Y1893454D01*
Y1939636D02*
Y1940242D01*
Y1943498D02*
Y1944071D01*
X1936800Y1880511D02*
Y1881316D01*
Y1883282D02*
Y1883817D01*
Y1892845D02*
Y1893454D01*
Y1939637D02*
Y1940230D01*
Y1943509D02*
Y1944088D01*
X1936900Y1880536D02*
Y1881233D01*
Y1883295D02*
Y1883884D01*
Y1892845D02*
Y1893454D01*
Y1939687D02*
Y1940250D01*
Y1943484D02*
Y1944105D01*
X1937000Y1880686D02*
Y1881083D01*
Y1883307D02*
Y1883900D01*
Y1892845D02*
Y1893454D01*
Y1939735D02*
Y1940270D01*
Y1943459D02*
Y1944121D01*
X1937100Y1883320D02*
Y1883913D01*
Y1892845D02*
Y1893454D01*
Y1939768D02*
Y1940290D01*
Y1943434D02*
Y1944090D01*
X1937200Y1883332D02*
Y1883925D01*
Y1888074D02*
Y1888816D01*
Y1890011D02*
Y1890194D01*
Y1892845D02*
Y1893454D01*
Y1894757D02*
Y1895086D01*
Y1898869D02*
Y1902312D01*
Y1906971D02*
Y1907202D01*
Y1912331D02*
Y1912684D01*
Y1915759D02*
Y1919084D01*
Y1930041D02*
Y1930307D01*
Y1934302D02*
Y1937745D01*
Y1939802D02*
Y1940310D01*
Y1943409D02*
Y1944056D01*
Y1945404D02*
Y1947194D01*
Y1948475D02*
Y1950265D01*
Y1952892D02*
Y1953220D01*
Y1955515D02*
Y1955988D01*
Y1957924D02*
Y1961485D01*
Y1970207D02*
Y1972470D01*
Y1974814D02*
Y1978139D01*
Y1982419D02*
Y1982748D01*
Y1985042D02*
Y1985515D01*
Y1986743D02*
Y1988533D01*
Y1989814D02*
Y1991604D01*
Y1993234D02*
Y1993253D01*
Y1994660D02*
Y1995480D01*
Y1999026D02*
Y2002352D01*
Y2006819D02*
Y2007172D01*
Y2010247D02*
Y2013572D01*
Y2021822D02*
Y2024913D01*
Y2030422D02*
Y2030602D01*
Y2035569D02*
Y2035898D01*
Y2038192D02*
Y2038665D01*
Y2039774D02*
Y2043100D01*
Y2047828D02*
Y2048383D01*
Y2049459D02*
Y2049643D01*
X1937300Y1883345D02*
Y1883938D01*
Y1887598D02*
Y1889016D01*
Y1890011D02*
Y1890687D01*
Y1892845D02*
Y1893454D01*
Y1894105D02*
Y1895737D01*
Y1898869D02*
Y1902312D01*
Y1906496D02*
Y1907668D01*
Y1911586D02*
Y1913342D01*
Y1915759D02*
Y1919084D01*
Y1928014D02*
Y1928163D01*
Y1929691D02*
Y1931057D01*
Y1934302D02*
Y1937745D01*
Y1939835D02*
Y1940330D01*
Y1943353D02*
Y1944023D01*
Y1945404D02*
Y1947194D01*
Y1948475D02*
Y1950265D01*
Y1952318D02*
Y1953973D01*
Y1955067D02*
Y1956088D01*
Y1957924D02*
Y1961485D01*
Y1970207D02*
Y1972470D01*
Y1974814D02*
Y1978139D01*
Y1981845D02*
Y1983501D01*
Y1984595D02*
Y1985615D01*
Y1986743D02*
Y1988533D01*
Y1989814D02*
Y1991604D01*
Y1993227D02*
Y1993553D01*
Y1994353D02*
Y1996147D01*
Y1999026D02*
Y2002352D01*
Y2006074D02*
Y2007831D01*
Y2010247D02*
Y2013572D01*
Y2021822D02*
Y2025666D01*
Y2030022D02*
Y2031002D01*
Y2034995D02*
Y2036651D01*
Y2037744D02*
Y2038765D01*
Y2039774D02*
Y2043100D01*
Y2047180D02*
Y2048583D01*
Y2049459D02*
Y2050136D01*
X1937400Y1883357D02*
Y1883950D01*
Y1887398D02*
Y1889216D01*
Y1890011D02*
Y1891087D01*
Y1892845D02*
Y1893454D01*
Y1893980D02*
Y1894302D01*
Y1895247D02*
Y1895857D01*
Y1900035D02*
Y1901146D01*
Y1906296D02*
Y1907802D01*
Y1911466D02*
Y1913509D01*
Y1916807D02*
Y1917917D01*
Y1927997D02*
Y1928313D01*
Y1929341D02*
Y1929587D01*
Y1930649D02*
Y1931207D01*
Y1935468D02*
Y1936579D01*
Y1939912D02*
Y1940361D01*
Y1943203D02*
Y1943970D01*
Y1945778D02*
Y1946854D01*
Y1948815D02*
Y1949891D01*
Y1952068D02*
Y1952674D01*
Y1953650D02*
Y1954148D01*
Y1955017D02*
Y1956186D01*
Y1959090D02*
Y1960201D01*
Y1970783D02*
Y1971894D01*
Y1975862D02*
Y1976973D01*
Y1981595D02*
Y1982202D01*
Y1983177D02*
Y1983676D01*
Y1984545D02*
Y1985713D01*
Y1987117D02*
Y1988193D01*
Y1990153D02*
Y1991230D01*
Y1993221D02*
Y1993853D01*
Y1993953D02*
Y1994697D01*
Y1995975D02*
Y1996397D01*
Y1999957D02*
Y2001067D01*
Y2005954D02*
Y2007997D01*
Y2011295D02*
Y2012406D01*
Y2022397D02*
Y2023508D01*
Y2025137D02*
Y2025841D01*
Y2029622D02*
Y2030068D01*
Y2031043D02*
Y2031402D01*
Y2034745D02*
Y2035351D01*
Y2036327D02*
Y2036826D01*
Y2037694D02*
Y2038863D01*
Y2040823D02*
Y2041933D01*
Y2047080D02*
Y2048783D01*
Y2049459D02*
Y2050536D01*
X1937500Y1883370D02*
Y1883963D01*
Y1887198D02*
Y1889352D01*
Y1890011D02*
Y1891328D01*
Y1892845D02*
Y1893454D01*
Y1893855D02*
Y1894152D01*
Y1895484D02*
Y1895977D01*
Y1900184D02*
Y1900997D01*
Y1906096D02*
Y1907935D01*
Y1911346D02*
Y1912216D01*
Y1912991D02*
Y1913676D01*
Y1916956D02*
Y1917769D01*
Y1927980D02*
Y1928510D01*
Y1928769D02*
Y1929279D01*
Y1930936D02*
Y1931357D01*
Y1935617D02*
Y1936430D01*
Y1940012D02*
Y1940461D01*
Y1943053D02*
Y1943903D01*
Y1945893D02*
Y1946706D01*
Y1948963D02*
Y1949777D01*
Y1951818D02*
Y1952439D01*
Y1953984D02*
Y1954323D01*
Y1954967D02*
Y1955715D01*
Y1956050D02*
Y1956252D01*
Y1959239D02*
Y1960052D01*
Y1970932D02*
Y1971745D01*
Y1976011D02*
Y1976824D01*
Y1981345D02*
Y1981967D01*
Y1983512D02*
Y1983851D01*
Y1984495D02*
Y1985243D01*
Y1985578D02*
Y1985780D01*
Y1987231D02*
Y1988044D01*
Y1990302D02*
Y1991115D01*
Y1993214D02*
Y1994337D01*
Y1996175D02*
Y1996647D01*
Y2000105D02*
Y2000919D01*
Y2005834D02*
Y2006704D01*
Y2007479D02*
Y2008164D01*
Y2011444D02*
Y2012257D01*
Y2022546D02*
Y2023359D01*
Y2025425D02*
Y2026016D01*
Y2029480D02*
Y2029817D01*
Y2031311D02*
Y2031573D01*
Y2034495D02*
Y2035117D01*
Y2036661D02*
Y2037001D01*
Y2037644D02*
Y2038392D01*
Y2038727D02*
Y2038929D01*
Y2040971D02*
Y2041785D01*
Y2046980D02*
Y2047757D01*
Y2048395D02*
Y2048869D01*
Y2049459D02*
Y2050777D01*
X1937600Y1883382D02*
Y1883975D01*
Y1887132D02*
Y1887978D01*
Y1889108D02*
Y1889486D01*
Y1890011D02*
Y1890979D01*
Y1892845D02*
Y1893454D01*
Y1893730D02*
Y1894002D01*
Y1895584D02*
Y1896097D01*
Y1900234D02*
Y1900947D01*
Y1906030D02*
Y1906778D01*
Y1907486D02*
Y1908068D01*
Y1911226D02*
Y1911847D01*
Y1913343D02*
Y1913842D01*
Y1917006D02*
Y1917719D01*
Y1927964D02*
Y1929113D01*
Y1931070D02*
Y1931507D01*
Y1935667D02*
Y1936380D01*
Y1940154D02*
Y1940561D01*
Y1942438D02*
Y1943836D01*
Y1945943D02*
Y1946656D01*
Y1949013D02*
Y1949727D01*
Y1951705D02*
Y1952289D01*
Y1954144D02*
Y1954498D01*
Y1954917D02*
Y1955558D01*
Y1956100D02*
Y1956319D01*
Y1959289D02*
Y1960002D01*
Y1970982D02*
Y1971695D01*
Y1976061D02*
Y1976774D01*
Y1981233D02*
Y1981817D01*
Y1983672D02*
Y1984026D01*
Y1984445D02*
Y1985085D01*
Y1985628D02*
Y1985846D01*
Y1987281D02*
Y1987994D01*
Y1990352D02*
Y1991065D01*
Y1993207D02*
Y1994137D01*
Y1996332D02*
Y1996760D01*
Y2000155D02*
Y2000869D01*
Y2005714D02*
Y2006335D01*
Y2007831D02*
Y2008331D01*
Y2011494D02*
Y2012207D01*
Y2022596D02*
Y2023309D01*
Y2025558D02*
Y2026191D01*
Y2029360D02*
Y2029692D01*
Y2031411D02*
Y2031723D01*
Y2034382D02*
Y2034967D01*
Y2036821D02*
Y2037176D01*
Y2037594D02*
Y2038235D01*
Y2038777D02*
Y2038996D01*
Y2041021D02*
Y2041735D01*
Y2046880D02*
Y2047434D01*
Y2048675D02*
Y2048952D01*
Y2049459D02*
Y2050357D01*
X1937700Y1883395D02*
Y1883988D01*
Y1887092D02*
Y1887828D01*
Y1889258D02*
Y1889619D01*
Y1890011D02*
Y1890740D01*
Y1892845D02*
Y1893454D01*
Y1893605D02*
Y1893852D01*
Y1895684D02*
Y1896217D01*
Y1900283D02*
Y1900898D01*
Y1905990D02*
Y1906678D01*
Y1907786D02*
Y1908163D01*
Y1911106D02*
Y1911722D01*
Y1913543D02*
Y1913951D01*
Y1917055D02*
Y1917669D01*
Y1927947D02*
Y1928946D01*
Y1931203D02*
Y1931657D01*
Y1935716D02*
Y1936331D01*
Y1940354D02*
Y1940692D01*
Y1941821D02*
Y1943754D01*
Y1945992D02*
Y1946606D01*
Y1949063D02*
Y1949677D01*
Y1951630D02*
Y1952158D01*
Y1954304D02*
Y1954673D01*
Y1954867D02*
Y1955465D01*
Y1956150D02*
Y1956386D01*
Y1959339D02*
Y1959953D01*
Y1971031D02*
Y1971646D01*
Y1976110D02*
Y1976724D01*
Y1981158D02*
Y1981685D01*
Y1983832D02*
Y1984201D01*
Y1984395D02*
Y1984992D01*
Y1985677D02*
Y1985913D01*
Y1987331D02*
Y1987945D01*
Y1990402D02*
Y1991016D01*
Y1993201D02*
Y1993962D01*
Y1996432D02*
Y1996835D01*
Y2000205D02*
Y2000819D01*
Y2005594D02*
Y2006210D01*
Y2008031D02*
Y2008439D01*
Y2011543D02*
Y2012158D01*
Y2022646D02*
Y2023260D01*
Y2025691D02*
Y2026366D01*
Y2029240D02*
Y2029567D01*
Y2031511D02*
Y2031873D01*
Y2034307D02*
Y2034835D01*
Y2036981D02*
Y2037351D01*
Y2037544D02*
Y2038142D01*
Y2038827D02*
Y2039063D01*
Y2041071D02*
Y2041685D01*
Y2046780D02*
Y2047301D01*
Y2048825D02*
Y2049035D01*
Y2049459D02*
Y2050189D01*
X1937800Y1883396D02*
Y1884000D01*
Y1887052D02*
Y1887680D01*
Y1889406D02*
Y1889710D01*
Y1890011D02*
Y1890690D01*
Y1892845D02*
Y1893704D01*
Y1895784D02*
Y1896337D01*
Y1900286D02*
Y1900895D01*
Y1905950D02*
Y1906578D01*
Y1908068D02*
Y1908238D01*
Y1910986D02*
Y1911597D01*
Y1913737D02*
Y1914026D01*
Y1917058D02*
Y1917667D01*
Y1927930D02*
Y1928783D01*
Y1931335D02*
Y1931767D01*
Y1935719D02*
Y1936328D01*
Y1940548D02*
Y1940842D01*
Y1941371D02*
Y1943604D01*
Y1945995D02*
Y1946604D01*
Y1949066D02*
Y1949674D01*
Y1951555D02*
Y1952124D01*
Y1954464D02*
Y1955462D01*
Y1956170D02*
Y1956407D01*
Y1959341D02*
Y1959950D01*
Y1971034D02*
Y1971643D01*
Y1976113D02*
Y1976722D01*
Y1981083D02*
Y1981652D01*
Y1983992D02*
Y1984989D01*
Y1985698D02*
Y1985934D01*
Y1987333D02*
Y1987942D01*
Y1990404D02*
Y1991013D01*
Y1993194D02*
Y1993862D01*
Y1996532D02*
Y1996910D01*
Y2000207D02*
Y2000816D01*
Y2005474D02*
Y2006085D01*
Y2008225D02*
Y2008514D01*
Y2011546D02*
Y2012155D01*
Y2022648D02*
Y2023257D01*
Y2025823D02*
Y2026499D01*
Y2029120D02*
Y2029442D01*
Y2031611D02*
Y2032023D01*
Y2034232D02*
Y2034801D01*
Y2037141D02*
Y2038139D01*
Y2038847D02*
Y2039084D01*
Y2041074D02*
Y2041682D01*
Y2046680D02*
Y2047168D01*
Y2048973D02*
Y2049119D01*
Y2049459D02*
Y2050156D01*
X1937900Y1883396D02*
Y1884005D01*
Y1887012D02*
Y1887642D01*
Y1889506D02*
Y1889760D01*
Y1890011D02*
Y1890640D01*
Y1892845D02*
Y1893652D01*
Y1895884D02*
Y1896436D01*
Y1900286D02*
Y1900895D01*
Y1905910D02*
Y1906540D01*
Y1908135D02*
Y1908313D01*
Y1910881D02*
Y1911472D01*
Y1913837D02*
Y1914101D01*
Y1917058D02*
Y1917667D01*
Y1927914D02*
Y1928703D01*
Y1931379D02*
Y1931834D01*
Y1935719D02*
Y1936328D01*
Y1940508D02*
Y1943454D01*
Y1945995D02*
Y1946604D01*
Y1949066D02*
Y1949674D01*
Y1951480D02*
Y1952091D01*
Y1954624D02*
Y1955462D01*
Y1956190D02*
Y1956407D01*
Y1959341D02*
Y1959950D01*
Y1971034D02*
Y1971643D01*
Y1976113D02*
Y1976722D01*
Y1981008D02*
Y1981618D01*
Y1984152D02*
Y1984989D01*
Y1985718D02*
Y1985934D01*
Y1987333D02*
Y1987942D01*
Y1990404D02*
Y1991013D01*
Y1993187D02*
Y1993762D01*
Y1996564D02*
Y1996985D01*
Y2000207D02*
Y2000816D01*
Y2005369D02*
Y2005960D01*
Y2008325D02*
Y2008589D01*
Y2011546D02*
Y2012155D01*
Y2022648D02*
Y2023257D01*
Y2025885D02*
Y2026579D01*
Y2029000D02*
Y2029317D01*
Y2031711D02*
Y2032147D01*
Y2034157D02*
Y2034768D01*
Y2037301D02*
Y2038139D01*
Y2038867D02*
Y2039084D01*
Y2041074D02*
Y2041682D01*
Y2046591D02*
Y2047034D01*
Y2049041D02*
Y2049202D01*
Y2049459D02*
Y2050122D01*
X1938000Y1883396D02*
Y1884005D01*
Y1886972D02*
Y1887609D01*
Y1889606D02*
Y1889810D01*
Y1890011D02*
Y1890619D01*
Y1892845D02*
Y1893602D01*
Y1895946D02*
Y1896494D01*
Y1900286D02*
Y1900895D01*
Y1905870D02*
Y1906506D01*
Y1908202D02*
Y1908388D01*
Y1910809D02*
Y1911347D01*
Y1913937D02*
Y1914176D01*
Y1917058D02*
Y1917667D01*
Y1927897D02*
Y1928623D01*
Y1931419D02*
Y1931901D01*
Y1935719D02*
Y1936328D01*
Y1940375D02*
Y1943212D01*
Y1945995D02*
Y1946604D01*
Y1949066D02*
Y1949674D01*
Y1951418D02*
Y1952058D01*
Y1954784D02*
Y1955462D01*
Y1956210D02*
Y1956407D01*
Y1959341D02*
Y1959950D01*
Y1971034D02*
Y1971643D01*
Y1976113D02*
Y1976722D01*
Y1980945D02*
Y1981585D01*
Y1984312D02*
Y1984989D01*
Y1985738D02*
Y1985934D01*
Y1987333D02*
Y1987942D01*
Y1990404D02*
Y1991013D01*
Y1993181D02*
Y1993662D01*
Y1996589D02*
Y1997045D01*
Y2000207D02*
Y2000816D01*
Y2005298D02*
Y2005835D01*
Y2008425D02*
Y2008664D01*
Y2011546D02*
Y2012155D01*
Y2022648D02*
Y2023257D01*
Y2025945D02*
Y2026659D01*
Y2028886D02*
Y2029251D01*
Y2031768D02*
Y2032210D01*
Y2034095D02*
Y2034735D01*
Y2037461D02*
Y2038139D01*
Y2038887D02*
Y2039084D01*
Y2041074D02*
Y2041682D01*
Y2046525D02*
Y2046979D01*
Y2049107D02*
Y2049285D01*
Y2049459D02*
Y2050089D01*
X1938100Y1883396D02*
Y1884005D01*
Y1886936D02*
Y1887575D01*
Y1889706D02*
Y1889860D01*
Y1890011D02*
Y1890619D01*
Y1892845D02*
Y1893552D01*
Y1895996D02*
Y1896551D01*
Y1900286D02*
Y1900895D01*
Y1905833D02*
Y1906473D01*
Y1908268D02*
Y1908459D01*
Y1910738D02*
Y1911268D01*
Y1914037D02*
Y1914249D01*
Y1917058D02*
Y1917667D01*
Y1927880D02*
Y1928543D01*
Y1931459D02*
Y1931967D01*
Y1935719D02*
Y1936328D01*
Y1940241D02*
Y1942962D01*
Y1945995D02*
Y1946604D01*
Y1949066D02*
Y1949674D01*
Y1951393D02*
Y1952028D01*
Y1954853D02*
Y1955462D01*
Y1956230D02*
Y1956407D01*
Y1959341D02*
Y1959950D01*
Y1971034D02*
Y1971643D01*
Y1976113D02*
Y1976722D01*
Y1980920D02*
Y1981555D01*
Y1984381D02*
Y1984989D01*
Y1985758D02*
Y1985934D01*
Y1987333D02*
Y1987942D01*
Y1990404D02*
Y1991013D01*
Y1993174D02*
Y1993562D01*
Y1996614D02*
Y1997065D01*
Y2000207D02*
Y2000816D01*
Y2005226D02*
Y2005756D01*
Y2008525D02*
Y2008737D01*
Y2011546D02*
Y2012155D01*
Y2022648D02*
Y2023257D01*
Y2026005D02*
Y2026739D01*
Y2028815D02*
Y2029201D01*
Y2031810D02*
Y2032272D01*
Y2034070D02*
Y2034705D01*
Y2037530D02*
Y2038139D01*
Y2038907D02*
Y2039084D01*
Y2041074D02*
Y2041682D01*
Y2046458D02*
Y2046945D01*
Y2049174D02*
Y2049369D01*
Y2049450D02*
Y2050068D01*
X1938200Y1883396D02*
Y1884005D01*
Y1886922D02*
Y1887545D01*
Y1889783D02*
Y1889910D01*
Y1890009D02*
Y1890619D01*
Y1892845D02*
Y1893502D01*
Y1896046D02*
Y1896608D01*
Y1900286D02*
Y1900895D01*
Y1905817D02*
Y1906442D01*
Y1908321D02*
Y1908479D01*
Y1910667D02*
Y1911218D01*
Y1914117D02*
Y1914289D01*
Y1917058D02*
Y1917667D01*
Y1927864D02*
Y1928463D01*
Y1931499D02*
Y1932034D01*
Y1935719D02*
Y1936328D01*
Y1940108D02*
Y1942383D01*
Y1945995D02*
Y1946604D01*
Y1949066D02*
Y1949674D01*
Y1951368D02*
Y1952003D01*
Y1954853D02*
Y1955462D01*
Y1956250D02*
Y1956407D01*
Y1959341D02*
Y1959950D01*
Y1971034D02*
Y1971643D01*
Y1976113D02*
Y1976722D01*
Y1980895D02*
Y1981530D01*
Y1984381D02*
Y1984989D01*
Y1985778D02*
Y1985934D01*
Y1987333D02*
Y1987942D01*
Y1990404D02*
Y1991013D01*
Y1993167D02*
Y1993487D01*
Y1996639D02*
Y1997085D01*
Y2000207D02*
Y2000816D01*
Y2005155D02*
Y2005706D01*
Y2008605D02*
Y2008777D01*
Y2011546D02*
Y2012155D01*
Y2022648D02*
Y2023257D01*
Y2026065D02*
Y2026819D01*
Y2028743D02*
Y2029151D01*
Y2031853D02*
Y2032335D01*
Y2034045D02*
Y2034680D01*
Y2037530D02*
Y2038139D01*
Y2038927D02*
Y2039084D01*
Y2041074D02*
Y2041682D01*
Y2046391D02*
Y2046912D01*
Y2049231D02*
Y2050068D01*
X1938300Y1883396D02*
Y1884005D01*
Y1886908D02*
Y1887525D01*
Y1889823D02*
Y1890619D01*
Y1892845D02*
Y1893454D01*
Y1896096D02*
Y1896665D01*
Y1900286D02*
Y1900895D01*
Y1905800D02*
Y1906417D01*
Y1908341D02*
Y1908499D01*
Y1910595D02*
Y1911168D01*
Y1914167D02*
Y1914329D01*
Y1917058D02*
Y1917667D01*
Y1927847D02*
Y1928383D01*
Y1931539D02*
Y1932101D01*
Y1935719D02*
Y1936328D01*
Y1940055D02*
Y1941540D01*
Y1945995D02*
Y1946604D01*
Y1949066D02*
Y1949674D01*
Y1951343D02*
Y1951978D01*
Y1954853D02*
Y1955462D01*
Y1959341D02*
Y1959950D01*
Y1971034D02*
Y1971643D01*
Y1976113D02*
Y1976722D01*
Y1980870D02*
Y1981505D01*
Y1984381D02*
Y1984989D01*
Y1987333D02*
Y1987942D01*
Y1990404D02*
Y1991013D01*
Y1993161D02*
Y1993454D01*
Y1996664D02*
Y1997105D01*
Y2000207D02*
Y2000816D01*
Y2005083D02*
Y2005656D01*
Y2008655D02*
Y2008817D01*
Y2011546D02*
Y2012155D01*
Y2022648D02*
Y2023257D01*
Y2026125D02*
Y2026899D01*
Y2028672D02*
Y2029101D01*
Y2031896D02*
Y2032397D01*
Y2034020D02*
Y2034655D01*
Y2037530D02*
Y2038139D01*
Y2041074D02*
Y2041682D01*
Y2046325D02*
Y2046879D01*
Y2049271D02*
Y2050068D01*
X1938400Y1883396D02*
Y1884005D01*
Y1886893D02*
Y1887505D01*
Y1889863D02*
Y1890619D01*
Y1892845D02*
Y1893454D01*
Y1896146D02*
Y1896722D01*
Y1900286D02*
Y1900895D01*
Y1905783D02*
Y1906392D01*
Y1908361D02*
Y1908519D01*
Y1910524D02*
Y1911118D01*
Y1914217D02*
Y1914369D01*
Y1917058D02*
Y1917667D01*
Y1927830D02*
Y1928303D01*
Y1931579D02*
Y1932167D01*
Y1935719D02*
Y1936328D01*
Y1940022D02*
Y1940805D01*
Y1945995D02*
Y1946604D01*
Y1949066D02*
Y1949674D01*
Y1951318D02*
Y1951953D01*
Y1954853D02*
Y1955462D01*
Y1959341D02*
Y1959950D01*
Y1971034D02*
Y1971643D01*
Y1976113D02*
Y1976722D01*
Y1980845D02*
Y1981480D01*
Y1984381D02*
Y1984989D01*
Y1987333D02*
Y1987942D01*
Y1990404D02*
Y1991013D01*
Y1993154D02*
Y1993420D01*
Y1996624D02*
Y1997125D01*
Y2000207D02*
Y2000816D01*
Y2005012D02*
Y2005606D01*
Y2008705D02*
Y2008857D01*
Y2011546D02*
Y2012155D01*
Y2022648D02*
Y2023257D01*
Y2026185D02*
Y2026931D01*
Y2028600D02*
Y2029051D01*
Y2031939D02*
Y2032460D01*
Y2033995D02*
Y2034630D01*
Y2037530D02*
Y2038139D01*
Y2041074D02*
Y2041682D01*
Y2046258D02*
Y2046845D01*
Y2049311D02*
Y2050068D01*
X1938500Y1883396D02*
Y1884005D01*
Y1886879D02*
Y1887485D01*
Y1889903D02*
Y1890619D01*
Y1892845D02*
Y1893454D01*
Y1896196D02*
Y1896779D01*
Y1900286D02*
Y1900895D01*
Y1905767D02*
Y1906367D01*
Y1908381D02*
Y1908539D01*
Y1910452D02*
Y1911068D01*
Y1914267D02*
Y1914409D01*
Y1917058D02*
Y1917667D01*
Y1927814D02*
Y1928253D01*
Y1931597D02*
Y1932204D01*
Y1935719D02*
Y1936328D01*
Y1939988D02*
Y1940605D01*
Y1945995D02*
Y1946604D01*
Y1949066D02*
Y1949674D01*
Y1951337D02*
Y1951928D01*
Y1954853D02*
Y1955462D01*
Y1959341D02*
Y1959950D01*
Y1971034D02*
Y1971643D01*
Y1976113D02*
Y1976722D01*
Y1980865D02*
Y1981455D01*
Y1984381D02*
Y1984989D01*
Y1987333D02*
Y1987942D01*
Y1990404D02*
Y1991013D01*
Y1993147D02*
Y1993387D01*
Y1996574D02*
Y1997145D01*
Y2000207D02*
Y2000816D01*
Y2004941D02*
Y2005556D01*
Y2008755D02*
Y2008897D01*
Y2011546D02*
Y2012155D01*
Y2022648D02*
Y2023257D01*
Y2026203D02*
Y2026946D01*
Y2028529D02*
Y2029001D01*
Y2031982D02*
Y2032522D01*
Y2034015D02*
Y2034605D01*
Y2037530D02*
Y2038139D01*
Y2041074D02*
Y2041682D01*
Y2046191D02*
Y2046812D01*
Y2049351D02*
Y2050068D01*
X1938600Y1883396D02*
Y1884005D01*
Y1886865D02*
Y1887465D01*
Y1889943D02*
Y1890619D01*
Y1892845D02*
Y1893454D01*
Y1896246D02*
Y1896836D01*
Y1900286D02*
Y1900895D01*
Y1905750D02*
Y1906342D01*
Y1908401D02*
Y1908559D01*
Y1910381D02*
Y1911018D01*
Y1914317D02*
Y1914449D01*
Y1917058D02*
Y1917667D01*
Y1927797D02*
Y1928203D01*
Y1931611D02*
Y1932219D01*
Y1935719D02*
Y1936328D01*
Y1940006D02*
Y1940546D01*
Y1945995D02*
Y1946604D01*
Y1949066D02*
Y1949674D01*
Y1951371D02*
Y1951929D01*
Y1954853D02*
Y1955462D01*
Y1959341D02*
Y1959950D01*
Y1971034D02*
Y1971643D01*
Y1976113D02*
Y1976722D01*
Y1980898D02*
Y1981456D01*
Y1984381D02*
Y1984989D01*
Y1987333D02*
Y1987942D01*
Y1990404D02*
Y1991013D01*
Y1993141D02*
Y1993354D01*
Y1996524D02*
Y1997155D01*
Y2000207D02*
Y2000816D01*
Y2004869D02*
Y2005506D01*
Y2008805D02*
Y2008937D01*
Y2011546D02*
Y2012155D01*
Y2022648D02*
Y2023257D01*
Y2026217D02*
Y2026960D01*
Y2028457D02*
Y2028951D01*
Y2032025D02*
Y2032585D01*
Y2034048D02*
Y2034606D01*
Y2037530D02*
Y2038139D01*
Y2041074D02*
Y2041682D01*
Y2046147D02*
Y2046779D01*
Y2049391D02*
Y2050068D01*
X1938700Y1883396D02*
Y1884005D01*
Y1886850D02*
Y1887445D01*
Y1889983D02*
Y1890619D01*
Y1892845D02*
Y1893454D01*
Y1896275D02*
Y1896883D01*
Y1900286D02*
Y1900895D01*
Y1905733D02*
Y1906328D01*
Y1908421D02*
Y1908433D01*
Y1910322D02*
Y1910968D01*
Y1917058D02*
Y1917667D01*
Y1927780D02*
Y1928153D01*
Y1931625D02*
Y1932233D01*
Y1935719D02*
Y1936328D01*
Y1940056D02*
Y1940496D01*
Y1945995D02*
Y1946604D01*
Y1949066D02*
Y1949674D01*
Y1951404D02*
Y1951949D01*
Y1954853D02*
Y1955462D01*
Y1959341D02*
Y1959950D01*
Y1971034D02*
Y1971643D01*
Y1976113D02*
Y1976722D01*
Y1980932D02*
Y1981476D01*
Y1984381D02*
Y1984989D01*
Y1987333D02*
Y1987942D01*
Y1990404D02*
Y1991013D01*
Y1993134D02*
Y1993320D01*
Y1996474D02*
Y1997155D01*
Y2000207D02*
Y2000816D01*
Y2004810D02*
Y2005456D01*
Y2011546D02*
Y2012155D01*
Y2022648D02*
Y2023257D01*
Y2026231D02*
Y2026974D01*
Y2028386D02*
Y2028922D01*
Y2032068D02*
Y2032647D01*
Y2034081D02*
Y2034626D01*
Y2037530D02*
Y2038139D01*
Y2041074D02*
Y2041682D01*
Y2046137D02*
Y2046756D01*
Y2049431D02*
Y2050068D01*
X1938800Y1883396D02*
Y1884005D01*
Y1886836D02*
Y1887430D01*
Y1890011D02*
Y1890619D01*
Y1892845D02*
Y1893454D01*
Y1896286D02*
Y1896894D01*
Y1900286D02*
Y1900895D01*
Y1905719D02*
Y1906328D01*
Y1910310D02*
Y1910932D01*
Y1917058D02*
Y1917667D01*
Y1927764D02*
Y1928103D01*
Y1931639D02*
Y1932247D01*
Y1935719D02*
Y1936328D01*
Y1940106D02*
Y1940466D01*
Y1945995D02*
Y1946604D01*
Y1949066D02*
Y1949674D01*
Y1951437D02*
Y1951969D01*
Y1954853D02*
Y1955462D01*
Y1959341D02*
Y1959950D01*
Y1971034D02*
Y1971643D01*
Y1976113D02*
Y1976722D01*
Y1980965D02*
Y1981496D01*
Y1984381D02*
Y1984989D01*
Y1987333D02*
Y1987942D01*
Y1990404D02*
Y1991013D01*
Y1993127D02*
Y1993287D01*
Y1996424D02*
Y1997155D01*
Y2000207D02*
Y2000816D01*
Y2004799D02*
Y2005420D01*
Y2011546D02*
Y2012155D01*
Y2022648D02*
Y2023257D01*
Y2026246D02*
Y2026988D01*
Y2028316D02*
Y2028911D01*
Y2032100D02*
Y2032708D01*
Y2034115D02*
Y2034646D01*
Y2037530D02*
Y2038139D01*
Y2041074D02*
Y2041682D01*
Y2046127D02*
Y2046743D01*
Y2049459D02*
Y2050068D01*
X1938900Y1883396D02*
Y1884005D01*
Y1886822D02*
Y1887430D01*
Y1890011D02*
Y1890619D01*
Y1892845D02*
Y1893454D01*
Y1896297D02*
Y1896905D01*
Y1900286D02*
Y1900895D01*
Y1905719D02*
Y1906328D01*
Y1910299D02*
Y1910921D01*
Y1917058D02*
Y1917667D01*
Y1927747D02*
Y1928053D01*
Y1931654D02*
Y1932261D01*
Y1935719D02*
Y1936328D01*
Y1940156D02*
Y1940516D01*
Y1945995D02*
Y1946604D01*
Y1949066D02*
Y1949674D01*
Y1951471D02*
Y1951989D01*
Y1954853D02*
Y1955462D01*
Y1959341D02*
Y1959950D01*
Y1971034D02*
Y1971643D01*
Y1976113D02*
Y1976722D01*
Y1980998D02*
Y1981516D01*
Y1984381D02*
Y1984989D01*
Y1987333D02*
Y1987942D01*
Y1990404D02*
Y1991013D01*
Y1996328D02*
Y1997143D01*
Y2000207D02*
Y2000816D01*
Y2004788D02*
Y2005409D01*
Y2011546D02*
Y2012155D01*
Y2022648D02*
Y2023257D01*
Y2026260D02*
Y2027003D01*
Y2028303D02*
Y2028900D01*
Y2032113D02*
Y2032721D01*
Y2034148D02*
Y2034666D01*
Y2037530D02*
Y2038139D01*
Y2041074D02*
Y2041682D01*
Y2046117D02*
Y2046731D01*
Y2049459D02*
Y2050068D01*
X1939000Y1883396D02*
Y1884005D01*
Y1886822D02*
Y1887430D01*
Y1890011D02*
Y1890619D01*
Y1892845D02*
Y1893454D01*
Y1896308D02*
Y1896916D01*
Y1900286D02*
Y1900895D01*
Y1905719D02*
Y1906328D01*
Y1910288D02*
Y1910909D01*
Y1917058D02*
Y1917667D01*
Y1927730D02*
Y1928003D01*
Y1931668D02*
Y1932276D01*
Y1935719D02*
Y1936328D01*
Y1940220D02*
Y1940566D01*
Y1945995D02*
Y1946604D01*
Y1949066D02*
Y1949674D01*
Y1951504D02*
Y1952009D01*
Y1954853D02*
Y1955462D01*
Y1959341D02*
Y1959950D01*
Y1971034D02*
Y1971643D01*
Y1976113D02*
Y1976722D01*
Y1981032D02*
Y1981536D01*
Y1984381D02*
Y1984989D01*
Y1987333D02*
Y1987942D01*
Y1990404D02*
Y1991013D01*
Y1996228D02*
Y1997076D01*
Y2000207D02*
Y2000816D01*
Y2004776D02*
Y2005398D01*
Y2011546D02*
Y2012155D01*
Y2022648D02*
Y2023257D01*
Y2026274D02*
Y2027017D01*
Y2028291D02*
Y2028888D01*
Y2032125D02*
Y2032733D01*
Y2034181D02*
Y2034686D01*
Y2037530D02*
Y2038139D01*
Y2041074D02*
Y2041682D01*
Y2046107D02*
Y2046718D01*
Y2049459D02*
Y2050068D01*
X1939100Y1883396D02*
Y1884005D01*
Y1886822D02*
Y1887430D01*
Y1890011D02*
Y1890619D01*
Y1892845D02*
Y1893454D01*
Y1896320D02*
Y1896928D01*
Y1900286D02*
Y1900895D01*
Y1905719D02*
Y1906328D01*
Y1910277D02*
Y1910898D01*
Y1917058D02*
Y1917667D01*
Y1927714D02*
Y1927953D01*
Y1931682D02*
Y1932290D01*
Y1935719D02*
Y1936328D01*
Y1940353D02*
Y1940643D01*
Y1941184D02*
Y1941964D01*
Y1945995D02*
Y1946604D01*
Y1949066D02*
Y1949674D01*
Y1951537D02*
Y1952029D01*
Y1954853D02*
Y1955462D01*
Y1959341D02*
Y1959950D01*
Y1971034D02*
Y1971643D01*
Y1976113D02*
Y1976722D01*
Y1981065D02*
Y1981556D01*
Y1984381D02*
Y1984989D01*
Y1987333D02*
Y1987942D01*
Y1990404D02*
Y1991013D01*
Y1996128D02*
Y1997010D01*
Y2000207D02*
Y2000816D01*
Y2004765D02*
Y2005387D01*
Y2011546D02*
Y2012155D01*
Y2022648D02*
Y2023257D01*
Y2026289D02*
Y2027031D01*
Y2028278D02*
Y2028877D01*
Y2032138D02*
Y2032746D01*
Y2034215D02*
Y2034706D01*
Y2037530D02*
Y2038139D01*
Y2041074D02*
Y2041682D01*
Y2046097D02*
Y2046706D01*
Y2049459D02*
Y2050068D01*
X1939200Y1883396D02*
Y1884005D01*
Y1886822D02*
Y1887430D01*
Y1890011D02*
Y1890619D01*
Y1892845D02*
Y1893454D01*
Y1896331D02*
Y1896939D01*
Y1900286D02*
Y1900895D01*
Y1905719D02*
Y1906328D01*
Y1910266D02*
Y1910887D01*
Y1917058D02*
Y1917667D01*
Y1927697D02*
Y1927903D01*
Y1931697D02*
Y1932304D01*
Y1935719D02*
Y1936328D01*
Y1940486D02*
Y1940743D01*
Y1941034D02*
Y1942643D01*
Y1945995D02*
Y1946604D01*
Y1949066D02*
Y1949674D01*
Y1951613D02*
Y1952082D01*
Y1954853D02*
Y1955462D01*
Y1959341D02*
Y1959950D01*
Y1971034D02*
Y1971643D01*
Y1976113D02*
Y1976722D01*
Y1981141D02*
Y1981610D01*
Y1984381D02*
Y1984989D01*
Y1987333D02*
Y1987942D01*
Y1990404D02*
Y1991013D01*
Y1996003D02*
Y1996943D01*
Y2000207D02*
Y2000816D01*
Y2004754D02*
Y2005375D01*
Y2011546D02*
Y2012155D01*
Y2022648D02*
Y2023257D01*
Y2026303D02*
Y2027025D01*
Y2028266D02*
Y2028866D01*
Y2032150D02*
Y2032758D01*
Y2034290D02*
Y2034759D01*
Y2037530D02*
Y2038139D01*
Y2041074D02*
Y2041682D01*
Y2046087D02*
Y2046693D01*
Y2049459D02*
Y2050068D01*
X1939300Y1883396D02*
Y1884005D01*
Y1886822D02*
Y1887430D01*
Y1890011D02*
Y1890619D01*
Y1892845D02*
Y1893454D01*
Y1896342D02*
Y1896950D01*
Y1900286D02*
Y1900895D01*
Y1905719D02*
Y1906328D01*
Y1910255D02*
Y1910876D01*
Y1917058D02*
Y1917667D01*
Y1927846D02*
Y1927853D01*
Y1931693D02*
Y1932304D01*
Y1935719D02*
Y1936328D01*
Y1940620D02*
Y1940852D01*
Y1940880D02*
Y1941413D01*
Y1942209D02*
Y1942776D01*
Y1945995D02*
Y1946604D01*
Y1949066D02*
Y1949674D01*
Y1951693D02*
Y1952182D01*
Y1954853D02*
Y1955462D01*
Y1959341D02*
Y1959950D01*
Y1971034D02*
Y1971643D01*
Y1976113D02*
Y1976722D01*
Y1981221D02*
Y1981710D01*
Y1984381D02*
Y1984989D01*
Y1987333D02*
Y1987942D01*
Y1990404D02*
Y1991013D01*
Y1995803D02*
Y1996828D01*
Y2000207D02*
Y2000816D01*
Y2004743D02*
Y2005364D01*
Y2011546D02*
Y2012155D01*
Y2022648D02*
Y2023257D01*
Y2026303D02*
Y2027008D01*
Y2028253D02*
Y2028855D01*
Y2032163D02*
Y2032771D01*
Y2034370D02*
Y2034859D01*
Y2037530D02*
Y2038139D01*
Y2041074D02*
Y2041682D01*
Y2046077D02*
Y2046681D01*
Y2049459D02*
Y2050068D01*
X1939400Y1883396D02*
Y1884005D01*
Y1886822D02*
Y1887430D01*
Y1890011D02*
Y1890619D01*
Y1892845D02*
Y1893454D01*
Y1896353D02*
Y1896961D01*
Y1900286D02*
Y1900895D01*
Y1905719D02*
Y1906328D01*
Y1910244D02*
Y1910865D01*
Y1917058D02*
Y1917667D01*
Y1931668D02*
Y1932287D01*
Y1935719D02*
Y1936328D01*
Y1940670D02*
Y1941204D01*
Y1942418D02*
Y1942909D01*
Y1945995D02*
Y1946604D01*
Y1949066D02*
Y1949674D01*
Y1951773D02*
Y1952282D01*
Y1954853D02*
Y1955462D01*
Y1959341D02*
Y1959950D01*
Y1971034D02*
Y1971643D01*
Y1976113D02*
Y1976722D01*
Y1981301D02*
Y1981810D01*
Y1984381D02*
Y1984989D01*
Y1987333D02*
Y1987942D01*
Y1990404D02*
Y1991013D01*
Y1995603D02*
Y1996703D01*
Y2000207D02*
Y2000816D01*
Y2004732D02*
Y2005353D01*
Y2011546D02*
Y2012155D01*
Y2022648D02*
Y2023257D01*
Y2026289D02*
Y2026992D01*
Y2028241D02*
Y2028844D01*
Y2032175D02*
Y2032783D01*
Y2034450D02*
Y2034959D01*
Y2037530D02*
Y2038139D01*
Y2041074D02*
Y2041682D01*
Y2046067D02*
Y2046668D01*
Y2049459D02*
Y2050068D01*
X1939500Y1883396D02*
Y1884005D01*
Y1886822D02*
Y1887430D01*
Y1890011D02*
Y1890619D01*
Y1892845D02*
Y1893454D01*
Y1896364D02*
Y1896972D01*
Y1900286D02*
Y1900895D01*
Y1905719D02*
Y1906328D01*
Y1910233D02*
Y1910854D01*
Y1917058D02*
Y1917667D01*
Y1931643D02*
Y1932270D01*
Y1935719D02*
Y1936328D01*
Y1940590D02*
Y1941054D01*
Y1942568D02*
Y1943043D01*
Y1945995D02*
Y1946604D01*
Y1949066D02*
Y1949674D01*
Y1951853D02*
Y1952382D01*
Y1954853D02*
Y1955462D01*
Y1959341D02*
Y1959950D01*
Y1971034D02*
Y1971643D01*
Y1976113D02*
Y1976722D01*
Y1981381D02*
Y1981910D01*
Y1984381D02*
Y1984989D01*
Y1987333D02*
Y1987942D01*
Y1990404D02*
Y1991013D01*
Y1995403D02*
Y1996578D01*
Y2000207D02*
Y2000816D01*
Y2004721D02*
Y2005342D01*
Y2011546D02*
Y2012155D01*
Y2022648D02*
Y2023257D01*
Y2026275D02*
Y2026975D01*
Y2028228D02*
Y2028833D01*
Y2032188D02*
Y2032796D01*
Y2034530D02*
Y2035059D01*
Y2037530D02*
Y2038139D01*
Y2041074D02*
Y2041682D01*
Y2046057D02*
Y2046656D01*
Y2049459D02*
Y2050068D01*
X1939600Y1883396D02*
Y1884005D01*
Y1886822D02*
Y1887430D01*
Y1890011D02*
Y1890619D01*
Y1892845D02*
Y1893454D01*
Y1896375D02*
Y1896983D01*
Y1900286D02*
Y1900895D01*
Y1905719D02*
Y1906328D01*
Y1910222D02*
Y1910843D01*
Y1917058D02*
Y1917667D01*
Y1931618D02*
Y1932254D01*
Y1935719D02*
Y1936328D01*
Y1940510D02*
Y1940932D01*
Y1942688D02*
Y1943119D01*
Y1945995D02*
Y1946604D01*
Y1949066D02*
Y1949674D01*
Y1951933D02*
Y1952482D01*
Y1954853D02*
Y1955462D01*
Y1959341D02*
Y1959950D01*
Y1971034D02*
Y1971643D01*
Y1976113D02*
Y1976722D01*
Y1981461D02*
Y1982010D01*
Y1984381D02*
Y1984989D01*
Y1987333D02*
Y1987942D01*
Y1990404D02*
Y1991013D01*
Y1995203D02*
Y1996453D01*
Y2000207D02*
Y2000816D01*
Y2004710D02*
Y2005331D01*
Y2011546D02*
Y2012155D01*
Y2022648D02*
Y2023257D01*
Y2026261D02*
Y2026958D01*
Y2028216D02*
Y2028822D01*
Y2032200D02*
Y2032808D01*
Y2034610D02*
Y2035159D01*
Y2037530D02*
Y2038139D01*
Y2041074D02*
Y2041682D01*
Y2046047D02*
Y2046643D01*
Y2049459D02*
Y2050068D01*
X1939700Y1883396D02*
Y1884005D01*
Y1886822D02*
Y1887430D01*
Y1890011D02*
Y1890619D01*
Y1892845D02*
Y1893454D01*
Y1896386D02*
Y1896994D01*
Y1900286D02*
Y1900895D01*
Y1905719D02*
Y1906328D01*
Y1910210D02*
Y1910832D01*
Y1917058D02*
Y1917667D01*
Y1931593D02*
Y1932237D01*
Y1935719D02*
Y1936328D01*
Y1940430D02*
Y1940882D01*
Y1942722D02*
Y1943179D01*
Y1945995D02*
Y1946604D01*
Y1949066D02*
Y1949674D01*
Y1952031D02*
Y1952609D01*
Y1954853D02*
Y1955462D01*
Y1959341D02*
Y1959950D01*
Y1971034D02*
Y1971643D01*
Y1976113D02*
Y1976722D01*
Y1981559D02*
Y1982137D01*
Y1984381D02*
Y1984989D01*
Y1987333D02*
Y1987942D01*
Y1990404D02*
Y1991013D01*
Y1994971D02*
Y1996301D01*
Y2000207D02*
Y2000816D01*
Y2004699D02*
Y2005320D01*
Y2011546D02*
Y2012155D01*
Y2022648D02*
Y2023257D01*
Y2026246D02*
Y2026942D01*
Y2028203D02*
Y2028811D01*
Y2032213D02*
Y2032821D01*
Y2034709D02*
Y2035287D01*
Y2037530D02*
Y2038139D01*
Y2041074D02*
Y2041682D01*
Y2046037D02*
Y2046654D01*
Y2049459D02*
Y2050068D01*
X1939800Y1883396D02*
Y1884005D01*
Y1886822D02*
Y1887430D01*
Y1890011D02*
Y1890619D01*
Y1892845D02*
Y1893454D01*
Y1896380D02*
Y1896989D01*
Y1900286D02*
Y1900895D01*
Y1905719D02*
Y1906328D01*
Y1910216D02*
Y1910821D01*
Y1917058D02*
Y1917667D01*
Y1931541D02*
Y1932220D01*
Y1935719D02*
Y1936328D01*
Y1940350D02*
Y1940832D01*
Y1942755D02*
Y1943239D01*
Y1945995D02*
Y1946604D01*
Y1949066D02*
Y1949674D01*
Y1952231D02*
Y1952759D01*
Y1954853D02*
Y1955462D01*
Y1959341D02*
Y1959950D01*
Y1971034D02*
Y1971643D01*
Y1976113D02*
Y1976722D01*
Y1981759D02*
Y1982287D01*
Y1984381D02*
Y1984989D01*
Y1987333D02*
Y1987942D01*
Y1990404D02*
Y1991013D01*
Y1994705D02*
Y1996034D01*
Y2000207D02*
Y2000816D01*
Y2004704D02*
Y2005309D01*
Y2011546D02*
Y2012155D01*
Y2022648D02*
Y2023257D01*
Y2026232D02*
Y2026925D01*
Y2028208D02*
Y2028816D01*
Y2032207D02*
Y2032815D01*
Y2034909D02*
Y2035437D01*
Y2037530D02*
Y2038139D01*
Y2041074D02*
Y2041682D01*
Y2046043D02*
Y2046667D01*
Y2049459D02*
Y2050068D01*
X1939900Y1883396D02*
Y1884005D01*
Y1886822D02*
Y1887430D01*
Y1890011D02*
Y1890619D01*
Y1892845D02*
Y1893454D01*
Y1896367D02*
Y1896979D01*
Y1900286D02*
Y1900895D01*
Y1905719D02*
Y1906328D01*
Y1910227D02*
Y1914590D01*
Y1917058D02*
Y1917667D01*
Y1931466D02*
Y1932204D01*
Y1935719D02*
Y1936328D01*
Y1940270D02*
Y1940782D01*
Y1942788D02*
Y1943299D01*
Y1945995D02*
Y1946604D01*
Y1949066D02*
Y1949674D01*
Y1952431D02*
Y1952922D01*
Y1954853D02*
Y1955462D01*
Y1959341D02*
Y1959950D01*
Y1971034D02*
Y1971643D01*
Y1976113D02*
Y1976722D01*
Y1981959D02*
Y1982450D01*
Y1984381D02*
Y1984989D01*
Y1987333D02*
Y1987942D01*
Y1990404D02*
Y1991013D01*
Y1994438D02*
Y1995767D01*
Y2000207D02*
Y2000816D01*
Y2004715D02*
Y2009078D01*
Y2011546D02*
Y2012155D01*
Y2022648D02*
Y2023257D01*
Y2026218D02*
Y2026892D01*
Y2028219D02*
Y2028827D01*
Y2032196D02*
Y2032804D01*
Y2035109D02*
Y2035600D01*
Y2037530D02*
Y2038139D01*
Y2041074D02*
Y2041682D01*
Y2046054D02*
Y2046679D01*
Y2049459D02*
Y2050068D01*
X1940000Y1883396D02*
Y1884005D01*
Y1886822D02*
Y1887430D01*
Y1890011D02*
Y1890619D01*
Y1892845D02*
Y1893454D01*
Y1896355D02*
Y1896969D01*
Y1900286D02*
Y1900895D01*
Y1905719D02*
Y1906328D01*
Y1910238D02*
Y1914580D01*
Y1917058D02*
Y1917667D01*
Y1931391D02*
Y1932162D01*
Y1935719D02*
Y1936328D01*
Y1940196D02*
Y1940732D01*
Y1942815D02*
Y1943359D01*
Y1945995D02*
Y1946604D01*
Y1949066D02*
Y1949674D01*
Y1952674D02*
Y1953172D01*
Y1954853D02*
Y1955462D01*
Y1959341D02*
Y1959950D01*
Y1971034D02*
Y1971643D01*
Y1976113D02*
Y1976722D01*
Y1982202D02*
Y1982700D01*
Y1984381D02*
Y1984989D01*
Y1987333D02*
Y1987942D01*
Y1990404D02*
Y1991013D01*
Y1994171D02*
Y1995501D01*
Y2000207D02*
Y2000816D01*
Y2004727D02*
Y2009068D01*
Y2011546D02*
Y2012155D01*
Y2022648D02*
Y2023257D01*
Y2026203D02*
Y2026852D01*
Y2028231D02*
Y2028839D01*
Y2032185D02*
Y2032793D01*
Y2035351D02*
Y2035850D01*
Y2037530D02*
Y2038139D01*
Y2041074D02*
Y2041682D01*
Y2046065D02*
Y2046692D01*
Y2049459D02*
Y2050068D01*
X1940100Y1883396D02*
Y1884005D01*
Y1886822D02*
Y1887430D01*
Y1890011D02*
Y1890619D01*
Y1892845D02*
Y1893454D01*
Y1896342D02*
Y1896959D01*
Y1900286D02*
Y1900895D01*
Y1905719D02*
Y1906328D01*
Y1910250D02*
Y1910819D01*
Y1913985D02*
Y1914570D01*
Y1917058D02*
Y1917667D01*
Y1931316D02*
Y1932102D01*
Y1935719D02*
Y1936328D01*
Y1940156D02*
Y1940691D01*
Y1942835D02*
Y1943418D01*
Y1945995D02*
Y1946604D01*
Y1949066D02*
Y1949674D01*
Y1952924D02*
Y1953422D01*
Y1954853D02*
Y1955462D01*
Y1959341D02*
Y1959950D01*
Y1971034D02*
Y1971643D01*
Y1976113D02*
Y1976722D01*
Y1982452D02*
Y1982950D01*
Y1984381D02*
Y1984989D01*
Y1987333D02*
Y1987942D01*
Y1990404D02*
Y1991013D01*
Y1994015D02*
Y1995257D01*
Y2000207D02*
Y2000816D01*
Y2004738D02*
Y2005307D01*
Y2008473D02*
Y2009058D01*
Y2011546D02*
Y2012155D01*
Y2022648D02*
Y2023257D01*
Y2026187D02*
Y2026812D01*
Y2028242D02*
Y2028850D01*
Y2032174D02*
Y2032782D01*
Y2035601D02*
Y2036100D01*
Y2037530D02*
Y2038139D01*
Y2041074D02*
Y2041682D01*
Y2046076D02*
Y2046704D01*
Y2049459D02*
Y2050068D01*
X1940200Y1883396D02*
Y1884005D01*
Y1886822D02*
Y1887430D01*
Y1890011D02*
Y1890619D01*
Y1892845D02*
Y1893454D01*
Y1896330D02*
Y1896949D01*
Y1900286D02*
Y1900895D01*
Y1905719D02*
Y1906328D01*
Y1910261D02*
Y1910833D01*
Y1913972D02*
Y1914560D01*
Y1917058D02*
Y1917667D01*
Y1931241D02*
Y1932042D01*
Y1935719D02*
Y1936328D01*
Y1940116D02*
Y1940666D01*
Y1942855D02*
Y1943443D01*
Y1945995D02*
Y1946604D01*
Y1949066D02*
Y1949674D01*
Y1953225D02*
Y1953855D01*
Y1954853D02*
Y1955462D01*
Y1959341D02*
Y1959950D01*
Y1971034D02*
Y1971643D01*
Y1976113D02*
Y1976722D01*
Y1982752D02*
Y1983383D01*
Y1984381D02*
Y1984989D01*
Y1987333D02*
Y1987942D01*
Y1990404D02*
Y1991013D01*
Y1993865D02*
Y1995023D01*
Y2000207D02*
Y2000816D01*
Y2004749D02*
Y2005321D01*
Y2008460D02*
Y2009048D01*
Y2011546D02*
Y2012155D01*
Y2022648D02*
Y2023257D01*
Y2026137D02*
Y2026772D01*
Y2028253D02*
Y2028861D01*
Y2032163D02*
Y2032771D01*
Y2035902D02*
Y2036532D01*
Y2037530D02*
Y2038139D01*
Y2041074D02*
Y2041682D01*
Y2046087D02*
Y2046717D01*
Y2049459D02*
Y2050068D01*
X1940300Y1883396D02*
Y1884005D01*
Y1886822D02*
Y1887430D01*
Y1890011D02*
Y1890619D01*
Y1892845D02*
Y1893454D01*
Y1896317D02*
Y1896939D01*
Y1900286D02*
Y1900895D01*
Y1905719D02*
Y1906328D01*
Y1910272D02*
Y1910847D01*
Y1913960D02*
Y1914550D01*
Y1917058D02*
Y1917667D01*
Y1931127D02*
Y1931982D01*
Y1935719D02*
Y1936328D01*
Y1940076D02*
Y1940641D01*
Y1942875D02*
Y1943468D01*
Y1945995D02*
Y1946604D01*
Y1949066D02*
Y1949674D01*
Y1953575D02*
Y1954409D01*
Y1954853D02*
Y1955462D01*
Y1959341D02*
Y1959950D01*
Y1971034D02*
Y1971643D01*
Y1976113D02*
Y1976722D01*
Y1983102D02*
Y1983937D01*
Y1984381D02*
Y1984989D01*
Y1987333D02*
Y1987942D01*
Y1990404D02*
Y1991013D01*
Y1993747D02*
Y1994790D01*
Y2000207D02*
Y2000816D01*
Y2004760D02*
Y2005335D01*
Y2008448D02*
Y2009038D01*
Y2011546D02*
Y2012155D01*
Y2022648D02*
Y2023257D01*
Y2026087D02*
Y2026732D01*
Y2028264D02*
Y2028872D01*
Y2032152D02*
Y2032760D01*
Y2036252D02*
Y2037086D01*
Y2037530D02*
Y2038139D01*
Y2041074D02*
Y2041682D01*
Y2046099D02*
Y2046729D01*
Y2049459D02*
Y2050068D01*
X1940400Y1883396D02*
Y1884005D01*
Y1886822D02*
Y1887430D01*
Y1890011D02*
Y1890619D01*
Y1892845D02*
Y1893454D01*
Y1896305D02*
Y1896929D01*
Y1900286D02*
Y1900895D01*
Y1905719D02*
Y1906328D01*
Y1910283D02*
Y1910862D01*
Y1913947D02*
Y1914540D01*
Y1917058D02*
Y1917713D01*
Y1930994D02*
Y1931922D01*
Y1935719D02*
Y1936328D01*
Y1940036D02*
Y1940616D01*
Y1942895D02*
Y1943493D01*
Y1945995D02*
Y1946604D01*
Y1949066D02*
Y1949674D01*
Y1953997D02*
Y1955462D01*
Y1959341D02*
Y1959950D01*
Y1971034D02*
Y1971643D01*
Y1976113D02*
Y1976768D01*
Y1983524D02*
Y1984989D01*
Y1987333D02*
Y1987942D01*
Y1990404D02*
Y1991013D01*
Y1993647D02*
Y1994547D01*
Y2000207D02*
Y2000816D01*
Y2004771D02*
Y2005350D01*
Y2008435D02*
Y2009028D01*
Y2011546D02*
Y2012201D01*
Y2022648D02*
Y2023257D01*
Y2026037D02*
Y2026692D01*
Y2028275D02*
Y2028883D01*
Y2032141D02*
Y2032749D01*
Y2036674D02*
Y2038139D01*
Y2041074D02*
Y2041729D01*
Y2046110D02*
Y2046742D01*
Y2049459D02*
Y2050068D01*
X1940500Y1883396D02*
Y1884005D01*
Y1886822D02*
Y1887430D01*
Y1890011D02*
Y1890619D01*
Y1892845D02*
Y1893454D01*
Y1896292D02*
Y1896919D01*
Y1900286D02*
Y1900895D01*
Y1905719D02*
Y1906328D01*
Y1910294D02*
Y1910876D01*
Y1913935D02*
Y1914530D01*
Y1917058D02*
Y1917780D01*
Y1930860D02*
Y1931862D01*
Y1935719D02*
Y1936328D01*
Y1939996D02*
Y1940591D01*
Y1942915D02*
Y1943518D01*
Y1945995D02*
Y1946604D01*
Y1949066D02*
Y1949674D01*
Y1954797D02*
Y1955462D01*
Y1959341D02*
Y1959950D01*
Y1971034D02*
Y1971643D01*
Y1976113D02*
Y1976835D01*
Y1984324D02*
Y1984989D01*
Y1987333D02*
Y1987942D01*
Y1990404D02*
Y1991013D01*
Y1993570D02*
Y1994247D01*
Y2000207D02*
Y2000816D01*
Y2004782D02*
Y2005364D01*
Y2008423D02*
Y2009018D01*
Y2011546D02*
Y2012268D01*
Y2022648D02*
Y2023257D01*
Y2025987D02*
Y2026595D01*
Y2028286D02*
Y2028894D01*
Y2032129D02*
Y2032738D01*
Y2037474D02*
Y2038139D01*
Y2041074D02*
Y2041796D01*
Y2046121D02*
Y2046754D01*
Y2049459D02*
Y2050068D01*
X1940600Y1883396D02*
Y1884005D01*
Y1886822D02*
Y1887430D01*
Y1890011D02*
Y1890619D01*
Y1892845D02*
Y1893454D01*
Y1896280D02*
Y1896909D01*
Y1900286D02*
Y1900895D01*
Y1905719D02*
Y1906328D01*
Y1910305D02*
Y1910890D01*
Y1913922D02*
Y1914520D01*
Y1917058D02*
Y1917846D01*
Y1930724D02*
Y1931770D01*
Y1935719D02*
Y1936328D01*
Y1939980D02*
Y1940587D01*
Y1942917D02*
Y1943524D01*
Y1945995D02*
Y1946604D01*
Y1949066D02*
Y1949674D01*
Y1954853D02*
Y1955462D01*
Y1959341D02*
Y1959950D01*
Y1971034D02*
Y1971643D01*
Y1976113D02*
Y1976902D01*
Y1984381D02*
Y1984989D01*
Y1987333D02*
Y1987942D01*
Y1990404D02*
Y1991013D01*
Y1993530D02*
Y1994043D01*
Y2000207D02*
Y2000816D01*
Y2004793D02*
Y2005378D01*
Y2008410D02*
Y2009008D01*
Y2011546D02*
Y2012335D01*
Y2022648D02*
Y2023257D01*
Y2025937D02*
Y2026495D01*
Y2028297D02*
Y2028905D01*
Y2032118D02*
Y2032726D01*
Y2037530D02*
Y2038139D01*
Y2041074D02*
Y2041862D01*
Y2046132D02*
Y2046775D01*
Y2049459D02*
Y2050068D01*
X1940700Y1883396D02*
Y1884005D01*
Y1886822D02*
Y1887430D01*
Y1890011D02*
Y1890619D01*
Y1892845D02*
Y1893454D01*
Y1896263D02*
Y1896899D01*
Y1900286D02*
Y1900895D01*
Y1905719D02*
Y1906328D01*
Y1910316D02*
Y1910904D01*
Y1913910D02*
Y1914510D01*
Y1917058D02*
Y1917913D01*
Y1930549D02*
Y1931670D01*
Y1935719D02*
Y1936328D01*
Y1939997D02*
Y1940604D01*
Y1942900D02*
Y1943507D01*
Y1945995D02*
Y1946604D01*
Y1949066D02*
Y1949674D01*
Y1954853D02*
Y1955462D01*
Y1959341D02*
Y1959950D01*
Y1971034D02*
Y1971643D01*
Y1976113D02*
Y1976968D01*
Y1984381D02*
Y1984989D01*
Y1987333D02*
Y1987942D01*
Y1990404D02*
Y1991013D01*
Y1993490D02*
Y1993959D01*
Y2000207D02*
Y2000816D01*
Y2004804D02*
Y2005393D01*
Y2008398D02*
Y2008998D01*
Y2011546D02*
Y2012401D01*
Y2022648D02*
Y2023257D01*
Y2025887D02*
Y2026395D01*
Y2028308D02*
Y2028916D01*
Y2032107D02*
Y2032715D01*
Y2037530D02*
Y2038139D01*
Y2041074D02*
Y2041929D01*
Y2046143D02*
Y2046808D01*
Y2049459D02*
Y2050068D01*
X1940800Y1883396D02*
Y1884005D01*
Y1886822D02*
Y1887430D01*
Y1890011D02*
Y1890619D01*
Y1892845D02*
Y1893454D01*
Y1896230D02*
Y1896889D01*
Y1900286D02*
Y1900895D01*
Y1905719D02*
Y1906328D01*
Y1910342D02*
Y1910919D01*
Y1913897D02*
Y1914500D01*
Y1917058D02*
Y1917980D01*
Y1930374D02*
Y1931570D01*
Y1935719D02*
Y1936328D01*
Y1940013D02*
Y1940621D01*
Y1942883D02*
Y1943491D01*
Y1945995D02*
Y1946604D01*
Y1949066D02*
Y1949672D01*
Y1954853D02*
Y1955462D01*
Y1959341D02*
Y1959950D01*
Y1971034D02*
Y1971643D01*
Y1976113D02*
Y1977035D01*
Y1984381D02*
Y1984989D01*
Y1987333D02*
Y1987942D01*
Y1990404D02*
Y1991010D01*
Y1993450D02*
Y1993939D01*
Y2000207D02*
Y2000816D01*
Y2004831D02*
Y2005407D01*
Y2008385D02*
Y2008988D01*
Y2011546D02*
Y2012468D01*
Y2022648D02*
Y2023257D01*
Y2025837D02*
Y2026295D01*
Y2028338D02*
Y2028928D01*
Y2032096D02*
Y2032691D01*
Y2037530D02*
Y2038139D01*
Y2041074D02*
Y2041996D01*
Y2046167D02*
Y2046841D01*
Y2049459D02*
Y2050068D01*
X1940900Y1883396D02*
Y1884005D01*
Y1886822D02*
Y1887430D01*
Y1890011D02*
Y1890619D01*
Y1892845D02*
Y1893454D01*
Y1896196D02*
Y1896875D01*
Y1900286D02*
Y1900895D01*
Y1905719D02*
Y1906328D01*
Y1910405D02*
Y1910933D01*
Y1913885D02*
Y1914490D01*
Y1917058D02*
Y1917667D01*
Y1917773D02*
Y1918046D01*
Y1930199D02*
Y1931470D01*
Y1935719D02*
Y1936328D01*
Y1940030D02*
Y1940637D01*
Y1942867D02*
Y1943474D01*
Y1945995D02*
Y1946604D01*
Y1949066D02*
Y1949655D01*
Y1951789D02*
Y1952082D01*
Y1954853D02*
Y1955462D01*
Y1959341D02*
Y1959950D01*
Y1971034D02*
Y1971643D01*
Y1976113D02*
Y1976722D01*
Y1976828D02*
Y1977102D01*
Y1981316D02*
Y1981609D01*
Y1984381D02*
Y1984989D01*
Y1987333D02*
Y1987942D01*
Y1990404D02*
Y1990994D01*
Y1993410D02*
Y1993919D01*
Y2000207D02*
Y2000816D01*
Y2004893D02*
Y2005421D01*
Y2008373D02*
Y2008978D01*
Y2011546D02*
Y2012155D01*
Y2012261D02*
Y2012535D01*
Y2022648D02*
Y2023257D01*
Y2025697D02*
Y2026195D01*
Y2028410D02*
Y2028970D01*
Y2032053D02*
Y2032634D01*
Y2034466D02*
Y2034759D01*
Y2037530D02*
Y2038139D01*
Y2041074D02*
Y2041683D01*
Y2041789D02*
Y2042062D01*
Y2046224D02*
Y2046875D01*
Y2049459D02*
Y2050068D01*
X1941000Y1883396D02*
Y1884005D01*
Y1886822D02*
Y1887430D01*
Y1890011D02*
Y1890619D01*
Y1892845D02*
Y1893512D01*
Y1896163D02*
Y1896818D01*
Y1900286D02*
Y1900895D01*
Y1905719D02*
Y1906328D01*
Y1910467D02*
Y1910976D01*
Y1913872D02*
Y1914480D01*
Y1917058D02*
Y1917667D01*
Y1917840D02*
Y1918113D01*
Y1930024D02*
Y1931370D01*
Y1935719D02*
Y1936328D01*
Y1940047D02*
Y1940654D01*
Y1942850D02*
Y1943457D01*
Y1945995D02*
Y1946604D01*
Y1949066D02*
Y1949638D01*
Y1951635D02*
Y1952196D01*
Y1954853D02*
Y1955462D01*
Y1959341D02*
Y1959950D01*
Y1971034D02*
Y1971643D01*
Y1976113D02*
Y1976722D01*
Y1976895D02*
Y1977168D01*
Y1981163D02*
Y1981724D01*
Y1984381D02*
Y1984989D01*
Y1987333D02*
Y1987942D01*
Y1990404D02*
Y1990977D01*
Y1993370D02*
Y1993899D01*
Y1996859D02*
Y1997021D01*
Y2000207D02*
Y2000816D01*
Y2004956D02*
Y2005464D01*
Y2008360D02*
Y2008968D01*
Y2011546D02*
Y2012155D01*
Y2012328D02*
Y2012601D01*
Y2022648D02*
Y2023257D01*
Y2025530D02*
Y2026070D01*
Y2028481D02*
Y2029013D01*
Y2032011D02*
Y2032577D01*
Y2034313D02*
Y2034873D01*
Y2037530D02*
Y2038139D01*
Y2041074D02*
Y2041682D01*
Y2041855D02*
Y2042129D01*
Y2046281D02*
Y2046908D01*
Y2049459D02*
Y2050068D01*
X1941100Y1883396D02*
Y1884005D01*
Y1886822D02*
Y1887430D01*
Y1890011D02*
Y1890619D01*
Y1892845D02*
Y1893587D01*
Y1896130D02*
Y1896760D01*
Y1900286D02*
Y1900895D01*
Y1905719D02*
Y1906328D01*
Y1910530D02*
Y1911026D01*
Y1913842D02*
Y1914426D01*
Y1917058D02*
Y1917667D01*
Y1917906D02*
Y1918186D01*
Y1929833D02*
Y1931270D01*
Y1935719D02*
Y1936328D01*
Y1940063D02*
Y1940671D01*
Y1942833D02*
Y1943441D01*
Y1945995D02*
Y1946648D01*
Y1949066D02*
Y1949622D01*
Y1951602D02*
Y1952246D01*
Y1954853D02*
Y1955446D01*
Y1959341D02*
Y1959950D01*
Y1971034D02*
Y1971643D01*
Y1976113D02*
Y1976722D01*
Y1976961D02*
Y1977241D01*
Y1981130D02*
Y1981774D01*
Y1984381D02*
Y1984973D01*
Y1987333D02*
Y1987987D01*
Y1990404D02*
Y1990960D01*
Y1993373D02*
Y1993879D01*
Y1996809D02*
Y1997006D01*
Y2000207D02*
Y2000816D01*
Y2005018D02*
Y2005514D01*
Y2008330D02*
Y2008915D01*
Y2011546D02*
Y2012155D01*
Y2012394D02*
Y2012674D01*
Y2022648D02*
Y2023257D01*
Y2025364D02*
Y2025837D01*
Y2028552D02*
Y2029056D01*
Y2031968D02*
Y2032520D01*
Y2034279D02*
Y2034923D01*
Y2037530D02*
Y2038123D01*
Y2041074D02*
Y2041682D01*
Y2041922D02*
Y2042202D01*
Y2046339D02*
Y2046941D01*
Y2049459D02*
Y2050068D01*
X1941200Y1883396D02*
Y1884005D01*
Y1886822D02*
Y1887430D01*
Y1890011D02*
Y1890619D01*
Y1892845D02*
Y1893662D01*
Y1896096D02*
Y1896703D01*
Y1900286D02*
Y1900895D01*
Y1905719D02*
Y1906328D01*
Y1910592D02*
Y1911076D01*
Y1913802D02*
Y1914369D01*
Y1917058D02*
Y1917667D01*
Y1917973D02*
Y1918266D01*
Y1929608D02*
Y1931071D01*
Y1935719D02*
Y1936328D01*
Y1940080D02*
Y1940687D01*
Y1942817D02*
Y1943424D01*
Y1945995D02*
Y1946723D01*
Y1949066D02*
Y1949605D01*
Y1951569D02*
Y1952273D01*
Y1954836D02*
Y1955426D01*
Y1959341D02*
Y1959950D01*
Y1971034D02*
Y1971643D01*
Y1976113D02*
Y1976722D01*
Y1977028D02*
Y1977321D01*
Y1981096D02*
Y1981800D01*
Y1984364D02*
Y1984953D01*
Y1987333D02*
Y1988062D01*
Y1990404D02*
Y1990944D01*
Y1993393D02*
Y1993859D01*
Y1996759D02*
Y1996991D01*
Y2000207D02*
Y2000816D01*
Y2005081D02*
Y2005564D01*
Y2008290D02*
Y2008857D01*
Y2011546D02*
Y2012155D01*
Y2012461D02*
Y2012754D01*
Y2022648D02*
Y2023257D01*
Y2025143D02*
Y2025603D01*
Y2028624D02*
Y2029099D01*
Y2031925D02*
Y2032463D01*
Y2034246D02*
Y2034950D01*
Y2037514D02*
Y2038103D01*
Y2041074D02*
Y2041682D01*
Y2041989D02*
Y2042282D01*
Y2046396D02*
Y2046975D01*
Y2049459D02*
Y2050068D01*
X1941300Y1883396D02*
Y1884005D01*
Y1886822D02*
Y1887430D01*
Y1890011D02*
Y1890619D01*
Y1892845D02*
Y1893737D01*
Y1896063D02*
Y1896646D01*
Y1900286D02*
Y1900895D01*
Y1905719D02*
Y1906328D01*
Y1910655D02*
Y1911126D01*
Y1913762D02*
Y1914312D01*
Y1917058D02*
Y1917667D01*
Y1918040D02*
Y1918346D01*
Y1929383D02*
Y1930871D01*
Y1935719D02*
Y1936328D01*
Y1940132D02*
Y1940712D01*
Y1942792D02*
Y1943389D01*
Y1945995D02*
Y1946798D01*
Y1949066D02*
Y1949588D01*
Y1951562D02*
Y1952273D01*
Y1954803D02*
Y1955406D01*
Y1959341D02*
Y1959950D01*
Y1971034D02*
Y1971643D01*
Y1976113D02*
Y1976722D01*
Y1977095D02*
Y1977401D01*
Y1981090D02*
Y1981800D01*
Y1984331D02*
Y1984933D01*
Y1987333D02*
Y1988137D01*
Y1990404D02*
Y1990927D01*
Y1993413D02*
Y1993858D01*
Y1996709D02*
Y1996975D01*
Y2000207D02*
Y2000816D01*
Y2005143D02*
Y2005614D01*
Y2008250D02*
Y2008800D01*
Y2011546D02*
Y2012155D01*
Y2012528D02*
Y2012834D01*
Y2022648D02*
Y2023277D01*
Y2024443D02*
Y2025370D01*
Y2028695D02*
Y2029142D01*
Y2031882D02*
Y2032405D01*
Y2034239D02*
Y2034950D01*
Y2037480D02*
Y2038083D01*
Y2041074D02*
Y2041682D01*
Y2042055D02*
Y2042362D01*
Y2046453D02*
Y2047015D01*
Y2049459D02*
Y2050068D01*
X1941400Y1883396D02*
Y1884005D01*
Y1886822D02*
Y1887430D01*
Y1890011D02*
Y1890619D01*
Y1892845D02*
Y1893454D01*
Y1893597D02*
Y1893812D01*
Y1896029D02*
Y1896589D01*
Y1900286D02*
Y1900895D01*
Y1905719D02*
Y1906328D01*
Y1910717D02*
Y1911176D01*
Y1913722D02*
Y1914255D01*
Y1917058D02*
Y1917667D01*
Y1918106D02*
Y1918426D01*
Y1920146D02*
Y1920577D01*
Y1929158D02*
Y1930671D01*
Y1935719D02*
Y1936328D01*
Y1940207D02*
Y1940762D01*
Y1942742D02*
Y1943339D01*
Y1945995D02*
Y1946873D01*
Y1949061D02*
Y1949572D01*
Y1951595D02*
Y1952273D01*
Y1954770D02*
Y1955386D01*
Y1959341D02*
Y1959950D01*
Y1971034D02*
Y1971643D01*
Y1976113D02*
Y1976722D01*
Y1977161D02*
Y1977481D01*
Y1979202D02*
Y1979632D01*
Y1981123D02*
Y1981800D01*
Y1984297D02*
Y1984913D01*
Y1987333D02*
Y1988212D01*
Y1990399D02*
Y1990910D01*
Y1993433D02*
Y1993892D01*
Y1996659D02*
Y1996960D01*
Y2000207D02*
Y2000816D01*
Y2005206D02*
Y2005664D01*
Y2008210D02*
Y2008743D01*
Y2011546D02*
Y2012155D01*
Y2012594D02*
Y2012914D01*
Y2014635D02*
Y2015066D01*
Y2022648D02*
Y2025270D01*
Y2028767D02*
Y2029185D01*
Y2031839D02*
Y2032348D01*
Y2034273D02*
Y2034950D01*
Y2037447D02*
Y2038063D01*
Y2041074D02*
Y2041682D01*
Y2042122D02*
Y2042442D01*
Y2044162D02*
Y2044593D01*
Y2046510D02*
Y2047095D01*
Y2049454D02*
Y2050068D01*
X1941500Y1883396D02*
Y1884005D01*
Y1886822D02*
Y1887430D01*
Y1890011D02*
Y1890619D01*
Y1892845D02*
Y1893454D01*
Y1893697D02*
Y1893910D01*
Y1895955D02*
Y1896532D01*
Y1900286D02*
Y1900895D01*
Y1905719D02*
Y1906328D01*
Y1910780D02*
Y1911226D01*
Y1913682D02*
Y1914198D01*
Y1917058D02*
Y1917667D01*
Y1918173D02*
Y1918506D01*
Y1920091D02*
Y1920657D01*
Y1928933D02*
Y1930471D01*
Y1935719D02*
Y1936328D01*
Y1940282D02*
Y1940812D01*
Y1942692D02*
Y1943289D01*
Y1945995D02*
Y1946604D01*
Y1946735D02*
Y1946948D01*
Y1948994D02*
Y1949548D01*
Y1951629D02*
Y1952273D01*
Y1954736D02*
Y1955366D01*
Y1959341D02*
Y1959950D01*
Y1971034D02*
Y1971643D01*
Y1976113D02*
Y1976722D01*
Y1977228D02*
Y1977561D01*
Y1979146D02*
Y1979712D01*
Y1981156D02*
Y1981800D01*
Y1984264D02*
Y1984893D01*
Y1987333D02*
Y1987942D01*
Y1988074D02*
Y1988287D01*
Y1990333D02*
Y1990887D01*
Y1993453D02*
Y1993925D01*
Y1996563D02*
Y1996945D01*
Y2000207D02*
Y2000816D01*
Y2005268D02*
Y2005714D01*
Y2008170D02*
Y2008686D01*
Y2011546D02*
Y2012155D01*
Y2012661D02*
Y2012994D01*
Y2014579D02*
Y2015145D01*
Y2022648D02*
Y2023257D01*
Y2024763D02*
Y2025447D01*
Y2028838D02*
Y2029227D01*
Y2031796D02*
Y2032291D01*
Y2034306D02*
Y2034950D01*
Y2037414D02*
Y2038043D01*
Y2041074D02*
Y2041682D01*
Y2042189D02*
Y2042522D01*
Y2044107D02*
Y2044673D01*
Y2046567D02*
Y2047175D01*
Y2049358D02*
Y2050068D01*
X1941600Y1883396D02*
Y1884005D01*
Y1886822D02*
Y1887430D01*
Y1890011D02*
Y1890619D01*
Y1892813D02*
Y1893454D01*
Y1893797D02*
Y1894010D01*
Y1895880D02*
Y1896475D01*
Y1900254D02*
Y1900895D01*
Y1905719D02*
Y1906328D01*
Y1910842D02*
Y1911276D01*
Y1913642D02*
Y1914141D01*
Y1917058D02*
Y1917667D01*
Y1918251D02*
Y1918586D01*
Y1920057D02*
Y1920691D01*
Y1928769D02*
Y1930255D01*
Y1935687D02*
Y1936328D01*
Y1940357D02*
Y1940862D01*
Y1942642D02*
Y1943239D01*
Y1944077D02*
Y1944269D01*
Y1945995D02*
Y1946604D01*
Y1946852D02*
Y1947041D01*
Y1948928D02*
Y1949498D01*
Y1951671D02*
Y1952273D01*
Y1954703D02*
Y1955342D01*
Y1959341D02*
Y1959950D01*
Y1971034D02*
Y1971643D01*
Y1976113D02*
Y1976722D01*
Y1977306D02*
Y1977641D01*
Y1979113D02*
Y1979746D01*
Y1981198D02*
Y1981800D01*
Y1984231D02*
Y1984869D01*
Y1987333D02*
Y1987942D01*
Y1988190D02*
Y1988380D01*
Y1990266D02*
Y1990837D01*
Y1993482D02*
Y1993958D01*
Y1996463D02*
Y1996929D01*
Y2000207D02*
Y2000816D01*
Y2005331D02*
Y2005764D01*
Y2008130D02*
Y2008629D01*
Y2011546D02*
Y2012155D01*
Y2012739D02*
Y2013074D01*
Y2014546D02*
Y2015179D01*
Y2022648D02*
Y2023257D01*
Y2025143D02*
Y2025647D01*
Y2028919D02*
Y2029270D01*
Y2031753D02*
Y2032217D01*
Y2034348D02*
Y2034950D01*
Y2037380D02*
Y2038019D01*
Y2041074D02*
Y2041682D01*
Y2042267D02*
Y2042602D01*
Y2044073D02*
Y2044706D01*
Y2046644D02*
Y2047255D01*
Y2049258D02*
Y2050068D01*
X1941700Y1883396D02*
Y1884005D01*
Y1886796D02*
Y1887430D01*
Y1889985D02*
Y1890619D01*
Y1892780D02*
Y1893454D01*
Y1893897D02*
Y1894110D01*
Y1895805D02*
Y1896417D01*
Y1900221D02*
Y1900895D01*
Y1905719D02*
Y1906328D01*
Y1910908D02*
Y1911354D01*
Y1913568D02*
Y1914083D01*
Y1917032D02*
Y1917667D01*
Y1918376D02*
Y1918707D01*
Y1920024D02*
Y1920724D01*
Y1928644D02*
Y1930005D01*
Y1935654D02*
Y1936328D01*
Y1940433D02*
Y1940912D01*
Y1942592D02*
Y1943189D01*
Y1943922D02*
Y1944385D01*
Y1945995D02*
Y1946604D01*
Y1946968D02*
Y1947141D01*
Y1948861D02*
Y1949448D01*
Y1951771D02*
Y1952320D01*
Y1954670D02*
Y1955267D01*
Y1959341D02*
Y1959950D01*
Y1971034D02*
Y1971643D01*
Y1976087D02*
Y1976722D01*
Y1977431D02*
Y1977762D01*
Y1979079D02*
Y1979779D01*
Y1981298D02*
Y1981848D01*
Y1984197D02*
Y1984794D01*
Y1987333D02*
Y1987942D01*
Y1988307D02*
Y1988480D01*
Y1990200D02*
Y1990787D01*
Y1993582D02*
Y1994013D01*
Y1996363D02*
Y1996914D01*
Y2000207D02*
Y2000816D01*
Y2005396D02*
Y2005842D01*
Y2008056D02*
Y2008572D01*
Y2011520D02*
Y2012155D01*
Y2012864D02*
Y2013195D01*
Y2014512D02*
Y2015212D01*
Y2022648D02*
Y2023257D01*
Y2025277D02*
Y2025847D01*
Y2029039D02*
Y2029358D01*
Y2031666D02*
Y2032077D01*
Y2034448D02*
Y2034997D01*
Y2037347D02*
Y2037944D01*
Y2041048D02*
Y2041682D01*
Y2042392D02*
Y2042723D01*
Y2044040D02*
Y2044740D01*
Y2046794D02*
Y2047335D01*
Y2049135D02*
Y2049370D01*
Y2049448D02*
Y2050068D01*
X1941800Y1883396D02*
Y1884005D01*
Y1886762D02*
Y1887430D01*
Y1889951D02*
Y1890619D01*
Y1892747D02*
Y1893454D01*
Y1893997D02*
Y1894258D01*
Y1895730D02*
Y1896292D01*
Y1900188D02*
Y1900895D01*
Y1905719D02*
Y1906328D01*
Y1911058D02*
Y1911454D01*
Y1913468D02*
Y1914026D01*
Y1916999D02*
Y1917667D01*
Y1918501D02*
Y1918874D01*
Y1920011D02*
Y1920737D01*
Y1928519D02*
Y1929755D01*
Y1935621D02*
Y1936328D01*
Y1940558D02*
Y1940996D01*
Y1942508D02*
Y1943273D01*
Y1943795D02*
Y1944419D01*
Y1945995D02*
Y1946604D01*
Y1947085D02*
Y1947241D01*
Y1948783D02*
Y1949398D01*
Y1951871D02*
Y1952387D01*
Y1954636D02*
Y1955192D01*
Y1959341D02*
Y1959950D01*
Y1971034D02*
Y1971643D01*
Y1976054D02*
Y1976722D01*
Y1977556D02*
Y1977929D01*
Y1979066D02*
Y1979793D01*
Y1981398D02*
Y1981914D01*
Y1984164D02*
Y1984719D01*
Y1987333D02*
Y1987942D01*
Y1988424D02*
Y1988580D01*
Y1990121D02*
Y1990737D01*
Y1993682D02*
Y1994080D01*
Y1996263D02*
Y1996898D01*
Y2000207D02*
Y2000816D01*
Y2005546D02*
Y2005942D01*
Y2007956D02*
Y2008515D01*
Y2011487D02*
Y2012155D01*
Y2012989D02*
Y2013362D01*
Y2014499D02*
Y2015226D01*
Y2022648D02*
Y2023257D01*
Y2025410D02*
Y2026021D01*
Y2029159D02*
Y2029483D01*
Y2031541D02*
Y2031937D01*
Y2034548D02*
Y2035064D01*
Y2037314D02*
Y2037869D01*
Y2041014D02*
Y2041682D01*
Y2042517D02*
Y2042890D01*
Y2044026D02*
Y2044753D01*
Y2046944D02*
Y2047415D01*
Y2048985D02*
Y2049245D01*
Y2049459D02*
Y2050068D01*
X1941900Y1883396D02*
Y1884005D01*
Y1886729D02*
Y1887430D01*
Y1889918D02*
Y1890619D01*
Y1892686D02*
Y1893454D01*
Y1894097D02*
Y1894559D01*
Y1895637D02*
Y1896167D01*
Y1900127D02*
Y1900895D01*
Y1905719D02*
Y1906328D01*
Y1911208D02*
Y1911554D01*
Y1913368D02*
Y1913891D01*
Y1916965D02*
Y1917667D01*
Y1918626D02*
Y1919041D01*
Y1920011D02*
Y1920737D01*
Y1928394D02*
Y1929553D01*
Y1935560D02*
Y1936328D01*
Y1940683D02*
Y1941146D01*
Y1942358D02*
Y1942843D01*
Y1943134D02*
Y1943576D01*
Y1943589D02*
Y1944452D01*
Y1945995D02*
Y1946604D01*
Y1947202D02*
Y1947354D01*
Y1948683D02*
Y1949348D01*
Y1951971D02*
Y1952453D01*
Y1954583D02*
Y1955117D01*
Y1959341D02*
Y1959950D01*
Y1971034D02*
Y1971643D01*
Y1976020D02*
Y1976722D01*
Y1977681D02*
Y1978096D01*
Y1979066D02*
Y1979793D01*
Y1981498D02*
Y1981981D01*
Y1984110D02*
Y1984644D01*
Y1987333D02*
Y1987942D01*
Y1988540D02*
Y1988693D01*
Y1990021D02*
Y1990687D01*
Y1993782D02*
Y1994146D01*
Y1996154D02*
Y1996883D01*
Y2000207D02*
Y2000816D01*
Y2005696D02*
Y2006042D01*
Y2007856D02*
Y2008379D01*
Y2011453D02*
Y2012155D01*
Y2013114D02*
Y2013529D01*
Y2014499D02*
Y2015226D01*
Y2022648D02*
Y2023257D01*
Y2025543D02*
Y2026121D01*
Y2029279D02*
Y2029608D01*
Y2031416D02*
Y2031797D01*
Y2034648D02*
Y2035130D01*
Y2037260D02*
Y2037794D01*
Y2040981D02*
Y2041682D01*
Y2042642D02*
Y2043056D01*
Y2044026D02*
Y2044753D01*
Y2047094D02*
Y2047513D01*
Y2048825D02*
Y2049120D01*
Y2049459D02*
Y2050068D01*
X1942000Y1883396D02*
Y1884005D01*
Y1886692D02*
Y1887430D01*
Y1889881D02*
Y1890619D01*
Y1892386D02*
Y1893454D01*
Y1894197D02*
Y1894959D01*
Y1895137D02*
Y1896042D01*
Y1899827D02*
Y1900895D01*
Y1905719D02*
Y1906328D01*
Y1911358D02*
Y1911654D01*
Y1913268D02*
Y1913741D01*
Y1916929D02*
Y1917667D01*
Y1918751D02*
Y1919207D01*
Y1919999D02*
Y1920685D01*
Y1928269D02*
Y1929353D01*
Y1935260D02*
Y1936328D01*
Y1940808D02*
Y1941296D01*
Y1942208D02*
Y1942709D01*
Y1943259D02*
Y1944456D01*
Y1945984D02*
Y1946604D01*
Y1947318D02*
Y1947754D01*
Y1948583D02*
Y1949245D01*
Y1952071D02*
Y1952520D01*
Y1954433D02*
Y1955042D01*
Y1959341D02*
Y1959950D01*
Y1971034D02*
Y1971643D01*
Y1975984D02*
Y1976722D01*
Y1977806D02*
Y1978262D01*
Y1979055D02*
Y1979740D01*
Y1981598D02*
Y1982048D01*
Y1983960D02*
Y1984569D01*
Y1987322D02*
Y1987942D01*
Y1988657D02*
Y1989093D01*
Y1989921D02*
Y1990583D01*
Y1993882D02*
Y1994213D01*
Y1995954D02*
Y1996868D01*
Y2000207D02*
Y2000816D01*
Y2005846D02*
Y2006142D01*
Y2007756D02*
Y2008229D01*
Y2011417D02*
Y2012155D01*
Y2013239D02*
Y2013695D01*
Y2014488D02*
Y2015173D01*
Y2022648D02*
Y2023257D01*
Y2025637D02*
Y2026221D01*
Y2029399D02*
Y2029733D01*
Y2031291D02*
Y2031657D01*
Y2034748D02*
Y2035197D01*
Y2037110D02*
Y2037719D01*
Y2040944D02*
Y2041682D01*
Y2042767D02*
Y2043223D01*
Y2044015D02*
Y2044701D01*
Y2047244D02*
Y2048013D01*
Y2048225D02*
Y2048995D01*
Y2049459D02*
Y2050068D01*
X1942100Y1883396D02*
Y1884005D01*
Y1886417D02*
Y1887430D01*
Y1889606D02*
Y1890619D01*
Y1892137D02*
Y1893454D01*
Y1894441D02*
Y1895917D01*
Y1899115D02*
Y1900895D01*
Y1905717D02*
Y1906330D01*
Y1911508D02*
Y1911754D01*
Y1913168D02*
Y1913591D01*
Y1916653D02*
Y1917667D01*
Y1918918D02*
Y1919488D01*
Y1919724D02*
Y1920585D01*
Y1928192D02*
Y1929181D01*
Y1934548D02*
Y1936328D01*
Y1940933D02*
Y1941658D01*
Y1941929D02*
Y1942576D01*
Y1943384D02*
Y1944406D01*
Y1945794D02*
Y1946604D01*
Y1947435D02*
Y1948071D01*
Y1948307D02*
Y1949111D01*
Y1952285D02*
Y1952795D01*
Y1954283D02*
Y1954871D01*
Y1959341D02*
Y1959950D01*
Y1971034D02*
Y1971643D01*
Y1975709D02*
Y1976722D01*
Y1977973D02*
Y1978543D01*
Y1978779D02*
Y1979640D01*
Y1981812D02*
Y1982323D01*
Y1983810D02*
Y1984399D01*
Y1987132D02*
Y1987942D01*
Y1988774D02*
Y1989410D01*
Y1989646D02*
Y1990450D01*
Y1994066D02*
Y1994488D01*
Y1995754D02*
Y1996852D01*
Y2000206D02*
Y2000818D01*
Y2005996D02*
Y2006242D01*
Y2007656D02*
Y2008079D01*
Y2011142D02*
Y2012155D01*
Y2013406D02*
Y2013977D01*
Y2014212D02*
Y2015073D01*
Y2022648D02*
Y2023257D01*
Y2025712D02*
Y2026321D01*
Y2029519D02*
Y2029858D01*
Y2031166D02*
Y2031517D01*
Y2034962D02*
Y2035473D01*
Y2036960D02*
Y2037548D01*
Y2040669D02*
Y2041682D01*
Y2042934D02*
Y2043504D01*
Y2043740D02*
Y2044601D01*
Y2047512D02*
Y2048870D01*
Y2049459D02*
Y2050068D01*
X1942200Y1883396D02*
Y1884005D01*
Y1886113D02*
Y1887430D01*
Y1889302D02*
Y1890619D01*
Y1893115D02*
Y1893454D01*
Y1894791D02*
Y1895546D01*
Y1898869D02*
Y1900895D01*
Y1904302D02*
Y1908218D01*
Y1911762D02*
Y1912187D01*
Y1912798D02*
Y1913441D01*
Y1915759D02*
Y1917667D01*
Y1919118D02*
Y1920407D01*
Y1928117D02*
Y1929031D01*
Y1934302D02*
Y1936328D01*
Y1941305D02*
Y1942244D01*
Y1943509D02*
Y1944326D01*
Y1945404D02*
Y1946604D01*
Y1947646D02*
Y1948978D01*
Y1952585D02*
Y1953290D01*
Y1953901D02*
Y1954621D01*
Y1959341D02*
Y1959950D01*
Y1971034D02*
Y1971643D01*
Y1974814D02*
Y1976722D01*
Y1978173D02*
Y1979462D01*
Y1982112D02*
Y1982817D01*
Y1983428D02*
Y1984149D01*
Y1986743D02*
Y1987942D01*
Y1988984D02*
Y1990317D01*
Y1994316D02*
Y1994918D01*
Y1995422D02*
Y1996116D01*
Y1996680D02*
Y1996837D01*
Y1998790D02*
Y2002706D01*
Y2006250D02*
Y2006675D01*
Y2007286D02*
Y2007929D01*
Y2010247D02*
Y2012155D01*
Y2013606D02*
Y2014895D01*
Y2022648D02*
Y2023257D01*
Y2025787D02*
Y2026421D01*
Y2029754D02*
Y2030233D01*
Y2030790D02*
Y2031269D01*
Y2035262D02*
Y2035967D01*
Y2036578D02*
Y2037298D01*
Y2039774D02*
Y2041682D01*
Y2043134D02*
Y2044423D01*
Y2047862D02*
Y2048543D01*
Y2049459D02*
Y2050068D01*
X1942300Y1883396D02*
Y1884005D01*
Y1886956D02*
Y1887430D01*
Y1890145D02*
Y1890619D01*
Y1893265D02*
Y1893454D01*
Y1899485D02*
Y1900895D01*
Y1904747D02*
Y1906333D01*
Y1912162D02*
Y1913153D01*
Y1916257D02*
Y1917667D01*
Y1919393D02*
Y1920107D01*
Y1928042D02*
Y1928889D01*
Y1934918D02*
Y1936328D01*
Y1943697D02*
Y1944176D01*
Y1946237D02*
Y1946604D01*
Y1947996D02*
Y1948757D01*
Y1952989D02*
Y1954255D01*
Y1959341D02*
Y1959950D01*
Y1971034D02*
Y1971643D01*
Y1975312D02*
Y1976722D01*
Y1978448D02*
Y1979162D01*
Y1982517D02*
Y1983783D01*
Y1987576D02*
Y1987942D01*
Y1989334D02*
Y1990095D01*
Y1994629D02*
Y1995712D01*
Y1996780D02*
Y1996821D01*
Y2000202D02*
Y2000822D01*
Y2006650D02*
Y2007641D01*
Y2010745D02*
Y2012155D01*
Y2013881D02*
Y2014595D01*
Y2022648D02*
Y2023257D01*
Y2025862D02*
Y2026468D01*
Y2030154D02*
Y2030869D01*
Y2035666D02*
Y2036932D01*
Y2040272D02*
Y2041682D01*
Y2043408D02*
Y2044123D01*
Y2049459D02*
Y2050068D01*
X1942400Y1883396D02*
Y1884005D01*
Y1887156D02*
Y1887430D01*
Y1890345D02*
Y1890619D01*
Y1900153D02*
Y1900895D01*
Y1905226D02*
Y1906328D01*
Y1916948D02*
Y1917667D01*
Y1927967D02*
Y1928789D01*
Y1935586D02*
Y1936328D01*
Y1946387D02*
Y1946604D01*
Y1959341D02*
Y1959950D01*
Y1971034D02*
Y1971643D01*
Y1976003D02*
Y1976722D01*
Y1987726D02*
Y1987942D01*
Y2000207D02*
Y2000816D01*
Y2011436D02*
Y2012155D01*
Y2022648D02*
Y2023257D01*
Y2025937D02*
Y2026493D01*
Y2040964D02*
Y2041682D01*
Y2049459D02*
Y2050068D01*
X1942500Y1883396D02*
Y1884005D01*
Y1887356D02*
Y1887430D01*
Y1890545D02*
Y1890619D01*
Y1900453D02*
Y1900895D01*
Y1905376D02*
Y1906328D01*
Y1917548D02*
Y1917667D01*
Y1927916D02*
Y1928719D01*
Y1935886D02*
Y1936328D01*
Y1946537D02*
Y1946604D01*
Y1959341D02*
Y1959950D01*
Y1971034D02*
Y1971643D01*
Y1976603D02*
Y1976722D01*
Y1987876D02*
Y1987942D01*
Y2000207D02*
Y2000816D01*
Y2012036D02*
Y2012155D01*
Y2022648D02*
Y2023257D01*
Y2025964D02*
Y2026518D01*
Y2041564D02*
Y2041682D01*
Y2049459D02*
Y2050068D01*
X1942600Y1883396D02*
Y1884005D01*
Y1900753D02*
Y1900895D01*
Y1905526D02*
Y1906328D01*
Y1927902D02*
Y1928653D01*
Y1936186D02*
Y1936328D01*
Y1959341D02*
Y1959950D01*
Y1971034D02*
Y1971643D01*
Y2000207D02*
Y2000816D01*
Y2022648D02*
Y2023257D01*
Y2025979D02*
Y2026543D01*
Y2049459D02*
Y2050068D01*
X1942700Y1883396D02*
Y1884005D01*
Y1905645D02*
Y1906328D01*
Y1927888D02*
Y1928586D01*
Y1959341D02*
Y1959950D01*
Y1971034D02*
Y1971643D01*
Y2000207D02*
Y2000816D01*
Y2022648D02*
Y2023257D01*
Y2025993D02*
Y2026568D01*
Y2049459D02*
Y2050068D01*
X1942800Y1883396D02*
Y1884005D01*
Y1905745D02*
Y1906328D01*
Y1927873D02*
Y1928530D01*
Y1959341D02*
Y1959950D01*
Y1971034D02*
Y1971643D01*
Y2000207D02*
Y2000816D01*
Y2022648D02*
Y2023257D01*
Y2026007D02*
Y2026588D01*
Y2049459D02*
Y2050068D01*
X1942900Y1883396D02*
Y1884005D01*
Y1905845D02*
Y1906328D01*
Y1927859D02*
Y1928505D01*
Y1959341D02*
Y1959950D01*
Y1971034D02*
Y1971643D01*
Y2000207D02*
Y2000816D01*
Y2022648D02*
Y2023257D01*
Y2026022D02*
Y2026608D01*
Y2049459D02*
Y2050068D01*
X1943000Y1883396D02*
Y1884005D01*
Y1905944D02*
Y1906328D01*
Y1927845D02*
Y1928480D01*
Y1959341D02*
Y1959950D01*
Y1971034D02*
Y1971643D01*
Y2000207D02*
Y2000816D01*
Y2022648D02*
Y2023257D01*
Y2026036D02*
Y2026628D01*
Y2049459D02*
Y2050068D01*
X1943100Y1883396D02*
Y1884005D01*
Y1905968D02*
Y1906328D01*
Y1927830D02*
Y1928455D01*
Y1959341D02*
Y1959950D01*
Y1971034D02*
Y1971643D01*
Y2000207D02*
Y2000816D01*
Y2022648D02*
Y2023257D01*
Y2026050D02*
Y2026648D01*
Y2049459D02*
Y2050068D01*
X1943200Y1883396D02*
Y1884005D01*
Y1905984D02*
Y1906328D01*
Y1927816D02*
Y1928430D01*
Y1959341D02*
Y1959950D01*
Y1971034D02*
Y1971643D01*
Y2000215D02*
Y2000816D01*
Y2022648D02*
Y2023257D01*
Y2026064D02*
Y2026668D01*
Y2049459D02*
Y2050068D01*
X1943300Y1883396D02*
Y1884005D01*
Y1906001D02*
Y1906328D01*
Y1927813D02*
Y1928420D01*
Y1959341D02*
Y1959950D01*
Y1971034D02*
Y1971643D01*
Y2000229D02*
Y2000821D01*
Y2022648D02*
Y2023257D01*
Y2026069D02*
Y2026676D01*
Y2049459D02*
Y2050068D01*
X1943400Y1883396D02*
Y1884005D01*
Y1906018D02*
Y1906328D01*
Y1927833D02*
Y1928440D01*
Y1931887D02*
Y1932043D01*
Y1959341D02*
Y1959950D01*
Y1968827D02*
Y1968979D01*
Y1971034D02*
Y1971643D01*
Y1973698D02*
Y1973860D01*
Y2000244D02*
Y2000837D01*
Y2022648D02*
Y2023257D01*
Y2026052D02*
Y2026660D01*
Y2049459D02*
Y2050068D01*
X1943500Y1883396D02*
Y1884005D01*
Y1906034D02*
Y1906328D01*
Y1927853D02*
Y1928460D01*
Y1931845D02*
Y1932060D01*
Y1959341D02*
Y1959950D01*
Y1968854D02*
Y1969022D01*
Y1971034D02*
Y1971643D01*
Y1973656D02*
Y1973840D01*
Y2000258D02*
Y2000854D01*
Y2022648D02*
Y2023257D01*
Y2026036D02*
Y2026643D01*
Y2049459D02*
Y2050068D01*
X1943600Y1883396D02*
Y1884005D01*
Y1906051D02*
Y1906328D01*
Y1927873D02*
Y1928480D01*
Y1931802D02*
Y1932047D01*
Y1959341D02*
Y1959950D01*
Y1968881D02*
Y1969064D01*
Y1971034D02*
Y1971643D01*
Y1973613D02*
Y1973820D01*
Y2000272D02*
Y2000871D01*
Y2022648D02*
Y2023257D01*
Y2026019D02*
Y2026626D01*
Y2049459D02*
Y2050068D01*
X1943700Y1883396D02*
Y1884005D01*
Y1906068D02*
Y1906328D01*
Y1927893D02*
Y1928500D01*
Y1931759D02*
Y1932034D01*
Y1959341D02*
Y1959950D01*
Y1968907D02*
Y1969107D01*
Y1971034D02*
Y1971643D01*
Y1973570D02*
Y1973800D01*
Y2000287D02*
Y2000887D01*
Y2003066D02*
Y2003186D01*
Y2022648D02*
Y2023257D01*
Y2026002D02*
Y2026610D01*
Y2049459D02*
Y2050068D01*
X1943800Y1883396D02*
Y1884005D01*
Y1906074D02*
Y1906328D01*
Y1927913D02*
Y1928520D01*
Y1931716D02*
Y1932020D01*
Y1959341D02*
Y1959950D01*
Y1968934D02*
Y1969150D01*
Y1971034D02*
Y1971643D01*
Y1973527D02*
Y1973780D01*
Y2000301D02*
Y2000904D01*
Y2002907D02*
Y2003432D01*
Y2022648D02*
Y2023257D01*
Y2025986D02*
Y2026593D01*
Y2049459D02*
Y2050068D01*
X1943900Y1883396D02*
Y1884005D01*
Y1906074D02*
Y1906328D01*
Y1927962D02*
Y1928546D01*
Y1931673D02*
Y1932007D01*
Y1959341D02*
Y1959950D01*
Y1968961D02*
Y1969193D01*
Y1971034D02*
Y1971643D01*
Y1973484D02*
Y1973760D01*
Y2000315D02*
Y2000921D01*
Y2002873D02*
Y2003465D01*
Y2022648D02*
Y2023257D01*
Y2025969D02*
Y2026576D01*
Y2049459D02*
Y2050068D01*
X1944000Y1883396D02*
Y1884005D01*
Y1906074D02*
Y1906328D01*
Y1928029D02*
Y1928586D01*
Y1931630D02*
Y1931994D01*
Y1959341D02*
Y1959950D01*
Y1968987D02*
Y1969236D01*
Y1971034D02*
Y1971643D01*
Y1973441D02*
Y1973740D01*
Y2000359D02*
Y2000940D01*
Y2002840D02*
Y2003498D01*
Y2022648D02*
Y2023257D01*
Y2025950D02*
Y2026542D01*
Y2049459D02*
Y2050068D01*
X1944100Y1883396D02*
Y1884005D01*
Y1900573D02*
Y1900804D01*
Y1928095D02*
Y1928626D01*
Y1931587D02*
Y1931980D01*
Y1936006D02*
Y1936237D01*
Y1959341D02*
Y1959950D01*
Y1969014D02*
Y1969279D01*
Y1971034D02*
Y1971643D01*
Y1973398D02*
Y1973720D01*
Y2000439D02*
Y2000990D01*
Y2002807D02*
Y2003528D01*
Y2022648D02*
Y2023257D01*
Y2025875D02*
Y2026482D01*
Y2049459D02*
Y2050068D01*
X1944200Y1883396D02*
Y1884005D01*
Y1900373D02*
Y1900954D01*
Y1928162D02*
Y1928666D01*
Y1931501D02*
Y1931967D01*
Y1935806D02*
Y1936387D01*
Y1959341D02*
Y1959950D01*
Y1969041D02*
Y1969347D01*
Y1971034D02*
Y1971643D01*
Y1973350D02*
Y1973700D01*
Y2000519D02*
Y2001040D01*
Y2002806D02*
Y2003495D01*
Y2022648D02*
Y2023257D01*
Y2025800D02*
Y2026422D01*
Y2049459D02*
Y2050068D01*
X1944300Y1883396D02*
Y1884005D01*
Y1900238D02*
Y1901061D01*
Y1928229D02*
Y1928706D01*
Y1931401D02*
Y1931954D01*
Y1935671D02*
Y1936494D01*
Y1959341D02*
Y1959950D01*
Y1969067D02*
Y1969422D01*
Y1971034D02*
Y1971643D01*
Y1973300D02*
Y1973680D01*
Y2000599D02*
Y2001090D01*
Y2002806D02*
Y2003461D01*
Y2022648D02*
Y2023257D01*
Y2025725D02*
Y2026362D01*
Y2049439D02*
Y2050068D01*
X1944400Y1883396D02*
Y1884005D01*
Y1900171D02*
Y1901128D01*
Y1928295D02*
Y1928746D01*
Y1931301D02*
Y1931940D01*
Y1935604D02*
Y1936561D01*
Y1959341D02*
Y1959950D01*
Y1969094D02*
Y1969497D01*
Y1971034D02*
Y1971643D01*
Y1973250D02*
Y1973660D01*
Y2000679D02*
Y2001140D01*
Y2002786D02*
Y2003428D01*
Y2022648D02*
Y2023257D01*
Y2025650D02*
Y2026302D01*
Y2049414D02*
Y2050068D01*
X1944500Y1883377D02*
Y1884025D01*
Y1900105D02*
Y1901194D01*
Y1928362D02*
Y1928804D01*
Y1931201D02*
Y1931927D01*
Y1935538D02*
Y1936628D01*
Y1959322D02*
Y1959950D01*
Y1969121D02*
Y1969572D01*
Y1971034D02*
Y1971643D01*
Y1973200D02*
Y1973640D01*
Y2000759D02*
Y2001207D01*
Y2002752D02*
Y2003370D01*
Y2022629D02*
Y2023277D01*
Y2025558D02*
Y2026242D01*
Y2049389D02*
Y2050068D01*
X1944600Y1883327D02*
Y1884075D01*
Y1900072D02*
Y1901227D01*
Y1928486D02*
Y1928937D01*
Y1931101D02*
Y1931914D01*
Y1935506D02*
Y1936660D01*
Y1959272D02*
Y1959950D01*
Y1969147D02*
Y1969648D01*
Y1971034D02*
Y1971643D01*
Y1973148D02*
Y1973620D01*
Y2000900D02*
Y2001357D01*
Y2002719D02*
Y2003304D01*
Y2022579D02*
Y2023327D01*
Y2025308D02*
Y2026082D01*
Y2049364D02*
Y2050068D01*
X1944700Y1883277D02*
Y1884125D01*
Y1900122D02*
Y1901177D01*
Y1928636D02*
Y1929070D01*
Y1930909D02*
Y1931900D01*
Y1935556D02*
Y1936610D01*
Y1959222D02*
Y1959950D01*
Y1969174D02*
Y1969926D01*
Y1971034D02*
Y1971643D01*
Y1972869D02*
Y1973600D01*
Y2001067D02*
Y2001507D01*
Y2002686D02*
Y2003237D01*
Y2022529D02*
Y2023377D01*
Y2025058D02*
Y2025882D01*
Y2049339D02*
Y2050068D01*
X1944800Y1883042D02*
Y1884360D01*
Y1900172D02*
Y1901127D01*
Y1928786D02*
Y1929204D01*
Y1930709D02*
Y1931096D01*
Y1931566D02*
Y1931887D01*
Y1935606D02*
Y1936560D01*
Y1958986D02*
Y1959950D01*
Y1969201D02*
Y1970293D01*
Y1971034D02*
Y1971643D01*
Y1972502D02*
Y1973580D01*
Y2001234D02*
Y2001828D01*
Y2002520D02*
Y2003035D01*
Y2022294D02*
Y2023612D01*
Y2024575D02*
Y2025682D01*
Y2049105D02*
Y2050068D01*
X1944900Y1881861D02*
Y1885541D01*
Y1900222D02*
Y1901077D01*
Y1928936D02*
Y1929568D01*
Y1930361D02*
Y1930946D01*
Y1931817D02*
Y1931874D01*
Y1935656D02*
Y1936510D01*
Y1957924D02*
Y1959950D01*
Y1969227D02*
Y1973560D01*
Y2001515D02*
Y2002579D01*
Y2021940D02*
Y2025318D01*
Y2048633D02*
Y2050068D01*
X1945000Y1900285D02*
Y1901023D01*
Y1929143D02*
Y1930749D01*
Y1935718D02*
Y1936456D01*
Y1958424D02*
Y1959950D01*
Y2049222D02*
Y2050068D01*
X1945100Y1900685D02*
Y1900723D01*
Y1929943D02*
Y1930049D01*
Y1936118D02*
Y1936156D01*
Y1959124D02*
Y1959950D01*
Y2049622D02*
Y2050068D01*
X1945200Y1959459D02*
Y1959950D01*
Y2049843D02*
Y2050068D01*
X1945300Y1959759D02*
Y1959950D01*
Y2050043D02*
Y2050068D01*
*
G04 PC Custom Flashes*
G04 Layer Name Jupiter转接板-20210830- - flashes*
%LPD*%
*
*
G04 PC Circuitry*
G04 Layer Name Jupiter转接板-20210830- - circuitry*
%LPD*%
*
G54D10*
G54D11*
X1994094Y2035039D02*
X1989764D01*
G75*
G03X1988583Y2033858I-0J-1181D01*
G01Y2029134*
G03X1989764Y2027953I1181J-0*
G01X1994094*
X1998031Y2035039D02*
X2002362D01*
X2003543Y2033858D02*
G03X2002362Y2035039I-1181J0D01*
G01X2003543Y2033858D02*
Y2029134D01*
X2002362Y2027953D02*
G03X2003543Y2029134I0J1181D01*
G01X2002362Y2027953D02*
X1998031D01*
Y2055906D02*
X2003150D01*
X2004331Y2054724D02*
G03X2003150Y2055906I-1181J0D01*
G01X2004331Y2054724D02*
Y2047638D01*
X2003150Y2046457D02*
G03X2004331Y2047638I-0J1181D01*
G01X2003150Y2046457D02*
X1998031D01*
X1990157Y2055906D02*
X1985039D01*
G03X1983858Y2054724I0J-1182*
G01Y2047638*
G03X1985039Y2046457I1181J-0*
G01X1990157*
X1850394Y1862205D02*
G03X1862205Y1850394I11811J-0D01*
G01X2074803*
G03X2086614Y1862205I0J11811*
G01Y2074803*
G03X2074803Y2086614I-11811J0*
G01X1862205*
G03X1850394Y2074803I-0J-11811*
G01Y1862205*
X1877165Y2066929D02*
G03X1877165I-7086J0D01*
G01X2074016D02*
G03X2074016I-7087J0D01*
G01Y1870079D02*
G03X2074016I-7087J0D01*
G01X1877165D02*
G03X1877165I-7086J0D01*
G54D29*
G01X2016363Y2033062D02*
X2017101Y2032793D01*
X2017840Y2032257*
X2018209Y2031720*
Y2030646*
X2017840Y2030109*
X2017101Y2029572*
X2016363Y2029304*
X2015256Y2029035*
X2013410*
X2012303Y2029304*
X2011565Y2029572*
X2010827Y2030109*
X2010458Y2030646*
Y2031720*
X2010827Y2032257*
X2011565Y2032793*
X2012303Y2033062*
X2016732Y2035478D02*
X2017101Y2036015D01*
X2018209Y2036820*
X2010458*
X2016363Y2049571D02*
X2017101Y2049302D01*
X2017840Y2048765*
X2018209Y2048228*
Y2047155*
X2017840Y2046618*
X2017101Y2046081*
X2016363Y2045812*
X2015256Y2045544*
X2013410*
X2012303Y2045812*
X2011565Y2046081*
X2010827Y2046618*
X2010458Y2047155*
Y2048228*
X2010827Y2048765*
X2011565Y2049302*
X2012303Y2049571*
X2016363Y2052255D02*
X2016732D01*
X2017470Y2052523*
X2017840Y2052792*
X2018209Y2053329*
Y2054402*
X2017840Y2054939*
X2017470Y2055208*
X2016732Y2055476*
X2015994*
X2015256Y2055208*
X2014149Y2054671*
X2010458Y2051986*
Y2055744*
G74*
X0Y0D02*
M02*
