*
*
G04 PADS 9.5 Build Number: 522968 generated Gerber (RS-274-X) file*
G04 PC Version=2.1*
*
%IN "Jupiter转接板-20210830-"*%
*
%MOIN*%
*
%FSLAX35Y35*%
*
*
*
*
G04 PC Standard Apertures*
*
*
G04 Thermal Relief Aperture macro.*
%AMTER*
1,1,$1,0,0*
1,0,$1-$2,0,0*
21,0,$3,$4,0,0,45*
21,0,$3,$4,0,0,135*
%
*
*
G04 Annular Aperture macro.*
%AMANN*
1,1,$1,0,0*
1,0,$2,0,0*
%
*
*
G04 Odd Aperture macro.*
%AMODD*
1,1,$1,0,0*
1,0,$1-0.005,0,0*
%
*
*
G04 PC Custom Aperture Macros*
*
*
*
*
*
*
G04 PC Aperture Table*
*
%ADD010C,0.001*%
%ADD011C,0.01*%
%ADD012R,0.065X0.08*%
%ADD013O,0.065X0.08*%
%ADD014R,0.08X0.065*%
%ADD015O,0.08X0.065*%
%ADD016C,0.09843*%
%ADD017C,0.05906*%
%ADD018C,0.07874*%
*
*
*
*
G04 PC Circuitry*
G04 Layer Name Jupiter转接板-20210830- - circuitry*
%LPD*%
*
*
G04 PC Custom Flashes*
G04 Layer Name Jupiter转接板-20210830- - flashes*
%LPD*%
*
*
G04 PC Circuitry*
G04 Layer Name Jupiter转接板-20210830- - circuitry*
%LPD*%
*
G54D10*
G54D11*
G01X2079240Y1870079D02*
G75*
G03X2079240I-12311J0D01*
G01Y2066929D02*
G03X2079240I-12311J0D01*
G01X1882390Y1870079D02*
G03X1882390I-12311J0D01*
G01Y2066929D02*
G03X1882390I-12311J0D01*
G01X2084146Y1862205D02*
Y2074803D01*
G03X2074803Y2084146I-9343J0*
G01X1862205*
G03X1852862Y2074803I-0J-9343*
G01Y1862205*
G03X1862205Y1852862I9343J-0*
G01X2074803*
G03X2084146Y1862205I0J9343*
G01X2079240Y1870079D02*
G03X2079240I-12311J0D01*
G01X1964852Y1866892D02*
Y1865392D01*
X1954536Y1861992D02*
G03X1964852Y1865392I4598J3400D01*
G01X1954536Y1861992D02*
G03X1953732I-402J-298D01*
G01X1944536D02*
G03X1953732I4598J3400D01*
G01X1944536D02*
G03X1943732I-402J-298D01*
G01X1935335Y1861118D02*
G03X1943732Y1861992I3799J4274D01*
G01X1935335Y1861118D02*
G03X1934562Y1860979I-332J-374D01*
G01X1932384Y1859673D02*
G03X1934562Y1860979I-0J2469D01*
G01X1932384Y1859673D02*
X1925884D01*
X1923415Y1862142D02*
G03X1925884Y1859673I2469J-0D01*
G01X1923415Y1862142D02*
Y1870142D01*
X1925884Y1872610D02*
G03X1923415Y1870142I-0J-2468D01*
G01X1925884Y1872610D02*
X1932384D01*
X1934562Y1871304D02*
G03X1932384Y1872610I-2178J-1162D01*
G01X1934562Y1871304D02*
G03X1935335Y1871166I441J236D01*
G01X1943732Y1870292D02*
G03X1935335Y1871166I-4598J-3400D01*
G01X1943732Y1870292D02*
G03X1944536I402J297D01*
G01X1953732D02*
G03X1944536I-4598J-3400D01*
G01X1953732D02*
G03X1954536I402J297D01*
G01X1964852Y1866892D02*
G03X1954536Y1870292I-5718J-0D01*
G01X1992704Y1869610D02*
G03X2000547Y1877454I7375J469D01*
G01X1992704Y1869610D02*
G03X1992558Y1869932I-499J-31D01*
G01X1976326Y1886165*
G03X1975973Y1886311I-353J-354*
G01X1972441*
X1954803*
X1950970Y1887899D02*
G03X1954803Y1886311I3833J3833D01*
G01X1950970Y1887899D02*
X1893883Y1944985D01*
X1892295Y1948819D02*
G03X1893883Y1944985I5422J-0D01*
G01X1892295Y1948819D02*
Y2055809D01*
G03X1892171Y2056140I-500J0*
G01X1903263D02*
G03X1892171I-5546J4884D01*
G01X1903263D02*
G03X1903138Y2055809I375J-331D01*
G01Y1951272*
G03X1903284Y1950918I500J-0*
G01X1956902Y1897300*
G03X1957256Y1897154I354J354*
G01X1972441*
X1978425*
X1982259Y1895566D02*
G03X1978425Y1897154I-3834J-3834D01*
G01X1982259Y1895566D02*
X2000225Y1877599D01*
G03X2000547Y1877454I354J354*
G01X2077335Y1930415D02*
Y1923915D01*
X2076029Y1921738D02*
G03X2077335Y1923915I-1163J2177D01*
G01X2076029Y1921738D02*
G03X2075890Y1920964I235J-441D01*
G01X2071616Y1911447D02*
G03X2075890Y1920964I0J5718D01*
G01X2071616Y1911447D02*
X2070116D01*
X2068369Y1911720D02*
G03X2070116Y1911447I1747J5445D01*
G01X2068369Y1911720D02*
G03X2068217Y1911744I-152J-476D01*
G01X1972598*
X1968765Y1913332D02*
G03X1972598Y1911744I3833J3833D01*
G01X1968765Y1913332D02*
X1934985Y1947111D01*
X1933398Y1950945D02*
G03X1934985Y1947111I5421J-0D01*
G01X1933398Y1950945D02*
Y2064280D01*
G03X1933374Y2064432I-500J-0*
G01X1933100Y2066179D02*
G03X1933374Y2064432I5719J0D01*
G01X1933100Y2066179D02*
Y2067679D01*
X1942618Y2071953D02*
G03X1933100Y2067679I-3799J-4274D01*
G01X1942618Y2071953D02*
G03X1943391Y2072092I332J374D01*
G01X1945569Y2073398D02*
G03X1943391Y2072092I-0J-2469D01*
G01X1945569Y2073398D02*
X1952069D01*
X1954537Y2070929D02*
G03X1952069Y2073398I-2468J0D01*
G01X1954537Y2070929D02*
Y2062929D01*
X1954290Y2061852D02*
G03X1954537Y2062929I-2221J1077D01*
G01X1954290Y2061852D02*
G03X1954240Y2061634I450J-218D01*
G01Y1963083*
G03X1954387Y1962729I500J-0*
G01X1984383Y1932733*
G03X1984736Y1932587I353J354*
G01X2065571*
G03X2065789Y1932637I0J500*
G01X2066866Y1932884D02*
G03X2065789Y1932637I0J-2469D01*
G01X2066866Y1932884D02*
X2074866D01*
X2077335Y1930415D02*
G03X2074866Y1932884I-2469J0D01*
G01X2075016Y1981937D02*
G03X2071616Y1992254I-3400J4598D01*
G01X2075016Y1981937D02*
G03Y1981133I297J-402D01*
G01X2075890Y1972736D02*
G03X2075016Y1981133I-4274J3799D01*
G01X2075890Y1972736D02*
G03X2076029Y1971963I374J-332D01*
G01X2077335Y1969785D02*
G03X2076029Y1971963I-2469J0D01*
G01X2077335Y1969785D02*
Y1963285D01*
X2074866Y1960817D02*
G03X2077335Y1963285I0J2468D01*
G01X2074866Y1960817D02*
X2066866D01*
X2065789Y1961064D02*
G03X2066866Y1960817I1077J2221D01*
G01X2065789Y1961064D02*
G03X2065571Y1961114I-218J-450D01*
G01X2001969*
X1998135Y1962702D02*
G03X2001969Y1961114I3834J3833D01*
G01X1998135Y1962702D02*
X1974513Y1986324D01*
X1972925Y1990157D02*
G03X1974513Y1986324I5421J0D01*
G01X1972925Y1990157D02*
Y2061634D01*
G03X1972875Y2061852I-500J0*
G01X1972628Y2062929D02*
G03X1972875Y2061852I2468J0D01*
G01X1972628Y2062929D02*
Y2070929D01*
X1975096Y2073398D02*
G03X1972628Y2070929I0J-2469D01*
G01X1975096Y2073398D02*
X1981596D01*
X1983774Y2072092D02*
G03X1981596Y2073398I-2178J-1163D01*
G01X1983774Y2072092D02*
G03X1984547Y2071953I441J235D01*
G01X1992944Y2071079D02*
G03X1984547Y2071953I-4598J-3400D01*
G01X1992944Y2071079D02*
G03X1993748I402J297D01*
G01X2004065Y2067679D02*
G03X1993748Y2071079I-5719J0D01*
G01X2004065Y2067679D02*
Y2066179D01*
X2003792Y2064432D02*
G03X2004065Y2066179I-5446J1747D01*
G01X2003792Y2064432D02*
G03X2003768Y2064280I476J-152D01*
G01Y2011980*
G03X2003914Y2011627I500J0*
G01X2023438Y1992103*
G03X2023791Y1991957I353J354*
G01X2068217*
G03X2068369Y1991981I-0J500*
G01X2070116Y1992254D02*
G03X2068369Y1991981I0J-5719D01*
G01X2070116Y1992254D02*
X2071616D01*
X2077335Y2038683D02*
Y2032183D01*
X2076029Y2030005D02*
G03X2077335Y2032183I-1163J2178D01*
G01X2076029Y2030005D02*
G03X2075890Y2029232I235J-441D01*
G01X2071616Y2019715D02*
G03X2075890Y2029232I0J5718D01*
G01X2071616Y2019715D02*
X2070116D01*
X2068369Y2019988D02*
G03X2070116Y2019715I1747J5445D01*
G01X2068369Y2019988D02*
G03X2068217Y2020012I-152J-476D01*
G01X2041496*
X2037663Y2021600D02*
G03X2041496Y2020012I3833J3833D01*
G01X2037663Y2021600D02*
X2023568Y2035694D01*
X2021980Y2039528D02*
G03X2023568Y2035694I5422J-0D01*
G01X2021980Y2039528D02*
Y2064280D01*
G03X2021956Y2064432I-500J-0*
G01X2021683Y2066179D02*
G03X2021956Y2064432I5719J0D01*
G01X2021683Y2066179D02*
Y2067679D01*
X2031201Y2071953D02*
G03X2021683Y2067679I-3799J-4274D01*
G01X2031201Y2071953D02*
G03X2031974Y2072092I332J374D01*
G01X2034152Y2073398D02*
G03X2031974Y2072092I-0J-2469D01*
G01X2034152Y2073398D02*
X2040652D01*
X2043120Y2070929D02*
G03X2040652Y2073398I-2468J0D01*
G01X2043120Y2070929D02*
Y2062929D01*
X2042873Y2061852D02*
G03X2043120Y2062929I-2221J1077D01*
G01X2042873Y2061852D02*
G03X2042823Y2061634I450J-218D01*
G01Y2051665*
G03X2042969Y2051312I500J0*
G01X2053280Y2041001*
G03X2053634Y2040854I354J353*
G01X2065571*
G03X2065789Y2040904I0J500*
G01X2066866Y2041152D02*
G03X2065789Y2040904I0J-2469D01*
G01X2066866Y2041152D02*
X2074866D01*
X2077335Y2038683D02*
G03X2074866Y2041152I-2469J0D01*
G01X2079240Y2066929D02*
G03X2079240I-12311J0D01*
G01X1882390Y1870079D02*
G03X1882390I-12311J0D01*
G01X1874229Y2023434D02*
G03X1870829Y2033750I-3400J4597D01*
G01X1874229Y2023434D02*
G03Y2022629I297J-403D01*
G01Y2013434D02*
G03Y2022629I-3400J4597D01*
G01Y2013434D02*
G03Y2012629I297J-403D01*
G01X1875103Y2004232D02*
G03X1874229Y2012629I-4274J3799D01*
G01X1875103Y2004232D02*
G03X1875241Y2003459I374J-332D01*
G01X1876547Y2001281D02*
G03X1875241Y2003459I-2468J0D01*
G01X1876547Y2001281D02*
Y1994781D01*
X1874079Y1992313D02*
G03X1876547Y1994781I-0J2468D01*
G01X1874079Y1992313D02*
X1866079D01*
X1863610Y1994781D02*
G03X1866079Y1992313I2469J0D01*
G01X1863610Y1994781D02*
Y2001281D01*
X1864916Y2003459D02*
G03X1863610Y2001281I1163J-2178D01*
G01X1864916Y2003459D02*
G03X1865055Y2004232I-235J441D01*
G01X1865929Y2012629D02*
G03X1865055Y2004232I3400J-4598D01*
G01X1865929Y2012629D02*
G03Y2013434I-298J402D01*
G01Y2022629D02*
G03Y2013434I3400J-4598D01*
G01Y2022629D02*
G03Y2023434I-298J402D01*
G01X1869329Y2033750D02*
G03X1865929Y2023434I-0J-5719D01*
G01X1869329Y2033750D02*
X1870829D01*
X1882390Y2066929D02*
G03X1882390I-12311J0D01*
G01X2076819Y2074261D02*
X2084146D01*
X2077426Y2073361D02*
X2084146D01*
X2077927Y2072461D02*
X2084146D01*
X2078336Y2071561D02*
X2084146D01*
X2078661Y2070661D02*
X2084146D01*
X2078910Y2069761D02*
X2084146D01*
X2079088Y2068861D02*
X2084146D01*
X2079197Y2067961D02*
X2084146D01*
X2079239Y2067061D02*
X2084146D01*
X2079216Y2066161D02*
X2084146D01*
X2079127Y2065261D02*
X2084146D01*
X2078969Y2064361D02*
X2084146D01*
X2078742Y2063461D02*
X2084146D01*
X2078439Y2062561D02*
X2084146D01*
X2078056Y2061661D02*
X2084146D01*
X2077583Y2060761D02*
X2084146D01*
X2077009Y2059861D02*
X2084146D01*
X2076314Y2058961D02*
X2084146D01*
X2075468Y2058061D02*
X2084146D01*
X2074422Y2057161D02*
X2084146D01*
X2073073Y2056261D02*
X2084146D01*
X2071141Y2055361D02*
X2084146D01*
X2042823Y2054461D02*
X2084146D01*
X2042823Y2053561D02*
X2084146D01*
X2042823Y2052661D02*
X2084146D01*
X2042823Y2051761D02*
X2084146D01*
X2043420Y2050861D02*
X2084146D01*
X2044320Y2049961D02*
X2084146D01*
X2045220Y2049061D02*
X2084146D01*
X2046120Y2048161D02*
X2084146D01*
X2047020Y2047261D02*
X2084146D01*
X2047920Y2046361D02*
X2084146D01*
X2048820Y2045461D02*
X2084146D01*
X2049720Y2044561D02*
X2084146D01*
X2050620Y2043661D02*
X2084146D01*
X2051520Y2042761D02*
X2084146D01*
X2052420Y2041861D02*
X2084146D01*
X2075817Y2040961D02*
X2084146D01*
X2076914Y2040061D02*
X2084146D01*
X2077288Y2039161D02*
X2084146D01*
X2077335Y2038261D02*
X2084146D01*
X2077335Y2037361D02*
X2084146D01*
X2077335Y2036461D02*
X2084146D01*
X2077335Y2035561D02*
X2084146D01*
X2077335Y2034661D02*
X2084146D01*
X2077335Y2033761D02*
X2084146D01*
X2077335Y2032861D02*
X2084146D01*
X2077325Y2031961D02*
X2084146D01*
X2077065Y2031061D02*
X2084146D01*
X2076282Y2030161D02*
X2084146D01*
X2075867Y2029261D02*
X2084146D01*
X2076528Y2028361D02*
X2084146D01*
X2076963Y2027461D02*
X2084146D01*
X2077222Y2026561D02*
X2084146D01*
X2077330Y2025661D02*
X2084146D01*
X2077295Y2024761D02*
X2084146D01*
X2077114Y2023861D02*
X2084146D01*
X2076773Y2022961D02*
X2084146D01*
X2076235Y2022061D02*
X2084146D01*
X2075417Y2021161D02*
X2084146D01*
X2074055Y2020261D02*
X2084146D01*
X2003768Y2019361D02*
X2084146D01*
X2003768Y2018461D02*
X2084146D01*
X2003768Y2017561D02*
X2084146D01*
X2003768Y2016661D02*
X2084146D01*
X2003768Y2015761D02*
X2084146D01*
X2003768Y2014861D02*
X2084146D01*
X2003768Y2013961D02*
X2084146D01*
X2003768Y2013061D02*
X2084146D01*
X2003768Y2012161D02*
X2084146D01*
X2004280Y2011261D02*
X2084146D01*
X2005180Y2010361D02*
X2084146D01*
X2006080Y2009461D02*
X2084146D01*
X2006980Y2008561D02*
X2084146D01*
X2007880Y2007661D02*
X2084146D01*
X2008780Y2006761D02*
X2084146D01*
X2009680Y2005861D02*
X2084146D01*
X2010580Y2004961D02*
X2084146D01*
X2011480Y2004061D02*
X2084146D01*
X2012380Y2003161D02*
X2084146D01*
X2013280Y2002261D02*
X2084146D01*
X2014180Y2001361D02*
X2084146D01*
X2015080Y2000461D02*
X2084146D01*
X2015980Y1999561D02*
X2084146D01*
X2016880Y1998661D02*
X2084146D01*
X2017780Y1997761D02*
X2084146D01*
X2018680Y1996861D02*
X2084146D01*
X2019580Y1995961D02*
X2084146D01*
X2020480Y1995061D02*
X2084146D01*
X2021380Y1994161D02*
X2084146D01*
X2022280Y1993261D02*
X2084146D01*
X2023180Y1992361D02*
X2084146D01*
X2074522Y1991461D02*
X2084146D01*
X2075678Y1990561D02*
X2084146D01*
X2076405Y1989661D02*
X2084146D01*
X2076884Y1988761D02*
X2084146D01*
X2077179Y1987861D02*
X2084146D01*
X2077319Y1986961D02*
X2084146D01*
X2077315Y1986061D02*
X2084146D01*
X2077167Y1985161D02*
X2084146D01*
X2076863Y1984261D02*
X2084146D01*
X2076373Y1983361D02*
X2084146D01*
X2075629Y1982461D02*
X2084146D01*
X2074814Y1981561D02*
X2084146D01*
X2075576Y1980661D02*
X2084146D01*
X2076338Y1979761D02*
X2084146D01*
X2076840Y1978861D02*
X2084146D01*
X2077154Y1977961D02*
X2084146D01*
X2077310Y1977061D02*
X2084146D01*
X2077322Y1976161D02*
X2084146D01*
X2077191Y1975261D02*
X2084146D01*
X2076905Y1974361D02*
X2084146D01*
X2076438Y1973461D02*
X2084146D01*
X2075789Y1972561D02*
X2084146D01*
X2076471Y1971661D02*
X2084146D01*
X2077134Y1970761D02*
X2084146D01*
X2077334Y1969861D02*
X2084146D01*
X2077335Y1968961D02*
X2084146D01*
X2077335Y1968061D02*
X2084146D01*
X2077335Y1967161D02*
X2084146D01*
X2077335Y1966261D02*
X2084146D01*
X2077335Y1965361D02*
X2084146D01*
X2077335Y1964461D02*
X2084146D01*
X2077335Y1963561D02*
X2084146D01*
X2077254Y1962661D02*
X2084146D01*
X2076808Y1961761D02*
X2084146D01*
X2075330Y1960861D02*
X2084146D01*
X1957155Y1959961D02*
X2084146D01*
X1958055Y1959061D02*
X2084146D01*
X1958955Y1958161D02*
X2084146D01*
X1959855Y1957261D02*
X2084146D01*
X1960755Y1956361D02*
X2084146D01*
X1961655Y1955461D02*
X2084146D01*
X1962555Y1954561D02*
X2084146D01*
X1963455Y1953661D02*
X2084146D01*
X1964355Y1952761D02*
X2084146D01*
X1965255Y1951861D02*
X2084146D01*
X1966155Y1950961D02*
X2084146D01*
X1967055Y1950061D02*
X2084146D01*
X1967955Y1949161D02*
X2084146D01*
X1968855Y1948261D02*
X2084146D01*
X1969755Y1947361D02*
X2084146D01*
X1970655Y1946461D02*
X2084146D01*
X1971555Y1945561D02*
X2084146D01*
X1972455Y1944661D02*
X2084146D01*
X1973355Y1943761D02*
X2084146D01*
X1974255Y1942861D02*
X2084146D01*
X1975155Y1941961D02*
X2084146D01*
X1976055Y1941061D02*
X2084146D01*
X1976955Y1940161D02*
X2084146D01*
X1977855Y1939261D02*
X2084146D01*
X1978755Y1938361D02*
X2084146D01*
X1979655Y1937461D02*
X2084146D01*
X1980555Y1936561D02*
X2084146D01*
X1981455Y1935661D02*
X2084146D01*
X1982355Y1934761D02*
X2084146D01*
X1983255Y1933861D02*
X2084146D01*
X1984155Y1932961D02*
X2084146D01*
X2076706Y1932061D02*
X2084146D01*
X2077219Y1931161D02*
X2084146D01*
X2077335Y1930261D02*
X2084146D01*
X2077335Y1929361D02*
X2084146D01*
X2077335Y1928461D02*
X2084146D01*
X2077335Y1927561D02*
X2084146D01*
X2077335Y1926661D02*
X2084146D01*
X2077335Y1925761D02*
X2084146D01*
X2077335Y1924861D02*
X2084146D01*
X2077335Y1923961D02*
X2084146D01*
X2077182Y1923061D02*
X2084146D01*
X2076603Y1922161D02*
X2084146D01*
X2075765Y1921261D02*
X2084146D01*
X2076358Y1920361D02*
X2084146D01*
X2076854Y1919461D02*
X2084146D01*
X2077162Y1918561D02*
X2084146D01*
X2077313Y1917661D02*
X2084146D01*
X2077320Y1916761D02*
X2084146D01*
X2077184Y1915861D02*
X2084146D01*
X2076893Y1914961D02*
X2084146D01*
X2076419Y1914061D02*
X2084146D01*
X2075699Y1913161D02*
X2084146D01*
X2074557Y1912261D02*
X2084146D01*
X1942841Y1911361D02*
X2084146D01*
X1943741Y1910461D02*
X2084146D01*
X1944641Y1909561D02*
X2084146D01*
X1945541Y1908661D02*
X2084146D01*
X1946441Y1907761D02*
X2084146D01*
X1947341Y1906861D02*
X2084146D01*
X1948241Y1905961D02*
X2084146D01*
X1949141Y1905061D02*
X2084146D01*
X1950041Y1904161D02*
X2084146D01*
X1950941Y1903261D02*
X2084146D01*
X1951841Y1902361D02*
X2084146D01*
X1952741Y1901461D02*
X2084146D01*
X1953641Y1900561D02*
X2084146D01*
X1954541Y1899661D02*
X2084146D01*
X1955441Y1898761D02*
X2084146D01*
X1956341Y1897861D02*
X2084146D01*
X1979858Y1896961D02*
X2084146D01*
X1981689Y1896061D02*
X2084146D01*
X1982663Y1895161D02*
X2084146D01*
X1983563Y1894261D02*
X2084146D01*
X1984463Y1893361D02*
X2084146D01*
X1985363Y1892461D02*
X2084146D01*
X1986263Y1891561D02*
X2084146D01*
X1987163Y1890661D02*
X2084146D01*
X1988063Y1889761D02*
X2084146D01*
X1988963Y1888861D02*
X2084146D01*
X1989863Y1887961D02*
X2084146D01*
X1990763Y1887061D02*
X2084146D01*
X1991663Y1886161D02*
X2084146D01*
X1992563Y1885261D02*
X2084146D01*
X1993463Y1884361D02*
X2084146D01*
X1994363Y1883461D02*
X2084146D01*
X1995263Y1882561D02*
X2084146D01*
X2071102Y1881661D02*
X2084146D01*
X2073049Y1880761D02*
X2084146D01*
X2074404Y1879861D02*
X2084146D01*
X2075454Y1878961D02*
X2084146D01*
X2076302Y1878061D02*
X2084146D01*
X2076999Y1877161D02*
X2084146D01*
X2077575Y1876261D02*
X2084146D01*
X2078049Y1875361D02*
X2084146D01*
X2078434Y1874461D02*
X2084146D01*
X2078737Y1873561D02*
X2084146D01*
X2078966Y1872661D02*
X2084146D01*
X2079125Y1871761D02*
X2084146D01*
X2079215Y1870861D02*
X2084146D01*
X2079240Y1869961D02*
X2084146D01*
X2079198Y1869061D02*
X2084146D01*
X2079090Y1868161D02*
X2084146D01*
X2078913Y1867261D02*
X2084146D01*
X2078665Y1866361D02*
X2084146D01*
X2078341Y1865461D02*
X2084146D01*
X2077934Y1864561D02*
X2084146D01*
X2077435Y1863661D02*
X2084146D01*
X2076829Y1862761D02*
X2084146D01*
X2076096Y1861861D02*
X2084139D01*
X2076083Y2075161D02*
X2084139D01*
X2075201Y1860961D02*
X2084062D01*
X2075186Y2076061D02*
X2084061D01*
X2074085Y1860061D02*
X2083896D01*
X2074065Y2076961D02*
X2083893D01*
X2072618Y1859161D02*
X2083636D01*
X2072591Y2077861D02*
X2083631D01*
X2070379Y1858261D02*
X2083272D01*
X2070331Y2078761D02*
X2083266D01*
X1854216Y1857361D02*
X2082792D01*
X1854224Y2079661D02*
X2082783D01*
X1854836Y1856461D02*
X2082171D01*
X1854847Y2080561D02*
X2082160D01*
X1855636Y1855561D02*
X2081371D01*
X1855651Y2081461D02*
X2081357D01*
X1856694Y1854661D02*
X2080314D01*
X1856713Y2082361D02*
X2080295D01*
X1858207Y1853761D02*
X2078801D01*
X1858236Y2083261D02*
X2078772D01*
X1956255Y1960861D02*
X2066402D01*
X2053325Y2040961D02*
X2065915D01*
X1873480Y2078761D02*
X2063528D01*
X1873528Y1858261D02*
X2063479D01*
X1996163Y1881661D02*
X2062756D01*
X2042823Y2055361D02*
X2062717D01*
X1875741Y2077861D02*
X2061267D01*
X1875768Y1859161D02*
X2061240D01*
X1997063Y1880761D02*
X2060809D01*
X2042823Y2056261D02*
X2060785D01*
X1877215Y2076961D02*
X2059793D01*
X1961204Y1860061D02*
X2059773D01*
X1997963Y1879861D02*
X2059454D01*
X2042823Y2057161D02*
X2059436D01*
X1878335Y2076061D02*
X2058672D01*
X1962749Y1860961D02*
X2058657D01*
X1998863Y1878961D02*
X2058405D01*
X2042823Y2058061D02*
X2058390D01*
X1879233Y2075161D02*
X2057775D01*
X1963632Y1861861D02*
X2057762D01*
X1999763Y1878061D02*
X2057556D01*
X2042823Y2058961D02*
X2057545D01*
X1879968Y2074261D02*
X2057039D01*
X2001107Y1862761D02*
X2057029D01*
X2002189Y1877161D02*
X2056859D01*
X2042823Y2059861D02*
X2056849D01*
X2041076Y2073361D02*
X2056432D01*
X2003742Y1863661D02*
X2056423D01*
X2004127Y1876261D02*
X2056283D01*
X2042823Y2060761D02*
X2056275D01*
X2042587Y2072461D02*
X2055931D01*
X2004994Y1864561D02*
X2055924D01*
X2005247Y1875361D02*
X2055809D01*
X2042824Y2061661D02*
X2055802D01*
X2043038Y2071561D02*
X2055523D01*
X2005848Y1865461D02*
X2055517D01*
X2006029Y1874461D02*
X2055424D01*
X2043092Y2062561D02*
X2055419D01*
X2043120Y2070661D02*
X2055197D01*
X2006465Y1866361D02*
X2055193D01*
X2006597Y1873561D02*
X2055121D01*
X2043120Y2063461D02*
X2055117D01*
X2043120Y2069761D02*
X2054948D01*
X2006910Y1867261D02*
X2054945D01*
X2007003Y1872661D02*
X2054892D01*
X2043120Y2064361D02*
X2054889D01*
X2043120Y2068861D02*
X2054771D01*
X2007215Y1868161D02*
X2054768D01*
X2007275Y1871761D02*
X2054734D01*
X2043120Y2065261D02*
X2054732D01*
X2043120Y2067961D02*
X2054661D01*
X2007398Y1869061D02*
X2054660D01*
X2007427Y1870861D02*
X2054643D01*
X2043120Y2066161D02*
X2054642D01*
X2043120Y2067061D02*
X2054619D01*
X2007468Y1869961D02*
X2054619D01*
X2003768Y2020261D02*
X2039872D01*
X2003768Y2021161D02*
X2038159D01*
X2003768Y2022061D02*
X2037201D01*
X2003768Y2022961D02*
X2036301D01*
X2003768Y2023861D02*
X2035401D01*
X2003768Y2024761D02*
X2034501D01*
X2028049Y2073361D02*
X2033727D01*
X2003768Y2025661D02*
X2033601D01*
X2003768Y2026561D02*
X2032701D01*
X2030538Y2072461D02*
X2032216D01*
X2003768Y2027461D02*
X2031801D01*
X2003768Y2028361D02*
X2030901D01*
X2003768Y2029261D02*
X2030001D01*
X2003768Y2030161D02*
X2029101D01*
X2003768Y2031061D02*
X2028201D01*
X2003768Y2031961D02*
X2027301D01*
X1998994Y2073361D02*
X2026754D01*
X2003768Y2032861D02*
X2026401D01*
X2003768Y2033761D02*
X2025501D01*
X2003768Y2034661D02*
X2024601D01*
X2001483Y2072461D02*
X2024265D01*
X2003768Y2035561D02*
X2023701D01*
X2002546Y2071561D02*
X2023202D01*
X2003768Y2036461D02*
X2022931D01*
X2003226Y2070661D02*
X2022522D01*
X2003768Y2037361D02*
X2022432D01*
X2003768Y2038261D02*
X2022130D01*
X2003673Y2069761D02*
X2022075D01*
X2003768Y2039161D02*
X2021993D01*
X2003768Y2063461D02*
X2021980D01*
X2003768Y2062561D02*
X2021980D01*
X2003768Y2061661D02*
X2021980D01*
X2003768Y2060761D02*
X2021980D01*
X2003768Y2059861D02*
X2021980D01*
X2003768Y2058961D02*
X2021980D01*
X2003768Y2058061D02*
X2021980D01*
X2003768Y2057161D02*
X2021980D01*
X2003768Y2056261D02*
X2021980D01*
X2003768Y2055361D02*
X2021980D01*
X2003768Y2054461D02*
X2021980D01*
X2003768Y2053561D02*
X2021980D01*
X2003768Y2052661D02*
X2021980D01*
X2003768Y2051761D02*
X2021980D01*
X2003768Y2050861D02*
X2021980D01*
X2003768Y2049961D02*
X2021980D01*
X2003768Y2049061D02*
X2021980D01*
X2003768Y2048161D02*
X2021980D01*
X2003768Y2047261D02*
X2021980D01*
X2003768Y2046361D02*
X2021980D01*
X2003768Y2045461D02*
X2021980D01*
X2003768Y2044561D02*
X2021980D01*
X2003768Y2043661D02*
X2021980D01*
X2003768Y2042761D02*
X2021980D01*
X2003768Y2041861D02*
X2021980D01*
X2003768Y2040961D02*
X2021980D01*
X2003768Y2040061D02*
X2021980D01*
X2003774Y2064361D02*
X2021974D01*
X2003942Y2068861D02*
X2021806D01*
X2003991Y2065261D02*
X2021757D01*
X2004058Y2067961D02*
X2021690D01*
X2004065Y2066161D02*
X2021683D01*
X2004065Y2067061D02*
X2021683D01*
X1955355Y1961761D02*
X1999401D01*
X1964211Y1862761D02*
X1999050D01*
X1954455Y1962661D02*
X1998177D01*
X1988994Y2073361D02*
X1997699D01*
X1954240Y1963561D02*
X1997276D01*
X1964584Y1863661D02*
X1996415D01*
X1954240Y1964461D02*
X1996376D01*
X1954240Y1965361D02*
X1995476D01*
X1991483Y2072461D02*
X1995210D01*
X1964792Y1864561D02*
X1995163D01*
X1954240Y1966261D02*
X1994576D01*
X1964852Y1865461D02*
X1994309D01*
X1992546Y2071561D02*
X1994147D01*
X1964852Y1866361D02*
X1993692D01*
X1954240Y1967161D02*
X1993676D01*
X1964840Y1867261D02*
X1993247D01*
X1964710Y1868161D02*
X1992942D01*
X1954240Y1968061D02*
X1992776D01*
X1964425Y1869061D02*
X1992759D01*
X1963959Y1869961D02*
X1992530D01*
X1954240Y1968961D02*
X1991876D01*
X1963251Y1870861D02*
X1991630D01*
X1954240Y1969861D02*
X1990976D01*
X1962133Y1871761D02*
X1990730D01*
X1954240Y1970761D02*
X1990076D01*
X1882116Y1872661D02*
X1989830D01*
X1954240Y1971661D02*
X1989176D01*
X1881887Y1873561D02*
X1988930D01*
X1954240Y1972561D02*
X1988276D01*
X1881583Y1874461D02*
X1988030D01*
X1982021Y2073361D02*
X1987699D01*
X1954240Y1973461D02*
X1987376D01*
X1881199Y1875361D02*
X1987130D01*
X1954240Y1974361D02*
X1986476D01*
X1880725Y1876261D02*
X1986230D01*
X1954240Y1975261D02*
X1985576D01*
X1880149Y1877161D02*
X1985330D01*
X1983532Y2072461D02*
X1985210D01*
X1954240Y1976161D02*
X1984676D01*
X1879451Y1878061D02*
X1984430D01*
X1954240Y1977061D02*
X1983776D01*
X1878603Y1878961D02*
X1983530D01*
X1954240Y1977961D02*
X1982876D01*
X1877553Y1879861D02*
X1982630D01*
X1954240Y1978861D02*
X1981976D01*
X1876199Y1880761D02*
X1981730D01*
X1954240Y1979761D02*
X1981076D01*
X1874252Y1881661D02*
X1980830D01*
X1954240Y1980661D02*
X1980176D01*
X1852862Y1882561D02*
X1979930D01*
X1954240Y1981561D02*
X1979276D01*
X1852862Y1883461D02*
X1979030D01*
X1954240Y1982461D02*
X1978376D01*
X1852862Y1884361D02*
X1978130D01*
X1954240Y1983361D02*
X1977476D01*
X1852862Y1885261D02*
X1977230D01*
X1954240Y1984261D02*
X1976576D01*
X1852862Y1886161D02*
X1976330D01*
X1954240Y1985161D02*
X1975676D01*
X1954240Y1986061D02*
X1974776D01*
X1952493Y2073361D02*
X1974672D01*
X1954240Y1986961D02*
X1973968D01*
X1954240Y1987861D02*
X1973436D01*
X1954005Y2072461D02*
X1973161D01*
X1954240Y1988761D02*
X1973108D01*
X1954240Y1989661D02*
X1972948D01*
X1954240Y2060761D02*
X1972925D01*
X1954240Y2059861D02*
X1972925D01*
X1954240Y2058961D02*
X1972925D01*
X1954240Y2058061D02*
X1972925D01*
X1954240Y2057161D02*
X1972925D01*
X1954240Y2056261D02*
X1972925D01*
X1954240Y2055361D02*
X1972925D01*
X1954240Y2054461D02*
X1972925D01*
X1954240Y2053561D02*
X1972925D01*
X1954240Y2052661D02*
X1972925D01*
X1954240Y2051761D02*
X1972925D01*
X1954240Y2050861D02*
X1972925D01*
X1954240Y2049961D02*
X1972925D01*
X1954240Y2049061D02*
X1972925D01*
X1954240Y2048161D02*
X1972925D01*
X1954240Y2047261D02*
X1972925D01*
X1954240Y2046361D02*
X1972925D01*
X1954240Y2045461D02*
X1972925D01*
X1954240Y2044561D02*
X1972925D01*
X1954240Y2043661D02*
X1972925D01*
X1954240Y2042761D02*
X1972925D01*
X1954240Y2041861D02*
X1972925D01*
X1954240Y2040961D02*
X1972925D01*
X1954240Y2040061D02*
X1972925D01*
X1954240Y2039161D02*
X1972925D01*
X1954240Y2038261D02*
X1972925D01*
X1954240Y2037361D02*
X1972925D01*
X1954240Y2036461D02*
X1972925D01*
X1954240Y2035561D02*
X1972925D01*
X1954240Y2034661D02*
X1972925D01*
X1954240Y2033761D02*
X1972925D01*
X1954240Y2032861D02*
X1972925D01*
X1954240Y2031961D02*
X1972925D01*
X1954240Y2031061D02*
X1972925D01*
X1954240Y2030161D02*
X1972925D01*
X1954240Y2029261D02*
X1972925D01*
X1954240Y2028361D02*
X1972925D01*
X1954240Y2027461D02*
X1972925D01*
X1954240Y2026561D02*
X1972925D01*
X1954240Y2025661D02*
X1972925D01*
X1954240Y2024761D02*
X1972925D01*
X1954240Y2023861D02*
X1972925D01*
X1954240Y2022961D02*
X1972925D01*
X1954240Y2022061D02*
X1972925D01*
X1954240Y2021161D02*
X1972925D01*
X1954240Y2020261D02*
X1972925D01*
X1954240Y2019361D02*
X1972925D01*
X1954240Y2018461D02*
X1972925D01*
X1954240Y2017561D02*
X1972925D01*
X1954240Y2016661D02*
X1972925D01*
X1954240Y2015761D02*
X1972925D01*
X1954240Y2014861D02*
X1972925D01*
X1954240Y2013961D02*
X1972925D01*
X1954240Y2013061D02*
X1972925D01*
X1954240Y2012161D02*
X1972925D01*
X1954240Y2011261D02*
X1972925D01*
X1954240Y2010361D02*
X1972925D01*
X1954240Y2009461D02*
X1972925D01*
X1954240Y2008561D02*
X1972925D01*
X1954240Y2007661D02*
X1972925D01*
X1954240Y2006761D02*
X1972925D01*
X1954240Y2005861D02*
X1972925D01*
X1954240Y2004961D02*
X1972925D01*
X1954240Y2004061D02*
X1972925D01*
X1954240Y2003161D02*
X1972925D01*
X1954240Y2002261D02*
X1972925D01*
X1954240Y2001361D02*
X1972925D01*
X1954240Y2000461D02*
X1972925D01*
X1954240Y1999561D02*
X1972925D01*
X1954240Y1998661D02*
X1972925D01*
X1954240Y1997761D02*
X1972925D01*
X1954240Y1996861D02*
X1972925D01*
X1954240Y1995961D02*
X1972925D01*
X1954240Y1995061D02*
X1972925D01*
X1954240Y1994161D02*
X1972925D01*
X1954240Y1993261D02*
X1972925D01*
X1954240Y1992361D02*
X1972925D01*
X1954240Y1991461D02*
X1972925D01*
X1954240Y1990561D02*
X1972925D01*
X1954241Y2061661D02*
X1972924D01*
X1954455Y2071561D02*
X1972710D01*
X1954510Y2062561D02*
X1972656D01*
X1954537Y2070661D02*
X1972628D01*
X1954537Y2069761D02*
X1972628D01*
X1954537Y2068861D02*
X1972628D01*
X1954537Y2067961D02*
X1972628D01*
X1954537Y2067061D02*
X1972628D01*
X1954537Y2066161D02*
X1972628D01*
X1954537Y2065261D02*
X1972628D01*
X1954537Y2064361D02*
X1972628D01*
X1954537Y2063461D02*
X1972628D01*
X1941941Y1912261D02*
X1970288D01*
X1941041Y1913161D02*
X1968944D01*
X1940141Y1914061D02*
X1968036D01*
X1939241Y1914961D02*
X1967136D01*
X1938341Y1915861D02*
X1966236D01*
X1937441Y1916761D02*
X1965336D01*
X1936541Y1917661D02*
X1964436D01*
X1935641Y1918561D02*
X1963536D01*
X1934741Y1919461D02*
X1962636D01*
X1933841Y1920361D02*
X1961736D01*
X1932941Y1921261D02*
X1960836D01*
X1932041Y1922161D02*
X1959936D01*
X1931141Y1923061D02*
X1959036D01*
X1930241Y1923961D02*
X1958136D01*
X1929341Y1924861D02*
X1957236D01*
X1951204Y1860061D02*
X1957064D01*
X1928441Y1925761D02*
X1956336D01*
X1952133Y1871761D02*
X1956135D01*
X1952749Y1860961D02*
X1955519D01*
X1927541Y1926661D02*
X1955436D01*
X1953251Y1870861D02*
X1955017D01*
X1953632Y1861861D02*
X1954636D01*
X1926641Y1927561D02*
X1954536D01*
X1925741Y1928461D02*
X1953636D01*
X1924841Y1929361D02*
X1952736D01*
X1852862Y1887061D02*
X1952052D01*
X1923941Y1930261D02*
X1951836D01*
X1923041Y1931161D02*
X1950936D01*
X1852862Y1887961D02*
X1950908D01*
X1922141Y1932061D02*
X1950036D01*
X1852862Y1888861D02*
X1950008D01*
X1921241Y1932961D02*
X1949136D01*
X1852862Y1889761D02*
X1949108D01*
X1920341Y1933861D02*
X1948236D01*
X1852862Y1890661D02*
X1948208D01*
X1919441Y1934761D02*
X1947336D01*
X1852862Y1891561D02*
X1947308D01*
X1941204Y1860061D02*
X1947064D01*
X1918541Y1935661D02*
X1946436D01*
X1852862Y1892461D02*
X1946408D01*
X1942133Y1871761D02*
X1946135D01*
X1917641Y1936561D02*
X1945536D01*
X1942749Y1860961D02*
X1945519D01*
X1852862Y1893361D02*
X1945508D01*
X1939466Y2073361D02*
X1945145D01*
X1943251Y1870861D02*
X1945017D01*
X1916741Y1937461D02*
X1944636D01*
X1943632Y1861861D02*
X1944636D01*
X1852862Y1894261D02*
X1944608D01*
X1915841Y1938361D02*
X1943736D01*
X1852862Y1895161D02*
X1943708D01*
X1941955Y2072461D02*
X1943633D01*
X1914941Y1939261D02*
X1942836D01*
X1852862Y1896061D02*
X1942808D01*
X1914041Y1940161D02*
X1941936D01*
X1852862Y1896961D02*
X1941908D01*
X1913141Y1941061D02*
X1941036D01*
X1852862Y1897861D02*
X1941008D01*
X1912241Y1941961D02*
X1940136D01*
X1852862Y1898761D02*
X1940108D01*
X1911341Y1942861D02*
X1939236D01*
X1852862Y1899661D02*
X1939208D01*
X1910441Y1943761D02*
X1938336D01*
X1852862Y1900561D02*
X1938308D01*
X1880576Y2073361D02*
X1938172D01*
X1909541Y1944661D02*
X1937436D01*
X1852862Y1901461D02*
X1937408D01*
X1933712Y1860061D02*
X1937064D01*
X1908641Y1945561D02*
X1936536D01*
X1852862Y1902361D02*
X1936508D01*
X1934247Y1871761D02*
X1936135D01*
X1881077Y2072461D02*
X1935683D01*
X1907741Y1946461D02*
X1935636D01*
X1852862Y1903261D02*
X1935608D01*
X1934552Y1860961D02*
X1935519D01*
X1906841Y1947361D02*
X1934751D01*
X1852862Y1904161D02*
X1934708D01*
X1881485Y2071561D02*
X1934620D01*
X1905941Y1948261D02*
X1934109D01*
X1881811Y2070661D02*
X1933939D01*
X1852862Y1905061D02*
X1933808D01*
X1905041Y1949161D02*
X1933700D01*
X1882060Y2069761D02*
X1933493D01*
X1904141Y1950061D02*
X1933470D01*
X1904693Y2063461D02*
X1933398D01*
X1904945Y2062561D02*
X1933398D01*
X1905079Y2061661D02*
X1933398D01*
X1905102Y2060761D02*
X1933398D01*
X1905014Y2059861D02*
X1933398D01*
X1904813Y2058961D02*
X1933398D01*
X1904486Y2058061D02*
X1933398D01*
X1904016Y2057161D02*
X1933398D01*
X1903367Y2056261D02*
X1933398D01*
X1903138Y2055361D02*
X1933398D01*
X1903138Y2054461D02*
X1933398D01*
X1903138Y2053561D02*
X1933398D01*
X1903138Y2052661D02*
X1933398D01*
X1903138Y2051761D02*
X1933398D01*
X1903138Y2050861D02*
X1933398D01*
X1903138Y2049961D02*
X1933398D01*
X1903138Y2049061D02*
X1933398D01*
X1903138Y2048161D02*
X1933398D01*
X1903138Y2047261D02*
X1933398D01*
X1903138Y2046361D02*
X1933398D01*
X1903138Y2045461D02*
X1933398D01*
X1903138Y2044561D02*
X1933398D01*
X1903138Y2043661D02*
X1933398D01*
X1903138Y2042761D02*
X1933398D01*
X1903138Y2041861D02*
X1933398D01*
X1903138Y2040961D02*
X1933398D01*
X1903138Y2040061D02*
X1933398D01*
X1903138Y2039161D02*
X1933398D01*
X1903138Y2038261D02*
X1933398D01*
X1903138Y2037361D02*
X1933398D01*
X1903138Y2036461D02*
X1933398D01*
X1903138Y2035561D02*
X1933398D01*
X1903138Y2034661D02*
X1933398D01*
X1903138Y2033761D02*
X1933398D01*
X1903138Y2032861D02*
X1933398D01*
X1903138Y2031961D02*
X1933398D01*
X1903138Y2031061D02*
X1933398D01*
X1903138Y2030161D02*
X1933398D01*
X1903138Y2029261D02*
X1933398D01*
X1903138Y2028361D02*
X1933398D01*
X1903138Y2027461D02*
X1933398D01*
X1903138Y2026561D02*
X1933398D01*
X1903138Y2025661D02*
X1933398D01*
X1903138Y2024761D02*
X1933398D01*
X1903138Y2023861D02*
X1933398D01*
X1903138Y2022961D02*
X1933398D01*
X1903138Y2022061D02*
X1933398D01*
X1903138Y2021161D02*
X1933398D01*
X1903138Y2020261D02*
X1933398D01*
X1903138Y2019361D02*
X1933398D01*
X1903138Y2018461D02*
X1933398D01*
X1903138Y2017561D02*
X1933398D01*
X1903138Y2016661D02*
X1933398D01*
X1903138Y2015761D02*
X1933398D01*
X1903138Y2014861D02*
X1933398D01*
X1903138Y2013961D02*
X1933398D01*
X1903138Y2013061D02*
X1933398D01*
X1903138Y2012161D02*
X1933398D01*
X1903138Y2011261D02*
X1933398D01*
X1903138Y2010361D02*
X1933398D01*
X1903138Y2009461D02*
X1933398D01*
X1903138Y2008561D02*
X1933398D01*
X1903138Y2007661D02*
X1933398D01*
X1903138Y2006761D02*
X1933398D01*
X1903138Y2005861D02*
X1933398D01*
X1903138Y2004961D02*
X1933398D01*
X1903138Y2004061D02*
X1933398D01*
X1903138Y2003161D02*
X1933398D01*
X1903138Y2002261D02*
X1933398D01*
X1903138Y2001361D02*
X1933398D01*
X1903138Y2000461D02*
X1933398D01*
X1903138Y1999561D02*
X1933398D01*
X1903138Y1998661D02*
X1933398D01*
X1903138Y1997761D02*
X1933398D01*
X1903138Y1996861D02*
X1933398D01*
X1903138Y1995961D02*
X1933398D01*
X1903138Y1995061D02*
X1933398D01*
X1903138Y1994161D02*
X1933398D01*
X1903138Y1993261D02*
X1933398D01*
X1903138Y1992361D02*
X1933398D01*
X1903138Y1991461D02*
X1933398D01*
X1903138Y1990561D02*
X1933398D01*
X1903138Y1989661D02*
X1933398D01*
X1903138Y1988761D02*
X1933398D01*
X1903138Y1987861D02*
X1933398D01*
X1903138Y1986961D02*
X1933398D01*
X1903138Y1986061D02*
X1933398D01*
X1903138Y1985161D02*
X1933398D01*
X1903138Y1984261D02*
X1933398D01*
X1903138Y1983361D02*
X1933398D01*
X1903138Y1982461D02*
X1933398D01*
X1903138Y1981561D02*
X1933398D01*
X1903138Y1980661D02*
X1933398D01*
X1903138Y1979761D02*
X1933398D01*
X1903138Y1978861D02*
X1933398D01*
X1903138Y1977961D02*
X1933398D01*
X1903138Y1977061D02*
X1933398D01*
X1903138Y1976161D02*
X1933398D01*
X1903138Y1975261D02*
X1933398D01*
X1903138Y1974361D02*
X1933398D01*
X1903138Y1973461D02*
X1933398D01*
X1903138Y1972561D02*
X1933398D01*
X1903138Y1971661D02*
X1933398D01*
X1903138Y1970761D02*
X1933398D01*
X1903138Y1969861D02*
X1933398D01*
X1903138Y1968961D02*
X1933398D01*
X1903138Y1968061D02*
X1933398D01*
X1903138Y1967161D02*
X1933398D01*
X1903138Y1966261D02*
X1933398D01*
X1903138Y1965361D02*
X1933398D01*
X1903138Y1964461D02*
X1933398D01*
X1903138Y1963561D02*
X1933398D01*
X1903138Y1962661D02*
X1933398D01*
X1903138Y1961761D02*
X1933398D01*
X1903138Y1960861D02*
X1933398D01*
X1903138Y1959961D02*
X1933398D01*
X1903138Y1959061D02*
X1933398D01*
X1903138Y1958161D02*
X1933398D01*
X1903138Y1957261D02*
X1933398D01*
X1903138Y1956361D02*
X1933398D01*
X1903138Y1955461D02*
X1933398D01*
X1903138Y1954561D02*
X1933398D01*
X1903138Y1953661D02*
X1933398D01*
X1903138Y1952761D02*
X1933398D01*
X1903138Y1951861D02*
X1933398D01*
X1903246Y1950961D02*
X1933398D01*
X1904310Y2064361D02*
X1933391D01*
X1882237Y2068861D02*
X1933224D01*
X1903771Y2065261D02*
X1933175D01*
X1900263Y2067961D02*
X1933107D01*
X1903029Y2066161D02*
X1933100D01*
X1901978Y2067061D02*
X1933100D01*
X1852862Y1905961D02*
X1932908D01*
X1852862Y1906861D02*
X1932008D01*
X1852862Y1907761D02*
X1931108D01*
X1852862Y1908661D02*
X1930208D01*
X1852862Y1909561D02*
X1929308D01*
X1852862Y1910461D02*
X1928408D01*
X1852862Y1911361D02*
X1927508D01*
X1852862Y1912261D02*
X1926608D01*
X1852862Y1913161D02*
X1925708D01*
X1852862Y1914061D02*
X1924808D01*
X1877235Y1860061D02*
X1924556D01*
X1882274Y1871761D02*
X1924021D01*
X1852862Y1914961D02*
X1923908D01*
X1878351Y1860961D02*
X1923716D01*
X1882365Y1870861D02*
X1923522D01*
X1879245Y1861861D02*
X1923431D01*
X1882389Y1869961D02*
X1923415D01*
X1882348Y1869061D02*
X1923415D01*
X1882239Y1868161D02*
X1923415D01*
X1882063Y1867261D02*
X1923415D01*
X1881815Y1866361D02*
X1923415D01*
X1881491Y1865461D02*
X1923415D01*
X1881084Y1864561D02*
X1923415D01*
X1880585Y1863661D02*
X1923415D01*
X1879979Y1862761D02*
X1923415D01*
X1852862Y1915861D02*
X1923008D01*
X1852862Y1916761D02*
X1922108D01*
X1852862Y1917661D02*
X1921208D01*
X1852862Y1918561D02*
X1920308D01*
X1852862Y1919461D02*
X1919408D01*
X1852862Y1920361D02*
X1918508D01*
X1852862Y1921261D02*
X1917608D01*
X1852862Y1922161D02*
X1916708D01*
X1852862Y1923061D02*
X1915808D01*
X1852862Y1923961D02*
X1914908D01*
X1852862Y1924861D02*
X1914008D01*
X1852862Y1925761D02*
X1913108D01*
X1852862Y1926661D02*
X1912208D01*
X1852862Y1927561D02*
X1911308D01*
X1852862Y1928461D02*
X1910408D01*
X1852862Y1929361D02*
X1909508D01*
X1852862Y1930261D02*
X1908608D01*
X1852862Y1931161D02*
X1907708D01*
X1852862Y1932061D02*
X1906808D01*
X1852862Y1932961D02*
X1905908D01*
X1852862Y1933861D02*
X1905008D01*
X1852862Y1934761D02*
X1904108D01*
X1852862Y1935661D02*
X1903208D01*
X1852862Y1936561D02*
X1902308D01*
X1852862Y1937461D02*
X1901408D01*
X1852862Y1938361D02*
X1900508D01*
X1852862Y1939261D02*
X1899608D01*
X1852862Y1940161D02*
X1898708D01*
X1852862Y1941061D02*
X1897808D01*
X1852862Y1941961D02*
X1896908D01*
X1852862Y1942861D02*
X1896008D01*
X1882346Y2067961D02*
X1895170D01*
X1852862Y1943761D02*
X1895108D01*
X1852862Y1944661D02*
X1894208D01*
X1882389Y2067061D02*
X1893455D01*
X1852862Y1945561D02*
X1893383D01*
X1852862Y1946461D02*
X1892835D01*
X1852862Y1947361D02*
X1892495D01*
X1882366Y2066161D02*
X1892405D01*
X1852862Y1948261D02*
X1892324D01*
X1874290Y2055361D02*
X1892295D01*
X1852862Y2054461D02*
X1892295D01*
X1852862Y2053561D02*
X1892295D01*
X1852862Y2052661D02*
X1892295D01*
X1852862Y2051761D02*
X1892295D01*
X1852862Y2050861D02*
X1892295D01*
X1852862Y2049961D02*
X1892295D01*
X1852862Y2049061D02*
X1892295D01*
X1852862Y2048161D02*
X1892295D01*
X1852862Y2047261D02*
X1892295D01*
X1852862Y2046361D02*
X1892295D01*
X1852862Y2045461D02*
X1892295D01*
X1852862Y2044561D02*
X1892295D01*
X1852862Y2043661D02*
X1892295D01*
X1852862Y2042761D02*
X1892295D01*
X1852862Y2041861D02*
X1892295D01*
X1852862Y2040961D02*
X1892295D01*
X1852862Y2040061D02*
X1892295D01*
X1852862Y2039161D02*
X1892295D01*
X1852862Y2038261D02*
X1892295D01*
X1852862Y2037361D02*
X1892295D01*
X1852862Y2036461D02*
X1892295D01*
X1852862Y2035561D02*
X1892295D01*
X1852862Y2034661D02*
X1892295D01*
X1852862Y2033761D02*
X1892295D01*
X1873891Y2032861D02*
X1892295D01*
X1874983Y2031961D02*
X1892295D01*
X1875679Y2031061D02*
X1892295D01*
X1876136Y2030161D02*
X1892295D01*
X1876414Y2029261D02*
X1892295D01*
X1876538Y2028361D02*
X1892295D01*
X1876519Y2027461D02*
X1892295D01*
X1876355Y2026561D02*
X1892295D01*
X1876033Y2025661D02*
X1892295D01*
X1875520Y2024761D02*
X1892295D01*
X1874741Y2023861D02*
X1892295D01*
X1874031Y2022961D02*
X1892295D01*
X1874886Y2022061D02*
X1892295D01*
X1875615Y2021161D02*
X1892295D01*
X1876095Y2020261D02*
X1892295D01*
X1876391Y2019361D02*
X1892295D01*
X1876531Y2018461D02*
X1892295D01*
X1876528Y2017561D02*
X1892295D01*
X1876381Y2016661D02*
X1892295D01*
X1876077Y2015761D02*
X1892295D01*
X1875588Y2014861D02*
X1892295D01*
X1874845Y2013961D02*
X1892295D01*
X1874027Y2013061D02*
X1892295D01*
X1874785Y2012161D02*
X1892295D01*
X1875548Y2011261D02*
X1892295D01*
X1876051Y2010361D02*
X1892295D01*
X1876366Y2009461D02*
X1892295D01*
X1876523Y2008561D02*
X1892295D01*
X1876535Y2007661D02*
X1892295D01*
X1876404Y2006761D02*
X1892295D01*
X1876119Y2005861D02*
X1892295D01*
X1875653Y2004961D02*
X1892295D01*
X1875003Y2004061D02*
X1892295D01*
X1875679Y2003161D02*
X1892295D01*
X1876345Y2002261D02*
X1892295D01*
X1876546Y2001361D02*
X1892295D01*
X1876547Y2000461D02*
X1892295D01*
X1876547Y1999561D02*
X1892295D01*
X1876547Y1998661D02*
X1892295D01*
X1876547Y1997761D02*
X1892295D01*
X1876547Y1996861D02*
X1892295D01*
X1876547Y1995961D02*
X1892295D01*
X1876547Y1995061D02*
X1892295D01*
X1876468Y1994161D02*
X1892295D01*
X1876023Y1993261D02*
X1892295D01*
X1874563Y1992361D02*
X1892295D01*
X1852862Y1991461D02*
X1892295D01*
X1852862Y1990561D02*
X1892295D01*
X1852862Y1989661D02*
X1892295D01*
X1852862Y1988761D02*
X1892295D01*
X1852862Y1987861D02*
X1892295D01*
X1852862Y1986961D02*
X1892295D01*
X1852862Y1986061D02*
X1892295D01*
X1852862Y1985161D02*
X1892295D01*
X1852862Y1984261D02*
X1892295D01*
X1852862Y1983361D02*
X1892295D01*
X1852862Y1982461D02*
X1892295D01*
X1852862Y1981561D02*
X1892295D01*
X1852862Y1980661D02*
X1892295D01*
X1852862Y1979761D02*
X1892295D01*
X1852862Y1978861D02*
X1892295D01*
X1852862Y1977961D02*
X1892295D01*
X1852862Y1977061D02*
X1892295D01*
X1852862Y1976161D02*
X1892295D01*
X1852862Y1975261D02*
X1892295D01*
X1852862Y1974361D02*
X1892295D01*
X1852862Y1973461D02*
X1892295D01*
X1852862Y1972561D02*
X1892295D01*
X1852862Y1971661D02*
X1892295D01*
X1852862Y1970761D02*
X1892295D01*
X1852862Y1969861D02*
X1892295D01*
X1852862Y1968961D02*
X1892295D01*
X1852862Y1968061D02*
X1892295D01*
X1852862Y1967161D02*
X1892295D01*
X1852862Y1966261D02*
X1892295D01*
X1852862Y1965361D02*
X1892295D01*
X1852862Y1964461D02*
X1892295D01*
X1852862Y1963561D02*
X1892295D01*
X1852862Y1962661D02*
X1892295D01*
X1852862Y1961761D02*
X1892295D01*
X1852862Y1960861D02*
X1892295D01*
X1852862Y1959961D02*
X1892295D01*
X1852862Y1959061D02*
X1892295D01*
X1852862Y1958161D02*
X1892295D01*
X1852862Y1957261D02*
X1892295D01*
X1852862Y1956361D02*
X1892295D01*
X1852862Y1955461D02*
X1892295D01*
X1852862Y1954561D02*
X1892295D01*
X1852862Y1953661D02*
X1892295D01*
X1852862Y1952761D02*
X1892295D01*
X1852862Y1951861D02*
X1892295D01*
X1852862Y1950961D02*
X1892295D01*
X1852862Y1950061D02*
X1892295D01*
X1852862Y1949161D02*
X1892295D01*
X1876223Y2056261D02*
X1892066D01*
X1882276Y2065261D02*
X1891662D01*
X1877572Y2057161D02*
X1891417D01*
X1882119Y2064361D02*
X1891123D01*
X1878618Y2058061D02*
X1890947D01*
X1881891Y2063461D02*
X1890740D01*
X1879463Y2058961D02*
X1890620D01*
X1881589Y2062561D02*
X1890488D01*
X1880159Y2059861D02*
X1890419D01*
X1881206Y2061661D02*
X1890354D01*
X1880733Y2060761D02*
X1890331D01*
X1853742Y2078761D02*
X1866677D01*
X1853735Y1858261D02*
X1866629D01*
X1852862Y2032861D02*
X1866266D01*
X1852862Y2013061D02*
X1866131D01*
X1852862Y2022961D02*
X1866126D01*
X1852862Y1881661D02*
X1865906D01*
X1852862Y2055361D02*
X1865867D01*
X1852862Y1992361D02*
X1865595D01*
X1852862Y2023861D02*
X1865416D01*
X1852862Y2012161D02*
X1865373D01*
X1852862Y2013961D02*
X1865312D01*
X1852862Y2022061D02*
X1865271D01*
X1852862Y2031961D02*
X1865174D01*
X1852862Y2004061D02*
X1865154D01*
X1852862Y2024761D02*
X1864638D01*
X1852862Y2011261D02*
X1864609D01*
X1852862Y2014861D02*
X1864570D01*
X1852862Y2021161D02*
X1864542D01*
X1852862Y2004961D02*
X1864505D01*
X1852862Y2031061D02*
X1864479D01*
X1852862Y2003161D02*
X1864478D01*
X1853377Y2077861D02*
X1864417D01*
X1853372Y1859161D02*
X1864390D01*
X1852862Y1993261D02*
X1864134D01*
X1852862Y2025661D02*
X1864125D01*
X1852862Y2010361D02*
X1864106D01*
X1852862Y2015761D02*
X1864080D01*
X1852862Y2020261D02*
X1864063D01*
X1852862Y2005861D02*
X1864038D01*
X1852862Y2030161D02*
X1864021D01*
X1852862Y1880761D02*
X1863959D01*
X1852862Y2056261D02*
X1863935D01*
X1852862Y2002261D02*
X1863813D01*
X1852862Y2026561D02*
X1863803D01*
X1852862Y2009461D02*
X1863792D01*
X1852862Y2016661D02*
X1863777D01*
X1852862Y2019361D02*
X1863767D01*
X1852862Y2006761D02*
X1863753D01*
X1852862Y2029261D02*
X1863744D01*
X1852862Y1994161D02*
X1863689D01*
X1852862Y2027461D02*
X1863639D01*
X1852862Y2008561D02*
X1863635D01*
X1852862Y2017561D02*
X1863630D01*
X1852862Y2018461D02*
X1863626D01*
X1852862Y2007661D02*
X1863622D01*
X1852862Y2028361D02*
X1863620D01*
X1852862Y2001361D02*
X1863611D01*
X1852862Y2000461D02*
X1863610D01*
X1852862Y1999561D02*
X1863610D01*
X1852862Y1998661D02*
X1863610D01*
X1852862Y1997761D02*
X1863610D01*
X1852862Y1996861D02*
X1863610D01*
X1852862Y1995961D02*
X1863610D01*
X1852862Y1995061D02*
X1863610D01*
X1853115Y2076961D02*
X1862943D01*
X1853112Y1860061D02*
X1862923D01*
X1852862Y1879861D02*
X1862604D01*
X1852862Y2057161D02*
X1862586D01*
X1852947Y2076061D02*
X1861822D01*
X1852945Y1860961D02*
X1861807D01*
X1852862Y1878961D02*
X1861554D01*
X1852862Y2058061D02*
X1861540D01*
X1852869Y2075161D02*
X1860925D01*
X1852869Y1861861D02*
X1860912D01*
X1852862Y1878061D02*
X1860706D01*
X1852862Y2058961D02*
X1860694D01*
X1852862Y2074261D02*
X1860189D01*
X1852862Y1862761D02*
X1860179D01*
X1852862Y1877161D02*
X1860009D01*
X1852862Y2059861D02*
X1859999D01*
X1852862Y2073361D02*
X1859581D01*
X1852862Y1863661D02*
X1859573D01*
X1852862Y1876261D02*
X1859432D01*
X1852862Y2060761D02*
X1859424D01*
X1852862Y2072461D02*
X1859081D01*
X1852862Y1864561D02*
X1859073D01*
X1852862Y1875361D02*
X1858958D01*
X1852862Y2061661D02*
X1858952D01*
X1852862Y2071561D02*
X1858672D01*
X1852862Y1865461D02*
X1858667D01*
X1852862Y1874461D02*
X1858574D01*
X1852862Y2062561D02*
X1858569D01*
X1852862Y2070661D02*
X1858347D01*
X1852862Y1866361D02*
X1858342D01*
X1852862Y1873561D02*
X1858270D01*
X1852862Y2063461D02*
X1858266D01*
X1852862Y2069761D02*
X1858098D01*
X1852862Y1867261D02*
X1858095D01*
X1852862Y1872661D02*
X1858042D01*
X1852862Y2064361D02*
X1858039D01*
X1852862Y2068861D02*
X1857920D01*
X1852862Y1868161D02*
X1857918D01*
X1852862Y1871761D02*
X1857883D01*
X1852862Y2065261D02*
X1857881D01*
X1852862Y2067961D02*
X1857811D01*
X1852862Y1869061D02*
X1857810D01*
X1852862Y1870861D02*
X1857793D01*
X1852862Y2066161D02*
X1857792D01*
X1852862Y2067061D02*
X1857768D01*
X1852862Y1869961D02*
X1857768D01*
G54D12*
X2037402Y2066929D03*
X1948819D03*
X1978346D03*
X1929134Y1866142D03*
G54D13*
X2027402Y2066929D03*
X1938819D03*
X1988346D03*
X1998346D03*
X1939134Y1866142D03*
X1949134D03*
X1959134D03*
G54D14*
X2070866Y2035433D03*
Y1927165D03*
Y1966535D03*
X1870079Y1998031D03*
G54D15*
X2070866Y2025433D03*
Y1917165D03*
Y1976535D03*
Y1986535D03*
X1870079Y2008031D03*
Y2018031D03*
Y2028031D03*
G54D16*
X1897717Y2061024D03*
X1913307D03*
X2000079Y1870079D03*
X2015669D03*
G54D17*
X1897717Y2061024D02*
Y1948819D01*
X1954803Y1891732*
X1972441*
X1978425*
X2000079Y1870079*
X1913307Y2061024D02*
Y1952756D01*
X1960551Y1905512*
X1992126*
X2015669Y1881969*
Y1870079*
X1938819Y2066929D02*
Y1950945D01*
X1972598Y1917165*
X2070866*
X1948819Y2066929D02*
Y1960630D01*
X1982283Y1927165*
X2070866*
X1978346Y2066929D02*
Y1990157D01*
X2001969Y1966535*
X2070866*
X1988346Y2066929D02*
Y1999843D01*
X2011654Y1976535*
X2070866*
X1998346Y2066929D02*
Y2009528D01*
X2021339Y1986535*
X2070866*
X2027402Y2066929D02*
Y2039528D01*
X2041496Y2025433*
X2070866*
X2037402Y2066929D02*
Y2049213D01*
X2051181Y2035433*
X2070866*
G54D18*
X1895669Y1881890D03*
X2039370Y1875984D03*
X2072835Y1891732D03*
X1883858Y1937008D03*
X2000000Y1946850D03*
X2033465D03*
X1866142Y1960630D03*
X2025591Y2011811D03*
X1964567Y2033465D03*
X1874016Y2047244D03*
G74*
X0Y0D02*
M02*
