*
*
G04 PADS 9.5 Build Number: 522968 generated Gerber (RS-274-X) file*
G04 PC Version=2.1*
*
%IN "Jupiter 净化器主板-2021"*%
*
%MOIN*%
*
%FSLAX35Y35*%
*
*
*
*
G04 PC Standard Apertures*
*
*
G04 Thermal Relief Aperture macro.*
%AMTER*
1,1,$1,0,0*
1,0,$1-$2,0,0*
21,0,$3,$4,0,0,45*
21,0,$3,$4,0,0,135*
%
*
*
G04 Annular Aperture macro.*
%AMANN*
1,1,$1,0,0*
1,0,$2,0,0*
%
*
*
G04 Odd Aperture macro.*
%AMODD*
1,1,$1,0,0*
1,0,$1-0.005,0,0*
%
*
*
G04 PC Custom Aperture Macros*
*
*
*
*
*
*
G04 PC Aperture Table*
*
%ADD010C,0.001*%
%ADD016C,0.01*%
%ADD020C,0.005*%
*
*
*
*
G04 PC Circuitry*
G04 Layer Name Jupiter 净化器主板-2021 - circuitry*
%LPD*%
*
G54D10*
G01X1996052Y1954438D02*
X1995798D01*
Y1953071*
X1995764Y1953023*
X1995410Y1952905*
X1995394Y1952903*
X1990322*
X1989509Y1952671*
X1988814Y1952207*
X1988355Y1951633*
X1988240Y1950828*
X1988356Y1950247*
X1988469Y1949795*
X1988802Y1949573*
X1989134Y1949462*
X1989449Y1949567*
X1989554Y1949884*
X1989446Y1950316*
X1989138Y1950418*
X1988920Y1950310*
X1988898Y1950304*
X1988780*
X1988744Y1950319*
X1988508Y1950555*
X1988493Y1950591*
Y1951417*
X1988508Y1951453*
X1988862Y1951807*
X1988872Y1951815*
X1989462Y1952169*
X1989481Y1952175*
X1990308Y1952294*
X1990315*
X1995157*
X1995173Y1952292*
X1995520Y1952176*
X1995630*
X1995677Y1952142*
X1995795Y1951787*
X1995798Y1951772*
Y1950759*
X1996052*
Y1954438*
X1996165Y1969488D02*
X1995950Y1969918D01*
X1995512Y1970027*
X1995081Y1969919*
X1994973Y1969488*
X1995082Y1969050*
X1995512Y1968835*
X1995947Y1969053*
X1996165Y1969488*
X1993572Y1959517D02*
X1989134D01*
X1989118Y1959519*
X1988764Y1959638*
X1988730Y1959685*
Y1960107*
X1988475*
Y1959449*
X1988470Y1959426*
X1988239Y1958965*
Y1958908*
X1989134*
X1989156Y1958814*
X1988699Y1958585*
X1988239Y1957665*
Y1956513*
X1988575Y1956065*
X1989147Y1955836*
X1989847Y1955719*
X1992677*
X1992700Y1955714*
X1992936Y1955596*
X1992961Y1955567*
X1993079Y1955213*
X1993081Y1955197*
Y1955011*
X1993336*
Y1955787*
X1993341Y1955810*
X1993541Y1956210*
X1989843*
X1989833Y1956211*
X1989242Y1956329*
X1989224Y1956336*
X1988870Y1956573*
X1988862Y1956579*
X1988626Y1956815*
X1988613Y1956838*
X1988495Y1957311*
X1988494Y1957333*
X1988612Y1957923*
X1988620Y1957941*
X1988856Y1958295*
X1988862Y1958303*
X1989217Y1958657*
X1989230Y1958667*
X1989702Y1958903*
X1989724Y1958908*
X1992677*
X1992700Y1958903*
X1992936Y1958785*
X1992958Y1958763*
X1993076Y1958526*
X1993081Y1958504*
Y1958200*
X1993336*
Y1958976*
X1993341Y1958999*
X1993572Y1959461*
Y1959517*
X1993454Y1962233D02*
X1992441D01*
X1992406Y1962319*
X1993105Y1963018*
X1993335Y1963822*
X1993220Y1964627*
X1992760Y1965317*
X1991953Y1965778*
X1990787Y1965895*
X1989625Y1965778*
X1988814Y1965200*
X1988355Y1964625*
X1988239Y1963818*
X1988355Y1962894*
X1988819Y1962315*
X1988780Y1962233*
X1987126*
X1987104Y1962239*
X1986867Y1962357*
X1986842Y1962386*
X1986724Y1962740*
X1986722Y1962756*
Y1962942*
X1986467*
Y1960916*
X1986722*
Y1961220*
X1986727Y1961243*
X1986845Y1961479*
X1986867Y1961501*
X1987104Y1961620*
X1987126Y1961625*
X1992559*
X1992575Y1961622*
X1992929Y1961504*
X1992958Y1961479*
X1993076Y1961243*
X1993081Y1961220*
Y1960916*
X1993218*
Y1961339*
X1993219Y1961351*
X1993337Y1961823*
X1993338Y1961827*
X1993454Y1962173*
Y1962233*
X1993080Y1963807D02*
X1992962Y1963334D01*
X1992961Y1963331*
X1992843Y1962976*
X1992831Y1962957*
X1992476Y1962602*
X1992471Y1962598*
X1991999Y1962243*
X1991969Y1962233*
X1989370*
X1989342Y1962242*
X1988988Y1962478*
X1988980Y1962484*
X1988626Y1962839*
X1988614Y1962858*
X1988378Y1963567*
X1988376Y1963592*
X1988494Y1964183*
X1988504Y1964204*
X1988977Y1964795*
X1988993Y1964809*
X1988993D02*
X1989702Y1965163D01*
X1989719Y1965168*
X1990782Y1965286*
X1990794*
X1991738Y1965168*
X1991748Y1965166*
X1992457Y1964929*
X1992476Y1964917*
X1992949Y1964445*
X1992962Y1964419*
X1993081Y1963829*
X1993080Y1963807*
X1993553Y1969674D02*
X1988780D01*
X1988757Y1969680*
X1988521Y1969798*
X1988496Y1969827*
X1988378Y1970181*
X1988375Y1970197*
Y1971092*
X1988239*
Y1967767*
X1988375*
Y1968661*
X1988378Y1968677*
X1988496Y1969032*
X1988521Y1969060*
X1988757Y1969179*
X1988780Y1969184*
X1992677*
X1992700Y1969179*
X1992936Y1969060*
X1992961Y1969032*
X1993079Y1968677*
X1993081Y1968661*
Y1967767*
X1993336*
Y1969016*
X1993338Y1969032*
X1993553Y1969674*
X1995107Y1975107D02*
X1993386D01*
X1993336Y1975157*
Y1976997*
X1993081*
Y1975157*
X1993031Y1975107*
X1989606*
X1989594Y1975109*
X1989122Y1975227*
X1989118Y1975228*
X1988764Y1975346*
X1988735Y1975371*
X1988617Y1975608*
X1988613Y1975618*
X1988495Y1976090*
X1988496Y1976118*
X1988614Y1976473*
X1988620Y1976484*
X1988856Y1976839*
X1988870Y1976853*
X1989224Y1977089*
X1989240Y1977096*
X1989652Y1977199*
X1989579Y1977345*
X1989037Y1977237*
X1988579Y1976893*
X1988239Y1976440*
Y1975296*
X1988574Y1974961*
X1989148Y1974617*
X1993031*
X1993081Y1974567*
Y1973200*
X1993336*
Y1973976*
X1993346Y1974006*
X1993700Y1974479*
X1993712Y1974490*
X1994067Y1974727*
X1994086Y1974734*
X1994791Y1974852*
X1995107Y1974957*
Y1975107*
X1993335Y1981299D02*
X1993220Y1982108D01*
X1992760Y1982797*
X1991951Y1983260*
X1990837Y1983482*
Y1979764*
X1990782Y1979714*
X1989719Y1979832*
X1989702Y1979837*
X1988993Y1980191*
X1988993D02*
X1988977Y1980205D01*
X1988504Y1980796*
X1988494Y1980819*
X1988376Y1981527*
X1988375Y1981535*
X1988376Y1981545*
X1988494Y1982136*
X1988499Y1982148*
X1988735Y1982621*
X1988744Y1982634*
X1989099Y1982988*
X1989111Y1982997*
X1989111D02*
X1989556Y1983220D01*
Y1983351*
X1989044Y1983146*
X1988581Y1982684*
X1988237Y1982224*
X1988122Y1981420*
X1988353Y1980493*
X1988816Y1979799*
X1989625Y1979222*
X1990787Y1979105*
X1991832Y1979221*
X1992643Y1979801*
X1993220Y1980494*
X1993335Y1981299*
X1993196Y1981281D02*
X1992960Y1980690D01*
X1992953Y1980679*
X1992599Y1980206*
X1992581Y1980191*
X1992581D02*
X1991873Y1979837D01*
X1991857Y1979832*
X1991031Y1979714*
X1990974Y1979764*
Y1982717*
X1991024Y1982767*
X1991969*
X1991994Y1982759*
X1992585Y1982405*
X1992594Y1982398*
X1993067Y1981925*
X1993081Y1981900*
X1993199Y1981309*
X1993196Y1981281*
X1993572Y1986564D02*
X1991969D01*
X1991937Y1986653*
X1992526Y1987124*
X1992994Y1987592*
X1993336Y1988048*
Y1988618*
X1993221Y1989307*
X1993011Y1989517*
X1992801*
X1992362Y1989407*
X1992259Y1989098*
X1992357Y1988901*
X1992801Y1988790*
X1993031*
X1993081Y1988740*
Y1988386*
X1993079Y1988370*
X1992961Y1988016*
X1992953Y1988001*
X1992599Y1987529*
X1992598Y1987528*
X1992126Y1986937*
X1992109Y1986924*
X1991400Y1986569*
X1991378Y1986564*
X1988780*
X1988757Y1986569*
X1988521Y1986688*
X1988499Y1986710*
X1988380Y1986946*
X1988375Y1986969*
Y1987981*
X1988239*
Y1984656*
X1988375*
Y1985551*
X1988380Y1985574*
X1988499Y1985810*
X1988521Y1985832*
X1988757Y1985950*
X1988780Y1985956*
X1992677*
X1992700Y1985950*
X1992936Y1985832*
X1992958Y1985810*
X1993076Y1985574*
X1993081Y1985551*
Y1984656*
X1993336*
Y1985787*
X1993339Y1985806*
X1993572Y1986388*
Y1986564*
X1954714Y1944478D02*
X1954459D01*
Y1944291*
X1954457Y1944276*
X1954339Y1943921*
X1954314Y1943892*
X1953841Y1943656*
X1953832Y1943653*
X1946900Y1941773*
Y1941614*
X1953831Y1939852*
X1954303Y1939734*
X1954339Y1939701*
X1954457Y1939347*
X1954459Y1939331*
Y1939144*
X1954714*
Y1941052*
X1954459*
Y1940866*
X1954454Y1940844*
X1954336Y1940608*
X1954291Y1940580*
X1953937*
X1953925Y1940581*
X1948492Y1941881*
X1948491Y1941977*
X1953806Y1943395*
X1953819Y1943396*
X1954291*
X1954339Y1943362*
X1954457Y1943008*
X1954459Y1942992*
Y1942924*
X1954714*
Y1944478*
Y1993690D02*
X1954459D01*
Y1993504*
X1954457Y1993488*
X1954339Y1993134*
X1954314Y1993105*
X1953841Y1992869*
X1953832Y1992865*
X1946900Y1990985*
Y1990826*
X1953831Y1989064*
X1954303Y1988946*
X1954339Y1988913*
X1954457Y1988559*
X1954459Y1988543*
Y1988357*
X1954714*
Y1990265*
X1954459*
Y1990079*
X1954454Y1990056*
X1954336Y1989820*
X1954291Y1989793*
X1953937*
X1953925Y1989794*
X1948492Y1991093*
X1948491Y1991190*
X1953806Y1992607*
X1953819Y1992609*
X1954291*
X1954339Y1992575*
X1954457Y1992221*
X1954459Y1992205*
Y1992137*
X1954714*
Y1993690*
X1953769Y1948021D02*
X1951220D01*
X1951170Y1948071*
Y1950265*
X1950798*
Y1948071*
X1950748Y1948021*
X1948200*
Y1947648*
X1950748*
X1950798Y1947598*
Y1945404*
X1951170*
Y1947598*
X1951220Y1947648*
X1953769*
Y1948021*
X1951170Y1999478D02*
X1950798D01*
Y1994499*
X1951170*
Y1999478*
X1941549Y1945535D02*
X1941295D01*
Y1944168*
X1941261Y1944120*
X1940907Y1944002*
X1940891Y1944000*
X1935819*
X1935006Y1943768*
X1934311Y1943304*
X1933852Y1942730*
X1933737Y1941925*
X1933853Y1941344*
X1933966Y1940892*
X1934299Y1940670*
X1934631Y1940559*
X1934946Y1940664*
X1935051Y1940981*
X1934943Y1941413*
X1934635Y1941515*
X1934417Y1941407*
X1934395Y1941401*
X1934277*
X1934241Y1941416*
X1934005Y1941652*
X1933990Y1941688*
Y1942514*
X1934005Y1942550*
X1934359Y1942904*
X1934369Y1942912*
X1934960Y1943266*
X1934978Y1943272*
X1935805Y1943391*
X1935812*
X1940655*
X1940670Y1943389*
X1941017Y1943273*
X1941127*
X1941174Y1943239*
X1941293Y1942884*
X1941295Y1942869*
Y1941856*
X1941549*
Y1945535*
X1941665Y1948658D02*
X1941434Y1949583D01*
X1941090Y1950272*
X1940399Y1950618*
X1939706Y1950849*
X1939135Y1950734*
X1938669Y1950501*
X1938665Y1950499*
X1938084Y1950267*
X1935493Y1947676*
X1935490Y1947673*
X1934781Y1947082*
X1934777Y1947079*
X1934422Y1946843*
X1934345Y1946884*
Y1949955*
X1934353Y1949983*
X1934589Y1950337*
X1934609Y1950354*
X1935081Y1950591*
X1935094Y1950595*
X1935644Y1950705*
Y1950844*
X1933736Y1950619*
Y1946462*
X1934265*
X1934722Y1946691*
X1935308Y1947159*
X1936015Y1947748*
X1936015D02*
X1937548Y1949282D01*
X1937556Y1949288*
X1938265Y1949761*
X1938277Y1949766*
X1938985Y1950003*
X1938991Y1950004*
X1939582Y1950122*
X1939600Y1950123*
X1940308Y1950005*
X1940319Y1950002*
X1940909Y1949765*
X1940931Y1949749*
X1941285Y1949277*
X1941294Y1949255*
X1941413Y1948546*
Y1948538*
X1941412Y1948526*
X1941294Y1948053*
X1941290Y1948043*
X1941054Y1947571*
X1941037Y1947551*
X1940682Y1947315*
X1940670Y1947309*
X1940316Y1947191*
X1940288Y1947190*
X1939816Y1947308*
X1939800Y1947315*
X1939466Y1947538*
X1939159Y1947435*
X1939053Y1947119*
X1939162Y1946683*
X1939367Y1946580*
X1939706*
X1940513Y1946695*
X1941086Y1947268*
X1941435Y1947967*
X1941665Y1948658*
X1933800Y1941609D02*
Y1942368D01*
Y1946462D02*
Y1950627D01*
X1933900Y1941156D02*
Y1942790D01*
Y1946462D02*
Y1950639D01*
X1934000Y1940869D02*
Y1941658D01*
Y1942544D02*
Y1942915D01*
Y1946462D02*
Y1950651D01*
X1934100Y1940802D02*
Y1941557D01*
Y1942645D02*
Y1943040D01*
Y1946462D02*
Y1950662D01*
X1934200Y1940736D02*
Y1941457D01*
Y1942745D02*
Y1943165D01*
Y1946462D02*
Y1950674D01*
X1934300Y1940669D02*
Y1941401D01*
Y1942845D02*
Y1943290D01*
Y1946480D02*
Y1950686D01*
X1934400Y1940636D02*
Y1941402D01*
Y1942930D02*
Y1943363D01*
Y1946530D02*
Y1946835D01*
Y1950053D02*
Y1950698D01*
X1934500Y1940603D02*
Y1941448D01*
Y1942990D02*
Y1943430D01*
Y1946580D02*
Y1946895D01*
Y1950203D02*
Y1950709D01*
X1934600Y1940569D02*
Y1941498D01*
Y1943050D02*
Y1943497D01*
Y1946630D02*
Y1946961D01*
Y1950349D02*
Y1950721D01*
X1934700Y1940582D02*
Y1941494D01*
Y1943110D02*
Y1943563D01*
Y1946680D02*
Y1947028D01*
Y1950400D02*
Y1950733D01*
X1934800Y1940616D02*
Y1941460D01*
Y1943170D02*
Y1943630D01*
Y1946753D02*
Y1947098D01*
Y1950450D02*
Y1950745D01*
X1934900Y1940649D02*
Y1941427D01*
Y1943230D02*
Y1943697D01*
Y1946833D02*
Y1947181D01*
Y1950500D02*
Y1950756D01*
X1935000Y1940827D02*
Y1941186D01*
Y1943276D02*
Y1943763D01*
Y1946913D02*
Y1947265D01*
Y1950550D02*
Y1950768D01*
X1935100Y1943290D02*
Y1943794D01*
Y1946993D02*
Y1947348D01*
Y1950596D02*
Y1950780D01*
X1935200Y1943304D02*
Y1943823D01*
Y1947073D02*
Y1947431D01*
Y1950616D02*
Y1950792D01*
X1935300Y1943318D02*
Y1943851D01*
Y1947153D02*
Y1947515D01*
Y1950636D02*
Y1950803D01*
X1935400Y1943333D02*
Y1943880D01*
Y1947236D02*
Y1947598D01*
Y1950656D02*
Y1950815D01*
X1935500Y1943347D02*
Y1943909D01*
Y1947319D02*
Y1947683D01*
Y1950676D02*
Y1950827D01*
X1935600Y1943361D02*
Y1943937D01*
Y1947403D02*
Y1947783D01*
Y1950696D02*
Y1950839D01*
X1935700Y1943376D02*
Y1943966D01*
Y1947486D02*
Y1947883D01*
X1935800Y1943390D02*
Y1943994D01*
Y1947569D02*
Y1947983D01*
X1935900Y1943391D02*
Y1944000D01*
Y1947653D02*
Y1948083D01*
X1936000Y1943391D02*
Y1944000D01*
Y1947736D02*
Y1948183D01*
X1936100Y1943391D02*
Y1944000D01*
Y1947834D02*
Y1948283D01*
X1936200Y1943391D02*
Y1944000D01*
Y1947934D02*
Y1948383D01*
X1936300Y1943391D02*
Y1944000D01*
Y1948034D02*
Y1948483D01*
X1936400Y1943391D02*
Y1944000D01*
Y1948134D02*
Y1948583D01*
X1936500Y1943391D02*
Y1944000D01*
Y1948234D02*
Y1948683D01*
X1936600Y1943391D02*
Y1944000D01*
Y1948334D02*
Y1948783D01*
X1936700Y1943391D02*
Y1944000D01*
Y1948434D02*
Y1948883D01*
X1936800Y1943391D02*
Y1944000D01*
Y1948534D02*
Y1948983D01*
X1936900Y1943391D02*
Y1944000D01*
Y1948634D02*
Y1949083D01*
X1937000Y1943391D02*
Y1944000D01*
Y1948734D02*
Y1949183D01*
X1937100Y1943391D02*
Y1944000D01*
Y1948834D02*
Y1949283D01*
X1937200Y1943391D02*
Y1944000D01*
Y1948934D02*
Y1949383D01*
X1937300Y1943391D02*
Y1944000D01*
Y1949034D02*
Y1949483D01*
X1937400Y1943391D02*
Y1944000D01*
Y1949134D02*
Y1949583D01*
X1937500Y1943391D02*
Y1944000D01*
Y1949234D02*
Y1949683D01*
X1937600Y1943391D02*
Y1944000D01*
Y1949318D02*
Y1949783D01*
X1937700Y1943391D02*
Y1944000D01*
Y1949384D02*
Y1949883D01*
X1937800Y1943391D02*
Y1944000D01*
Y1949451D02*
Y1949983D01*
X1937900Y1943391D02*
Y1944000D01*
Y1949518D02*
Y1950083D01*
X1938000Y1943391D02*
Y1944000D01*
Y1949584D02*
Y1950183D01*
X1938100Y1943391D02*
Y1944000D01*
Y1949651D02*
Y1950273D01*
X1938200Y1943391D02*
Y1944000D01*
Y1949718D02*
Y1950313D01*
X1938300Y1943391D02*
Y1944000D01*
Y1949774D02*
Y1950353D01*
X1938400Y1943391D02*
Y1944000D01*
Y1949808D02*
Y1950393D01*
X1938500Y1943391D02*
Y1944000D01*
Y1949841D02*
Y1950433D01*
X1938600Y1943391D02*
Y1944000D01*
Y1949874D02*
Y1950473D01*
X1938700Y1943391D02*
Y1944000D01*
Y1949908D02*
Y1950517D01*
X1938800Y1943391D02*
Y1944000D01*
Y1949941D02*
Y1950567D01*
X1938900Y1943391D02*
Y1944000D01*
Y1949974D02*
Y1950617D01*
X1939000Y1943391D02*
Y1944000D01*
Y1950006D02*
Y1950667D01*
X1939100Y1943391D02*
Y1944000D01*
Y1946931D02*
Y1947260D01*
Y1950026D02*
Y1950717D01*
X1939200Y1943391D02*
Y1944000D01*
Y1946664D02*
Y1947449D01*
Y1950046D02*
Y1950747D01*
X1939300Y1943391D02*
Y1944000D01*
Y1946614D02*
Y1947483D01*
Y1950066D02*
Y1950767D01*
X1939400Y1943391D02*
Y1944000D01*
Y1946580D02*
Y1947516D01*
Y1950086D02*
Y1950787D01*
X1939500Y1943391D02*
Y1944000D01*
Y1946580D02*
Y1947515D01*
Y1950106D02*
Y1950807D01*
X1939600Y1943391D02*
Y1944000D01*
Y1946580D02*
Y1947449D01*
Y1950123D02*
Y1950827D01*
X1939700Y1943391D02*
Y1944000D01*
Y1946580D02*
Y1947382D01*
Y1950106D02*
Y1950847D01*
X1939800Y1943391D02*
Y1944000D01*
Y1946593D02*
Y1947315D01*
Y1950089D02*
Y1950817D01*
X1939900Y1943391D02*
Y1944000D01*
Y1946608D02*
Y1947287D01*
Y1950073D02*
Y1950784D01*
X1940000Y1943391D02*
Y1944000D01*
Y1946622D02*
Y1947262D01*
Y1950056D02*
Y1950751D01*
X1940100Y1943391D02*
Y1944000D01*
Y1946636D02*
Y1947237D01*
Y1950039D02*
Y1950717D01*
X1940200Y1943391D02*
Y1944000D01*
Y1946651D02*
Y1947212D01*
Y1950023D02*
Y1950684D01*
X1940300Y1943391D02*
Y1944000D01*
Y1946665D02*
Y1947189D01*
Y1950006D02*
Y1950651D01*
X1940400Y1943391D02*
Y1944000D01*
Y1946679D02*
Y1947219D01*
Y1949969D02*
Y1950617D01*
X1940500Y1943391D02*
Y1944000D01*
Y1946693D02*
Y1947253D01*
Y1949929D02*
Y1950567D01*
X1940600Y1943391D02*
Y1944000D01*
Y1946782D02*
Y1947286D01*
Y1949889D02*
Y1950517D01*
X1940700Y1943379D02*
Y1944000D01*
Y1946882D02*
Y1947327D01*
Y1949849D02*
Y1950467D01*
X1940800Y1943345D02*
Y1944000D01*
Y1946982D02*
Y1947394D01*
Y1949809D02*
Y1950417D01*
X1940900Y1943312D02*
Y1944001D01*
Y1947082D02*
Y1947460D01*
Y1949769D02*
Y1950367D01*
X1941000Y1943279D02*
Y1944033D01*
Y1947182D02*
Y1947527D01*
Y1949657D02*
Y1950317D01*
X1941100Y1943273D02*
Y1944067D01*
Y1947297D02*
Y1947664D01*
Y1949523D02*
Y1950252D01*
X1941200Y1943162D02*
Y1944100D01*
Y1947497D02*
Y1947864D01*
Y1949390D02*
Y1950052D01*
X1941300Y1941856D02*
Y1945535D01*
Y1947697D02*
Y1948079D01*
Y1949221D02*
Y1949852D01*
X1941400Y1941856D02*
Y1945535D01*
Y1947897D02*
Y1948479D01*
Y1948621D02*
Y1949652D01*
X1941500Y1941856D02*
Y1945535D01*
Y1948162D02*
Y1949320D01*
X1941600Y1948462D02*
Y1948920D01*
X1947000Y1941588D02*
Y1941800D01*
Y1990801D02*
Y1991012D01*
X1947100Y1941563D02*
Y1941827D01*
Y1990776D02*
Y1991040D01*
X1947200Y1941538D02*
Y1941854D01*
Y1990750D02*
Y1991067D01*
X1947300Y1941512D02*
Y1941881D01*
Y1990725D02*
Y1991094D01*
X1947400Y1941487D02*
Y1941908D01*
Y1990699D02*
Y1991121D01*
X1947500Y1941461D02*
Y1941935D01*
Y1990674D02*
Y1991148D01*
X1947600Y1941436D02*
Y1941963D01*
Y1990648D02*
Y1991175D01*
X1947700Y1941410D02*
Y1941990D01*
Y1990623D02*
Y1991202D01*
X1947800Y1941385D02*
Y1942017D01*
Y1990598D02*
Y1991229D01*
X1947900Y1941360D02*
Y1942044D01*
Y1990572D02*
Y1991256D01*
X1948000Y1941334D02*
Y1942071D01*
Y1990547D02*
Y1991284D01*
X1948100Y1941309D02*
Y1942098D01*
Y1990521D02*
Y1991311D01*
X1948200Y1941283D02*
Y1942125D01*
Y1947648D02*
Y1948021D01*
Y1990496D02*
Y1991338D01*
X1948300Y1941258D02*
Y1942152D01*
Y1947648D02*
Y1948021D01*
Y1990470D02*
Y1991365D01*
X1948400Y1941232D02*
Y1942179D01*
Y1947648D02*
Y1948021D01*
Y1990445D02*
Y1991392D01*
X1948500Y1941207D02*
Y1941879D01*
Y1941980D02*
Y1942207D01*
Y1947648D02*
Y1948021D01*
Y1990420D02*
Y1991091D01*
Y1991192D02*
Y1991419D01*
X1948600Y1941182D02*
Y1941855D01*
Y1942006D02*
Y1942234D01*
Y1947648D02*
Y1948021D01*
Y1990394D02*
Y1991067D01*
Y1991219D02*
Y1991446D01*
X1948700Y1941156D02*
Y1941831D01*
Y1942033D02*
Y1942261D01*
Y1947648D02*
Y1948021D01*
Y1990369D02*
Y1991043D01*
Y1991246D02*
Y1991473D01*
X1948800Y1941131D02*
Y1941807D01*
Y1942060D02*
Y1942288D01*
Y1947648D02*
Y1948021D01*
Y1990343D02*
Y1991020D01*
Y1991272D02*
Y1991501D01*
X1948900Y1941105D02*
Y1941783D01*
Y1942086D02*
Y1942315D01*
Y1947648D02*
Y1948021D01*
Y1990318D02*
Y1990996D01*
Y1991299D02*
Y1991528D01*
X1949000Y1941080D02*
Y1941759D01*
Y1942113D02*
Y1942342D01*
Y1947648D02*
Y1948021D01*
Y1990292D02*
Y1990972D01*
Y1991326D02*
Y1991555D01*
X1949100Y1941054D02*
Y1941735D01*
Y1942140D02*
Y1942369D01*
Y1947648D02*
Y1948021D01*
Y1990267D02*
Y1990948D01*
Y1991352D02*
Y1991582D01*
X1949200Y1941029D02*
Y1941711D01*
Y1942166D02*
Y1942396D01*
Y1947648D02*
Y1948021D01*
Y1990242D02*
Y1990924D01*
Y1991379D02*
Y1991609D01*
X1949300Y1941004D02*
Y1941687D01*
Y1942193D02*
Y1942424D01*
Y1947648D02*
Y1948021D01*
Y1990216D02*
Y1990900D01*
Y1991406D02*
Y1991636D01*
X1949400Y1940978D02*
Y1941663D01*
Y1942220D02*
Y1942451D01*
Y1947648D02*
Y1948021D01*
Y1990191D02*
Y1990876D01*
Y1991432D02*
Y1991663D01*
X1949500Y1940953D02*
Y1941640D01*
Y1942246D02*
Y1942478D01*
Y1947648D02*
Y1948021D01*
Y1990165D02*
Y1990852D01*
Y1991459D02*
Y1991690D01*
X1949600Y1940927D02*
Y1941616D01*
Y1942273D02*
Y1942505D01*
Y1947648D02*
Y1948021D01*
Y1990140D02*
Y1990828D01*
Y1991486D02*
Y1991717D01*
X1949700Y1940902D02*
Y1941592D01*
Y1942300D02*
Y1942532D01*
Y1947648D02*
Y1948021D01*
Y1990115D02*
Y1990804D01*
Y1991512D02*
Y1991745D01*
X1949800Y1940876D02*
Y1941568D01*
Y1942326D02*
Y1942559D01*
Y1947648D02*
Y1948021D01*
Y1990089D02*
Y1990780D01*
Y1991539D02*
Y1991772D01*
X1949900Y1940851D02*
Y1941544D01*
Y1942353D02*
Y1942586D01*
Y1947648D02*
Y1948021D01*
Y1990064D02*
Y1990756D01*
Y1991566D02*
Y1991799D01*
X1950000Y1940826D02*
Y1941520D01*
Y1942380D02*
Y1942613D01*
Y1947648D02*
Y1948021D01*
Y1990038D02*
Y1990733D01*
Y1991592D02*
Y1991826D01*
X1950100Y1940800D02*
Y1941496D01*
Y1942406D02*
Y1942640D01*
Y1947648D02*
Y1948021D01*
Y1990013D02*
Y1990709D01*
Y1991619D02*
Y1991853D01*
X1950200Y1940775D02*
Y1941472D01*
Y1942433D02*
Y1942668D01*
Y1947648D02*
Y1948021D01*
Y1989987D02*
Y1990685D01*
Y1991646D02*
Y1991880D01*
X1950300Y1940749D02*
Y1941448D01*
Y1942460D02*
Y1942695D01*
Y1947648D02*
Y1948021D01*
Y1989962D02*
Y1990661D01*
Y1991672D02*
Y1991907D01*
X1950400Y1940724D02*
Y1941424D01*
Y1942486D02*
Y1942722D01*
Y1947648D02*
Y1948021D01*
Y1989937D02*
Y1990637D01*
Y1991699D02*
Y1991934D01*
X1950500Y1940699D02*
Y1941400D01*
Y1942513D02*
Y1942749D01*
Y1947648D02*
Y1948021D01*
Y1989911D02*
Y1990613D01*
Y1991726D02*
Y1991962D01*
X1950600Y1940673D02*
Y1941376D01*
Y1942540D02*
Y1942776D01*
Y1947648D02*
Y1948021D01*
Y1989886D02*
Y1990589D01*
Y1991752D02*
Y1991989D01*
X1950700Y1940648D02*
Y1941353D01*
Y1942566D02*
Y1942803D01*
Y1947648D02*
Y1948021D01*
Y1989860D02*
Y1990565D01*
Y1991779D02*
Y1992016D01*
X1950800Y1940622D02*
Y1941329D01*
Y1942593D02*
Y1942830D01*
Y1945404D02*
Y1950265D01*
Y1989835D02*
Y1990541D01*
Y1991806D02*
Y1992043D01*
Y1994499D02*
Y1999478D01*
X1950900Y1940597D02*
Y1941305D01*
Y1942620D02*
Y1942857D01*
Y1945404D02*
Y1950265D01*
Y1989809D02*
Y1990517D01*
Y1991832D02*
Y1992070D01*
Y1994499D02*
Y1999478D01*
X1951000Y1940571D02*
Y1941281D01*
Y1942646D02*
Y1942885D01*
Y1945404D02*
Y1950265D01*
Y1989784D02*
Y1990493D01*
Y1991859D02*
Y1992097D01*
Y1994499D02*
Y1999478D01*
X1951100Y1940546D02*
Y1941257D01*
Y1942673D02*
Y1942912D01*
Y1945404D02*
Y1950265D01*
Y1989759D02*
Y1990470D01*
Y1991886D02*
Y1992124D01*
Y1994499D02*
Y1999478D01*
X1951200Y1940521D02*
Y1941233D01*
Y1942700D02*
Y1942939D01*
Y1947644D02*
Y1948025D01*
Y1989733D02*
Y1990446D01*
Y1991912D02*
Y1992151D01*
X1951300Y1940495D02*
Y1941209D01*
Y1942726D02*
Y1942966D01*
Y1947648D02*
Y1948021D01*
Y1989708D02*
Y1990422D01*
Y1991939D02*
Y1992178D01*
X1951400Y1940470D02*
Y1941185D01*
Y1942753D02*
Y1942993D01*
Y1947648D02*
Y1948021D01*
Y1989682D02*
Y1990398D01*
Y1991966D02*
Y1992206D01*
X1951500Y1940444D02*
Y1941161D01*
Y1942780D02*
Y1943020D01*
Y1947648D02*
Y1948021D01*
Y1989657D02*
Y1990374D01*
Y1991992D02*
Y1992233D01*
X1951600Y1940419D02*
Y1941137D01*
Y1942806D02*
Y1943047D01*
Y1947648D02*
Y1948021D01*
Y1989631D02*
Y1990350D01*
Y1992019D02*
Y1992260D01*
X1951700Y1940393D02*
Y1941113D01*
Y1942833D02*
Y1943074D01*
Y1947648D02*
Y1948021D01*
Y1989606D02*
Y1990326D01*
Y1992046D02*
Y1992287D01*
X1951800Y1940368D02*
Y1941090D01*
Y1942860D02*
Y1943101D01*
Y1947648D02*
Y1948021D01*
Y1989581D02*
Y1990302D01*
Y1992072D02*
Y1992314D01*
X1951900Y1940343D02*
Y1941066D01*
Y1942886D02*
Y1943129D01*
Y1947648D02*
Y1948021D01*
Y1989555D02*
Y1990278D01*
Y1992099D02*
Y1992341D01*
X1952000Y1940317D02*
Y1941042D01*
Y1942913D02*
Y1943156D01*
Y1947648D02*
Y1948021D01*
Y1989530D02*
Y1990254D01*
Y1992126D02*
Y1992368D01*
X1952100Y1940292D02*
Y1941018D01*
Y1942940D02*
Y1943183D01*
Y1947648D02*
Y1948021D01*
Y1989504D02*
Y1990230D01*
Y1992152D02*
Y1992395D01*
X1952200Y1940266D02*
Y1940994D01*
Y1942966D02*
Y1943210D01*
Y1947648D02*
Y1948021D01*
Y1989479D02*
Y1990206D01*
Y1992179D02*
Y1992423D01*
X1952300Y1940241D02*
Y1940970D01*
Y1942993D02*
Y1943237D01*
Y1947648D02*
Y1948021D01*
Y1989453D02*
Y1990183D01*
Y1992206D02*
Y1992450D01*
X1952400Y1940215D02*
Y1940946D01*
Y1943020D02*
Y1943264D01*
Y1947648D02*
Y1948021D01*
Y1989428D02*
Y1990159D01*
Y1992232D02*
Y1992477D01*
X1952500Y1940190D02*
Y1940922D01*
Y1943046D02*
Y1943291D01*
Y1947648D02*
Y1948021D01*
Y1989403D02*
Y1990135D01*
Y1992259D02*
Y1992504D01*
X1952600Y1940165D02*
Y1940898D01*
Y1943073D02*
Y1943318D01*
Y1947648D02*
Y1948021D01*
Y1989377D02*
Y1990111D01*
Y1992286D02*
Y1992531D01*
X1952700Y1940139D02*
Y1940874D01*
Y1943100D02*
Y1943346D01*
Y1947648D02*
Y1948021D01*
Y1989352D02*
Y1990087D01*
Y1992312D02*
Y1992558D01*
X1952800Y1940114D02*
Y1940850D01*
Y1943126D02*
Y1943373D01*
Y1947648D02*
Y1948021D01*
Y1989326D02*
Y1990063D01*
Y1992339D02*
Y1992585D01*
X1952900Y1940088D02*
Y1940826D01*
Y1943153D02*
Y1943400D01*
Y1947648D02*
Y1948021D01*
Y1989301D02*
Y1990039D01*
Y1992366D02*
Y1992612D01*
X1953000Y1940063D02*
Y1940803D01*
Y1943180D02*
Y1943427D01*
Y1947648D02*
Y1948021D01*
Y1989276D02*
Y1990015D01*
Y1992392D02*
Y1992640D01*
X1953100Y1940038D02*
Y1940779D01*
Y1943206D02*
Y1943454D01*
Y1947648D02*
Y1948021D01*
Y1989250D02*
Y1989991D01*
Y1992419D02*
Y1992667D01*
X1953200Y1940012D02*
Y1940755D01*
Y1943233D02*
Y1943481D01*
Y1947648D02*
Y1948021D01*
Y1989225D02*
Y1989967D01*
Y1992446D02*
Y1992694D01*
X1953300Y1939987D02*
Y1940731D01*
Y1943260D02*
Y1943508D01*
Y1947648D02*
Y1948021D01*
Y1989199D02*
Y1989943D01*
Y1992472D02*
Y1992721D01*
X1953400Y1939961D02*
Y1940707D01*
Y1943286D02*
Y1943535D01*
Y1947648D02*
Y1948021D01*
Y1989174D02*
Y1989920D01*
Y1992499D02*
Y1992748D01*
X1953500Y1939936D02*
Y1940683D01*
Y1943313D02*
Y1943563D01*
Y1947648D02*
Y1948021D01*
Y1989148D02*
Y1989896D01*
Y1992526D02*
Y1992775D01*
X1953600Y1939910D02*
Y1940659D01*
Y1943340D02*
Y1943590D01*
Y1947648D02*
Y1948021D01*
Y1989123D02*
Y1989872D01*
Y1992552D02*
Y1992802D01*
X1953700Y1939885D02*
Y1940635D01*
Y1943366D02*
Y1943617D01*
Y1947648D02*
Y1948021D01*
Y1989098D02*
Y1989848D01*
Y1992579D02*
Y1992829D01*
X1953800Y1939860D02*
Y1940611D01*
Y1943393D02*
Y1943644D01*
Y1989072D02*
Y1989824D01*
Y1992606D02*
Y1992856D01*
X1953900Y1939834D02*
Y1940587D01*
Y1943396D02*
Y1943685D01*
Y1989047D02*
Y1989800D01*
Y1992609D02*
Y1992898D01*
X1954000Y1939809D02*
Y1940580D01*
Y1943396D02*
Y1943735D01*
Y1989022D02*
Y1989793D01*
Y1992609D02*
Y1992948D01*
X1954100Y1939784D02*
Y1940580D01*
Y1943396D02*
Y1943785D01*
Y1988997D02*
Y1989793D01*
Y1992609D02*
Y1992998D01*
X1954200Y1939759D02*
Y1940580D01*
Y1943396D02*
Y1943835D01*
Y1988972D02*
Y1989793D01*
Y1992609D02*
Y1993048D01*
X1954300Y1939734D02*
Y1940581D01*
Y1943396D02*
Y1943885D01*
Y1988947D02*
Y1989793D01*
Y1992608D02*
Y1993098D01*
X1954400Y1939517D02*
Y1940735D01*
Y1943179D02*
Y1944105D01*
Y1988730D02*
Y1989948D01*
Y1992391D02*
Y1993317D01*
X1954500Y1939144D02*
Y1941052D01*
Y1942924D02*
Y1944478D01*
Y1988357D02*
Y1990265D01*
Y1992137D02*
Y1993690D01*
X1954600Y1939144D02*
Y1941052D01*
Y1942924D02*
Y1944478D01*
Y1988357D02*
Y1990265D01*
Y1992137D02*
Y1993690D01*
X1954700Y1939144D02*
Y1941052D01*
Y1942924D02*
Y1944478D01*
Y1988357D02*
Y1990265D01*
Y1992137D02*
Y1993690D01*
X1986500Y1960916D02*
Y1962942D01*
X1986600Y1960916D02*
Y1962942D01*
X1986700Y1960916D02*
Y1962942D01*
X1986800Y1961389D02*
Y1962513D01*
X1986900Y1961518D02*
Y1962341D01*
X1987000Y1961568D02*
Y1962291D01*
X1987100Y1961618D02*
Y1962241D01*
X1987200Y1961625D02*
Y1962233D01*
X1987300Y1961625D02*
Y1962233D01*
X1987400Y1961625D02*
Y1962233D01*
X1987500Y1961625D02*
Y1962233D01*
X1987600Y1961625D02*
Y1962233D01*
X1987700Y1961625D02*
Y1962233D01*
X1987800Y1961625D02*
Y1962233D01*
X1987900Y1961625D02*
Y1962233D01*
X1988000Y1961625D02*
Y1962233D01*
X1988100Y1961625D02*
Y1962233D01*
X1988200Y1961625D02*
Y1962233D01*
Y1981107D02*
Y1981968D01*
X1988300Y1950527D02*
Y1951250D01*
Y1956431D02*
Y1957787D01*
Y1958908D02*
Y1959087D01*
Y1961625D02*
Y1962233D01*
Y1963334D02*
Y1964242D01*
Y1967767D02*
Y1971092D01*
Y1975235D02*
Y1976521D01*
Y1980707D02*
Y1982309D01*
Y1984656D02*
Y1987981D01*
X1988400Y1950071D02*
Y1951690D01*
Y1956298D02*
Y1957987D01*
Y1958908D02*
Y1959287D01*
Y1961625D02*
Y1962233D01*
Y1962838D02*
Y1963500D01*
Y1963712D02*
Y1964682D01*
Y1968744D02*
Y1970114D01*
Y1975135D02*
Y1976655D01*
Y1980423D02*
Y1981382D01*
Y1981664D02*
Y1982442D01*
Y1985613D02*
Y1986907D01*
X1988500Y1949774D02*
Y1950566D01*
Y1951442D02*
Y1951815D01*
Y1956165D02*
Y1957290D01*
Y1957361D02*
Y1958187D01*
Y1958908D02*
Y1960107D01*
Y1961625D02*
Y1962233D01*
Y1962713D02*
Y1963200D01*
Y1964198D02*
Y1964807D01*
Y1969041D02*
Y1969818D01*
Y1975035D02*
Y1976069D01*
Y1976131D02*
Y1976788D01*
Y1980273D02*
Y1980802D01*
Y1982151D02*
Y1982575D01*
Y1985812D02*
Y1986707D01*
X1988600Y1949707D02*
Y1950463D01*
Y1951545D02*
Y1951940D01*
Y1956055D02*
Y1956890D01*
Y1957861D02*
Y1958387D01*
Y1958908D02*
Y1960107D01*
Y1961625D02*
Y1962233D01*
Y1962588D02*
Y1962900D01*
Y1964324D02*
Y1964932D01*
Y1969100D02*
Y1969758D01*
Y1974946D02*
Y1975669D01*
Y1976431D02*
Y1976909D01*
Y1980123D02*
Y1980676D01*
Y1982351D02*
Y1982703D01*
Y1985872D02*
Y1986648D01*
X1988700Y1949641D02*
Y1950363D01*
Y1951645D02*
Y1952065D01*
Y1956015D02*
Y1956741D01*
Y1958061D02*
Y1958585D01*
Y1958908D02*
Y1960107D01*
Y1961625D02*
Y1962233D01*
Y1962463D02*
Y1962765D01*
Y1964449D02*
Y1965057D01*
Y1969150D02*
Y1969708D01*
Y1974886D02*
Y1975441D01*
Y1976605D02*
Y1976984D01*
Y1979973D02*
Y1980551D01*
Y1982551D02*
Y1982803D01*
Y1985922D02*
Y1986598D01*
X1988800Y1949574D02*
Y1950304D01*
Y1951745D02*
Y1952190D01*
Y1955975D02*
Y1956641D01*
Y1958211D02*
Y1958635D01*
Y1958908D02*
Y1959626D01*
Y1961625D02*
Y1962238D01*
Y1962338D02*
Y1962665D01*
Y1964574D02*
Y1965182D01*
Y1969184D02*
Y1969674D01*
Y1974826D02*
Y1975334D01*
Y1976755D02*
Y1977059D01*
Y1979823D02*
Y1980426D01*
Y1982690D02*
Y1982903D01*
Y1985956D02*
Y1986564D01*
X1988900Y1949540D02*
Y1950304D01*
Y1951831D02*
Y1952264D01*
Y1955935D02*
Y1956553D01*
Y1958341D02*
Y1958685D01*
Y1958908D02*
Y1959592D01*
Y1961625D02*
Y1962565D01*
Y1964699D02*
Y1965261D01*
Y1969184D02*
Y1969674D01*
Y1974766D02*
Y1975301D01*
Y1976873D02*
Y1977134D01*
Y1979739D02*
Y1980301D01*
Y1982790D02*
Y1983003D01*
Y1985956D02*
Y1986564D01*
X1989000Y1949507D02*
Y1950350D01*
Y1951891D02*
Y1952331D01*
Y1955895D02*
Y1956486D01*
Y1958441D02*
Y1958735D01*
Y1958908D02*
Y1959559D01*
Y1961625D02*
Y1962470D01*
Y1964812D02*
Y1965332D01*
Y1969184D02*
Y1969674D01*
Y1974706D02*
Y1975268D01*
Y1976939D02*
Y1977209D01*
Y1979668D02*
Y1980188D01*
Y1982890D02*
Y1983103D01*
Y1985956D02*
Y1986564D01*
X1989100Y1949473D02*
Y1950400D01*
Y1951951D02*
Y1952398D01*
Y1955855D02*
Y1956419D01*
Y1958541D02*
Y1958785D01*
Y1958908D02*
Y1959526D01*
Y1961625D02*
Y1962403D01*
Y1964862D02*
Y1965404D01*
Y1969184D02*
Y1969674D01*
Y1974646D02*
Y1975234D01*
Y1977006D02*
Y1977249D01*
Y1979596D02*
Y1980138D01*
Y1982990D02*
Y1983169D01*
Y1985956D02*
Y1986564D01*
X1989200Y1949484D02*
Y1950398D01*
Y1952011D02*
Y1952464D01*
Y1955827D02*
Y1956353D01*
Y1958641D02*
Y1959517D01*
Y1961625D02*
Y1962337D01*
Y1964912D02*
Y1965475D01*
Y1969184D02*
Y1969674D01*
Y1974617D02*
Y1975208D01*
Y1977073D02*
Y1977269D01*
Y1979525D02*
Y1980088D01*
Y1983042D02*
Y1983209D01*
Y1985956D02*
Y1986564D01*
X1989300Y1949518D02*
Y1950364D01*
Y1952071D02*
Y1952531D01*
Y1955810D02*
Y1956317D01*
Y1958702D02*
Y1959517D01*
Y1961625D02*
Y1962270D01*
Y1964962D02*
Y1965547D01*
Y1969184D02*
Y1969674D01*
Y1974617D02*
Y1975183D01*
Y1977111D02*
Y1977289D01*
Y1979453D02*
Y1980038D01*
Y1983092D02*
Y1983249D01*
Y1985956D02*
Y1986564D01*
X1989400Y1949551D02*
Y1950331D01*
Y1952131D02*
Y1952598D01*
Y1955794D02*
Y1956297D01*
Y1958752D02*
Y1959517D01*
Y1961625D02*
Y1962233D01*
Y1965012D02*
Y1965618D01*
Y1969184D02*
Y1969674D01*
Y1974617D02*
Y1975158D01*
Y1977136D02*
Y1977309D01*
Y1979382D02*
Y1979988D01*
Y1983142D02*
Y1983289D01*
Y1985956D02*
Y1986564D01*
X1989500Y1949721D02*
Y1950101D01*
Y1952178D02*
Y1952664D01*
Y1955777D02*
Y1956277D01*
Y1958802D02*
Y1959517D01*
Y1961625D02*
Y1962233D01*
Y1965062D02*
Y1965689D01*
Y1969184D02*
Y1969674D01*
Y1974617D02*
Y1975133D01*
Y1977161D02*
Y1977329D01*
Y1979311D02*
Y1979938D01*
Y1983192D02*
Y1983329D01*
Y1985956D02*
Y1986564D01*
X1989600Y1952192D02*
Y1952696D01*
Y1955760D02*
Y1956257D01*
Y1958852D02*
Y1959517D01*
Y1961625D02*
Y1962233D01*
Y1965112D02*
Y1965761D01*
Y1969184D02*
Y1969674D01*
Y1974617D02*
Y1975108D01*
Y1977186D02*
Y1977302D01*
Y1979239D02*
Y1979888D01*
Y1985956D02*
Y1986564D01*
X1989700Y1952207D02*
Y1952725D01*
Y1955744D02*
Y1956237D01*
Y1958902D02*
Y1959517D01*
Y1961625D02*
Y1962233D01*
Y1965162D02*
Y1965786D01*
Y1969184D02*
Y1969674D01*
Y1974617D02*
Y1975107D01*
Y1979214D02*
Y1979838D01*
Y1985956D02*
Y1986564D01*
X1989800Y1952221D02*
Y1952754D01*
Y1955727D02*
Y1956217D01*
Y1958908D02*
Y1959517D01*
Y1961625D02*
Y1962233D01*
Y1965177D02*
Y1965796D01*
Y1969184D02*
Y1969674D01*
Y1974617D02*
Y1975107D01*
Y1979204D02*
Y1979823D01*
Y1985956D02*
Y1986564D01*
X1989900Y1952235D02*
Y1952782D01*
Y1955719D02*
Y1956210D01*
Y1958908D02*
Y1959517D01*
Y1961625D02*
Y1962233D01*
Y1965188D02*
Y1965806D01*
Y1969184D02*
Y1969674D01*
Y1974617D02*
Y1975107D01*
Y1979194D02*
Y1979812D01*
Y1985956D02*
Y1986564D01*
X1990000Y1952250D02*
Y1952811D01*
Y1955719D02*
Y1956210D01*
Y1958908D02*
Y1959517D01*
Y1961625D02*
Y1962233D01*
Y1965199D02*
Y1965816D01*
Y1969184D02*
Y1969674D01*
Y1974617D02*
Y1975107D01*
Y1979184D02*
Y1979801D01*
Y1985956D02*
Y1986564D01*
X1990100Y1952264D02*
Y1952839D01*
Y1955719D02*
Y1956210D01*
Y1958908D02*
Y1959517D01*
Y1961625D02*
Y1962233D01*
Y1965210D02*
Y1965826D01*
Y1969184D02*
Y1969674D01*
Y1974617D02*
Y1975107D01*
Y1979174D02*
Y1979790D01*
Y1985956D02*
Y1986564D01*
X1990200Y1952278D02*
Y1952868D01*
Y1955719D02*
Y1956210D01*
Y1958908D02*
Y1959517D01*
Y1961625D02*
Y1962233D01*
Y1965221D02*
Y1965836D01*
Y1969184D02*
Y1969674D01*
Y1974617D02*
Y1975107D01*
Y1979164D02*
Y1979779D01*
Y1985956D02*
Y1986564D01*
X1990300Y1952292D02*
Y1952896D01*
Y1955719D02*
Y1956210D01*
Y1958908D02*
Y1959517D01*
Y1961625D02*
Y1962233D01*
Y1965232D02*
Y1965846D01*
Y1969184D02*
Y1969674D01*
Y1974617D02*
Y1975107D01*
Y1979154D02*
Y1979768D01*
Y1985956D02*
Y1986564D01*
X1990400Y1952294D02*
Y1952903D01*
Y1955719D02*
Y1956210D01*
Y1958908D02*
Y1959517D01*
Y1961625D02*
Y1962233D01*
Y1965243D02*
Y1965856D01*
Y1969184D02*
Y1969674D01*
Y1974617D02*
Y1975107D01*
Y1979144D02*
Y1979757D01*
Y1985956D02*
Y1986564D01*
X1990500Y1952294D02*
Y1952903D01*
Y1955719D02*
Y1956210D01*
Y1958908D02*
Y1959517D01*
Y1961625D02*
Y1962233D01*
Y1965255D02*
Y1965866D01*
Y1969184D02*
Y1969674D01*
Y1974617D02*
Y1975107D01*
Y1979134D02*
Y1979745D01*
Y1985956D02*
Y1986564D01*
X1990600Y1952294D02*
Y1952903D01*
Y1955719D02*
Y1956210D01*
Y1958908D02*
Y1959517D01*
Y1961625D02*
Y1962233D01*
Y1965266D02*
Y1965876D01*
Y1969184D02*
Y1969674D01*
Y1974617D02*
Y1975107D01*
Y1979124D02*
Y1979734D01*
Y1985956D02*
Y1986564D01*
X1990700Y1952294D02*
Y1952903D01*
Y1955719D02*
Y1956210D01*
Y1958908D02*
Y1959517D01*
Y1961625D02*
Y1962233D01*
Y1965277D02*
Y1965886D01*
Y1969184D02*
Y1969674D01*
Y1974617D02*
Y1975107D01*
Y1979114D02*
Y1979723D01*
Y1985956D02*
Y1986564D01*
X1990800Y1952294D02*
Y1952903D01*
Y1955719D02*
Y1956210D01*
Y1958908D02*
Y1959517D01*
Y1961625D02*
Y1962233D01*
Y1965285D02*
Y1965893D01*
Y1969184D02*
Y1969674D01*
Y1974617D02*
Y1975107D01*
Y1979107D02*
Y1979715D01*
Y1985956D02*
Y1986564D01*
X1990900Y1952294D02*
Y1952903D01*
Y1955719D02*
Y1956210D01*
Y1958908D02*
Y1959517D01*
Y1961625D02*
Y1962233D01*
Y1965273D02*
Y1965883D01*
Y1969184D02*
Y1969674D01*
Y1974617D02*
Y1975107D01*
Y1979118D02*
Y1983470D01*
Y1985956D02*
Y1986564D01*
X1991000Y1952294D02*
Y1952903D01*
Y1955719D02*
Y1956210D01*
Y1958908D02*
Y1959517D01*
Y1961625D02*
Y1962233D01*
Y1965260D02*
Y1965873D01*
Y1969184D02*
Y1969674D01*
Y1974617D02*
Y1975107D01*
Y1979129D02*
Y1979720D01*
Y1982761D02*
Y1983450D01*
Y1985956D02*
Y1986564D01*
X1991100Y1952294D02*
Y1952903D01*
Y1955719D02*
Y1956210D01*
Y1958908D02*
Y1959517D01*
Y1961625D02*
Y1962233D01*
Y1965248D02*
Y1965863D01*
Y1969184D02*
Y1969674D01*
Y1974617D02*
Y1975107D01*
Y1979140D02*
Y1979724D01*
Y1982767D02*
Y1983430D01*
Y1985956D02*
Y1986564D01*
X1991200Y1952294D02*
Y1952903D01*
Y1955719D02*
Y1956210D01*
Y1958908D02*
Y1959517D01*
Y1961625D02*
Y1962233D01*
Y1965235D02*
Y1965853D01*
Y1969184D02*
Y1969674D01*
Y1974617D02*
Y1975107D01*
Y1979151D02*
Y1979738D01*
Y1982767D02*
Y1983410D01*
Y1985956D02*
Y1986564D01*
X1991300Y1952294D02*
Y1952903D01*
Y1955719D02*
Y1956210D01*
Y1958908D02*
Y1959517D01*
Y1961625D02*
Y1962233D01*
Y1965223D02*
Y1965843D01*
Y1969184D02*
Y1969674D01*
Y1974617D02*
Y1975107D01*
Y1979162D02*
Y1979753D01*
Y1982767D02*
Y1983390D01*
Y1985956D02*
Y1986564D01*
X1991400Y1952294D02*
Y1952903D01*
Y1955719D02*
Y1956210D01*
Y1958908D02*
Y1959517D01*
Y1961625D02*
Y1962233D01*
Y1965210D02*
Y1965833D01*
Y1969184D02*
Y1969674D01*
Y1974617D02*
Y1975107D01*
Y1979173D02*
Y1979767D01*
Y1982767D02*
Y1983370D01*
Y1985956D02*
Y1986569D01*
X1991500Y1952294D02*
Y1952903D01*
Y1955719D02*
Y1956210D01*
Y1958908D02*
Y1959517D01*
Y1961625D02*
Y1962233D01*
Y1965198D02*
Y1965823D01*
Y1969184D02*
Y1969674D01*
Y1974617D02*
Y1975107D01*
Y1979185D02*
Y1979781D01*
Y1982767D02*
Y1983350D01*
Y1985956D02*
Y1986619D01*
X1991600Y1952294D02*
Y1952903D01*
Y1955719D02*
Y1956210D01*
Y1958908D02*
Y1959517D01*
Y1961625D02*
Y1962233D01*
Y1965185D02*
Y1965813D01*
Y1969184D02*
Y1969674D01*
Y1974617D02*
Y1975107D01*
Y1979196D02*
Y1979796D01*
Y1982767D02*
Y1983330D01*
Y1985956D02*
Y1986669D01*
X1991700Y1952294D02*
Y1952903D01*
Y1955719D02*
Y1956210D01*
Y1958908D02*
Y1959517D01*
Y1961625D02*
Y1962233D01*
Y1965173D02*
Y1965803D01*
Y1969184D02*
Y1969674D01*
Y1974617D02*
Y1975107D01*
Y1979207D02*
Y1979810D01*
Y1982767D02*
Y1983310D01*
Y1985956D02*
Y1986719D01*
X1991800Y1952294D02*
Y1952903D01*
Y1955719D02*
Y1956210D01*
Y1958908D02*
Y1959517D01*
Y1961625D02*
Y1962233D01*
Y1965148D02*
Y1965793D01*
Y1969184D02*
Y1969674D01*
Y1974617D02*
Y1975107D01*
Y1979218D02*
Y1979824D01*
Y1982767D02*
Y1983290D01*
Y1985956D02*
Y1986769D01*
X1991900Y1952294D02*
Y1952903D01*
Y1955719D02*
Y1956210D01*
Y1958908D02*
Y1959517D01*
Y1961625D02*
Y1962233D01*
Y1965115D02*
Y1965783D01*
Y1969184D02*
Y1969674D01*
Y1974617D02*
Y1975107D01*
Y1979270D02*
Y1979851D01*
Y1982767D02*
Y1983270D01*
Y1985956D02*
Y1986819D01*
X1992000Y1952294D02*
Y1952903D01*
Y1955719D02*
Y1956210D01*
Y1958908D02*
Y1959517D01*
Y1961625D02*
Y1962245D01*
Y1965082D02*
Y1965751D01*
Y1969184D02*
Y1969674D01*
Y1974617D02*
Y1975107D01*
Y1979342D02*
Y1979901D01*
Y1982756D02*
Y1983232D01*
Y1985956D02*
Y1986564D01*
Y1986703D02*
Y1986869D01*
X1992100Y1952294D02*
Y1952903D01*
Y1955719D02*
Y1956210D01*
Y1958908D02*
Y1959517D01*
Y1961625D02*
Y1962320D01*
Y1965048D02*
Y1965694D01*
Y1969184D02*
Y1969674D01*
Y1974617D02*
Y1975107D01*
Y1979413D02*
Y1979951D01*
Y1982696D02*
Y1983174D01*
Y1985956D02*
Y1986564D01*
Y1986783D02*
Y1986919D01*
X1992200Y1952294D02*
Y1952903D01*
Y1955719D02*
Y1956210D01*
Y1958908D02*
Y1959517D01*
Y1961625D02*
Y1962395D01*
Y1965015D02*
Y1965637D01*
Y1969184D02*
Y1969674D01*
Y1974617D02*
Y1975107D01*
Y1979484D02*
Y1980001D01*
Y1982636D02*
Y1983117D01*
Y1985956D02*
Y1986564D01*
Y1986863D02*
Y1987030D01*
X1992300Y1952294D02*
Y1952903D01*
Y1955719D02*
Y1956210D01*
Y1958908D02*
Y1959517D01*
Y1961625D02*
Y1962470D01*
Y1964982D02*
Y1965580D01*
Y1969184D02*
Y1969674D01*
Y1974617D02*
Y1975107D01*
Y1979556D02*
Y1980051D01*
Y1982576D02*
Y1983060D01*
Y1985956D02*
Y1986564D01*
Y1986943D02*
Y1987155D01*
Y1989016D02*
Y1989222D01*
X1992400Y1952294D02*
Y1952903D01*
Y1955719D02*
Y1956210D01*
Y1958908D02*
Y1959517D01*
Y1961625D02*
Y1962255D01*
Y1962312D02*
Y1962545D01*
Y1964948D02*
Y1965523D01*
Y1969184D02*
Y1969674D01*
Y1974617D02*
Y1975107D01*
Y1979627D02*
Y1980101D01*
Y1982516D02*
Y1983003D01*
Y1985956D02*
Y1986564D01*
Y1987023D02*
Y1987280D01*
Y1988891D02*
Y1989417D01*
X1992500Y1952294D02*
Y1952903D01*
Y1955719D02*
Y1956210D01*
Y1958908D02*
Y1959517D01*
Y1961625D02*
Y1962233D01*
Y1962413D02*
Y1962626D01*
Y1964894D02*
Y1965465D01*
Y1969184D02*
Y1969674D01*
Y1974617D02*
Y1975107D01*
Y1979699D02*
Y1980151D01*
Y1982456D02*
Y1982946D01*
Y1985956D02*
Y1986564D01*
Y1987103D02*
Y1987405D01*
Y1988866D02*
Y1989442D01*
X1992600Y1952294D02*
Y1952903D01*
Y1955719D02*
Y1956210D01*
Y1958908D02*
Y1959517D01*
Y1961614D02*
Y1962233D01*
Y1962513D02*
Y1962726D01*
Y1964794D02*
Y1965408D01*
Y1969184D02*
Y1969674D01*
Y1974617D02*
Y1975107D01*
Y1979770D02*
Y1980207D01*
Y1982392D02*
Y1982889D01*
Y1985956D02*
Y1986564D01*
Y1987198D02*
Y1987530D01*
Y1988841D02*
Y1989467D01*
X1992700Y1952294D02*
Y1952903D01*
Y1955714D02*
Y1956210D01*
Y1958903D02*
Y1959517D01*
Y1961581D02*
Y1962233D01*
Y1962613D02*
Y1962826D01*
Y1964694D02*
Y1965351D01*
Y1969178D02*
Y1969674D01*
Y1974617D02*
Y1975107D01*
Y1979869D02*
Y1980341D01*
Y1982292D02*
Y1982832D01*
Y1985950D02*
Y1986564D01*
Y1987298D02*
Y1987664D01*
Y1988816D02*
Y1989492D01*
X1992800Y1952294D02*
Y1952903D01*
Y1955664D02*
Y1956210D01*
Y1958853D02*
Y1959517D01*
Y1961547D02*
Y1962233D01*
Y1962713D02*
Y1962926D01*
Y1964594D02*
Y1965257D01*
Y1969128D02*
Y1969674D01*
Y1974617D02*
Y1975107D01*
Y1979989D02*
Y1980474D01*
Y1982192D02*
Y1982737D01*
Y1985900D02*
Y1986564D01*
Y1987398D02*
Y1987797D01*
Y1988791D02*
Y1989517D01*
X1992900Y1952294D02*
Y1952903D01*
Y1955614D02*
Y1956210D01*
Y1958803D02*
Y1959517D01*
Y1961514D02*
Y1962233D01*
Y1962813D02*
Y1963148D01*
Y1964494D02*
Y1965107D01*
Y1969078D02*
Y1969674D01*
Y1974617D02*
Y1975107D01*
Y1980109D02*
Y1980607D01*
Y1982092D02*
Y1982587D01*
Y1985850D02*
Y1986564D01*
Y1987498D02*
Y1987930D01*
Y1988790D02*
Y1989517D01*
X1993000Y1952294D02*
Y1952903D01*
Y1955449D02*
Y1956210D01*
Y1958679D02*
Y1959517D01*
Y1961395D02*
Y1962233D01*
Y1962913D02*
Y1963487D01*
Y1964231D02*
Y1964957D01*
Y1968914D02*
Y1969674D01*
Y1974617D02*
Y1975107D01*
Y1980229D02*
Y1980791D01*
Y1981992D02*
Y1982437D01*
Y1985726D02*
Y1986564D01*
Y1987600D02*
Y1988133D01*
Y1988790D02*
Y1989517D01*
X1993100Y1952294D02*
Y1952903D01*
Y1955011D02*
Y1956210D01*
Y1958200D02*
Y1959517D01*
Y1960916D02*
Y1962233D01*
Y1963013D02*
Y1964807D01*
Y1967767D02*
Y1969674D01*
Y1973200D02*
Y1976997D01*
Y1980349D02*
Y1981041D01*
Y1981802D02*
Y1982287D01*
Y1984656D02*
Y1986564D01*
Y1987734D02*
Y1989428D01*
X1993200Y1952294D02*
Y1952903D01*
Y1955011D02*
Y1956210D01*
Y1958200D02*
Y1959517D01*
Y1960916D02*
Y1962233D01*
Y1963351D02*
Y1964657D01*
Y1967767D02*
Y1969674D01*
Y1973200D02*
Y1976997D01*
Y1980469D02*
Y1982137D01*
Y1984656D02*
Y1986564D01*
Y1987867D02*
Y1989328D01*
X1993300Y1952294D02*
Y1952903D01*
Y1955011D02*
Y1956210D01*
Y1958200D02*
Y1959517D01*
Y1961674D02*
Y1962233D01*
Y1963701D02*
Y1964066D01*
Y1967767D02*
Y1969674D01*
Y1973200D02*
Y1976997D01*
Y1981052D02*
Y1981546D01*
Y1984656D02*
Y1986564D01*
Y1988000D02*
Y1988833D01*
X1993400Y1952294D02*
Y1952903D01*
Y1955928D02*
Y1956210D01*
Y1959117D02*
Y1959517D01*
Y1962012D02*
Y1962233D01*
Y1969216D02*
Y1969674D01*
Y1974079D02*
Y1975107D01*
Y1985957D02*
Y1986564D01*
X1993500Y1952294D02*
Y1952903D01*
Y1956128D02*
Y1956210D01*
Y1959317D02*
Y1959517D01*
Y1969516D02*
Y1969674D01*
Y1974212D02*
Y1975107D01*
Y1986207D02*
Y1986564D01*
X1993600Y1952294D02*
Y1952903D01*
Y1974345D02*
Y1975107D01*
X1993700Y1952294D02*
Y1952903D01*
Y1974479D02*
Y1975107D01*
X1993800Y1952294D02*
Y1952903D01*
Y1974549D02*
Y1975107D01*
X1993900Y1952294D02*
Y1952903D01*
Y1974615D02*
Y1975107D01*
X1994000Y1952294D02*
Y1952903D01*
Y1974682D02*
Y1975107D01*
X1994100Y1952294D02*
Y1952903D01*
Y1974737D02*
Y1975107D01*
X1994200Y1952294D02*
Y1952903D01*
Y1974753D02*
Y1975107D01*
X1994300Y1952294D02*
Y1952903D01*
Y1974770D02*
Y1975107D01*
X1994400Y1952294D02*
Y1952903D01*
Y1974787D02*
Y1975107D01*
X1994500Y1952294D02*
Y1952903D01*
Y1974803D02*
Y1975107D01*
X1994600Y1952294D02*
Y1952903D01*
Y1974820D02*
Y1975107D01*
X1994700Y1952294D02*
Y1952903D01*
Y1974837D02*
Y1975107D01*
X1994800Y1952294D02*
Y1952903D01*
Y1974855D02*
Y1975107D01*
X1994900Y1952294D02*
Y1952903D01*
Y1974888D02*
Y1975107D01*
X1995000Y1952294D02*
Y1952903D01*
Y1969379D02*
Y1969597D01*
Y1974921D02*
Y1975107D01*
X1995100Y1952294D02*
Y1952903D01*
Y1969041D02*
Y1969924D01*
Y1974955D02*
Y1975107D01*
X1995200Y1952283D02*
Y1952903D01*
Y1968991D02*
Y1969949D01*
X1995300Y1952249D02*
Y1952903D01*
Y1968941D02*
Y1969974D01*
X1995400Y1952216D02*
Y1952903D01*
Y1968891D02*
Y1969999D01*
X1995500Y1952183D02*
Y1952935D01*
Y1968841D02*
Y1970024D01*
X1995600Y1952176D02*
Y1952969D01*
Y1968880D02*
Y1970005D01*
X1995700Y1952074D02*
Y1953002D01*
Y1968930D02*
Y1969980D01*
X1995800Y1950759D02*
Y1954438D01*
Y1968980D02*
Y1969955D01*
X1995900Y1950759D02*
Y1954438D01*
Y1969030D02*
Y1969930D01*
X1996000Y1950759D02*
Y1954438D01*
Y1969159D02*
Y1969817D01*
X1996100Y1969359D02*
Y1969617D01*
*
G04 PC Custom Flashes*
G04 Layer Name Jupiter 净化器主板-2021 - flashes*
%LPD*%
*
*
G04 PC Circuitry*
G04 Layer Name Jupiter 净化器主板-2021 - circuitry*
%LPD*%
*
G54D10*
G54D16*
X1930882Y1984409D02*
X1930899Y1954409D01*
X1954882*
Y1964409*
X1952882*
Y1974409*
X1954882*
Y1984409*
X1930882*
Y1969409D02*
X1952882Y1969391D01*
X1907480Y1931102D02*
X2029528D01*
Y2005906*
X1907480*
Y1931102*
X2026378Y1996063D02*
G75*
G03X2026378I-6693J0D01*
G01X1924016D02*
G03X1924016I-6693J0D01*
G01Y1940945D02*
G03X1924016I-6693J0D01*
G01X2026378D02*
G03X2026378I-6693J0D01*
G54D20*
G74*
G01X0Y0D02*
M02*
