*
*
G04 PADS 9.5 Build Number: 522968 generated Gerber (RS-274-X) file*
G04 PC Version=2.1*
*
%IN "Jupiter 净化器主板-2021"*%
*
%MOIN*%
*
%FSLAX35Y35*%
*
*
*
*
G04 PC Standard Apertures*
*
*
G04 Thermal Relief Aperture macro.*
%AMTER*
1,1,$1,0,0*
1,0,$1-$2,0,0*
21,0,$3,$4,0,0,45*
21,0,$3,$4,0,0,135*
%
*
*
G04 Annular Aperture macro.*
%AMANN*
1,1,$1,0,0*
1,0,$2,0,0*
%
*
*
G04 Odd Aperture macro.*
%AMODD*
1,1,$1,0,0*
1,0,$1-0.005,0,0*
%
*
*
G04 PC Custom Aperture Macros*
*
*
*
*
*
*
G04 PC Aperture Table*
*
%ADD010C,0.001*%
%ADD016C,0.01*%
%ADD020C,0.005*%
*
*
*
*
G04 PC Circuitry*
G04 Layer Name Jupiter 净化器主板-2021 - circuitry*
%LPD*%
*
G54D10*
G01X2003335Y1938978D02*
X2003259Y1939354D01*
X2003109Y1939655*
X2002881Y1939883*
X2002574Y1940113*
X2001720Y1940424*
X2000708Y1940579*
X1999540Y1940424*
X1998685Y1940113*
X1998382Y1939886*
X1998155Y1939583*
X1998080Y1939357*
X1998004Y1938978*
X1998155Y1938372*
X1998379Y1938148*
X1998685Y1937918*
X1999540Y1937608*
X2000708Y1937452*
X2001798Y1937608*
X2002574Y1937918*
X2002881Y1938148*
X2003109Y1938376*
X2003260Y1938679*
X2003335Y1938978*
X2003121Y1939213D02*
Y1938740D01*
X2003106Y1938705*
X2002791Y1938390*
X2002778Y1938380*
X2002463Y1938223*
X2002451Y1938219*
X2001663Y1938061*
X2001658Y1938060*
X2000713Y1937982*
X2000705*
X1999603Y1938060*
X1999596Y1938061*
X1998809Y1938219*
X1998791Y1938226*
X1998319Y1938541*
X1998299Y1938567*
X1998221Y1938800*
X1998144Y1938954*
X1998142Y1938992*
X1998220Y1939228*
X1998223Y1939235*
X1998302Y1939392*
X1998311Y1939405*
X1998547Y1939642*
X1998555Y1939648*
X1998791Y1939805*
X1998809Y1939813*
X1999596Y1939970*
X1999603Y1939971*
X2000705Y1940050*
X2000713*
X2001658Y1939971*
X2001663Y1939970*
X2002451Y1939813*
X2002463Y1939809*
X2002463D02*
X2002778Y1939651D01*
X2002798Y1939634*
X2002952Y1939402*
X2003106Y1939248*
X2003121Y1939213*
X2003257Y1947984D02*
X2000522Y1948136D01*
Y1947899*
X2000817Y1947678*
X2000829Y1947666*
X2000986Y1947429*
X2000993Y1947415*
X2001150Y1946864*
X2001151Y1946841*
X2001073Y1946447*
X2001059Y1946421*
X2000744Y1946106*
X2000724Y1946094*
X2000252Y1945937*
X2000243Y1945935*
X1999692Y1945856*
X1999679*
X1999049Y1945935*
X1999033Y1945940*
X1998560Y1946176*
X1998547Y1946185*
X1998232Y1946500*
X1998219Y1946526*
X1998140Y1946919*
X1998139Y1946929*
Y1946935*
X1998218Y1947565*
X1998226Y1947587*
X1998384Y1947823*
X1998409Y1947843*
X1998646Y1947921*
X1998677*
X1998912Y1947843*
X1999219Y1947767*
X1999343*
X1999470Y1947956*
X1999333Y1948230*
X1999053Y1948370*
X1998687Y1948224*
X1998308Y1947921*
X1998080Y1947465*
X1998004Y1947009*
X1998157Y1946319*
X1998459Y1945866*
X1999070Y1945561*
X1999764Y1945483*
X2000458Y1945561*
X2000911Y1945787*
X2001215Y1946243*
X2001366Y1946698*
X2001291Y1947303*
X2001064Y1947605*
X2000752Y1947917*
X2000791Y1948003*
X2002838Y1947845*
X2002885Y1947795*
Y1945633*
X2003257Y1945571*
Y1947984*
Y1952627D02*
X2003121D01*
Y1952520*
X2003118Y1952504*
X2003040Y1952268*
X2003004Y1952235*
X2002689Y1952156*
X1998081Y1950985*
Y1950904*
X2002690Y1949655*
X2002700Y1949651*
X2003014Y1949494*
X2003040Y1949465*
X2003118Y1949228*
X2003121Y1949213*
Y1949105*
X2003257*
Y1950107*
X2003121*
Y1950079*
X2003118Y1950063*
X2003040Y1949827*
X2002992Y1949793*
X2002677*
X2002664Y1949794*
X1999121Y1950739*
X1999122Y1950836*
X2002744Y1951702*
X2002756Y1951704*
X2002992*
X2003037Y1951676*
X2003116Y1951518*
X2003121Y1951496*
Y1951389*
X2003257*
Y1952627*
X1998763Y1943937D02*
X1998627Y1944209D01*
X1998346Y1944279*
X1998073Y1944211*
X1998004Y1943937*
X1998074Y1943656*
X1998346Y1943520*
X1998624Y1943659*
X1998763Y1943937*
X2000895Y1956407D02*
X2000680D01*
Y1953121*
X2000895*
Y1956407*
X2001604Y1959203D02*
X2001450Y1959588D01*
X2001446Y1959606*
Y1960344*
X2001310*
Y1959764*
X2001305Y1959741*
X2001226Y1959584*
X2001203Y1959562*
X2001046Y1959483*
X2001024Y1959478*
X1998425*
X1998403Y1959483*
X1998245Y1959562*
X1998223Y1959584*
X1998144Y1959741*
X1998139Y1959764*
Y1960344*
X1998081*
Y1958160*
X1998139*
Y1958819*
X1998144Y1958841*
X1998223Y1958999*
X1998245Y1959021*
X1998403Y1959100*
X1998425Y1959105*
X2000157*
X2000180Y1959100*
X2000652Y1958864*
X2000669Y1958850*
X2000984Y1958456*
X2000985Y1958455*
X2001221Y1958140*
X2001229Y1958126*
X2001307Y1957890*
X2001310Y1957874*
Y1957638*
X2001260Y1957588*
X2001109*
X2000822Y1957516*
X2000763Y1957398*
X2000826Y1957207*
X2001109Y1957137*
X2001239*
X2001371Y1957268*
X2001446Y1957721*
Y1958094*
X2001222Y1958392*
X2000911Y1958703*
X2000520Y1959016*
X2000551Y1959105*
X2001604*
Y1959203*
X2001446Y1962598D02*
X2001370Y1963128D01*
X2000989Y1963585*
X2000454Y1963967*
X1999764Y1964044*
X1998995Y1963967*
X1998462Y1963587*
X1998157Y1963129*
X1998004Y1962517*
X1998079Y1961988*
X1998306Y1961686*
X1998611Y1961381*
X1998926Y1961255*
Y1961308*
X1998639Y1961451*
X1998626Y1961461*
X1998390Y1961697*
X1998380Y1961710*
X1998223Y1962025*
X1998219Y1962037*
X1998140Y1962431*
X1998139Y1962441*
X1998140Y1962449*
X1998218Y1962922*
X1998229Y1962945*
X1998544Y1963338*
X1998560Y1963352*
X1999033Y1963588*
X1999050Y1963593*
X1999758Y1963672*
X1999814Y1963622*
Y1961163*
X2000533Y1961307*
X2001067Y1961612*
X2001369Y1962066*
X2001446Y1962598*
X2001388Y1962589D02*
X2001309Y1962195D01*
X2001295Y1962169*
X2000980Y1961854*
X2000971Y1961847*
X2000577Y1961611*
X2000551Y1961604*
X1999921*
X1999871Y1961654*
Y1963622*
X1999928Y1963672*
X2000480Y1963593*
X2000495Y1963588*
X2000967Y1963352*
X2000985Y1963337*
X2001221Y1963022*
X2001228Y1963011*
X2001385Y1962617*
X2001388Y1962589*
X2001604Y1967465D02*
X2001454Y1967689D01*
X2001446Y1967717*
Y1968218*
X2001310*
Y1967874*
X2001260Y1967824*
X1998425*
X1998403Y1967829*
X1998245Y1967908*
X1998223Y1967930*
X1998144Y1968088*
X1998139Y1968110*
Y1968218*
X1998081*
Y1967058*
X1998139*
Y1967165*
X1998144Y1967188*
X1998223Y1967345*
X1998245Y1967368*
X1998403Y1967446*
X1998425Y1967452*
X2000551*
X2000587Y1967437*
X2001138Y1966886*
X2001144Y1966878*
X2001301Y1966642*
X2001310Y1966614*
Y1966063*
X2001301Y1966035*
X2001144Y1965799*
X2001118Y1965779*
X2000882Y1965701*
X2000878Y1965700*
X2000563Y1965621*
X2000551Y1965619*
X1998425*
X1998403Y1965625*
X1998245Y1965703*
X1998220Y1965732*
X1998142Y1965968*
X1998139Y1965984*
Y1966092*
X1998081*
Y1964932*
X1998139*
Y1964961*
X1998142Y1964976*
X1998220Y1965213*
X1998245Y1965242*
X1998403Y1965320*
X1998425Y1965326*
X2000390*
X2000853Y1965403*
X2001228Y1965553*
X2001446Y1965843*
Y1966292*
X2001293Y1966828*
X2000904Y1967373*
X2000945Y1967452*
X2001604*
Y1967465*
X2001446Y1971091D02*
X2001219Y1971545D01*
X2000992Y1971772*
X2000780Y1971913*
X2000591Y1971850*
X2000525Y1971654*
X2000587Y1971467*
X2001024*
X2001059Y1971453*
X2001216Y1971295*
X2001226Y1971282*
X2001383Y1970967*
X2001389Y1970945*
Y1970551*
X2001388Y1970541*
X2001309Y1970148*
X2001307Y1970142*
X2001229Y1969905*
X2001195Y1969873*
X2000644Y1969716*
X2000630Y1969714*
X2000236*
X2000187Y1969758*
X2000108Y1970387*
X2000030Y1970932*
X1999876Y1971318*
X1999723Y1971624*
X1999347Y1972000*
X1998822Y1972075*
X1998529Y1972002*
X1998529D02*
X1998307Y1971780D01*
X1998081Y1971403*
Y1970948*
X1998159Y1970331*
X1998469Y1969789*
X1998448Y1969719*
X1998154Y1969573*
X1998081Y1969208*
Y1968997*
X1998216Y1968863*
X1998438Y1968789*
X1998769Y1968722*
Y1968778*
X1998415Y1968849*
X1998384Y1968870*
X1998226Y1969106*
X1998223Y1969156*
X1998302Y1969314*
X1998346Y1969341*
X1998413*
X1998560Y1969415*
X1998583Y1969420*
X2001003*
X2001220Y1969637*
X2001446Y1970014*
Y1971091*
X2000129Y1969764D02*
X2000079Y1969714D01*
X1998661*
X1998618Y1969739*
X1998303Y1970290*
X1998298Y1970301*
X1998141Y1970852*
X1998140Y1970876*
X1998219Y1971270*
X1998232Y1971295*
X1998390Y1971453*
X1998397Y1971459*
X1998634Y1971616*
X1998661Y1971625*
X1998976*
X1998986Y1971624*
X1999380Y1971545*
X1999405Y1971531*
X1999720Y1971216*
X1999732Y1971197*
X1999810Y1970964*
X1999966Y1970652*
X1999970Y1970640*
X2000049Y1970246*
Y1970244*
X2000128Y1969772*
X2000129Y1969764*
X2001446Y1974409D02*
X2001370Y1974940D01*
X2000989Y1975396*
X2000454Y1975779*
X1999764Y1975855*
X1998995Y1975778*
X1998462Y1975398*
X1998157Y1974940*
X1998004Y1974328*
X1998079Y1973799*
X1998306Y1973497*
X1998611Y1973192*
X1998926Y1973066*
Y1973119*
X1998639Y1973262*
X1998626Y1973272*
X1998390Y1973508*
X1998380Y1973521*
X1998223Y1973836*
X1998219Y1973848*
X1998140Y1974242*
X1998139Y1974252*
X1998140Y1974260*
X1998218Y1974733*
X1998229Y1974756*
X1998544Y1975149*
X1998560Y1975163*
X1999033Y1975399*
X1999050Y1975404*
X1999758Y1975483*
X1999814Y1975433*
Y1972974*
X2000533Y1973118*
X2001067Y1973423*
X2001369Y1973877*
X2001446Y1974409*
X2001388Y1974400D02*
X2001309Y1974006D01*
X2001295Y1973980*
X2000980Y1973665*
X2000971Y1973658*
X2000577Y1973422*
X2000551Y1973415*
X1999921*
X1999871Y1973465*
Y1975433*
X1999928Y1975483*
X2000480Y1975404*
X2000495Y1975399*
X2000967Y1975163*
X2000985Y1975148*
X2001221Y1974833*
X2001228Y1974822*
X2001385Y1974428*
X2001388Y1974400*
X2003462Y1978239D02*
X2003262Y1978639D01*
X2003257Y1978661*
Y1979478*
X2003121*
Y1978661*
X2003087Y1978614*
X2002850Y1978535*
X2002835Y1978533*
X1998425*
X1998403Y1978538*
X1998245Y1978617*
X1998220Y1978646*
X1998142Y1978882*
X1998139Y1978898*
Y1979556*
X1998081*
Y1977215*
X1998139*
Y1977874*
X1998142Y1977890*
X1998220Y1978126*
X1998245Y1978155*
X1998403Y1978234*
X1998425Y1978239*
X2003462*
X2003257Y1982431D02*
X2003105Y1982812D01*
X2002877Y1983192*
X2002495Y1983421*
X2001639Y1983888*
X2000628Y1983966*
X2000003*
X1999383Y1983888*
X1998999Y1983735*
X1998614Y1983504*
X1998309Y1983199*
X1998003Y1982587*
Y1982130*
X1998079Y1981672*
X1998383Y1981217*
X1998842Y1980911*
X1999424Y1980693*
X1999456Y1980756*
X1998963Y1980897*
X1998945Y1980906*
X1998551Y1981221*
X1998544Y1981229*
X1998229Y1981622*
X1998218Y1981645*
X1998140Y1982118*
X1998139Y1982126*
X1998140Y1982138*
X1998298Y1982768*
X1998311Y1982791*
X1998547Y1983027*
X1998555Y1983034*
X1998791Y1983191*
X1998805Y1983197*
X1998805D02*
X1999592Y1983434D01*
X1999602Y1983436*
X2000626Y1983514*
X2000634*
X2001579Y1983436*
X2001593Y1983432*
X2002381Y1983117*
X2002385Y1983116*
X2002700Y1982958*
X2002713Y1982949*
X2002949Y1982713*
X2002955Y1982705*
X2003112Y1982469*
X2003121Y1982441*
Y1982126*
X2003120Y1982118*
X2003041Y1981645*
X2003035Y1981628*
X2002799Y1981234*
X2002786Y1981220*
X2002471Y1980984*
X2002461Y1980978*
X2001958Y1980762*
X2001997Y1980686*
X2003232Y1980904*
X2003184Y1981001*
X2003181Y1981008*
X2003102Y1981244*
X2003101Y1981272*
X2003179Y1981585*
X2003257Y1982051*
Y1982431*
X2003330Y1994094D02*
X2003191Y1994372D01*
X2002913Y1994511*
X2002641Y1994375*
X2002571Y1994094*
X2002640Y1993821*
X2002913Y1993752*
X2003194Y1993822*
X2003330Y1994094*
X2001604Y1990699D02*
X2001450Y1991084D01*
X2001446Y1991102*
Y1991840*
X2001310*
Y1991260*
X2001305Y1991237*
X2001226Y1991080*
X2001203Y1991058*
X2001046Y1990979*
X2001024Y1990974*
X1998425*
X1998403Y1990979*
X1998245Y1991058*
X1998223Y1991080*
X1998144Y1991237*
X1998139Y1991260*
Y1991840*
X1998081*
Y1989656*
X1998139*
Y1990315*
X1998144Y1990337*
X1998223Y1990495*
X1998245Y1990517*
X1998403Y1990596*
X1998425Y1990601*
X2000157*
X2000180Y1990596*
X2000652Y1990360*
X2000669Y1990346*
X2000984Y1989952*
X2000985Y1989951*
X2001221Y1989636*
X2001229Y1989622*
X2001307Y1989386*
X2001310Y1989370*
Y1989134*
X2001260Y1989084*
X2001109*
X2000822Y1989012*
X2000763Y1988894*
X2000826Y1988703*
X2001109Y1988633*
X2001239*
X2001371Y1988764*
X2001446Y1989217*
Y1989590*
X2001222Y1989888*
X2000911Y1990199*
X2000520Y1990512*
X2000551Y1990601*
X2001604*
Y1990699*
X2001584Y1993987D02*
X2001449Y1994394D01*
X2001446Y1994409*
Y1995226*
X2001310*
Y1994646*
X2001307Y1994630*
X2001229Y1994394*
X2001203Y1994365*
X2001046Y1994286*
X2001024Y1994281*
X1998425*
X1998403Y1994286*
X1998245Y1994365*
X1998220Y1994394*
X1998142Y1994630*
X1998139Y1994646*
Y1995226*
X1998081*
Y1993042*
X1998139*
Y1993622*
X1998142Y1993638*
X1998220Y1993874*
X1998245Y1993903*
X1998403Y1993982*
X1998425Y1993987*
X2001584*
X2003321Y1997910D02*
X2003190Y1998305D01*
X1998570Y1999479*
X1998560Y1999483*
X1998245Y1999640*
X1998223Y1999663*
X1998144Y1999820*
X1998139Y1999843*
Y1999950*
X1998081*
Y1998869*
X1998139*
Y1998898*
X1998142Y1998913*
X1998220Y1999150*
X1998232Y1999169*
X1998311Y1999248*
X1998346Y1999263*
X1998819*
X1998832Y1999261*
X2000013Y1998946*
X2000050Y1998898*
Y1997559*
X2000011Y1997510*
X1998673Y1997195*
X1998661Y1997194*
X1998346*
X1998305Y1997216*
X1998147Y1997453*
X1998139Y1997480*
Y1997509*
X1998081*
Y1996270*
X1998139*
Y1996378*
X1998144Y1996400*
X1998223Y1996558*
X1998245Y1996580*
X1998560Y1996738*
X1998571Y1996741*
X2003321Y1997910*
X2002768Y1998140D02*
X2000169Y1997510D01*
X2000107Y1997559*
Y1998898*
X2000171Y1998946*
X2002769Y1998237*
X2002768Y1998140*
X1994817Y1933619D02*
X1994241Y1934195D01*
X1994227Y1934224*
X1994109Y1935169*
X1994108Y1935175*
Y1935480*
X1993854*
Y1934703*
X1993852Y1934687*
X1993733Y1934333*
X1993708Y1934304*
X1993472Y1934186*
X1993450Y1934180*
X1987899*
X1987880Y1934184*
X1987290Y1934420*
X1987290D02*
X1987263Y1934444D01*
X1987145Y1934681*
X1987141Y1934691*
X1987023Y1935163*
X1987022Y1935175*
Y1935480*
X1986886*
Y1932273*
X1987022*
Y1932577*
X1987024Y1932593*
X1987261Y1933301*
X1987286Y1933330*
X1987522Y1933448*
X1987528Y1933451*
X1987883Y1933569*
X1987899Y1933572*
X1994817*
Y1933619*
X1994699Y1940795D02*
X1994445D01*
Y1939782*
X1994442Y1939766*
X1994324Y1939412*
X1994277Y1939377*
X1994167*
X1993820Y1939262*
X1993804Y1939259*
X1988962*
X1988955Y1939260*
X1988128Y1939378*
X1988109Y1939384*
X1987519Y1939739*
X1987509Y1939746*
X1987155Y1940101*
X1987140Y1940136*
Y1940963*
X1987155Y1940998*
X1987391Y1941234*
X1987426Y1941249*
X1987544*
X1987567Y1941244*
X1987784Y1941135*
X1988093Y1941238*
X1988201Y1941669*
X1988095Y1941986*
X1987781Y1942091*
X1987448Y1941980*
X1987116Y1941759*
X1987003Y1941306*
X1986886Y1940725*
X1987001Y1939920*
X1987460Y1939347*
X1988156Y1938883*
X1988969Y1938651*
X1994040*
X1994056Y1938648*
X1994410Y1938530*
X1994445Y1938482*
Y1937115*
X1994699*
Y1940795*
X1950777Y1944714D02*
X1950522D01*
Y1944528*
X1950520Y1944512*
X1950402Y1944157*
X1950366Y1944125*
X1949894Y1944007*
X1942963Y1942245*
Y1942085*
X1949895Y1940206*
X1949904Y1940202*
X1950377Y1939966*
X1950402Y1939937*
X1950520Y1939583*
X1950522Y1939567*
Y1939381*
X1950777*
Y1940934*
X1950522*
Y1940866*
X1950520Y1940850*
X1950402Y1940496*
X1950354Y1940462*
X1949882*
X1949869Y1940463*
X1949869D02*
X1944554Y1941881D01*
X1944555Y1941978*
X1949988Y1943277*
X1950000Y1943278*
X1950354*
X1950399Y1943251*
X1950517Y1943014*
X1950522Y1942992*
Y1942806*
X1950777*
Y1944714*
Y2001800D02*
X1950522D01*
Y2001614*
X1950520Y2001598*
X1950402Y2001244*
X1950366Y2001211*
X1949894Y2001093*
X1942963Y1999331*
Y1999172*
X1949895Y1997292*
X1949904Y1997289*
X1950377Y1997053*
X1950402Y1997024*
X1950520Y1996669*
X1950522Y1996654*
Y1996467*
X1950777*
Y1998021*
X1950522*
Y1997953*
X1950520Y1997937*
X1950402Y1997583*
X1950354Y1997548*
X1949882*
X1949869Y1997550*
X1944554Y1998967*
X1944555Y1999064*
X1949988Y2000364*
X1950000Y2000365*
X1950354*
X1950399Y2000337*
X1950517Y2000101*
X1950522Y2000079*
Y1999893*
X1950777*
Y2001800*
X1949832Y1936210D02*
X1947283D01*
X1947233Y1936260*
Y1938454*
X1946861*
Y1936260*
X1946811Y1936210*
X1944263*
Y1935837*
X1946811*
X1946861Y1935787*
Y1933593*
X1947233*
Y1935787*
X1947283Y1935837*
X1949832*
Y1936210*
X1947233Y1995659D02*
X1946861D01*
Y1990680*
X1947233*
Y1995659*
X1938375Y1944704D02*
X1937996Y1945083D01*
X1937982Y1945112*
X1937903Y1945742*
Y1945748*
Y1945934*
X1937767*
Y1945433*
X1937764Y1945417*
X1937685Y1945181*
X1937660Y1945152*
X1937503Y1945073*
X1937480Y1945068*
X1933780*
X1933761Y1945072*
X1933367Y1945229*
X1933341Y1945253*
X1933262Y1945411*
X1933259Y1945421*
X1933180Y1945736*
X1933178Y1945748*
Y1945934*
X1933121*
Y1943830*
X1933178*
Y1944016*
X1933181Y1944032*
X1933338Y1944504*
X1933363Y1944533*
X1933521Y1944612*
X1933527Y1944614*
X1933764Y1944693*
X1933780Y1944696*
X1938375*
Y1944704*
X1938374Y1948978D02*
X1938299Y1949431D01*
X1938071Y1949812*
X1937771Y1950111*
X1937319Y1950186*
X1937177*
X1937049Y1950122*
X1936982Y1949921*
X1937044Y1949735*
X1937381*
X1937445Y1949799*
X1937480Y1949814*
X1937717*
X1937732Y1949811*
X1937969Y1949732*
X1937997Y1949707*
X1938076Y1949550*
X1938079Y1949543*
X1938236Y1949071*
X1938238Y1949045*
X1938159Y1948652*
X1938150Y1948631*
X1937914Y1948316*
X1937893Y1948300*
X1937499Y1948143*
X1937490Y1948140*
X1937096Y1948061*
X1937078*
X1936606Y1948140*
X1936584Y1948149*
X1936269Y1948385*
X1936259Y1948395*
X1936023Y1948710*
X1936013Y1948733*
X1935941Y1949241*
X1935792*
X1935719Y1948655*
X1935714Y1948639*
X1935478Y1948167*
X1935452Y1948143*
X1935058Y1947985*
X1935048Y1947982*
X1934575Y1947903*
X1934561*
X1933931Y1947982*
X1933918Y1947985*
X1933525Y1948143*
X1933500Y1948163*
X1933264Y1948557*
X1933258Y1948574*
X1933179Y1949047*
Y1949063*
X1933258Y1949536*
X1933272Y1949563*
X1933429Y1949720*
X1933442Y1949730*
X1933600Y1949809*
X1933600D02*
X1933638Y1949811D01*
X1933866Y1949735*
X1934300*
X1934430Y1949996*
X1934296Y1950197*
X1934013Y1950339*
X1933650Y1950194*
X1933347Y1949890*
X1933119Y1949510*
X1933043Y1948979*
X1933196Y1948365*
X1933502Y1947830*
X1933955Y1947528*
X1934492Y1947452*
X1934868*
X1935247Y1947679*
X1935628Y1947984*
X1935860Y1948524*
X1935948Y1948530*
X1936183Y1948138*
X1936410Y1947836*
X1936786Y1947686*
X1937162Y1947611*
X1937617Y1947762*
X1937995Y1947989*
X1938221Y1948366*
X1938374Y1948978*
X1938373Y1952833D02*
X1938221Y1953288D01*
X1937990Y1953750*
X1937614Y1954126*
X1937083Y1954202*
X1936862*
X1936736Y1954139*
X1936666Y1953860*
X1936732Y1953662*
X1936922Y1953598*
X1937138Y1953742*
X1937153Y1953749*
X1937468Y1953828*
X1937496Y1953827*
X1937732Y1953748*
X1937744Y1953742*
X1937980Y1953585*
X1937997Y1953566*
X1938155Y1953251*
X1938159Y1953240*
X1938237Y1952926*
X1938239Y1952913*
X1938238Y1952905*
X1938160Y1952433*
X1938150Y1952411*
X1937914Y1952096*
X1937893Y1952080*
X1937499Y1951922*
X1937489Y1951919*
X1937016Y1951840*
X1936998Y1951841*
X1936604Y1951919*
X1936598Y1951921*
X1936126Y1952079*
X1936114Y1952084*
X1935642Y1952399*
X1935634Y1952406*
X1934612Y1953428*
X1934142Y1953820*
X1933752Y1954131*
X1933453Y1954281*
X1933121*
Y1951541*
X1934359Y1951395*
Y1951455*
X1934006Y1951526*
X1933993Y1951530*
X1933678Y1951688*
X1933659Y1951705*
X1933502Y1951941*
X1933493Y1951969*
Y1954016*
X1933571Y1954057*
X1933807Y1953900*
X1933812Y1953897*
X1934284Y1953503*
X1934287Y1953500*
X1936012Y1951775*
X1936397Y1951621*
X1936400Y1951620*
X1936709Y1951465*
X1937083Y1951390*
X1937540Y1951542*
X1937994Y1951770*
X1938221Y1952222*
X1938373Y1952833*
X1938375Y1956515D02*
X1937996Y1956894D01*
X1937982Y1956923*
X1937903Y1957553*
Y1957559*
Y1957745*
X1937767*
Y1957244*
X1937764Y1957228*
X1937685Y1956992*
X1937660Y1956963*
X1937503Y1956884*
X1937480Y1956879*
X1933780*
X1933761Y1956883*
X1933367Y1957040*
X1933341Y1957064*
X1933262Y1957222*
X1933259Y1957232*
X1933180Y1957547*
X1933178Y1957559*
Y1957745*
X1933121*
Y1955641*
X1933178*
Y1955827*
X1933181Y1955843*
X1933338Y1956315*
X1933363Y1956344*
X1933521Y1956423*
X1933527Y1956425*
X1933764Y1956504*
X1933780Y1956507*
X1938375*
Y1956515*
Y1960452D02*
X1937996Y1960831D01*
X1937982Y1960860*
X1937903Y1961490*
Y1961496*
Y1961682*
X1937767*
Y1961181*
X1937764Y1961165*
X1937685Y1960929*
X1937660Y1960900*
X1937503Y1960821*
X1937480Y1960816*
X1933780*
X1933761Y1960820*
X1933367Y1960977*
X1933341Y1961001*
X1933262Y1961159*
X1933259Y1961169*
X1933180Y1961484*
X1933178Y1961496*
Y1961682*
X1933121*
Y1959578*
X1933178*
Y1959764*
X1933181Y1959780*
X1933338Y1960252*
X1933363Y1960281*
X1933521Y1960360*
X1933527Y1960362*
X1933764Y1960441*
X1933780Y1960444*
X1938375*
Y1960452*
X1938373Y1964644D02*
X1938221Y1965099D01*
X1937990Y1965561*
X1937614Y1965937*
X1937083Y1966013*
X1936862*
X1936736Y1965950*
X1936666Y1965671*
X1936732Y1965473*
X1936922Y1965409*
X1936922D02*
X1937138Y1965553D01*
X1937153Y1965560*
X1937468Y1965639*
X1937496Y1965638*
X1937732Y1965559*
X1937744Y1965553*
X1937980Y1965396*
X1937997Y1965377*
X1938155Y1965062*
X1938159Y1965051*
X1938237Y1964737*
X1938239Y1964724*
X1938238Y1964716*
X1938160Y1964244*
X1938150Y1964222*
X1937914Y1963907*
X1937893Y1963891*
X1937499Y1963733*
X1937489Y1963730*
X1937016Y1963651*
X1936998Y1963652*
X1936604Y1963730*
X1936604D02*
X1936598Y1963732D01*
X1936126Y1963890*
X1936114Y1963895*
X1935642Y1964210*
X1935634Y1964217*
X1934612Y1965239*
X1934142Y1965631*
X1933752Y1965942*
X1933453Y1966092*
X1933121*
Y1963352*
X1934359Y1963206*
Y1963266*
X1934006Y1963337*
X1933993Y1963341*
X1933678Y1963499*
X1933659Y1963516*
X1933502Y1963752*
X1933493Y1963780*
Y1965827*
X1933571Y1965868*
X1933807Y1965711*
X1933812Y1965708*
X1934284Y1965314*
X1934287Y1965311*
X1936012Y1963586*
X1936397Y1963432*
X1936400Y1963431*
X1936709Y1963276*
X1937083Y1963201*
X1937540Y1963353*
X1937994Y1963581*
X1938221Y1964033*
X1938373Y1964644*
X1938374Y1968505D02*
X1938299Y1968881D01*
X1938148Y1969183*
X1937920Y1969411*
X1937614Y1969641*
X1936759Y1969951*
X1935748Y1970107*
X1934579Y1969951*
X1933725Y1969641*
X1933422Y1969413*
X1933194Y1969110*
X1933119Y1968885*
X1933043Y1968505*
X1933195Y1967900*
X1933419Y1967676*
X1933725Y1967446*
X1934579Y1967135*
X1935748Y1966980*
X1936837Y1967135*
X1937613Y1967446*
X1937920Y1967676*
X1938148Y1967904*
X1938299Y1968206*
X1938374Y1968505*
X1938160Y1968740D02*
Y1968268D01*
X1938146Y1968232*
X1937831Y1967917*
X1937818Y1967908*
X1937503Y1967751*
X1937490Y1967746*
X1936703Y1967589*
X1936697Y1967588*
X1935752Y1967509*
X1935744*
X1934642Y1967588*
X1934636Y1967589*
X1933848Y1967746*
X1933831Y1967754*
X1933358Y1968069*
X1933338Y1968094*
X1933261Y1968327*
X1933184Y1968482*
X1933181Y1968520*
X1933260Y1968756*
X1933262Y1968763*
X1933341Y1968920*
X1933350Y1968933*
X1933587Y1969169*
X1933594Y1969175*
X1933831Y1969333*
X1933848Y1969340*
X1934636Y1969498*
X1934642Y1969499*
X1935744Y1969577*
X1935752*
X1936697Y1969499*
X1936703Y1969498*
X1937490Y1969340*
X1937503Y1969336*
X1937818Y1969179*
X1937837Y1969162*
X1937992Y1968929*
X1938146Y1968776*
X1938160Y1968740*
X1938373Y1972518D02*
X1938221Y1972973D01*
X1937990Y1973435*
X1937614Y1973811*
X1937083Y1973887*
X1936862*
X1936736Y1973824*
X1936666Y1973545*
X1936732Y1973347*
X1936922Y1973284*
X1937138Y1973427*
X1937153Y1973434*
X1937468Y1973513*
X1937496Y1973512*
X1937732Y1973433*
X1937744Y1973427*
X1937980Y1973270*
X1937997Y1973251*
X1938155Y1972936*
X1938159Y1972926*
X1938237Y1972611*
X1938239Y1972598*
X1938238Y1972590*
X1938160Y1972118*
X1938150Y1972096*
X1937914Y1971781*
X1937893Y1971765*
X1937499Y1971607*
X1937489Y1971604*
X1937016Y1971525*
X1936998Y1971526*
X1936604Y1971605*
X1936598Y1971606*
X1936126Y1971764*
X1936114Y1971769*
X1935642Y1972084*
X1935634Y1972091*
X1934612Y1973113*
X1934142Y1973505*
X1933752Y1973816*
X1933453Y1973966*
X1933121*
Y1971226*
X1934359Y1971080*
Y1971140*
X1934006Y1971211*
X1933993Y1971215*
X1933678Y1971373*
X1933659Y1971390*
X1933502Y1971626*
X1933493Y1971654*
Y1973701*
X1933571Y1973742*
X1933807Y1973585*
X1933812Y1973582*
X1934284Y1973188*
X1934287Y1973185*
X1936012Y1971460*
X1936397Y1971306*
X1936400Y1971305*
X1936709Y1971150*
X1937083Y1971075*
X1937540Y1971227*
X1937994Y1971455*
X1938221Y1971907*
X1938373Y1972518*
X1938296Y1981997D02*
X1938160D01*
Y1981732*
X1938126Y1981685*
X1937890Y1981606*
X1937874Y1981604*
X1933465*
X1933442Y1981609*
X1933285Y1981688*
X1933262Y1981710*
X1933184Y1981867*
X1933178Y1981890*
Y1982076*
X1933121*
Y1979015*
X1934237Y1978717*
X1934246Y1978726*
X1933836Y1978932*
X1933823Y1978941*
X1933508Y1979256*
X1933503Y1979261*
X1933267Y1979576*
X1933258Y1979598*
X1933179Y1980071*
X1933178Y1980079*
Y1980866*
X1933181Y1980882*
X1933260Y1981118*
X1933285Y1981147*
X1933442Y1981226*
X1933465Y1981231*
X1935827*
X1935877Y1981181*
Y1980236*
X1935874Y1980220*
X1935795Y1979984*
X1935783Y1979965*
X1935626Y1979807*
X1935606Y1979795*
X1935134Y1979638*
X1935118Y1979635*
X1935011*
Y1979499*
X1936722*
Y1979635*
X1936299*
X1936264Y1979650*
X1935949Y1979965*
X1935934Y1980000*
Y1981181*
X1935984Y1981231*
X1937874*
X1937890Y1981229*
X1938126Y1981150*
X1938160Y1981102*
Y1979685*
X1938150Y1979655*
X1937914Y1979340*
X1937909Y1979335*
X1937673Y1979099*
X1937664Y1979091*
X1937294Y1978869*
Y1978806*
X1938296Y1979093*
Y1981997*
Y1986170D02*
X1938160D01*
Y1985827*
X1938110Y1985777*
X1933307*
X1933260Y1985811*
X1933181Y1986047*
X1933178Y1986063*
Y1986092*
X1933121*
Y1985247*
X1933178*
Y1985354*
X1933184Y1985377*
X1933262Y1985534*
X1933285Y1985557*
X1933442Y1985635*
X1933465Y1985641*
X1937402*
X1937452Y1985591*
Y1985512*
X1937412Y1985463*
X1933121Y1984527*
Y1984449*
X1937570Y1983435*
X1937609Y1983386*
Y1983307*
X1937559Y1983257*
X1933465*
X1933442Y1983262*
X1933285Y1983341*
X1933262Y1983363*
X1933184Y1983521*
X1933178Y1983543*
Y1983651*
X1933121*
Y1982491*
X1933178*
Y1982520*
X1933181Y1982535*
X1933260Y1982772*
X1933285Y1982801*
X1933442Y1982879*
X1933465Y1982885*
X1937874*
X1937890Y1982882*
X1938126Y1982803*
X1938160Y1982756*
Y1982491*
X1938296*
Y1983346*
X1934162Y1984282*
X1934123Y1984331*
Y1984409*
X1934163Y1984458*
X1938296Y1985316*
Y1986170*
Y1989399D02*
X1938160D01*
Y1988504*
X1938110Y1988454*
X1933307*
X1933260Y1988488*
X1933181Y1988724*
X1933178Y1988740*
Y1989399*
X1933121*
Y1987058*
X1933178*
Y1987717*
X1933184Y1987739*
X1933262Y1987896*
X1933285Y1987919*
X1933442Y1987997*
X1933465Y1988003*
X1937874*
X1937890Y1988000*
X1938126Y1987921*
X1938160Y1987874*
Y1987058*
X1938296*
Y1989399*
X1935927Y1976775D02*
X1935788Y1977052D01*
X1935587Y1977186*
X1935313Y1977049*
X1935176Y1976775*
X1935310Y1976574*
X1935587Y1976436*
X1935791Y1976571*
X1935927Y1976775*
X1933801D02*
X1933664Y1977049D01*
X1933386Y1977188*
X1933114Y1977052*
X1933044Y1976774*
X1933112Y1976571*
X1933386Y1976434*
X1933667Y1976574*
X1933801Y1976775*
X1938296Y1993584D02*
X1937215Y1993872D01*
Y1993732*
X1937975Y1993352*
X1938000Y1993323*
X1938079Y1993087*
X1938081Y1993081*
X1938159Y1992687*
X1938160Y1992677*
Y1992441*
X1938110Y1992391*
X1933465*
X1933442Y1992396*
X1933285Y1992475*
X1933262Y1992497*
X1933184Y1992655*
X1933178Y1992677*
Y1992942*
X1933121*
Y1991467*
X1933178*
Y1991654*
X1933181Y1991669*
X1933260Y1991906*
X1933285Y1991934*
X1933442Y1992013*
X1933465Y1992019*
X1937953*
X1937975Y1992013*
X1938133Y1991934*
X1938160Y1991890*
Y1991575*
X1938159Y1991565*
X1938081Y1991171*
X1938076Y1991159*
X1937997Y1991001*
X1937975Y1990979*
X1937215Y1990599*
Y1990533*
X1938296Y1990750*
Y1993584*
X1933100Y1948751D02*
Y1949378D01*
Y1968279D02*
Y1968788D01*
Y1976606D02*
Y1976997D01*
X1933200Y1944089D02*
Y1945655D01*
Y1948359D02*
Y1948921D01*
Y1949189D02*
Y1949646D01*
Y1951531D02*
Y1954281D01*
Y1955900D02*
Y1957466D01*
Y1959837D02*
Y1961403D01*
Y1963342D02*
Y1966092D01*
Y1967894D02*
Y1968449D01*
Y1968577D02*
Y1969118D01*
Y1971216D02*
Y1973966D01*
Y1976527D02*
Y1977095D01*
Y1978994D02*
Y1979945D01*
Y1980939D02*
Y1981835D01*
Y1982593D02*
Y1983488D01*
Y1984431D02*
Y1984544D01*
Y1985409D02*
Y1985990D01*
Y1987772D02*
Y1988667D01*
Y1991727D02*
Y1992622D01*
X1933300Y1944389D02*
Y1945335D01*
Y1948184D02*
Y1948497D01*
Y1949591D02*
Y1949812D01*
Y1951519D02*
Y1954281D01*
Y1956200D02*
Y1957146D01*
Y1960137D02*
Y1961083D01*
Y1963330D02*
Y1966092D01*
Y1967794D02*
Y1968210D01*
Y1968838D02*
Y1969251D01*
Y1971204D02*
Y1973966D01*
Y1976477D02*
Y1977145D01*
Y1978967D02*
Y1979532D01*
Y1981155D02*
Y1981680D01*
Y1982808D02*
Y1983333D01*
Y1984408D02*
Y1984566D01*
Y1985564D02*
Y1985777D01*
Y1987926D02*
Y1988454D01*
Y1991942D02*
Y1992467D01*
X1933400Y1944551D02*
Y1945216D01*
Y1948009D02*
Y1948331D01*
Y1949691D02*
Y1949943D01*
Y1951508D02*
Y1954281D01*
Y1956362D02*
Y1957027D01*
Y1960299D02*
Y1960964D01*
Y1963319D02*
Y1966092D01*
Y1967694D02*
Y1968041D01*
Y1968983D02*
Y1969384D01*
Y1971193D02*
Y1973966D01*
Y1976441D02*
Y1977181D01*
Y1978940D02*
Y1979399D01*
Y1981205D02*
Y1981630D01*
Y1982858D02*
Y1983283D01*
Y1984386D02*
Y1984588D01*
Y1985614D02*
Y1985777D01*
Y1987976D02*
Y1988454D01*
Y1991992D02*
Y1992417D01*
X1933500Y1944601D02*
Y1945176D01*
Y1947834D02*
Y1948164D01*
Y1949759D02*
Y1950043D01*
Y1951496D02*
Y1951944D01*
Y1954041D02*
Y1954257D01*
Y1956412D02*
Y1956987D01*
Y1960349D02*
Y1960924D01*
Y1963307D02*
Y1963755D01*
Y1965852D02*
Y1966068D01*
Y1967615D02*
Y1967974D01*
Y1969083D02*
Y1969472D01*
Y1971181D02*
Y1971629D01*
Y1973726D02*
Y1973942D01*
Y1976491D02*
Y1977131D01*
Y1978914D02*
Y1979266D01*
Y1981231D02*
Y1981604D01*
Y1982885D02*
Y1983257D01*
Y1984363D02*
Y1984609D01*
Y1985641D02*
Y1985777D01*
Y1988003D02*
Y1988454D01*
Y1992019D02*
Y1992391D01*
X1933600Y1944639D02*
Y1945136D01*
Y1947765D02*
Y1948112D01*
Y1949809D02*
Y1950143D01*
Y1951484D02*
Y1951793D01*
Y1954038D02*
Y1954207D01*
Y1956450D02*
Y1956947D01*
Y1960387D02*
Y1960884D01*
Y1963295D02*
Y1963604D01*
Y1965849D02*
Y1966018D01*
Y1967540D02*
Y1967907D01*
Y1969179D02*
Y1969547D01*
Y1971169D02*
Y1971478D01*
Y1973723D02*
Y1973892D01*
Y1976541D02*
Y1977081D01*
Y1978887D02*
Y1979164D01*
Y1981231D02*
Y1981604D01*
Y1982885D02*
Y1983257D01*
Y1984340D02*
Y1984631D01*
Y1985641D02*
Y1985777D01*
Y1988003D02*
Y1988454D01*
Y1992019D02*
Y1992391D01*
X1933700Y1944672D02*
Y1945096D01*
Y1947698D02*
Y1948072D01*
Y1949790D02*
Y1950214D01*
Y1951472D02*
Y1951677D01*
Y1953971D02*
Y1954157D01*
Y1956483D02*
Y1956907D01*
Y1960420D02*
Y1960844D01*
Y1963283D02*
Y1963488D01*
Y1965782D02*
Y1965968D01*
Y1967465D02*
Y1967841D01*
Y1969246D02*
Y1969622D01*
Y1971157D02*
Y1971362D01*
Y1973656D02*
Y1973842D01*
Y1976624D02*
Y1976976D01*
Y1978860D02*
Y1979064D01*
Y1981231D02*
Y1981604D01*
Y1982885D02*
Y1983257D01*
Y1984317D02*
Y1984653D01*
Y1985641D02*
Y1985777D01*
Y1988003D02*
Y1988454D01*
Y1992019D02*
Y1992391D01*
X1933800Y1944696D02*
Y1945068D01*
Y1947632D02*
Y1948032D01*
Y1949757D02*
Y1950254D01*
Y1951461D02*
Y1951627D01*
Y1953905D02*
Y1954093D01*
Y1956507D02*
Y1956879D01*
Y1960444D02*
Y1960816D01*
Y1963272D02*
Y1963438D01*
Y1965716D02*
Y1965904D01*
Y1967419D02*
Y1967774D01*
Y1969313D02*
Y1969668D01*
Y1971146D02*
Y1971312D01*
Y1973590D02*
Y1973778D01*
Y1976774D02*
Y1976776D01*
Y1978834D02*
Y1978964D01*
Y1981231D02*
Y1981604D01*
Y1982885D02*
Y1983257D01*
Y1984294D02*
Y1984675D01*
Y1985641D02*
Y1985777D01*
Y1988003D02*
Y1988454D01*
Y1992019D02*
Y1992391D01*
X1933900Y1944696D02*
Y1945068D01*
Y1947565D02*
Y1947992D01*
Y1949735D02*
Y1950294D01*
Y1951449D02*
Y1951577D01*
Y1953823D02*
Y1954013D01*
Y1956507D02*
Y1956879D01*
Y1960444D02*
Y1960816D01*
Y1963260D02*
Y1963388D01*
Y1965634D02*
Y1965824D01*
Y1967382D02*
Y1967736D01*
Y1969351D02*
Y1969704D01*
Y1971134D02*
Y1971262D01*
Y1973508D02*
Y1973698D01*
Y1978807D02*
Y1978900D01*
Y1981231D02*
Y1981604D01*
Y1982885D02*
Y1983257D01*
Y1984272D02*
Y1984697D01*
Y1985641D02*
Y1985777D01*
Y1988003D02*
Y1988454D01*
Y1992019D02*
Y1992391D01*
X1934000Y1944696D02*
Y1945068D01*
Y1947522D02*
Y1947973D01*
Y1949735D02*
Y1950334D01*
Y1951437D02*
Y1951527D01*
Y1953740D02*
Y1953933D01*
Y1956507D02*
Y1956879D01*
Y1960444D02*
Y1960816D01*
Y1963248D02*
Y1963338D01*
Y1965551D02*
Y1965744D01*
Y1967346D02*
Y1967716D01*
Y1969371D02*
Y1969741D01*
Y1971122D02*
Y1971212D01*
Y1973425D02*
Y1973618D01*
Y1978780D02*
Y1978850D01*
Y1981231D02*
Y1981604D01*
Y1982885D02*
Y1983257D01*
Y1984249D02*
Y1984718D01*
Y1985641D02*
Y1985777D01*
Y1988003D02*
Y1988454D01*
Y1992019D02*
Y1992391D01*
X1934100Y1944696D02*
Y1945068D01*
Y1947508D02*
Y1947961D01*
Y1949735D02*
Y1950296D01*
Y1951425D02*
Y1951507D01*
Y1953656D02*
Y1953853D01*
Y1956507D02*
Y1956879D01*
Y1960444D02*
Y1960816D01*
Y1963236D02*
Y1963318D01*
Y1965467D02*
Y1965664D01*
Y1967310D02*
Y1967696D01*
Y1969391D02*
Y1969777D01*
Y1971110D02*
Y1971192D01*
Y1973341D02*
Y1973538D01*
Y1978754D02*
Y1978800D01*
Y1981231D02*
Y1981604D01*
Y1982885D02*
Y1983257D01*
Y1984226D02*
Y1984740D01*
Y1985641D02*
Y1985777D01*
Y1988003D02*
Y1988454D01*
Y1992019D02*
Y1992391D01*
X1934200Y1944696D02*
Y1945068D01*
Y1947493D02*
Y1947948D01*
Y1949735D02*
Y1950246D01*
Y1951414D02*
Y1951487D01*
Y1953573D02*
Y1953771D01*
Y1956507D02*
Y1956879D01*
Y1960444D02*
Y1960816D01*
Y1963225D02*
Y1963298D01*
Y1965384D02*
Y1965582D01*
Y1967273D02*
Y1967676D01*
Y1969411D02*
Y1969813D01*
Y1971099D02*
Y1971172D01*
Y1973258D02*
Y1973456D01*
Y1978727D02*
Y1978750D01*
Y1981231D02*
Y1981604D01*
Y1982885D02*
Y1983257D01*
Y1984203D02*
Y1984273D01*
Y1984466D02*
Y1984762D01*
Y1985641D02*
Y1985777D01*
Y1988003D02*
Y1988454D01*
Y1992019D02*
Y1992391D01*
X1934300Y1944696D02*
Y1945068D01*
Y1947479D02*
Y1947936D01*
Y1949735D02*
Y1950192D01*
Y1951402D02*
Y1951467D01*
Y1953487D02*
Y1953688D01*
Y1956507D02*
Y1956879D01*
Y1960444D02*
Y1960816D01*
Y1963213D02*
Y1963278D01*
Y1965298D02*
Y1965499D01*
Y1967237D02*
Y1967656D01*
Y1969431D02*
Y1969850D01*
Y1971087D02*
Y1971152D01*
Y1973172D02*
Y1973373D01*
Y1981231D02*
Y1981604D01*
Y1982885D02*
Y1983257D01*
Y1984180D02*
Y1984251D01*
Y1984487D02*
Y1984784D01*
Y1985641D02*
Y1985777D01*
Y1988003D02*
Y1988454D01*
Y1992019D02*
Y1992391D01*
X1934400Y1944696D02*
Y1945068D01*
Y1947465D02*
Y1947923D01*
Y1949935D02*
Y1950042D01*
Y1953387D02*
Y1953604D01*
Y1956507D02*
Y1956879D01*
Y1960444D02*
Y1960816D01*
Y1965198D02*
Y1965415D01*
Y1967201D02*
Y1967636D01*
Y1969451D02*
Y1969886D01*
Y1973072D02*
Y1973289D01*
Y1981231D02*
Y1981604D01*
Y1982885D02*
Y1983257D01*
Y1984158D02*
Y1984228D01*
Y1984508D02*
Y1984806D01*
Y1985641D02*
Y1985777D01*
Y1988003D02*
Y1988454D01*
Y1992019D02*
Y1992391D01*
X1934500Y1944696D02*
Y1945068D01*
Y1947452D02*
Y1947911D01*
Y1953287D02*
Y1953521D01*
Y1956507D02*
Y1956879D01*
Y1960444D02*
Y1960816D01*
Y1965098D02*
Y1965332D01*
Y1967164D02*
Y1967616D01*
Y1969471D02*
Y1969922D01*
Y1972972D02*
Y1973206D01*
Y1981231D02*
Y1981604D01*
Y1982885D02*
Y1983257D01*
Y1984135D02*
Y1984205D01*
Y1984528D02*
Y1984828D01*
Y1985641D02*
Y1985777D01*
Y1988003D02*
Y1988454D01*
Y1992019D02*
Y1992391D01*
X1934600Y1944696D02*
Y1945068D01*
Y1947452D02*
Y1947908D01*
Y1953187D02*
Y1953438D01*
Y1956507D02*
Y1956879D01*
Y1960444D02*
Y1960816D01*
Y1964998D02*
Y1965249D01*
Y1967133D02*
Y1967596D01*
Y1969491D02*
Y1969954D01*
Y1972872D02*
Y1973123D01*
Y1981231D02*
Y1981604D01*
Y1982885D02*
Y1983257D01*
Y1984112D02*
Y1984183D01*
Y1984549D02*
Y1984849D01*
Y1985641D02*
Y1985777D01*
Y1988003D02*
Y1988454D01*
Y1992019D02*
Y1992391D01*
X1934700Y1944696D02*
Y1945068D01*
Y1947452D02*
Y1947924D01*
Y1953087D02*
Y1953340D01*
Y1956507D02*
Y1956879D01*
Y1960444D02*
Y1960816D01*
Y1964898D02*
Y1965151D01*
Y1967119D02*
Y1967584D01*
Y1969503D02*
Y1969967D01*
Y1972772D02*
Y1973025D01*
Y1981231D02*
Y1981604D01*
Y1982885D02*
Y1983257D01*
Y1984089D02*
Y1984160D01*
Y1984570D02*
Y1984871D01*
Y1985641D02*
Y1985777D01*
Y1988003D02*
Y1988454D01*
Y1992019D02*
Y1992391D01*
X1934800Y1944696D02*
Y1945068D01*
Y1947452D02*
Y1947941D01*
Y1952987D02*
Y1953240D01*
Y1956507D02*
Y1956879D01*
Y1960444D02*
Y1960816D01*
Y1964798D02*
Y1965051D01*
Y1967106D02*
Y1967577D01*
Y1969510D02*
Y1969981D01*
Y1972672D02*
Y1972925D01*
Y1981231D02*
Y1981604D01*
Y1982885D02*
Y1983257D01*
Y1984066D02*
Y1984138D01*
Y1984591D02*
Y1984893D01*
Y1985641D02*
Y1985777D01*
Y1988003D02*
Y1988454D01*
Y1992019D02*
Y1992391D01*
X1934900Y1944696D02*
Y1945068D01*
Y1947471D02*
Y1947958D01*
Y1952887D02*
Y1953140D01*
Y1956507D02*
Y1956879D01*
Y1960444D02*
Y1960816D01*
Y1964698D02*
Y1964951D01*
Y1967093D02*
Y1967570D01*
Y1969517D02*
Y1969994D01*
Y1972572D02*
Y1972825D01*
Y1981231D02*
Y1981604D01*
Y1982885D02*
Y1983257D01*
Y1984044D02*
Y1984115D01*
Y1984611D02*
Y1984915D01*
Y1985641D02*
Y1985777D01*
Y1988003D02*
Y1988454D01*
Y1992019D02*
Y1992391D01*
X1935000Y1944696D02*
Y1945068D01*
Y1947531D02*
Y1947974D01*
Y1952787D02*
Y1953040D01*
Y1956507D02*
Y1956879D01*
Y1960444D02*
Y1960816D01*
Y1964598D02*
Y1964851D01*
Y1967079D02*
Y1967562D01*
Y1969524D02*
Y1970007D01*
Y1972472D02*
Y1972725D01*
Y1981231D02*
Y1981604D01*
Y1982885D02*
Y1983257D01*
Y1984021D02*
Y1984092D01*
Y1984632D02*
Y1984937D01*
Y1985641D02*
Y1985777D01*
Y1988003D02*
Y1988454D01*
Y1992019D02*
Y1992391D01*
X1935100Y1944696D02*
Y1945068D01*
Y1947591D02*
Y1948002D01*
Y1952687D02*
Y1952940D01*
Y1956507D02*
Y1956879D01*
Y1960444D02*
Y1960816D01*
Y1964498D02*
Y1964751D01*
Y1967066D02*
Y1967555D01*
Y1969531D02*
Y1970021D01*
Y1972372D02*
Y1972625D01*
Y1979499D02*
Y1979635D01*
Y1981231D02*
Y1981604D01*
Y1982885D02*
Y1983257D01*
Y1983998D02*
Y1984070D01*
Y1984653D02*
Y1984958D01*
Y1985641D02*
Y1985777D01*
Y1988003D02*
Y1988454D01*
Y1992019D02*
Y1992391D01*
X1935200Y1944696D02*
Y1945068D01*
Y1947651D02*
Y1948042D01*
Y1952587D02*
Y1952840D01*
Y1956507D02*
Y1956879D01*
Y1960444D02*
Y1960816D01*
Y1964398D02*
Y1964651D01*
Y1967053D02*
Y1967548D01*
Y1969539D02*
Y1970034D01*
Y1972272D02*
Y1972525D01*
Y1976739D02*
Y1976824D01*
Y1979499D02*
Y1979660D01*
Y1981231D02*
Y1981604D01*
Y1982885D02*
Y1983257D01*
Y1983975D02*
Y1984047D01*
Y1984674D02*
Y1984980D01*
Y1985641D02*
Y1985777D01*
Y1988003D02*
Y1988454D01*
Y1992019D02*
Y1992391D01*
X1935300Y1944696D02*
Y1945068D01*
Y1947721D02*
Y1948082D01*
Y1952487D02*
Y1952740D01*
Y1956507D02*
Y1956879D01*
Y1960444D02*
Y1960816D01*
Y1964298D02*
Y1964551D01*
Y1967039D02*
Y1967541D01*
Y1969546D02*
Y1970047D01*
Y1972172D02*
Y1972425D01*
Y1976589D02*
Y1977024D01*
Y1979499D02*
Y1979693D01*
Y1981231D02*
Y1981604D01*
Y1982885D02*
Y1983257D01*
Y1983952D02*
Y1984024D01*
Y1984694D02*
Y1985002D01*
Y1985641D02*
Y1985777D01*
Y1988003D02*
Y1988454D01*
Y1992019D02*
Y1992391D01*
X1935400Y1944696D02*
Y1945068D01*
Y1947801D02*
Y1948122D01*
Y1952387D02*
Y1952640D01*
Y1956507D02*
Y1956879D01*
Y1960444D02*
Y1960816D01*
Y1964198D02*
Y1964451D01*
Y1967026D02*
Y1967534D01*
Y1969553D02*
Y1970061D01*
Y1972072D02*
Y1972325D01*
Y1976529D02*
Y1977093D01*
Y1979499D02*
Y1979726D01*
Y1981231D02*
Y1981604D01*
Y1982885D02*
Y1983257D01*
Y1983930D02*
Y1984002D01*
Y1984715D02*
Y1985024D01*
Y1985641D02*
Y1985777D01*
Y1988003D02*
Y1988454D01*
Y1992019D02*
Y1992391D01*
X1935500Y1944696D02*
Y1945068D01*
Y1947881D02*
Y1948211D01*
Y1952287D02*
Y1952540D01*
Y1956507D02*
Y1956879D01*
Y1960444D02*
Y1960816D01*
Y1964098D02*
Y1964351D01*
Y1967013D02*
Y1967527D01*
Y1969560D02*
Y1970074D01*
Y1971972D02*
Y1972225D01*
Y1976479D02*
Y1977143D01*
Y1979499D02*
Y1979760D01*
Y1981231D02*
Y1981604D01*
Y1982885D02*
Y1983257D01*
Y1983907D02*
Y1983979D01*
Y1984736D02*
Y1985046D01*
Y1985641D02*
Y1985777D01*
Y1988003D02*
Y1988454D01*
Y1992019D02*
Y1992391D01*
X1935600Y1944696D02*
Y1945068D01*
Y1947961D02*
Y1948411D01*
Y1952187D02*
Y1952440D01*
Y1956507D02*
Y1956879D01*
Y1960444D02*
Y1960816D01*
Y1963998D02*
Y1964251D01*
Y1966999D02*
Y1967520D01*
Y1969567D02*
Y1970087D01*
Y1971872D02*
Y1972125D01*
Y1976444D02*
Y1977178D01*
Y1979499D02*
Y1979793D01*
Y1981231D02*
Y1981604D01*
Y1982885D02*
Y1983257D01*
Y1983884D02*
Y1983956D01*
Y1984757D02*
Y1985068D01*
Y1985641D02*
Y1985777D01*
Y1988003D02*
Y1988454D01*
Y1992019D02*
Y1992391D01*
X1935700Y1944696D02*
Y1945068D01*
Y1948151D02*
Y1948611D01*
Y1952087D02*
Y1952360D01*
Y1956507D02*
Y1956879D01*
Y1960444D02*
Y1960816D01*
Y1963898D02*
Y1964171D01*
Y1966986D02*
Y1967512D01*
Y1969574D02*
Y1970101D01*
Y1971772D02*
Y1972045D01*
Y1976511D02*
Y1977111D01*
Y1979499D02*
Y1979881D01*
Y1981231D02*
Y1981604D01*
Y1982885D02*
Y1983257D01*
Y1983861D02*
Y1983934D01*
Y1984777D02*
Y1985089D01*
Y1985641D02*
Y1985777D01*
Y1988003D02*
Y1988454D01*
Y1992019D02*
Y1992391D01*
X1935800Y1944696D02*
Y1945068D01*
Y1948385D02*
Y1949241D01*
Y1951987D02*
Y1952294D01*
Y1956507D02*
Y1956879D01*
Y1960444D02*
Y1960816D01*
Y1963798D02*
Y1964105D01*
Y1966987D02*
Y1967513D01*
Y1969573D02*
Y1970099D01*
Y1971672D02*
Y1971979D01*
Y1976585D02*
Y1977028D01*
Y1979499D02*
Y1979998D01*
Y1981231D02*
Y1981604D01*
Y1982885D02*
Y1983257D01*
Y1983838D02*
Y1983911D01*
Y1984798D02*
Y1985111D01*
Y1985641D02*
Y1985777D01*
Y1988003D02*
Y1988454D01*
Y1992019D02*
Y1992391D01*
X1935900Y1944696D02*
Y1945068D01*
Y1948554D02*
Y1949241D01*
Y1951887D02*
Y1952227D01*
Y1956507D02*
Y1956879D01*
Y1960444D02*
Y1960816D01*
Y1963698D02*
Y1964038D01*
Y1967001D02*
Y1967522D01*
Y1969565D02*
Y1970084D01*
Y1971572D02*
Y1971912D01*
Y1976735D02*
Y1976828D01*
Y1979499D02*
Y1981604D01*
Y1982885D02*
Y1983257D01*
Y1983815D02*
Y1983888D01*
Y1984819D02*
Y1985133D01*
Y1985641D02*
Y1985777D01*
Y1988003D02*
Y1988454D01*
Y1992019D02*
Y1992391D01*
X1936000Y1944696D02*
Y1945068D01*
Y1948444D02*
Y1948828D01*
Y1951787D02*
Y1952160D01*
Y1956507D02*
Y1956879D01*
Y1960444D02*
Y1960816D01*
Y1963598D02*
Y1963971D01*
Y1967016D02*
Y1967530D01*
Y1969557D02*
Y1970068D01*
Y1971472D02*
Y1971845D01*
Y1979499D02*
Y1979914D01*
Y1981231D02*
Y1981604D01*
Y1982885D02*
Y1983257D01*
Y1983793D02*
Y1983866D01*
Y1984840D02*
Y1985155D01*
Y1985641D02*
Y1985777D01*
Y1988003D02*
Y1988454D01*
Y1992019D02*
Y1992391D01*
X1936100Y1944696D02*
Y1945068D01*
Y1948277D02*
Y1948607D01*
Y1951740D02*
Y1952094D01*
Y1956507D02*
Y1956879D01*
Y1960444D02*
Y1960816D01*
Y1963551D02*
Y1963905D01*
Y1967030D02*
Y1967538D01*
Y1969548D02*
Y1970053D01*
Y1971425D02*
Y1971779D01*
Y1979499D02*
Y1979814D01*
Y1981231D02*
Y1981604D01*
Y1982885D02*
Y1983257D01*
Y1983770D02*
Y1983843D01*
Y1984860D02*
Y1985177D01*
Y1985641D02*
Y1985777D01*
Y1988003D02*
Y1988454D01*
Y1992019D02*
Y1992391D01*
X1936200Y1944696D02*
Y1945068D01*
Y1948116D02*
Y1948474D01*
Y1951700D02*
Y1952054D01*
Y1956507D02*
Y1956879D01*
Y1960444D02*
Y1960816D01*
Y1963511D02*
Y1963865D01*
Y1967044D02*
Y1967547D01*
Y1969540D02*
Y1970037D01*
Y1971385D02*
Y1971739D01*
Y1979499D02*
Y1979714D01*
Y1981231D02*
Y1981604D01*
Y1982885D02*
Y1983257D01*
Y1983747D02*
Y1983821D01*
Y1984881D02*
Y1985198D01*
Y1985641D02*
Y1985777D01*
Y1988003D02*
Y1988454D01*
Y1992019D02*
Y1992391D01*
X1936300Y1944696D02*
Y1945068D01*
Y1947983D02*
Y1948362D01*
Y1951660D02*
Y1952021D01*
Y1956507D02*
Y1956879D01*
Y1960444D02*
Y1960816D01*
Y1963471D02*
Y1963832D01*
Y1967058D02*
Y1967555D01*
Y1969532D02*
Y1970022D01*
Y1971345D02*
Y1971706D01*
Y1979499D02*
Y1979635D01*
Y1981231D02*
Y1981604D01*
Y1982885D02*
Y1983257D01*
Y1983724D02*
Y1983798D01*
Y1984902D02*
Y1985220D01*
Y1985641D02*
Y1985777D01*
Y1988003D02*
Y1988454D01*
Y1992019D02*
Y1992391D01*
X1936400Y1944696D02*
Y1945068D01*
Y1947849D02*
Y1948287D01*
Y1951620D02*
Y1951987D01*
Y1956507D02*
Y1956879D01*
Y1960444D02*
Y1960816D01*
Y1963431D02*
Y1963798D01*
Y1967073D02*
Y1967563D01*
Y1969523D02*
Y1970007D01*
Y1971305D02*
Y1971672D01*
Y1979499D02*
Y1979635D01*
Y1981231D02*
Y1981604D01*
Y1982885D02*
Y1983257D01*
Y1983701D02*
Y1983775D01*
Y1984923D02*
Y1985242D01*
Y1985641D02*
Y1985777D01*
Y1988003D02*
Y1988454D01*
Y1992019D02*
Y1992391D01*
X1936500Y1944696D02*
Y1945068D01*
Y1947800D02*
Y1948212D01*
Y1951570D02*
Y1951954D01*
Y1956507D02*
Y1956879D01*
Y1960444D02*
Y1960816D01*
Y1963381D02*
Y1963765D01*
Y1967087D02*
Y1967572D01*
Y1969515D02*
Y1969991D01*
Y1971255D02*
Y1971639D01*
Y1979499D02*
Y1979635D01*
Y1981231D02*
Y1981604D01*
Y1982885D02*
Y1983257D01*
Y1983679D02*
Y1983753D01*
Y1984943D02*
Y1985264D01*
Y1985641D02*
Y1985777D01*
Y1988003D02*
Y1988454D01*
Y1992019D02*
Y1992391D01*
X1936600Y1944696D02*
Y1945068D01*
Y1947760D02*
Y1948141D01*
Y1951520D02*
Y1951921D01*
Y1956507D02*
Y1956879D01*
Y1960444D02*
Y1960816D01*
Y1963331D02*
Y1963732D01*
Y1967101D02*
Y1967580D01*
Y1969507D02*
Y1969976D01*
Y1971205D02*
Y1971606D01*
Y1979499D02*
Y1979635D01*
Y1981231D02*
Y1981604D01*
Y1982885D02*
Y1983257D01*
Y1983656D02*
Y1983730D01*
Y1984964D02*
Y1985286D01*
Y1985641D02*
Y1985777D01*
Y1988003D02*
Y1988454D01*
Y1992019D02*
Y1992391D01*
X1936700Y1944696D02*
Y1945068D01*
Y1947720D02*
Y1948124D01*
Y1951470D02*
Y1951900D01*
Y1953759D02*
Y1953995D01*
Y1956507D02*
Y1956879D01*
Y1960444D02*
Y1960816D01*
Y1963281D02*
Y1963711D01*
Y1965570D02*
Y1965806D01*
Y1967116D02*
Y1967588D01*
Y1969498D02*
Y1969960D01*
Y1971155D02*
Y1971585D01*
Y1973444D02*
Y1973680D01*
Y1979499D02*
Y1979635D01*
Y1981231D02*
Y1981604D01*
Y1982885D02*
Y1983257D01*
Y1983633D02*
Y1983707D01*
Y1984985D02*
Y1985308D01*
Y1985641D02*
Y1985777D01*
Y1988003D02*
Y1988454D01*
Y1992019D02*
Y1992391D01*
X1936800Y1944696D02*
Y1945068D01*
Y1947683D02*
Y1948107D01*
Y1951447D02*
Y1951880D01*
Y1953639D02*
Y1954171D01*
Y1956507D02*
Y1956879D01*
Y1960444D02*
Y1960816D01*
Y1963258D02*
Y1963691D01*
Y1965450D02*
Y1965982D01*
Y1967130D02*
Y1967608D01*
Y1969478D02*
Y1969936D01*
Y1971132D02*
Y1971565D01*
Y1973324D02*
Y1973856D01*
Y1981231D02*
Y1981604D01*
Y1982885D02*
Y1983257D01*
Y1983610D02*
Y1983685D01*
Y1985006D02*
Y1985329D01*
Y1985641D02*
Y1985777D01*
Y1988003D02*
Y1988454D01*
Y1992019D02*
Y1992391D01*
X1936900Y1944696D02*
Y1945068D01*
Y1947663D02*
Y1948091D01*
Y1951427D02*
Y1951860D01*
Y1953606D02*
Y1954202D01*
Y1956507D02*
Y1956879D01*
Y1960444D02*
Y1960816D01*
Y1963238D02*
Y1963671D01*
Y1965417D02*
Y1966013D01*
Y1967160D02*
Y1967628D01*
Y1969458D02*
Y1969900D01*
Y1971112D02*
Y1971545D01*
Y1973291D02*
Y1973887D01*
Y1981231D02*
Y1981604D01*
Y1982885D02*
Y1983257D01*
Y1983587D02*
Y1983662D01*
Y1985026D02*
Y1985351D01*
Y1985641D02*
Y1985777D01*
Y1988003D02*
Y1988454D01*
Y1992019D02*
Y1992391D01*
X1937000Y1944696D02*
Y1945068D01*
Y1947643D02*
Y1948074D01*
Y1949867D02*
Y1949976D01*
Y1951407D02*
Y1951840D01*
Y1953651D02*
Y1954202D01*
Y1956507D02*
Y1956879D01*
Y1960444D02*
Y1960816D01*
Y1963218D02*
Y1963651D01*
Y1965462D02*
Y1966013D01*
Y1967200D02*
Y1967648D01*
Y1969438D02*
Y1969864D01*
Y1971092D02*
Y1971525D01*
Y1973336D02*
Y1973887D01*
Y1981231D02*
Y1981604D01*
Y1982885D02*
Y1983257D01*
Y1983565D02*
Y1983639D01*
Y1985047D02*
Y1985373D01*
Y1985641D02*
Y1985777D01*
Y1988003D02*
Y1988454D01*
Y1992019D02*
Y1992391D01*
X1937100Y1944696D02*
Y1945068D01*
Y1947623D02*
Y1948062D01*
Y1949735D02*
Y1950148D01*
Y1951396D02*
Y1951854D01*
Y1953717D02*
Y1954200D01*
Y1956507D02*
Y1956879D01*
Y1960444D02*
Y1960816D01*
Y1963207D02*
Y1963665D01*
Y1965528D02*
Y1966011D01*
Y1967240D02*
Y1967668D01*
Y1969418D02*
Y1969827D01*
Y1971081D02*
Y1971539D01*
Y1973402D02*
Y1973885D01*
Y1981231D02*
Y1981604D01*
Y1982885D02*
Y1983257D01*
Y1983542D02*
Y1983617D01*
Y1985068D02*
Y1985395D01*
Y1985641D02*
Y1985777D01*
Y1988003D02*
Y1988454D01*
Y1992019D02*
Y1992391D01*
X1937200Y1944696D02*
Y1945068D01*
Y1947623D02*
Y1948082D01*
Y1949735D02*
Y1950186D01*
Y1951429D02*
Y1951871D01*
Y1953761D02*
Y1954185D01*
Y1956507D02*
Y1956879D01*
Y1960444D02*
Y1960816D01*
Y1963240D02*
Y1963682D01*
Y1965572D02*
Y1965996D01*
Y1967280D02*
Y1967688D01*
Y1969398D02*
Y1969791D01*
Y1971114D02*
Y1971556D01*
Y1973446D02*
Y1973870D01*
Y1981231D02*
Y1981604D01*
Y1982885D02*
Y1983257D01*
Y1983519D02*
Y1983594D01*
Y1985089D02*
Y1985417D01*
Y1985641D02*
Y1985777D01*
Y1988003D02*
Y1988454D01*
Y1992019D02*
Y1992391D01*
X1937300Y1944696D02*
Y1945068D01*
Y1947657D02*
Y1948102D01*
Y1949735D02*
Y1950186D01*
Y1951462D02*
Y1951888D01*
Y1953786D02*
Y1954171D01*
Y1956507D02*
Y1956879D01*
Y1960444D02*
Y1960816D01*
Y1963273D02*
Y1963699D01*
Y1965597D02*
Y1965982D01*
Y1967320D02*
Y1967708D01*
Y1969378D02*
Y1969755D01*
Y1971147D02*
Y1971573D01*
Y1973471D02*
Y1973856D01*
Y1978808D02*
Y1978873D01*
Y1981231D02*
Y1981604D01*
Y1982885D02*
Y1983257D01*
Y1983496D02*
Y1983571D01*
Y1985109D02*
Y1985438D01*
Y1985641D02*
Y1985777D01*
Y1988003D02*
Y1988454D01*
Y1990550D02*
Y1990641D01*
Y1992019D02*
Y1992391D01*
Y1993689D02*
Y1993849D01*
X1937400Y1944696D02*
Y1945068D01*
Y1947690D02*
Y1948122D01*
Y1949754D02*
Y1950173D01*
Y1951496D02*
Y1951904D01*
Y1953811D02*
Y1954157D01*
Y1956507D02*
Y1956879D01*
Y1960444D02*
Y1960816D01*
Y1963307D02*
Y1963715D01*
Y1965622D02*
Y1965968D01*
Y1967360D02*
Y1967728D01*
Y1969358D02*
Y1969718D01*
Y1971181D02*
Y1971589D01*
Y1973496D02*
Y1973842D01*
Y1978837D02*
Y1978933D01*
Y1981231D02*
Y1981604D01*
Y1982885D02*
Y1983257D01*
Y1983473D02*
Y1983549D01*
Y1985130D02*
Y1985460D01*
Y1985641D02*
Y1985777D01*
Y1988003D02*
Y1988454D01*
Y1990570D02*
Y1990691D01*
Y1992019D02*
Y1992391D01*
Y1993639D02*
Y1993823D01*
X1937500Y1944696D02*
Y1945072D01*
Y1947723D02*
Y1948143D01*
Y1949814D02*
Y1950156D01*
Y1951529D02*
Y1951923D01*
Y1953826D02*
Y1954142D01*
Y1956507D02*
Y1956883D01*
Y1960444D02*
Y1960820D01*
Y1963340D02*
Y1963734D01*
Y1965637D02*
Y1965953D01*
Y1967400D02*
Y1967749D01*
Y1969337D02*
Y1969682D01*
Y1971214D02*
Y1971608D01*
Y1973511D02*
Y1973827D01*
Y1978865D02*
Y1978993D01*
Y1981231D02*
Y1981604D01*
Y1982885D02*
Y1983257D01*
Y1983451D02*
Y1983526D01*
Y1985151D02*
Y1985777D01*
Y1988003D02*
Y1988454D01*
Y1990590D02*
Y1990741D01*
Y1992019D02*
Y1992391D01*
Y1993589D02*
Y1993796D01*
X1937600Y1944696D02*
Y1945122D01*
Y1947757D02*
Y1948183D01*
Y1949814D02*
Y1950139D01*
Y1951572D02*
Y1951963D01*
Y1953792D02*
Y1954128D01*
Y1956507D02*
Y1956933D01*
Y1960444D02*
Y1960870D01*
Y1963383D02*
Y1963774D01*
Y1965603D02*
Y1965939D01*
Y1967440D02*
Y1967799D01*
Y1969287D02*
Y1969646D01*
Y1971257D02*
Y1971648D01*
Y1973477D02*
Y1973813D01*
Y1978894D02*
Y1979053D01*
Y1981231D02*
Y1981604D01*
Y1982885D02*
Y1983278D01*
Y1983415D02*
Y1983504D01*
Y1985172D02*
Y1985777D01*
Y1988003D02*
Y1988454D01*
Y1990610D02*
Y1990791D01*
Y1992019D02*
Y1992391D01*
Y1993539D02*
Y1993769D01*
X1937700Y1944696D02*
Y1945225D01*
Y1947812D02*
Y1948223D01*
Y1949814D02*
Y1950123D01*
Y1951622D02*
Y1952003D01*
Y1953759D02*
Y1954040D01*
Y1956507D02*
Y1957036D01*
Y1960444D02*
Y1960973D01*
Y1963433D02*
Y1963814D01*
Y1965570D02*
Y1965851D01*
Y1967511D02*
Y1967849D01*
Y1969237D02*
Y1969576D01*
Y1971307D02*
Y1971688D01*
Y1973444D02*
Y1973725D01*
Y1978922D02*
Y1979125D01*
Y1981231D02*
Y1981604D01*
Y1982885D02*
Y1983481D01*
Y1985192D02*
Y1985777D01*
Y1988003D02*
Y1988454D01*
Y1990630D02*
Y1990841D01*
Y1992019D02*
Y1992391D01*
Y1993489D02*
Y1993743D01*
X1937800Y1944696D02*
Y1945934D01*
Y1947872D02*
Y1948263D01*
Y1949789D02*
Y1950082D01*
Y1951672D02*
Y1952043D01*
Y1953705D02*
Y1953940D01*
Y1956507D02*
Y1957745D01*
Y1960444D02*
Y1961682D01*
Y1963483D02*
Y1963854D01*
Y1965516D02*
Y1965751D01*
Y1967586D02*
Y1967899D01*
Y1969187D02*
Y1969501D01*
Y1971357D02*
Y1971728D01*
Y1973390D02*
Y1973625D01*
Y1978951D02*
Y1979225D01*
Y1981231D02*
Y1981604D01*
Y1982885D02*
Y1983458D01*
Y1985213D02*
Y1985777D01*
Y1988003D02*
Y1988454D01*
Y1990650D02*
Y1990891D01*
Y1992019D02*
Y1992391D01*
Y1993439D02*
Y1993716D01*
X1937900Y1944696D02*
Y1945934D01*
Y1947932D02*
Y1948304D01*
Y1949755D02*
Y1949982D01*
Y1951722D02*
Y1952083D01*
Y1953639D02*
Y1953840D01*
Y1956507D02*
Y1957745D01*
Y1960444D02*
Y1961682D01*
Y1963533D02*
Y1963894D01*
Y1965450D02*
Y1965651D01*
Y1967661D02*
Y1967987D01*
Y1969067D02*
Y1969426D01*
Y1971407D02*
Y1971768D01*
Y1973324D02*
Y1973525D01*
Y1978980D02*
Y1979325D01*
Y1981225D02*
Y1981610D01*
Y1982879D02*
Y1983436D01*
Y1985234D02*
Y1985777D01*
Y1987997D02*
Y1988454D01*
Y1990670D02*
Y1990941D01*
Y1992019D02*
Y1992391D01*
Y1993389D02*
Y1993689D01*
X1938000Y1944696D02*
Y1945079D01*
Y1947997D02*
Y1948431D01*
Y1949702D02*
Y1949882D01*
Y1951781D02*
Y1952211D01*
Y1953561D02*
Y1953731D01*
Y1956507D02*
Y1956890D01*
Y1960444D02*
Y1960827D01*
Y1963592D02*
Y1964022D01*
Y1965372D02*
Y1965542D01*
Y1967756D02*
Y1968087D01*
Y1968921D02*
Y1969331D01*
Y1971466D02*
Y1971896D01*
Y1973246D02*
Y1973416D01*
Y1979008D02*
Y1979455D01*
Y1981192D02*
Y1981643D01*
Y1982845D02*
Y1983413D01*
Y1985255D02*
Y1985777D01*
Y1987963D02*
Y1988454D01*
Y1990690D02*
Y1991006D01*
Y1992001D02*
Y1992391D01*
Y1993323D02*
Y1993663D01*
X1938100Y1944696D02*
Y1944979D01*
Y1948164D02*
Y1948564D01*
Y1949480D02*
Y1949762D01*
Y1951981D02*
Y1952344D01*
Y1953361D02*
Y1953531D01*
Y1956507D02*
Y1956790D01*
Y1960444D02*
Y1960727D01*
Y1963792D02*
Y1964155D01*
Y1965172D02*
Y1965342D01*
Y1967856D02*
Y1968187D01*
Y1968821D02*
Y1969231D01*
Y1971666D02*
Y1972029D01*
Y1973046D02*
Y1973216D01*
Y1979037D02*
Y1979588D01*
Y1981158D02*
Y1981676D01*
Y1982812D02*
Y1983390D01*
Y1985276D02*
Y1985777D01*
Y1987930D02*
Y1988454D01*
Y1990710D02*
Y1991269D01*
Y1991951D02*
Y1992391D01*
Y1992983D02*
Y1993636D01*
X1938200Y1944696D02*
Y1944879D01*
Y1948331D02*
Y1948855D01*
Y1949180D02*
Y1949596D01*
Y1952181D02*
Y1952675D01*
Y1953075D02*
Y1953331D01*
Y1956507D02*
Y1956690D01*
Y1960444D02*
Y1960627D01*
Y1963992D02*
Y1964486D01*
Y1964886D02*
Y1965142D01*
Y1968008D02*
Y1969079D01*
Y1971866D02*
Y1972360D01*
Y1972760D02*
Y1973016D01*
Y1979065D02*
Y1981997D01*
Y1982491D02*
Y1983368D01*
Y1985296D02*
Y1986170D01*
Y1987058D02*
Y1989399D01*
Y1990730D02*
Y1993609D01*
X1938300Y1944696D02*
Y1944779D01*
Y1948682D02*
Y1949423D01*
Y1952540D02*
Y1953052D01*
Y1956507D02*
Y1956590D01*
Y1960444D02*
Y1960527D01*
Y1964351D02*
Y1964863D01*
Y1968209D02*
Y1968875D01*
Y1972225D02*
Y1972737D01*
X1943000Y1942076D02*
Y1942254D01*
Y1999162D02*
Y1999341D01*
X1943100Y1942048D02*
Y1942279D01*
Y1999135D02*
Y1999366D01*
X1943200Y1942021D02*
Y1942305D01*
Y1999108D02*
Y1999391D01*
X1943300Y1941994D02*
Y1942330D01*
Y1999081D02*
Y1999417D01*
X1943400Y1941967D02*
Y1942356D01*
Y1999054D02*
Y1999442D01*
X1943500Y1941940D02*
Y1942381D01*
Y1999027D02*
Y1999468D01*
X1943600Y1941913D02*
Y1942406D01*
Y1998999D02*
Y1999493D01*
X1943700Y1941886D02*
Y1942432D01*
Y1998972D02*
Y1999518D01*
X1943800Y1941859D02*
Y1942457D01*
Y1998945D02*
Y1999544D01*
X1943900Y1941831D02*
Y1942483D01*
Y1998918D02*
Y1999569D01*
X1944000Y1941804D02*
Y1942508D01*
Y1998891D02*
Y1999595D01*
X1944100Y1941777D02*
Y1942534D01*
Y1998864D02*
Y1999620D01*
X1944200Y1941750D02*
Y1942559D01*
Y1998837D02*
Y1999646D01*
X1944300Y1935837D02*
Y1936210D01*
Y1941723D02*
Y1942584D01*
Y1998810D02*
Y1999671D01*
X1944400Y1935837D02*
Y1936210D01*
Y1941696D02*
Y1942610D01*
Y1998783D02*
Y1999696D01*
X1944500Y1935837D02*
Y1936210D01*
Y1941669D02*
Y1942635D01*
Y1998755D02*
Y1999722D01*
X1944600Y1935837D02*
Y1936210D01*
Y1941642D02*
Y1941869D01*
Y1941988D02*
Y1942661D01*
Y1998728D02*
Y1998955D01*
Y1999075D02*
Y1999747D01*
X1944700Y1935837D02*
Y1936210D01*
Y1941615D02*
Y1941842D01*
Y1942012D02*
Y1942686D01*
Y1998701D02*
Y1998929D01*
Y1999099D02*
Y1999773D01*
X1944800Y1935837D02*
Y1936210D01*
Y1941587D02*
Y1941815D01*
Y1942036D02*
Y1942712D01*
Y1998674D02*
Y1998902D01*
Y1999123D02*
Y1999798D01*
X1944900Y1935837D02*
Y1936210D01*
Y1941560D02*
Y1941789D01*
Y1942060D02*
Y1942737D01*
Y1998647D02*
Y1998875D01*
Y1999147D02*
Y1999824D01*
X1945000Y1935837D02*
Y1936210D01*
Y1941533D02*
Y1941762D01*
Y1942084D02*
Y1942762D01*
Y1998620D02*
Y1998849D01*
Y1999171D02*
Y1999849D01*
X1945100Y1935837D02*
Y1936210D01*
Y1941506D02*
Y1941735D01*
Y1942108D02*
Y1942788D01*
Y1998593D02*
Y1998822D01*
Y1999195D02*
Y1999874D01*
X1945200Y1935837D02*
Y1936210D01*
Y1941479D02*
Y1941709D01*
Y1942132D02*
Y1942813D01*
Y1998566D02*
Y1998795D01*
Y1999219D02*
Y1999900D01*
X1945300Y1935837D02*
Y1936210D01*
Y1941452D02*
Y1941682D01*
Y1942156D02*
Y1942839D01*
Y1998538D02*
Y1998769D01*
Y1999242D02*
Y1999925D01*
X1945400Y1935837D02*
Y1936210D01*
Y1941425D02*
Y1941655D01*
Y1942180D02*
Y1942864D01*
Y1998511D02*
Y1998742D01*
Y1999266D02*
Y1999951D01*
X1945500Y1935837D02*
Y1936210D01*
Y1941398D02*
Y1941629D01*
Y1942204D02*
Y1942889D01*
Y1998484D02*
Y1998715D01*
Y1999290D02*
Y1999976D01*
X1945600Y1935837D02*
Y1936210D01*
Y1941370D02*
Y1941602D01*
Y1942228D02*
Y1942915D01*
Y1998457D02*
Y1998689D01*
Y1999314D02*
Y2000002D01*
X1945700Y1935837D02*
Y1936210D01*
Y1941343D02*
Y1941575D01*
Y1942251D02*
Y1942940D01*
Y1998430D02*
Y1998662D01*
Y1999338D02*
Y2000027D01*
X1945800Y1935837D02*
Y1936210D01*
Y1941316D02*
Y1941549D01*
Y1942275D02*
Y1942966D01*
Y1998403D02*
Y1998635D01*
Y1999362D02*
Y2000052D01*
X1945900Y1935837D02*
Y1936210D01*
Y1941289D02*
Y1941522D01*
Y1942299D02*
Y1942991D01*
Y1998376D02*
Y1998609D01*
Y1999386D02*
Y2000078D01*
X1946000Y1935837D02*
Y1936210D01*
Y1941262D02*
Y1941495D01*
Y1942323D02*
Y1943017D01*
Y1998349D02*
Y1998582D01*
Y1999410D02*
Y2000103D01*
X1946100Y1935837D02*
Y1936210D01*
Y1941235D02*
Y1941469D01*
Y1942347D02*
Y1943042D01*
Y1998321D02*
Y1998555D01*
Y1999434D02*
Y2000129D01*
X1946200Y1935837D02*
Y1936210D01*
Y1941208D02*
Y1941442D01*
Y1942371D02*
Y1943067D01*
Y1998294D02*
Y1998529D01*
Y1999458D02*
Y2000154D01*
X1946300Y1935837D02*
Y1936210D01*
Y1941181D02*
Y1941415D01*
Y1942395D02*
Y1943093D01*
Y1998267D02*
Y1998502D01*
Y1999482D02*
Y2000179D01*
X1946400Y1935837D02*
Y1936210D01*
Y1941154D02*
Y1941389D01*
Y1942419D02*
Y1943118D01*
Y1998240D02*
Y1998475D01*
Y1999506D02*
Y2000205D01*
X1946500Y1935837D02*
Y1936210D01*
Y1941126D02*
Y1941362D01*
Y1942443D02*
Y1943144D01*
Y1998213D02*
Y1998449D01*
Y1999529D02*
Y2000230D01*
X1946600Y1935837D02*
Y1936210D01*
Y1941099D02*
Y1941335D01*
Y1942467D02*
Y1943169D01*
Y1998186D02*
Y1998422D01*
Y1999553D02*
Y2000256D01*
X1946700Y1935837D02*
Y1936210D01*
Y1941072D02*
Y1941309D01*
Y1942491D02*
Y1943195D01*
Y1998159D02*
Y1998395D01*
Y1999577D02*
Y2000281D01*
X1946800Y1935837D02*
Y1936210D01*
Y1941045D02*
Y1941282D01*
Y1942515D02*
Y1943220D01*
Y1998132D02*
Y1998369D01*
Y1999601D02*
Y2000307D01*
X1946900Y1933593D02*
Y1938454D01*
Y1941018D02*
Y1941255D01*
Y1942538D02*
Y1943245D01*
Y1990680D02*
Y1995659D01*
Y1998105D02*
Y1998342D01*
Y1999625D02*
Y2000332D01*
X1947000Y1933593D02*
Y1938454D01*
Y1940991D02*
Y1941229D01*
Y1942562D02*
Y1943271D01*
Y1990680D02*
Y1995659D01*
Y1998077D02*
Y1998315D01*
Y1999649D02*
Y2000357D01*
X1947100Y1933593D02*
Y1938454D01*
Y1940964D02*
Y1941202D01*
Y1942586D02*
Y1943296D01*
Y1990680D02*
Y1995659D01*
Y1998050D02*
Y1998289D01*
Y1999673D02*
Y2000383D01*
X1947200Y1933593D02*
Y1938454D01*
Y1940937D02*
Y1941175D01*
Y1942610D02*
Y1943322D01*
Y1990680D02*
Y1995659D01*
Y1998023D02*
Y1998262D01*
Y1999697D02*
Y2000408D01*
X1947300Y1935837D02*
Y1936210D01*
Y1940909D02*
Y1941149D01*
Y1942634D02*
Y1943347D01*
Y1997996D02*
Y1998235D01*
Y1999721D02*
Y2000434D01*
X1947400Y1935837D02*
Y1936210D01*
Y1940882D02*
Y1941122D01*
Y1942658D02*
Y1943373D01*
Y1997969D02*
Y1998209D01*
Y1999745D02*
Y2000459D01*
X1947500Y1935837D02*
Y1936210D01*
Y1940855D02*
Y1941095D01*
Y1942682D02*
Y1943398D01*
Y1997942D02*
Y1998182D01*
Y1999769D02*
Y2000485D01*
X1947600Y1935837D02*
Y1936210D01*
Y1940828D02*
Y1941069D01*
Y1942706D02*
Y1943423D01*
Y1997915D02*
Y1998155D01*
Y1999792D02*
Y2000510D01*
X1947700Y1935837D02*
Y1936210D01*
Y1940801D02*
Y1941042D01*
Y1942730D02*
Y1943449D01*
Y1997888D02*
Y1998129D01*
Y1999816D02*
Y2000535D01*
X1947800Y1935837D02*
Y1936210D01*
Y1940774D02*
Y1941015D01*
Y1942754D02*
Y1943474D01*
Y1997860D02*
Y1998102D01*
Y1999840D02*
Y2000561D01*
X1947900Y1935837D02*
Y1936210D01*
Y1940747D02*
Y1940989D01*
Y1942778D02*
Y1943500D01*
Y1997833D02*
Y1998075D01*
Y1999864D02*
Y2000586D01*
X1948000Y1935837D02*
Y1936210D01*
Y1940720D02*
Y1940962D01*
Y1942801D02*
Y1943525D01*
Y1997806D02*
Y1998049D01*
Y1999888D02*
Y2000612D01*
X1948100Y1935837D02*
Y1936210D01*
Y1940693D02*
Y1940935D01*
Y1942825D02*
Y1943551D01*
Y1997779D02*
Y1998022D01*
Y1999912D02*
Y2000637D01*
X1948200Y1935837D02*
Y1936210D01*
Y1940665D02*
Y1940909D01*
Y1942849D02*
Y1943576D01*
Y1997752D02*
Y1997995D01*
Y1999936D02*
Y2000663D01*
X1948300Y1935837D02*
Y1936210D01*
Y1940638D02*
Y1940882D01*
Y1942873D02*
Y1943601D01*
Y1997725D02*
Y1997969D01*
Y1999960D02*
Y2000688D01*
X1948400Y1935837D02*
Y1936210D01*
Y1940611D02*
Y1940855D01*
Y1942897D02*
Y1943627D01*
Y1997698D02*
Y1997942D01*
Y1999984D02*
Y2000713D01*
X1948500Y1935837D02*
Y1936210D01*
Y1940584D02*
Y1940829D01*
Y1942921D02*
Y1943652D01*
Y1997671D02*
Y1997915D01*
Y2000008D02*
Y2000739D01*
X1948600Y1935837D02*
Y1936210D01*
Y1940557D02*
Y1940802D01*
Y1942945D02*
Y1943678D01*
Y1997644D02*
Y1997889D01*
Y2000032D02*
Y2000764D01*
X1948700Y1935837D02*
Y1936210D01*
Y1940530D02*
Y1940775D01*
Y1942969D02*
Y1943703D01*
Y1997616D02*
Y1997862D01*
Y2000056D02*
Y2000790D01*
X1948800Y1935837D02*
Y1936210D01*
Y1940503D02*
Y1940749D01*
Y1942993D02*
Y1943728D01*
Y1997589D02*
Y1997835D01*
Y2000079D02*
Y2000815D01*
X1948900Y1935837D02*
Y1936210D01*
Y1940476D02*
Y1940722D01*
Y1943017D02*
Y1943754D01*
Y1997562D02*
Y1997809D01*
Y2000103D02*
Y2000841D01*
X1949000Y1935837D02*
Y1936210D01*
Y1940448D02*
Y1940695D01*
Y1943041D02*
Y1943779D01*
Y1997535D02*
Y1997782D01*
Y2000127D02*
Y2000866D01*
X1949100Y1935837D02*
Y1936210D01*
Y1940421D02*
Y1940669D01*
Y1943065D02*
Y1943805D01*
Y1997508D02*
Y1997755D01*
Y2000151D02*
Y2000891D01*
X1949200Y1935837D02*
Y1936210D01*
Y1940394D02*
Y1940642D01*
Y1943088D02*
Y1943830D01*
Y1997481D02*
Y1997729D01*
Y2000175D02*
Y2000917D01*
X1949300Y1935837D02*
Y1936210D01*
Y1940367D02*
Y1940615D01*
Y1943112D02*
Y1943856D01*
Y1997454D02*
Y1997702D01*
Y2000199D02*
Y2000942D01*
X1949400Y1935837D02*
Y1936210D01*
Y1940340D02*
Y1940589D01*
Y1943136D02*
Y1943881D01*
Y1997427D02*
Y1997675D01*
Y2000223D02*
Y2000968D01*
X1949500Y1935837D02*
Y1936210D01*
Y1940313D02*
Y1940562D01*
Y1943160D02*
Y1943906D01*
Y1997399D02*
Y1997649D01*
Y2000247D02*
Y2000993D01*
X1949600Y1935837D02*
Y1936210D01*
Y1940286D02*
Y1940535D01*
Y1943184D02*
Y1943932D01*
Y1997372D02*
Y1997622D01*
Y2000271D02*
Y2001018D01*
X1949700Y1935837D02*
Y1936210D01*
Y1940259D02*
Y1940509D01*
Y1943208D02*
Y1943957D01*
Y1997345D02*
Y1997595D01*
Y2000295D02*
Y2001044D01*
X1949800Y1935837D02*
Y1936210D01*
Y1940231D02*
Y1940482D01*
Y1943232D02*
Y1943983D01*
Y1997318D02*
Y1997569D01*
Y2000319D02*
Y2001069D01*
X1949900Y1940204D02*
Y1940462D01*
Y1943256D02*
Y1944008D01*
Y1997291D02*
Y1997548D01*
Y2000342D02*
Y2001095D01*
X1950000Y1940154D02*
Y1940462D01*
Y1943278D02*
Y1944033D01*
Y1997241D02*
Y1997548D01*
Y2000365D02*
Y2001120D01*
X1950100Y1940104D02*
Y1940462D01*
Y1943278D02*
Y1944058D01*
Y1997191D02*
Y1997548D01*
Y2000365D02*
Y2001145D01*
X1950200Y1940054D02*
Y1940462D01*
Y1943278D02*
Y1944083D01*
Y1997141D02*
Y1997548D01*
Y2000365D02*
Y2001170D01*
X1950300Y1940004D02*
Y1940462D01*
Y1943278D02*
Y1944108D01*
Y1997091D02*
Y1997548D01*
Y2000365D02*
Y2001195D01*
X1950400Y1939942D02*
Y1940491D01*
Y1943249D02*
Y1944153D01*
Y1997028D02*
Y1997578D01*
Y2000335D02*
Y2001239D01*
X1950500Y1939642D02*
Y1940791D01*
Y1943049D02*
Y1944452D01*
Y1996729D02*
Y1997877D01*
Y2000135D02*
Y2001539D01*
X1950600Y1939381D02*
Y1940934D01*
Y1942806D02*
Y1944714D01*
Y1996467D02*
Y1998021D01*
Y1999893D02*
Y2001800D01*
X1950700Y1939381D02*
Y1940934D01*
Y1942806D02*
Y1944714D01*
Y1996467D02*
Y1998021D01*
Y1999893D02*
Y2001800D01*
X1986900Y1932273D02*
Y1935480D01*
Y1940630D02*
Y1940793D01*
X1987000Y1932273D02*
Y1935480D01*
Y1939930D02*
Y1941293D01*
X1987100Y1932820D02*
Y1934857D01*
Y1939797D02*
Y1941696D01*
X1987200Y1933120D02*
Y1934571D01*
Y1939672D02*
Y1940055D01*
Y1941044D02*
Y1941815D01*
X1987300Y1933337D02*
Y1934416D01*
Y1939547D02*
Y1939955D01*
Y1941144D02*
Y1941882D01*
X1987400Y1933387D02*
Y1934376D01*
Y1939422D02*
Y1939855D01*
Y1941242D02*
Y1941948D01*
X1987500Y1933437D02*
Y1934336D01*
Y1939320D02*
Y1939755D01*
Y1941249D02*
Y1941998D01*
X1987600Y1933475D02*
Y1934296D01*
Y1939253D02*
Y1939690D01*
Y1941227D02*
Y1942031D01*
X1987700Y1933508D02*
Y1934256D01*
Y1939187D02*
Y1939630D01*
Y1941177D02*
Y1942064D01*
X1987800Y1933542D02*
Y1934216D01*
Y1939120D02*
Y1939570D01*
Y1941140D02*
Y1942085D01*
X1987900Y1933572D02*
Y1934180D01*
Y1939053D02*
Y1939510D01*
Y1941173D02*
Y1942051D01*
X1988000Y1933572D02*
Y1934180D01*
Y1938987D02*
Y1939450D01*
Y1941207D02*
Y1942018D01*
X1988100Y1933572D02*
Y1934180D01*
Y1938920D02*
Y1939390D01*
Y1941266D02*
Y1941972D01*
X1988200Y1933572D02*
Y1934180D01*
Y1938870D02*
Y1939368D01*
Y1941666D02*
Y1941672D01*
X1988300Y1933572D02*
Y1934180D01*
Y1938842D02*
Y1939353D01*
X1988400Y1933572D02*
Y1934180D01*
Y1938813D02*
Y1939339D01*
X1988500Y1933572D02*
Y1934180D01*
Y1938784D02*
Y1939325D01*
X1988600Y1933572D02*
Y1934180D01*
Y1938756D02*
Y1939310D01*
X1988700Y1933572D02*
Y1934180D01*
Y1938727D02*
Y1939296D01*
X1988800Y1933572D02*
Y1934180D01*
Y1938699D02*
Y1939282D01*
X1988900Y1933572D02*
Y1934180D01*
Y1938670D02*
Y1939268D01*
X1989000Y1933572D02*
Y1934180D01*
Y1938651D02*
Y1939259D01*
X1989100Y1933572D02*
Y1934180D01*
Y1938651D02*
Y1939259D01*
X1989200Y1933572D02*
Y1934180D01*
Y1938651D02*
Y1939259D01*
X1989300Y1933572D02*
Y1934180D01*
Y1938651D02*
Y1939259D01*
X1989400Y1933572D02*
Y1934180D01*
Y1938651D02*
Y1939259D01*
X1989500Y1933572D02*
Y1934180D01*
Y1938651D02*
Y1939259D01*
X1989600Y1933572D02*
Y1934180D01*
Y1938651D02*
Y1939259D01*
X1989700Y1933572D02*
Y1934180D01*
Y1938651D02*
Y1939259D01*
X1989800Y1933572D02*
Y1934180D01*
Y1938651D02*
Y1939259D01*
X1989900Y1933572D02*
Y1934180D01*
Y1938651D02*
Y1939259D01*
X1990000Y1933572D02*
Y1934180D01*
Y1938651D02*
Y1939259D01*
X1990100Y1933572D02*
Y1934180D01*
Y1938651D02*
Y1939259D01*
X1990200Y1933572D02*
Y1934180D01*
Y1938651D02*
Y1939259D01*
X1990300Y1933572D02*
Y1934180D01*
Y1938651D02*
Y1939259D01*
X1990400Y1933572D02*
Y1934180D01*
Y1938651D02*
Y1939259D01*
X1990500Y1933572D02*
Y1934180D01*
Y1938651D02*
Y1939259D01*
X1990600Y1933572D02*
Y1934180D01*
Y1938651D02*
Y1939259D01*
X1990700Y1933572D02*
Y1934180D01*
Y1938651D02*
Y1939259D01*
X1990800Y1933572D02*
Y1934180D01*
Y1938651D02*
Y1939259D01*
X1990900Y1933572D02*
Y1934180D01*
Y1938651D02*
Y1939259D01*
X1991000Y1933572D02*
Y1934180D01*
Y1938651D02*
Y1939259D01*
X1991100Y1933572D02*
Y1934180D01*
Y1938651D02*
Y1939259D01*
X1991200Y1933572D02*
Y1934180D01*
Y1938651D02*
Y1939259D01*
X1991300Y1933572D02*
Y1934180D01*
Y1938651D02*
Y1939259D01*
X1991400Y1933572D02*
Y1934180D01*
Y1938651D02*
Y1939259D01*
X1991500Y1933572D02*
Y1934180D01*
Y1938651D02*
Y1939259D01*
X1991600Y1933572D02*
Y1934180D01*
Y1938651D02*
Y1939259D01*
X1991700Y1933572D02*
Y1934180D01*
Y1938651D02*
Y1939259D01*
X1991800Y1933572D02*
Y1934180D01*
Y1938651D02*
Y1939259D01*
X1991900Y1933572D02*
Y1934180D01*
Y1938651D02*
Y1939259D01*
X1992000Y1933572D02*
Y1934180D01*
Y1938651D02*
Y1939259D01*
X1992100Y1933572D02*
Y1934180D01*
Y1938651D02*
Y1939259D01*
X1992200Y1933572D02*
Y1934180D01*
Y1938651D02*
Y1939259D01*
X1992300Y1933572D02*
Y1934180D01*
Y1938651D02*
Y1939259D01*
X1992400Y1933572D02*
Y1934180D01*
Y1938651D02*
Y1939259D01*
X1992500Y1933572D02*
Y1934180D01*
Y1938651D02*
Y1939259D01*
X1992600Y1933572D02*
Y1934180D01*
Y1938651D02*
Y1939259D01*
X1992700Y1933572D02*
Y1934180D01*
Y1938651D02*
Y1939259D01*
X1992800Y1933572D02*
Y1934180D01*
Y1938651D02*
Y1939259D01*
X1992900Y1933572D02*
Y1934180D01*
Y1938651D02*
Y1939259D01*
X1993000Y1933572D02*
Y1934180D01*
Y1938651D02*
Y1939259D01*
X1993100Y1933572D02*
Y1934180D01*
Y1938651D02*
Y1939259D01*
X1993200Y1933572D02*
Y1934180D01*
Y1938651D02*
Y1939259D01*
X1993300Y1933572D02*
Y1934180D01*
Y1938651D02*
Y1939259D01*
X1993400Y1933572D02*
Y1934180D01*
Y1938651D02*
Y1939259D01*
X1993500Y1933572D02*
Y1934200D01*
Y1938651D02*
Y1939259D01*
X1993600Y1933572D02*
Y1934250D01*
Y1938651D02*
Y1939259D01*
X1993700Y1933572D02*
Y1934300D01*
Y1938651D02*
Y1939259D01*
X1993800Y1933572D02*
Y1934532D01*
Y1938651D02*
Y1939259D01*
X1993900Y1933572D02*
Y1935480D01*
Y1938651D02*
Y1939288D01*
X1994000Y1933572D02*
Y1935480D01*
Y1938651D02*
Y1939322D01*
X1994100Y1933572D02*
Y1935480D01*
Y1938633D02*
Y1939355D01*
X1994200Y1933572D02*
Y1934440D01*
Y1938600D02*
Y1939377D01*
X1994300Y1933572D02*
Y1934136D01*
Y1938567D02*
Y1939383D01*
X1994400Y1933572D02*
Y1934036D01*
Y1938533D02*
Y1939640D01*
X1994500Y1933572D02*
Y1933936D01*
Y1937115D02*
Y1940795D01*
X1994600Y1933572D02*
Y1933836D01*
Y1937115D02*
Y1940795D01*
X1994700Y1933572D02*
Y1933736D01*
X1994800Y1933572D02*
Y1933636D01*
X1998100Y1938594D02*
Y1939417D01*
Y1943644D02*
Y1944218D01*
Y1946576D02*
Y1947506D01*
Y1950899D02*
Y1950989D01*
Y1958160D02*
Y1960344D01*
Y1961960D02*
Y1962903D01*
Y1964932D02*
Y1966092D01*
Y1967058D02*
Y1968218D01*
Y1968979D02*
Y1969300D01*
Y1970800D02*
Y1971434D01*
Y1973772D02*
Y1974714D01*
Y1977215D02*
Y1979556D01*
Y1981641D02*
Y1982781D01*
Y1989656D02*
Y1991840D01*
Y1993042D02*
Y1995226D01*
Y1996270D02*
Y1997509D01*
Y1998869D02*
Y1999950D01*
X1998200Y1938327D02*
Y1938843D01*
Y1939168D02*
Y1939643D01*
Y1943594D02*
Y1944243D01*
Y1946255D02*
Y1946619D01*
Y1947420D02*
Y1947706D01*
Y1950872D02*
Y1951015D01*
Y1958953D02*
Y1959630D01*
Y1961827D02*
Y1962131D01*
Y1962811D02*
Y1963194D01*
Y1965152D02*
Y1965793D01*
Y1967299D02*
Y1967976D01*
Y1968879D02*
Y1969595D01*
Y1970259D02*
Y1970646D01*
Y1971176D02*
Y1971601D01*
Y1973638D02*
Y1973942D01*
Y1974622D02*
Y1975005D01*
Y1978065D02*
Y1978706D01*
Y1981491D02*
Y1981756D01*
Y1982376D02*
Y1982981D01*
Y1990449D02*
Y1991126D01*
Y1993813D02*
Y1994454D01*
Y1996512D02*
Y1997374D01*
Y1999089D02*
Y1999709D01*
X1998300Y1938227D02*
Y1938564D01*
Y1939389D02*
Y1939776D01*
Y1943544D02*
Y1944268D01*
Y1946105D02*
Y1946432D01*
Y1947698D02*
Y1947906D01*
Y1950845D02*
Y1951040D01*
Y1959048D02*
Y1959534D01*
Y1961694D02*
Y1961871D01*
Y1963034D02*
Y1963344D01*
Y1965269D02*
Y1965676D01*
Y1967395D02*
Y1967881D01*
Y1968835D02*
Y1968995D01*
Y1969310D02*
Y1969645D01*
Y1970084D02*
Y1970296D01*
Y1971363D02*
Y1971768D01*
Y1973505D02*
Y1973682D01*
Y1974845D02*
Y1975155D01*
Y1978182D02*
Y1978589D01*
Y1981341D02*
Y1981533D01*
Y1982774D02*
Y1983181D01*
Y1990544D02*
Y1991030D01*
Y1993930D02*
Y1994337D01*
Y1996607D02*
Y1997224D01*
Y1999237D02*
Y1999613D01*
X1998400Y1938133D02*
Y1938487D01*
Y1939494D02*
Y1939899D01*
Y1943547D02*
Y1944266D01*
Y1945955D02*
Y1946332D01*
Y1947838D02*
Y1947995D01*
Y1950818D02*
Y1951066D01*
Y1959098D02*
Y1959484D01*
Y1961592D02*
Y1961687D01*
Y1963159D02*
Y1963494D01*
Y1965319D02*
Y1965626D01*
Y1967445D02*
Y1967831D01*
Y1968801D02*
Y1968854D01*
Y1969341D02*
Y1969695D01*
Y1969909D02*
Y1970120D01*
Y1971461D02*
Y1971873D01*
Y1973403D02*
Y1973498D01*
Y1974970D02*
Y1975305D01*
Y1978232D02*
Y1978539D01*
Y1981205D02*
Y1981408D01*
Y1982880D02*
Y1983290D01*
Y1990594D02*
Y1990980D01*
Y1993980D02*
Y1994287D01*
Y1996657D02*
Y1997194D01*
Y1999263D02*
Y1999563D01*
X1998500Y1938058D02*
Y1938420D01*
Y1939594D02*
Y1939974D01*
Y1943597D02*
Y1944241D01*
Y1945845D02*
Y1946232D01*
Y1947873D02*
Y1948075D01*
Y1950791D02*
Y1951091D01*
Y1959105D02*
Y1959478D01*
Y1961492D02*
Y1961587D01*
Y1963284D02*
Y1963614D01*
Y1965326D02*
Y1965619D01*
Y1967452D02*
Y1967824D01*
Y1968776D02*
Y1968832D01*
Y1969385D02*
Y1969945D01*
Y1971527D02*
Y1971973D01*
Y1973303D02*
Y1973398D01*
Y1975095D02*
Y1975425D01*
Y1978239D02*
Y1978533D01*
Y1981139D02*
Y1981283D01*
Y1982980D02*
Y1983390D01*
Y1990601D02*
Y1990974D01*
Y1993987D02*
Y1994281D01*
Y1996707D02*
Y1997194D01*
Y1999263D02*
Y1999513D01*
X1998600Y1937983D02*
Y1938354D01*
Y1939678D02*
Y1940049D01*
Y1943647D02*
Y1944216D01*
Y1945795D02*
Y1946156D01*
Y1947906D02*
Y1948155D01*
Y1950764D02*
Y1951117D01*
Y1959105D02*
Y1959478D01*
Y1961392D02*
Y1961487D01*
Y1963372D02*
Y1963685D01*
Y1965326D02*
Y1965619D01*
Y1967452D02*
Y1967824D01*
Y1968756D02*
Y1968812D01*
Y1969420D02*
Y1969770D01*
Y1971594D02*
Y1972020D01*
Y1973203D02*
Y1973298D01*
Y1975183D02*
Y1975496D01*
Y1978239D02*
Y1978533D01*
Y1981072D02*
Y1981182D01*
Y1983064D02*
Y1983490D01*
Y1990601D02*
Y1990974D01*
Y1993987D02*
Y1994281D01*
Y1996749D02*
Y1997194D01*
Y1999263D02*
Y1999472D01*
X1998700Y1937913D02*
Y1938287D01*
Y1939745D02*
Y1940118D01*
Y1943811D02*
Y1944063D01*
Y1945745D02*
Y1946106D01*
Y1947914D02*
Y1948229D01*
Y1950737D02*
Y1951142D01*
Y1959105D02*
Y1959478D01*
Y1961346D02*
Y1961421D01*
Y1963422D02*
Y1963757D01*
Y1965326D02*
Y1965619D01*
Y1967452D02*
Y1967824D01*
Y1968736D02*
Y1968792D01*
Y1969420D02*
Y1969714D01*
Y1971625D02*
Y1972045D01*
Y1973157D02*
Y1973232D01*
Y1975233D02*
Y1975568D01*
Y1978239D02*
Y1978533D01*
Y1981005D02*
Y1981102D01*
Y1983130D02*
Y1983555D01*
Y1990601D02*
Y1990974D01*
Y1993987D02*
Y1994281D01*
Y1996773D02*
Y1997202D01*
Y1999263D02*
Y1999446D01*
X1998800Y1937877D02*
Y1938221D01*
Y1939810D02*
Y1940155D01*
Y1945695D02*
Y1946056D01*
Y1947881D02*
Y1948269D01*
Y1950710D02*
Y1951167D01*
Y1959105D02*
Y1959478D01*
Y1961306D02*
Y1961371D01*
Y1963472D02*
Y1963828D01*
Y1965326D02*
Y1965619D01*
Y1967452D02*
Y1967824D01*
Y1969420D02*
Y1969714D01*
Y1971625D02*
Y1972070D01*
Y1973117D02*
Y1973182D01*
Y1975283D02*
Y1975639D01*
Y1978239D02*
Y1978533D01*
Y1980939D02*
Y1981022D01*
Y1983196D02*
Y1983615D01*
Y1990601D02*
Y1990974D01*
Y1993987D02*
Y1994281D01*
Y1996798D02*
Y1997225D01*
Y1999263D02*
Y1999421D01*
X1998900Y1937840D02*
Y1938201D01*
Y1939831D02*
Y1940191D01*
Y1945645D02*
Y1946006D01*
Y1947847D02*
Y1948309D01*
Y1950682D02*
Y1951193D01*
Y1959105D02*
Y1959478D01*
Y1961266D02*
Y1961321D01*
Y1963522D02*
Y1963900D01*
Y1965326D02*
Y1965619D01*
Y1967452D02*
Y1967824D01*
Y1969420D02*
Y1969714D01*
Y1971625D02*
Y1972064D01*
Y1973077D02*
Y1973132D01*
Y1975333D02*
Y1975711D01*
Y1978239D02*
Y1978533D01*
Y1980889D02*
Y1980942D01*
Y1983226D02*
Y1983675D01*
Y1990601D02*
Y1990974D01*
Y1993987D02*
Y1994281D01*
Y1996822D02*
Y1997249D01*
Y1999243D02*
Y1999395D01*
X1999000Y1937804D02*
Y1938181D01*
Y1939851D02*
Y1940227D01*
Y1945595D02*
Y1945956D01*
Y1947821D02*
Y1948349D01*
Y1950655D02*
Y1951218D01*
Y1959105D02*
Y1959478D01*
Y1963572D02*
Y1963968D01*
Y1965326D02*
Y1965619D01*
Y1967452D02*
Y1967824D01*
Y1969420D02*
Y1969714D01*
Y1971621D02*
Y1972050D01*
Y1975383D02*
Y1975779D01*
Y1978239D02*
Y1978533D01*
Y1980852D02*
Y1980886D01*
Y1983256D02*
Y1983735D01*
Y1990601D02*
Y1990974D01*
Y1993987D02*
Y1994281D01*
Y1996847D02*
Y1997272D01*
Y1999216D02*
Y1999370D01*
X1999100Y1937768D02*
Y1938161D01*
Y1939871D02*
Y1940264D01*
Y1945557D02*
Y1945928D01*
Y1947796D02*
Y1948347D01*
Y1950628D02*
Y1950751D01*
Y1950824D02*
Y1951244D01*
Y1959105D02*
Y1959478D01*
Y1963599D02*
Y1963978D01*
Y1965326D02*
Y1965619D01*
Y1967452D02*
Y1967824D01*
Y1969420D02*
Y1969714D01*
Y1971601D02*
Y1972035D01*
Y1975410D02*
Y1975789D01*
Y1978239D02*
Y1978533D01*
Y1980814D02*
Y1980858D01*
Y1983286D02*
Y1983775D01*
Y1990601D02*
Y1990974D01*
Y1993987D02*
Y1994281D01*
Y1996872D02*
Y1997296D01*
Y1999189D02*
Y1999344D01*
X1999200Y1937731D02*
Y1938141D01*
Y1939891D02*
Y1940300D01*
Y1945546D02*
Y1945916D01*
Y1947771D02*
Y1948297D01*
Y1950601D02*
Y1950718D01*
Y1950855D02*
Y1951269D01*
Y1959105D02*
Y1959478D01*
Y1963610D02*
Y1963988D01*
Y1965326D02*
Y1965619D01*
Y1967452D02*
Y1967824D01*
Y1969420D02*
Y1969714D01*
Y1971581D02*
Y1972021D01*
Y1975421D02*
Y1975799D01*
Y1978239D02*
Y1978533D01*
Y1980777D02*
Y1980829D01*
Y1983316D02*
Y1983815D01*
Y1990601D02*
Y1990974D01*
Y1993987D02*
Y1994281D01*
Y1996896D02*
Y1997319D01*
Y1999163D02*
Y1999319D01*
X1999300Y1937695D02*
Y1938121D01*
Y1939911D02*
Y1940336D01*
Y1945535D02*
Y1945903D01*
Y1947767D02*
Y1948247D01*
Y1950574D02*
Y1950691D01*
Y1950879D02*
Y1951295D01*
Y1959105D02*
Y1959478D01*
Y1963621D02*
Y1963998D01*
Y1965326D02*
Y1965619D01*
Y1967452D02*
Y1967824D01*
Y1969420D02*
Y1969714D01*
Y1971561D02*
Y1972007D01*
Y1975432D02*
Y1975809D01*
Y1978239D02*
Y1978533D01*
Y1980739D02*
Y1980800D01*
Y1983346D02*
Y1983855D01*
Y1990601D02*
Y1990974D01*
Y1993987D02*
Y1994281D01*
Y1996921D02*
Y1997343D01*
Y1999136D02*
Y1999294D01*
X1999400Y1937659D02*
Y1938101D01*
Y1939931D02*
Y1940373D01*
Y1945524D02*
Y1945891D01*
Y1947852D02*
Y1948096D01*
Y1950547D02*
Y1950665D01*
Y1950902D02*
Y1951320D01*
Y1959105D02*
Y1959478D01*
Y1963632D02*
Y1964008D01*
Y1965326D02*
Y1965619D01*
Y1967452D02*
Y1967824D01*
Y1969420D02*
Y1969714D01*
Y1971536D02*
Y1971947D01*
Y1975443D02*
Y1975819D01*
Y1978239D02*
Y1978533D01*
Y1980702D02*
Y1980772D01*
Y1983376D02*
Y1983890D01*
Y1990601D02*
Y1990974D01*
Y1993987D02*
Y1994281D01*
Y1996945D02*
Y1997367D01*
Y1999109D02*
Y1999268D01*
X1999500Y1937622D02*
Y1938081D01*
Y1939951D02*
Y1940409D01*
Y1945513D02*
Y1945878D01*
Y1950520D02*
Y1950638D01*
Y1950926D02*
Y1951345D01*
Y1959105D02*
Y1959478D01*
Y1963643D02*
Y1964018D01*
Y1965326D02*
Y1965619D01*
Y1967452D02*
Y1967824D01*
Y1969420D02*
Y1969714D01*
Y1971437D02*
Y1971847D01*
Y1975454D02*
Y1975829D01*
Y1978239D02*
Y1978533D01*
Y1983406D02*
Y1983903D01*
Y1990601D02*
Y1990974D01*
Y1993987D02*
Y1994281D01*
Y1996970D02*
Y1997390D01*
Y1999083D02*
Y1999243D01*
X1999600Y1937600D02*
Y1938061D01*
Y1939971D02*
Y1940432D01*
Y1945502D02*
Y1945866D01*
Y1950493D02*
Y1950611D01*
Y1950950D02*
Y1951371D01*
Y1959105D02*
Y1959478D01*
Y1963654D02*
Y1964028D01*
Y1965326D02*
Y1965619D01*
Y1967452D02*
Y1967824D01*
Y1969420D02*
Y1969714D01*
Y1971337D02*
Y1971747D01*
Y1975465D02*
Y1975839D01*
Y1978239D02*
Y1978533D01*
Y1983435D02*
Y1983915D01*
Y1990601D02*
Y1990974D01*
Y1993987D02*
Y1994281D01*
Y1996995D02*
Y1997414D01*
Y1999056D02*
Y1999217D01*
X1999700Y1937587D02*
Y1938053D01*
Y1939978D02*
Y1940445D01*
Y1945490D02*
Y1945857D01*
Y1950465D02*
Y1950585D01*
Y1950974D02*
Y1951396D01*
Y1959105D02*
Y1959478D01*
Y1963665D02*
Y1964038D01*
Y1965326D02*
Y1965619D01*
Y1967452D02*
Y1967824D01*
Y1969420D02*
Y1969714D01*
Y1971237D02*
Y1971647D01*
Y1975476D02*
Y1975849D01*
Y1978239D02*
Y1978533D01*
Y1983443D02*
Y1983928D01*
Y1990601D02*
Y1990974D01*
Y1993987D02*
Y1994281D01*
Y1997019D02*
Y1997437D01*
Y1999029D02*
Y1999192D01*
X1999800Y1937573D02*
Y1938046D01*
Y1939985D02*
Y1940458D01*
Y1945487D02*
Y1945871D01*
Y1950438D02*
Y1950558D01*
Y1950998D02*
Y1951422D01*
Y1959105D02*
Y1959478D01*
Y1963657D02*
Y1964040D01*
Y1965326D02*
Y1965619D01*
Y1967452D02*
Y1967824D01*
Y1969420D02*
Y1969714D01*
Y1970994D02*
Y1971469D01*
Y1975468D02*
Y1975851D01*
Y1978239D02*
Y1978533D01*
Y1983451D02*
Y1983940D01*
Y1990601D02*
Y1990974D01*
Y1993987D02*
Y1994281D01*
Y1997044D02*
Y1997461D01*
Y1999003D02*
Y1999166D01*
X1999900Y1937560D02*
Y1938039D01*
Y1939992D02*
Y1940472D01*
Y1945499D02*
Y1945886D01*
Y1950411D02*
Y1950531D01*
Y1951022D02*
Y1951447D01*
Y1959105D02*
Y1959478D01*
Y1961181D02*
Y1961608D01*
Y1963667D02*
Y1964029D01*
Y1965326D02*
Y1965619D01*
Y1967452D02*
Y1967824D01*
Y1969420D02*
Y1969714D01*
Y1970784D02*
Y1971257D01*
Y1972992D02*
Y1973419D01*
Y1975478D02*
Y1975840D01*
Y1978239D02*
Y1978533D01*
Y1983459D02*
Y1983953D01*
Y1990601D02*
Y1990974D01*
Y1993987D02*
Y1994281D01*
Y1997068D02*
Y1997484D01*
Y1998976D02*
Y1999141D01*
X2000000Y1937547D02*
Y1938032D01*
Y1940000D02*
Y1940485D01*
Y1945510D02*
Y1945900D01*
Y1950384D02*
Y1950505D01*
Y1951046D02*
Y1951472D01*
Y1959105D02*
Y1959478D01*
Y1961201D02*
Y1961604D01*
Y1963661D02*
Y1964018D01*
Y1965326D02*
Y1965619D01*
Y1967452D02*
Y1967824D01*
Y1969420D02*
Y1969714D01*
Y1970491D02*
Y1971007D01*
Y1973012D02*
Y1973415D01*
Y1975472D02*
Y1975829D01*
Y1978239D02*
Y1978533D01*
Y1983466D02*
Y1983965D01*
Y1990601D02*
Y1990974D01*
Y1993987D02*
Y1994281D01*
Y1997093D02*
Y1997508D01*
Y1998949D02*
Y1999116D01*
X2000100Y1937533D02*
Y1938025D01*
Y1940007D02*
Y1940498D01*
Y1945521D02*
Y1945914D01*
Y1950357D02*
Y1950478D01*
Y1951070D02*
Y1951498D01*
Y1959105D02*
Y1959478D01*
Y1961221D02*
Y1961604D01*
Y1963647D02*
Y1964007D01*
Y1965326D02*
Y1965619D01*
Y1967452D02*
Y1967824D01*
Y1969420D02*
Y1969719D01*
Y1969940D02*
Y1970443D01*
Y1973032D02*
Y1973415D01*
Y1975458D02*
Y1975818D01*
Y1978239D02*
Y1978533D01*
Y1983474D02*
Y1983966D01*
Y1990601D02*
Y1990974D01*
Y1993987D02*
Y1994281D01*
Y1997118D02*
Y1999090D01*
X2000200Y1937520D02*
Y1938018D01*
Y1940014D02*
Y1940512D01*
Y1945532D02*
Y1945929D01*
Y1950330D02*
Y1950451D01*
Y1951094D02*
Y1951523D01*
Y1959090D02*
Y1959478D01*
Y1961241D02*
Y1961604D01*
Y1963633D02*
Y1963996D01*
Y1965326D02*
Y1965619D01*
Y1967452D02*
Y1967824D01*
Y1969420D02*
Y1969729D01*
Y1973052D02*
Y1973415D01*
Y1975444D02*
Y1975807D01*
Y1978239D02*
Y1978533D01*
Y1983482D02*
Y1983966D01*
Y1990586D02*
Y1990974D01*
Y1993987D02*
Y1994281D01*
Y1997142D02*
Y1997518D01*
Y1998938D02*
Y1999065D01*
X2000300Y1937507D02*
Y1938011D01*
Y1940021D02*
Y1940525D01*
Y1945543D02*
Y1945953D01*
Y1950303D02*
Y1950425D01*
Y1951118D02*
Y1951549D01*
Y1959040D02*
Y1959478D01*
Y1961261D02*
Y1961604D01*
Y1963618D02*
Y1963985D01*
Y1965326D02*
Y1965619D01*
Y1967452D02*
Y1967824D01*
Y1969420D02*
Y1969714D01*
Y1973072D02*
Y1973415D01*
Y1975429D02*
Y1975796D01*
Y1978239D02*
Y1978533D01*
Y1983489D02*
Y1983966D01*
Y1990536D02*
Y1990974D01*
Y1993987D02*
Y1994281D01*
Y1997167D02*
Y1997542D01*
Y1998911D02*
Y1999039D01*
X2000400Y1937493D02*
Y1938003D01*
Y1940028D02*
Y1940538D01*
Y1945554D02*
Y1945986D01*
Y1950276D02*
Y1950398D01*
Y1951142D02*
Y1951574D01*
Y1958990D02*
Y1959478D01*
Y1961281D02*
Y1961604D01*
Y1963604D02*
Y1963973D01*
Y1965327D02*
Y1965619D01*
Y1967452D02*
Y1967824D01*
Y1969420D02*
Y1969714D01*
Y1973092D02*
Y1973415D01*
Y1975415D02*
Y1975785D01*
Y1978239D02*
Y1978533D01*
Y1983497D02*
Y1983966D01*
Y1990486D02*
Y1990974D01*
Y1993987D02*
Y1994281D01*
Y1997191D02*
Y1997566D01*
Y1998883D02*
Y1999014D01*
X2000500Y1937480D02*
Y1937996D01*
Y1940035D02*
Y1940552D01*
Y1945581D02*
Y1946019D01*
Y1950249D02*
Y1950371D01*
Y1951165D02*
Y1951600D01*
Y1958940D02*
Y1959478D01*
Y1961301D02*
Y1961604D01*
Y1963585D02*
Y1963935D01*
Y1965344D02*
Y1965619D01*
Y1967452D02*
Y1967824D01*
Y1969420D02*
Y1969714D01*
Y1973112D02*
Y1973415D01*
Y1975396D02*
Y1975746D01*
Y1978239D02*
Y1978533D01*
Y1983505D02*
Y1983966D01*
Y1990436D02*
Y1990974D01*
Y1993987D02*
Y1994281D01*
Y1997216D02*
Y1997591D01*
Y1998856D02*
Y1998989D01*
X2000600Y1937467D02*
Y1937989D01*
Y1940042D02*
Y1940565D01*
Y1945631D02*
Y1946053D01*
Y1947841D02*
Y1948132D01*
Y1950221D02*
Y1950345D01*
Y1951189D02*
Y1951625D01*
Y1958890D02*
Y1958952D01*
Y1959105D02*
Y1959478D01*
Y1961345D02*
Y1961625D01*
Y1963535D02*
Y1963863D01*
Y1965361D02*
Y1965630D01*
Y1967423D02*
Y1967824D01*
Y1969420D02*
Y1969714D01*
Y1971467D02*
Y1971853D01*
Y1973156D02*
Y1973436D01*
Y1975346D02*
Y1975674D01*
Y1978239D02*
Y1978533D01*
Y1983512D02*
Y1983966D01*
Y1990386D02*
Y1990448D01*
Y1990601D02*
Y1990974D01*
Y1993987D02*
Y1994281D01*
Y1997240D02*
Y1997615D01*
Y1998829D02*
Y1998963D01*
X2000700Y1937453D02*
Y1937982D01*
Y1940050D02*
Y1940578D01*
Y1945681D02*
Y1946086D01*
Y1947766D02*
Y1948126D01*
Y1950194D02*
Y1950318D01*
Y1951213D02*
Y1951650D01*
Y1953121D02*
Y1956407D01*
Y1958811D02*
Y1958872D01*
Y1959105D02*
Y1959478D01*
Y1961402D02*
Y1961685D01*
Y1963485D02*
Y1963792D01*
Y1965377D02*
Y1965655D01*
Y1967323D02*
Y1967824D01*
Y1969420D02*
Y1969732D01*
Y1971467D02*
Y1971887D01*
Y1973213D02*
Y1973496D01*
Y1975296D02*
Y1975603D01*
Y1978239D02*
Y1978533D01*
Y1983509D02*
Y1983960D01*
Y1990307D02*
Y1990368D01*
Y1990601D02*
Y1990974D01*
Y1993987D02*
Y1994281D01*
Y1997265D02*
Y1997639D01*
Y1998802D02*
Y1998938D01*
X2000800Y1937465D02*
Y1937989D01*
Y1940043D02*
Y1940565D01*
Y1945731D02*
Y1946162D01*
Y1947691D02*
Y1947869D01*
Y1948002D02*
Y1948121D01*
Y1950167D02*
Y1950291D01*
Y1951237D02*
Y1951676D01*
Y1953121D02*
Y1956407D01*
Y1957286D02*
Y1957472D01*
Y1958686D02*
Y1958792D01*
Y1959105D02*
Y1959478D01*
Y1961460D02*
Y1961745D01*
Y1963435D02*
Y1963720D01*
Y1965394D02*
Y1965680D01*
Y1967223D02*
Y1967824D01*
Y1969420D02*
Y1969760D01*
Y1971467D02*
Y1971900D01*
Y1973271D02*
Y1973556D01*
Y1975246D02*
Y1975531D01*
Y1978239D02*
Y1978533D01*
Y1983501D02*
Y1983953D01*
Y1988782D02*
Y1988969D01*
Y1990182D02*
Y1990288D01*
Y1990601D02*
Y1990974D01*
Y1993987D02*
Y1994281D01*
Y1997290D02*
Y1997663D01*
Y1998774D02*
Y1998912D01*
X2000900Y1937479D02*
Y1937997D01*
Y1940034D02*
Y1940550D01*
Y1945781D02*
Y1946262D01*
Y1947559D02*
Y1947769D01*
Y1947994D02*
Y1948115D01*
Y1950140D02*
Y1950265D01*
Y1951261D02*
Y1951701D01*
Y1957189D02*
Y1957536D01*
Y1958561D02*
Y1958712D01*
Y1959105D02*
Y1959478D01*
Y1961517D02*
Y1961805D01*
Y1963385D02*
Y1963649D01*
Y1965422D02*
Y1965707D01*
Y1967123D02*
Y1967380D01*
Y1967424D02*
Y1967824D01*
Y1969420D02*
Y1969789D01*
Y1971467D02*
Y1971833D01*
Y1973328D02*
Y1973616D01*
Y1975196D02*
Y1975460D01*
Y1978239D02*
Y1978533D01*
Y1983492D02*
Y1983945D01*
Y1988685D02*
Y1989032D01*
Y1990057D02*
Y1990208D01*
Y1990601D02*
Y1990974D01*
Y1993987D02*
Y1994281D01*
Y1997314D02*
Y1997688D01*
Y1998747D02*
Y1998887D01*
X2001000Y1937494D02*
Y1938006D01*
Y1940026D02*
Y1940535D01*
Y1945921D02*
Y1946362D01*
Y1947391D02*
Y1947669D01*
Y1947987D02*
Y1948110D01*
Y1950113D02*
Y1950238D01*
Y1951285D02*
Y1951727D01*
Y1957164D02*
Y1957561D01*
Y1958435D02*
Y1958614D01*
Y1959105D02*
Y1959478D01*
Y1961574D02*
Y1961874D01*
Y1963317D02*
Y1963572D01*
Y1965462D02*
Y1965740D01*
Y1967023D02*
Y1967238D01*
Y1967452D02*
Y1967824D01*
Y1969420D02*
Y1969818D01*
Y1971467D02*
Y1971764D01*
Y1973385D02*
Y1973685D01*
Y1975128D02*
Y1975383D01*
Y1978239D02*
Y1978533D01*
Y1983484D02*
Y1983937D01*
Y1988660D02*
Y1989057D01*
Y1989931D02*
Y1990110D01*
Y1990601D02*
Y1990974D01*
Y1993987D02*
Y1994281D01*
Y1997339D02*
Y1997712D01*
Y1998720D02*
Y1998861D01*
X2001100Y1937508D02*
Y1938014D01*
Y1940018D02*
Y1940519D01*
Y1946071D02*
Y1946584D01*
Y1947041D02*
Y1947558D01*
Y1947979D02*
Y1948104D01*
Y1950086D02*
Y1950211D01*
Y1951309D02*
Y1951752D01*
Y1957139D02*
Y1957586D01*
Y1958302D02*
Y1958514D01*
Y1959105D02*
Y1959510D01*
Y1961661D02*
Y1961974D01*
Y1963184D02*
Y1963452D01*
Y1965502D02*
Y1965773D01*
Y1966923D02*
Y1967098D01*
Y1967452D02*
Y1967824D01*
Y1969517D02*
Y1969846D01*
Y1971412D02*
Y1971664D01*
Y1973472D02*
Y1973785D01*
Y1974995D02*
Y1975263D01*
Y1978239D02*
Y1978533D01*
Y1983476D02*
Y1983929D01*
Y1988635D02*
Y1989082D01*
Y1989798D02*
Y1990010D01*
Y1990601D02*
Y1991006D01*
Y1993987D02*
Y1994313D01*
Y1997363D02*
Y1997736D01*
Y1998692D02*
Y1998836D01*
X2001200Y1937522D02*
Y1938022D01*
Y1940009D02*
Y1940504D01*
Y1946221D02*
Y1947424D01*
Y1947971D02*
Y1948098D01*
Y1950059D02*
Y1950185D01*
Y1951333D02*
Y1951778D01*
Y1957137D02*
Y1957588D01*
Y1958168D02*
Y1958414D01*
Y1959105D02*
Y1959560D01*
Y1961811D02*
Y1962074D01*
Y1963050D02*
Y1963332D01*
Y1965542D02*
Y1965883D01*
Y1966794D02*
Y1966958D01*
Y1967452D02*
Y1967824D01*
Y1969617D02*
Y1969875D01*
Y1971312D02*
Y1971564D01*
Y1973622D02*
Y1973885D01*
Y1974861D02*
Y1975143D01*
Y1978239D02*
Y1978533D01*
Y1983467D02*
Y1983922D01*
Y1988633D02*
Y1989084D01*
Y1989664D02*
Y1989910D01*
Y1990601D02*
Y1991056D01*
Y1993987D02*
Y1994363D01*
Y1997388D02*
Y1997760D01*
Y1998665D02*
Y1998811D01*
X2001300Y1937537D02*
Y1938031D01*
Y1940001D02*
Y1940488D01*
Y1946499D02*
Y1947228D01*
Y1947963D02*
Y1948093D01*
Y1950032D02*
Y1950158D01*
Y1951357D02*
Y1951803D01*
Y1957197D02*
Y1957608D01*
Y1957912D02*
Y1958288D01*
Y1959105D02*
Y1959732D01*
Y1961961D02*
Y1962175D01*
Y1962830D02*
Y1963212D01*
Y1965649D02*
Y1966033D01*
Y1966644D02*
Y1966803D01*
Y1967452D02*
Y1967844D01*
Y1969770D02*
Y1970120D01*
Y1971134D02*
Y1971383D01*
Y1973772D02*
Y1973986D01*
Y1974641D02*
Y1975023D01*
Y1978239D02*
Y1978533D01*
Y1983459D02*
Y1983914D01*
Y1988694D02*
Y1989104D01*
Y1989408D02*
Y1989784D01*
Y1990601D02*
Y1991228D01*
Y1993987D02*
Y1994608D01*
Y1997413D02*
Y1997785D01*
Y1998638D02*
Y1998785D01*
X2001400Y1937551D02*
Y1938039D01*
Y1939993D02*
Y1940473D01*
Y1947956D02*
Y1948087D01*
Y1950004D02*
Y1950131D01*
Y1951381D02*
Y1951828D01*
Y1957444D02*
Y1958155D01*
Y1959105D02*
Y1960344D01*
Y1962280D02*
Y1962917D01*
Y1965782D02*
Y1966453D01*
Y1967452D02*
Y1968218D01*
Y1969937D02*
Y1971183D01*
Y1974091D02*
Y1974728D01*
Y1978239D02*
Y1978533D01*
Y1983451D02*
Y1983906D01*
Y1988940D02*
Y1989651D01*
Y1990601D02*
Y1991840D01*
Y1993987D02*
Y1995226D01*
Y1997437D02*
Y1997809D01*
Y1998611D02*
Y1998760D01*
X2001500Y1937565D02*
Y1938047D01*
Y1939984D02*
Y1940458D01*
Y1947948D02*
Y1948082D01*
Y1949977D02*
Y1950105D01*
Y1951405D02*
Y1951854D01*
Y1959105D02*
Y1959462D01*
Y1967452D02*
Y1967620D01*
Y1978239D02*
Y1978533D01*
Y1983442D02*
Y1983899D01*
Y1990601D02*
Y1990958D01*
Y1993987D02*
Y1994240D01*
Y1997462D02*
Y1997833D01*
Y1998583D02*
Y1998734D01*
X2001600Y1937579D02*
Y1938056D01*
Y1939976D02*
Y1940442D01*
Y1947940D02*
Y1948076D01*
Y1949950D02*
Y1950078D01*
Y1951429D02*
Y1951879D01*
Y1959105D02*
Y1959212D01*
Y1967452D02*
Y1967470D01*
Y1978239D02*
Y1978533D01*
Y1983430D02*
Y1983891D01*
Y1990601D02*
Y1990708D01*
Y1997486D02*
Y1997857D01*
Y1998556D02*
Y1998709D01*
X2001700Y1937594D02*
Y1938069D01*
Y1939963D02*
Y1940427D01*
Y1947933D02*
Y1948071D01*
Y1949923D02*
Y1950051D01*
Y1951452D02*
Y1951905D01*
Y1978239D02*
Y1978533D01*
Y1983390D02*
Y1983855D01*
Y1997511D02*
Y1997882D01*
Y1998529D02*
Y1998683D01*
X2001800Y1937608D02*
Y1938089D01*
Y1939943D02*
Y1940395D01*
Y1947925D02*
Y1948065D01*
Y1949896D02*
Y1950025D01*
Y1951476D02*
Y1951930D01*
Y1978239D02*
Y1978533D01*
Y1983350D02*
Y1983800D01*
Y1997536D02*
Y1997906D01*
Y1998502D02*
Y1998658D01*
X2001900Y1937648D02*
Y1938109D01*
Y1939923D02*
Y1940358D01*
Y1947917D02*
Y1948060D01*
Y1949869D02*
Y1949998D01*
Y1951500D02*
Y1951956D01*
Y1978239D02*
Y1978533D01*
Y1983310D02*
Y1983746D01*
Y1997560D02*
Y1997930D01*
Y1998474D02*
Y1998633D01*
X2002000Y1937688D02*
Y1938129D01*
Y1939903D02*
Y1940322D01*
Y1947910D02*
Y1948054D01*
Y1949842D02*
Y1949971D01*
Y1951524D02*
Y1951981D01*
Y1978239D02*
Y1978533D01*
Y1980686D02*
Y1980780D01*
Y1983270D02*
Y1983691D01*
Y1997585D02*
Y1997954D01*
Y1998447D02*
Y1998607D01*
X2002100Y1937728D02*
Y1938149D01*
Y1939883D02*
Y1940286D01*
Y1947902D02*
Y1948048D01*
Y1949815D02*
Y1949945D01*
Y1951548D02*
Y1952006D01*
Y1978239D02*
Y1978533D01*
Y1980704D02*
Y1980823D01*
Y1983230D02*
Y1983637D01*
Y1997609D02*
Y1997979D01*
Y1998420D02*
Y1998582D01*
X2002200Y1937768D02*
Y1938169D01*
Y1939863D02*
Y1940249D01*
Y1947894D02*
Y1948043D01*
Y1949788D02*
Y1949918D01*
Y1951572D02*
Y1952032D01*
Y1978239D02*
Y1978533D01*
Y1980722D02*
Y1980866D01*
Y1983190D02*
Y1983582D01*
Y1997634D02*
Y1998003D01*
Y1998392D02*
Y1998556D01*
X2002300Y1937808D02*
Y1938189D01*
Y1939843D02*
Y1940213D01*
Y1947887D02*
Y1948037D01*
Y1949760D02*
Y1949891D01*
Y1951596D02*
Y1952057D01*
Y1978239D02*
Y1978533D01*
Y1980739D02*
Y1980909D01*
Y1983150D02*
Y1983527D01*
Y1997658D02*
Y1998027D01*
Y1998365D02*
Y1998531D01*
X2002400Y1937848D02*
Y1938209D01*
Y1939823D02*
Y1940176D01*
Y1947879D02*
Y1948032D01*
Y1949733D02*
Y1949865D01*
Y1951620D02*
Y1952083D01*
Y1978239D02*
Y1978533D01*
Y1980757D02*
Y1980952D01*
Y1983108D02*
Y1983473D01*
Y1997683D02*
Y1998051D01*
Y1998338D02*
Y1998505D01*
X2002500Y1937888D02*
Y1938241D01*
Y1939790D02*
Y1940140D01*
Y1947871D02*
Y1948026D01*
Y1949706D02*
Y1949838D01*
Y1951644D02*
Y1952108D01*
Y1978239D02*
Y1978533D01*
Y1980774D02*
Y1981005D01*
Y1983058D02*
Y1983418D01*
Y1997708D02*
Y1998075D01*
Y1998311D02*
Y1998480D01*
X2002600Y1937938D02*
Y1938291D01*
Y1939740D02*
Y1940094D01*
Y1947863D02*
Y1948021D01*
Y1949679D02*
Y1949811D01*
Y1951668D02*
Y1952134D01*
Y1978239D02*
Y1978533D01*
Y1980792D02*
Y1981080D01*
Y1983008D02*
Y1983358D01*
Y1993979D02*
Y1994210D01*
Y1997732D02*
Y1998100D01*
Y1998283D02*
Y1998455D01*
X2002700Y1938013D02*
Y1938341D01*
Y1939690D02*
Y1940019D01*
Y1947856D02*
Y1948015D01*
Y1949651D02*
Y1949793D01*
Y1951692D02*
Y1952159D01*
Y1978239D02*
Y1978533D01*
Y1980810D02*
Y1981155D01*
Y1982958D02*
Y1983298D01*
Y1993806D02*
Y1994404D01*
Y1997757D02*
Y1998124D01*
Y1998256D02*
Y1998429D01*
X2002800Y1938088D02*
Y1938399D01*
Y1939630D02*
Y1939944D01*
Y1947848D02*
Y1948010D01*
Y1949601D02*
Y1949793D01*
Y1951704D02*
Y1952184D01*
Y1978239D02*
Y1978533D01*
Y1980827D02*
Y1981236D01*
Y1982861D02*
Y1983238D01*
Y1993781D02*
Y1994454D01*
Y1997781D02*
Y1998165D01*
Y1998213D02*
Y1998404D01*
X2002900Y1938168D02*
Y1938499D01*
Y1939480D02*
Y1939864D01*
Y1945630D02*
Y1948004D01*
Y1949551D02*
Y1949793D01*
Y1951704D02*
Y1952209D01*
Y1978239D02*
Y1978552D01*
Y1980845D02*
Y1981403D01*
Y1982761D02*
Y1983153D01*
Y1993756D02*
Y1994504D01*
Y1997806D02*
Y1998378D01*
X2003000Y1938268D02*
Y1938599D01*
Y1939354D02*
Y1939764D01*
Y1945614D02*
Y1947998D01*
Y1949501D02*
Y1949793D01*
Y1951703D02*
Y1952234D01*
Y1978239D02*
Y1978585D01*
Y1980863D02*
Y1981569D01*
Y1982637D02*
Y1982987D01*
Y1993774D02*
Y1994468D01*
Y1997831D02*
Y1998353D01*
X2003100Y1938368D02*
Y1938699D01*
Y1939254D02*
Y1939664D01*
Y1945597D02*
Y1947993D01*
Y1949283D02*
Y1950008D01*
Y1951550D02*
Y1952449D01*
Y1978239D02*
Y1978621D01*
Y1980880D02*
Y1981254D01*
Y1981266D02*
Y1981997D01*
Y1982487D02*
Y1982820D01*
Y1993799D02*
Y1994418D01*
Y1997855D02*
Y1998327D01*
X2003200Y1938559D02*
Y1939472D01*
Y1945580D02*
Y1947987D01*
Y1949105D02*
Y1950107D01*
Y1951389D02*
Y1952627D01*
Y1978239D02*
Y1979478D01*
Y1980898D02*
Y1980969D01*
Y1981709D02*
Y1982574D01*
Y1993835D02*
Y1994354D01*
Y1997880D02*
Y1998273D01*
X2003300Y1938839D02*
Y1939151D01*
Y1978239D02*
Y1978564D01*
Y1994035D02*
Y1994154D01*
Y1997904D02*
Y1997973D01*
X2003400Y1978239D02*
Y1978364D01*
*
G04 PC Custom Flashes*
G04 Layer Name Jupiter 净化器主板-2021 - flashes*
%LPD*%
*
*
G04 PC Circuitry*
G04 Layer Name Jupiter 净化器主板-2021 - circuitry*
%LPD*%
*
G54D10*
G54D16*
X1966142Y1942913D02*
X1956299D01*
Y1994094*
X1966142*
Y1938976D02*
X1960236D01*
Y1942913*
Y1994094D02*
Y1998031D01*
X1966142*
X1956299Y1946850D02*
X1952362D01*
Y1990157*
X1956299*
X1960236Y1950787D02*
Y1986220D01*
X1968110*
Y1950787*
X1960236*
X1968110Y1952756D02*
X1970079D01*
Y1956693*
X1968110*
Y1962598D02*
X1970079D01*
Y1966535*
X1968110*
Y1970472D02*
X1970079D01*
Y1974409*
X1968110*
Y1980315D02*
X1970079D01*
Y1984252*
X1968110*
X1981890Y1942913D02*
X1983858D01*
Y1994094*
X1981890*
X1983858Y1944882D02*
X1987795D01*
Y1990157*
X1983858*
X1979921Y1952756D02*
Y1956693D01*
X1983858*
Y1952756*
X1979921*
Y1980315D02*
Y1984252D01*
X1983858*
Y1980315*
X1979921*
X1907480Y1931102D02*
X2029528D01*
Y2005906*
X1907480*
Y1931102*
X2026378Y1996063D02*
G75*
G03X2026378I-6693J0D01*
G01X1924016D02*
G03X1924016I-6693J0D01*
G01Y1940945D02*
G03X1924016I-6693J0D01*
G01X2026378D02*
G03X2026378I-6693J0D01*
G54D20*
G74*
G01X0Y0D02*
M02*
