*
*
G04 PADS 9.5 Build Number: 522968 generated Gerber (RS-274-X) file*
G04 PC Version=2.1*
*
%IN "Jupiter 净化器主板-2021"*%
*
%MOIN*%
*
%FSLAX35Y35*%
*
*
*
*
G04 PC Standard Apertures*
*
*
G04 Thermal Relief Aperture macro.*
%AMTER*
1,1,$1,0,0*
1,0,$1-$2,0,0*
21,0,$3,$4,0,0,45*
21,0,$3,$4,0,0,135*
%
*
*
G04 Annular Aperture macro.*
%AMANN*
1,1,$1,0,0*
1,0,$2,0,0*
%
*
*
G04 Odd Aperture macro.*
%AMODD*
1,1,$1,0,0*
1,0,$1-0.005,0,0*
%
*
*
G04 PC Custom Aperture Macros*
*
*
*
*
*
*
G04 PC Aperture Table*
*
%ADD010C,0.001*%
%ADD011R,0.08X0.065*%
%ADD012O,0.08X0.065*%
%ADD013R,0.06299X0.06299*%
%ADD016C,0.01*%
%ADD017C,0.05906*%
%ADD018C,0.07874*%
%ADD026O,0.1378X0.08661*%
%ADD029O,0.06299X0.04724*%
*
*
*
*
G04 PC Circuitry*
G04 Layer Name Jupiter 净化器主板-2021 - circuitry*
%LPD*%
*
*
G04 PC Custom Flashes*
G04 Layer Name Jupiter 净化器主板-2021 - flashes*
%LPD*%
*
*
G04 PC Circuitry*
G04 Layer Name Jupiter 净化器主板-2021 - circuitry*
%LPD*%
*
G54D10*
G54D11*
G01X1944882Y1974409D03*
G54D12*
Y1964409D03*
G54D13*
X1964173Y1954724D03*
G54D16*
X2028028Y1951075D02*
Y1985933D01*
G75*
G03X2027221Y1986328I-500J-0D01*
G01X2009950Y2003599D02*
G03X2027221Y1986328I9735J-7536D01*
G01X2009950Y2003599D02*
G03X2009555Y2004405I-395J306D01*
G01X1927453*
G03X1927058Y2003599I-0J-500*
G01X1909786Y1986328D02*
G03X1927058Y2003599I7537J9735D01*
G01X1909786Y1986328D02*
G03X1908980Y1985933I-306J-395D01*
G01Y1951075*
G03X1909786Y1950680I500J-0*
G01X1927058Y1933408D02*
G03X1909786Y1950680I-9735J7537D01*
G01X1927058Y1933408D02*
G03X1927453Y1932602I395J-306D01*
G01X2009555*
G03X2009950Y1933408I-0J500*
G01X2027221Y1950680D02*
G03X2009950Y1933408I-7536J-9735D01*
G01X2027221Y1950680D02*
G03X2028028Y1951075I307J395D01*
G01X1968823Y1957874D02*
Y1951575D01*
X1967323Y1950075D02*
G03X1968823Y1951575I-0J1500D01*
G01X1967323Y1950075D02*
X1961024D01*
X1960375Y1950222D02*
G03X1961024Y1950075I649J1353D01*
G01X1960375Y1950222D02*
G03X1960158Y1950272I-217J-450D01*
G01X1954567*
X1951418Y1951576D02*
G03X1954567Y1950272I3149J3148D01*
G01X1951418Y1951576D02*
X1943359Y1959635D01*
G03X1943113Y1959770I-354J-353*
G01X1944132Y1969159D02*
G03X1943113Y1959770I-0J-4750D01*
G01X1944132Y1969159D02*
X1945632D01*
X1950271Y1965429D02*
G03X1945632Y1969159I-4639J-1020D01*
G01X1950271Y1965429D02*
G03X1950406Y1965182I489J107D01*
G01X1956265Y1959324*
G03X1956618Y1959177I353J353*
G01X1960158*
G03X1960375Y1959226I0J500*
G01X1961024Y1959374D02*
G03X1960375Y1959226I-0J-1500D01*
G01X1961024Y1959374D02*
X1967323D01*
X1968823Y1957874D02*
G03X1967323Y1959374I-1500J0D01*
G01X1966624Y1968955D02*
G03X1964961Y1976303I-1663J3486D01*
G01X1966624Y1968955D02*
G03Y1968053I215J-451D01*
G01X1964961Y1960705D02*
G03X1966624Y1968053I-0J3862D01*
G01X1964961Y1960705D02*
X1963386D01*
X1961723Y1968053D02*
G03X1963386Y1960705I1663J-3486D01*
G01X1961723Y1968053D02*
G03Y1968955I-216J451D01*
G01X1963386Y1976303D02*
G03X1961723Y1968955I-0J-3862D01*
G01X1963386Y1976303D02*
X1964961D01*
X2026333Y1985701D02*
X2028028D01*
X2024658Y1984801D02*
X2028028D01*
X2021595Y1983901D02*
X2028028D01*
X1908980Y1983001D02*
X2028028D01*
X1908980Y1982101D02*
X2028028D01*
X1908980Y1981201D02*
X2028028D01*
X1908980Y1980301D02*
X2028028D01*
X1908980Y1979401D02*
X2028028D01*
X1908980Y1978501D02*
X2028028D01*
X1908980Y1977601D02*
X2028028D01*
X1908980Y1976701D02*
X2028028D01*
X1966865Y1975801D02*
X2028028D01*
X1967938Y1974901D02*
X2028028D01*
X1968494Y1974001D02*
X2028028D01*
X1968766Y1973101D02*
X2028028D01*
X1968815Y1972201D02*
X2028028D01*
X1968651Y1971301D02*
X2028028D01*
X1968240Y1970401D02*
X2028028D01*
X1967465Y1969501D02*
X2028028D01*
X1966349Y1968601D02*
X2028028D01*
X1967218Y1967701D02*
X2028028D01*
X1968111Y1966801D02*
X2028028D01*
X1968585Y1965901D02*
X2028028D01*
X1968798Y1965001D02*
X2028028D01*
X1968795Y1964101D02*
X2028028D01*
X1968573Y1963201D02*
X2028028D01*
X1968088Y1962301D02*
X2028028D01*
X1967173Y1961401D02*
X2028028D01*
X1955087Y1960501D02*
X2028028D01*
X1955987Y1959601D02*
X2028028D01*
X1968574Y1958701D02*
X2028028D01*
X1968823Y1957801D02*
X2028028D01*
X1968823Y1956901D02*
X2028028D01*
X1968823Y1956001D02*
X2028028D01*
X1968823Y1955101D02*
X2028028D01*
X1968823Y1954201D02*
X2028028D01*
X1968823Y1953301D02*
X2028028D01*
X2024193Y1952401D02*
X2028028D01*
X2026020Y1951501D02*
X2028028D01*
X2027368Y1950601D02*
X2027687D01*
X1919233Y1983901D02*
X2017775D01*
X1968823Y1952401D02*
X2015178D01*
X1922296Y1984801D02*
X2014712D01*
X1968821Y1951501D02*
X2013350D01*
X1923971Y1985701D02*
X2013037D01*
X1968464Y1950601D02*
X2012048D01*
X1925199Y1986601D02*
X2011809D01*
X1925977Y1949701D02*
X2011031D01*
X1926169Y1987501D02*
X2010839D01*
X1926801Y1948801D02*
X2010207D01*
X1926959Y1988401D02*
X2010049D01*
X1926997Y2003701D02*
X2010011D01*
X1927129Y1933501D02*
X2009879D01*
X1927480Y1947901D02*
X2009528D01*
X1927611Y1989301D02*
X2009397D01*
X1927626Y2002801D02*
X2009382D01*
X1927751Y1934401D02*
X2009257D01*
X1928041Y1947001D02*
X2008967D01*
X1928149Y1990201D02*
X2008859D01*
X1928162Y2001901D02*
X2008846D01*
X1928264Y1935301D02*
X2008744D01*
X1928502Y1946101D02*
X2008506D01*
X1928590Y1991101D02*
X2008418D01*
X1928600Y2001001D02*
X2008408D01*
X1928683Y1936201D02*
X2008325D01*
X1928875Y1945201D02*
X2008133D01*
X1928944Y1992001D02*
X2008063D01*
X1928953Y2000101D02*
X2008055D01*
X1929018Y1937101D02*
X2007989D01*
X1929168Y1944301D02*
X2007840D01*
X1929221Y1992901D02*
X2007787D01*
X1929227Y1999201D02*
X2007781D01*
X1929277Y1938001D02*
X2007731D01*
X1929386Y1943401D02*
X2007622D01*
X1929424Y1993801D02*
X2007584D01*
X1929429Y1998301D02*
X2007579D01*
X1929463Y1938901D02*
X2007545D01*
X1929535Y1942501D02*
X2007473D01*
X1929558Y1994701D02*
X2007450D01*
X1929561Y1997401D02*
X2007447D01*
X1929581Y1939801D02*
X2007427D01*
X1929616Y1941601D02*
X2007391D01*
X1929625Y1995601D02*
X2007383D01*
X1929626Y1996501D02*
X2007382D01*
X1929631Y1940701D02*
X2007376D01*
X1947866Y1968601D02*
X1961998D01*
X1908980Y1975801D02*
X1961482D01*
X1954187Y1961401D02*
X1961174D01*
X1949056Y1967701D02*
X1961129D01*
X1908980Y1969501D02*
X1960881D01*
X1908980Y1974901D02*
X1960408D01*
X1953287Y1962301D02*
X1960258D01*
X1949736Y1966801D02*
X1960235D01*
X1908980Y1970401D02*
X1960106D01*
X1908980Y1974001D02*
X1959853D01*
X1952387Y1963201D02*
X1959773D01*
X1950142Y1965901D02*
X1959761D01*
X1908980Y1971301D02*
X1959696D01*
X1908980Y1973101D02*
X1959580D01*
X1951487Y1964101D02*
X1959552D01*
X1950587Y1965001D02*
X1959548D01*
X1908980Y1972201D02*
X1959531D01*
X1924960Y1950601D02*
X1952886D01*
X1923658Y1951501D02*
X1951495D01*
X1921830Y1952401D02*
X1950593D01*
X1908980Y1953301D02*
X1949693D01*
X1908980Y1954201D02*
X1948793D01*
X1908980Y1955101D02*
X1947893D01*
X1908980Y1956001D02*
X1946993D01*
X1908980Y1956901D02*
X1946093D01*
X1908980Y1957801D02*
X1945193D01*
X1908980Y1958701D02*
X1944293D01*
X1908980Y1959601D02*
X1943393D01*
X1908980Y1968601D02*
X1941897D01*
X1908980Y1960501D02*
X1941432D01*
X1908980Y1967701D02*
X1940707D01*
X1908980Y1961401D02*
X1940456D01*
X1908980Y1966801D02*
X1940028D01*
X1908980Y1962301D02*
X1939875D01*
X1908980Y1965901D02*
X1939622D01*
X1908980Y1963201D02*
X1939538D01*
X1908980Y1965001D02*
X1939419D01*
X1908980Y1964101D02*
X1939392D01*
X1908980Y1983901D02*
X1915412D01*
X1908980Y1952401D02*
X1912815D01*
X1908980Y1984801D02*
X1912350D01*
X1908980Y1951501D02*
X1910988D01*
X1908980Y1985701D02*
X1910675D01*
X1909321Y1950601D02*
X1909640D01*
G54D17*
X1944882Y1964409D02*
X1954567Y1954724D01*
X1964173*
X1944882Y1974409D02*
X1952756Y1982283D01*
X1964173*
G54D18*
X1915354Y1962598D03*
X1927165D03*
X2007874D03*
X2021654D03*
X1915354Y1976378D03*
X1927165D03*
X2007874D03*
X2021654D03*
G54D26*
X1973819Y1942638D03*
Y1994370D03*
G54D29*
X1964173Y1964567D03*
Y1972441D03*
Y1982283D03*
G74*
X0Y0D02*
M02*
